<svg xmlns:inkscape="http://www.inkscape.org/namespaces/inkscape" xmlns:sodipodi="http://sodipodi.sourceforge.net/DTD/sodipodi-0.dtd" xmlns="http://www.w3.org/2000/svg" xmlns:svg="http://www.w3.org/2000/svg" width="440mm" height="300mm" viewBox="0 0 440 300" version="1.1" id="SVGRoot" sodipodi:docname="map.svg" inkscape:version="1.1.1 (3bf5ae0d25, 2021-09-20)">
  <sodipodi:namedview id="namedview345" pagecolor="#ffffff" bordercolor="#666666" borderopacity="1.0" inkscape:pageshadow="2" inkscape:pageopacity="0.0" inkscape:pagecheckerboard="0" inkscape:document-units="mm" showgrid="false" inkscape:zoom="0.22716751" inkscape:cx="464.41501" inkscape:cy="187.08661" inkscape:window-width="1280" inkscape:window-height="737" inkscape:window-x="-8" inkscape:window-y="-8" inkscape:window-maximized="1" inkscape:current-layer="layer1"/>
  <defs id="defs340"/>
  <g inkscape:label="Warstwa 1" inkscape:groupmode="layer" id="layer1">
    
    <path style="display:inline;fill:none;fill-opacity:1;fill-rule:evenodd;stroke:#ff0000;stroke-width:0.606375;enable-background:new" d="m 44.289717,72.408745 c -0.37899,-0.75797 -0.30319,0.0758 -0.5306,-1.21276 -0.22738,-1.28854 -0.68217,-1.13695 -1.06116,-1.51593 -0.37896,-0.37899 -0.90956,-0.45479 -0.68215,-1.13696 0.22738,-0.68217 0.37896,-0.68217 0.15158,-1.36434 -0.22738,-0.68218 -1.21274,-1.06116 -1.51593,-1.74333 -0.30319,-0.68217 -0.30319,-0.1516 -0.30319,-1.21275 0,-1.06116 0.30319,-1.21275 -0.60637,-1.51594 -0.90958,-0.30319 -1.51595,0.45478 -1.97072,-0.53058 -0.45479,-0.98536 -0.37899,-0.45478 -1.28855,-0.60638 -0.90958,-0.15159 -1.28854,-0.0758 -1.59173,-0.68217 -0.30319,-0.60637 -0.45479,-1.13695 -1.06117,-1.13695 -0.60637,0 -1.36435,-0.22739 -1.51593,-0.60638 -0.1516,-0.37898 -0.98536,-1.44014 -1.51595,-1.44014 -0.53057,0 -0.37899,0.37899 -1.21275,0.75797 -0.83375,0.37898 1.51593,0.75797 -0.30318,1.21275 -1.81912,0.45478 -2.6529,0.60638 -3.03189,0.30319 -0.37899,-0.30319 -1.74331,0.68217 -1.51593,-0.45478 0.22738,-1.13696 0.30319,-0.98536 0.68218,-1.28855 0.37899,-0.30319 1.44012,-0.37899 0.98536,-0.68217 -0.4548,-0.30319 -0.22739,-0.83377 -1.81915,-0.45479 -1.59173,0.37899 -2.04649,0.53058 -2.57709,0.90957 -0.53057,0.37898 -0.53057,1.13695 -0.75795,1.59173 -0.22741,0.45479 0.68217,0.30319 -1.06117,1.06116 -1.74334,0.75797 -0.83375,-0.37898 -2.65289,1.21275 -1.81912,1.59174 -1.21275,1.74333 -2.5771,1.97072 -1.36435,0.22739 -0.53057,0 -1.59173,1.13696 -1.06117,1.13695 -0.90956,1.66753 -1.97072,1.66753 -1.06117,0 -0.68218,1.89492 -1.6675395,0.60637 -0.98536,-1.28854 -1.66754,-0.75797 -0.90956,-1.36434 0.75798,-0.60638 0.90956,-0.45478 1.5159295,-0.60638 0.6064,-0.15159 0.30319,0.22739 0.98536,-0.75797 0.68218,-0.98536 0.5306,-1.36434 1.59174,-1.44014 1.06116,-0.0758 0.90958,0.90957 1.36435,-0.53058 0.45479,-1.44014 0,-1.36434 0.83378,-2.12231 0.83375,-0.75797 1.74331,-1.51594 0.68217,-1.59174 -1.06116,-0.0758 -1.13696,-0.30318 -2.12233,0.1516 -0.98536,0.45478 -1.06116,0.68217 -1.97072,0.53058 -0.90956,-0.1516 -1.13694,-0.22739 -1.13694,-0.60638 0,-0.37898 -0.37899,-1.59173 -0.37899,-1.59173 0,0 0.75798,-0.37899 -0.5305695,-0.68218 -1.28854,-0.30318 -1.36435,0.68218 -1.28854,-0.30318 0.0758,-0.98536 0.68214,-0.83377 0.15158,-1.28855 -0.53057,-0.45478 -0.68218,-0.75797 -1.36436,-0.45478 -0.68217,0.30318 -1.44012,1.06115 -0.98536,-0.0758 0.4548,-1.13695 1.36435,-1.59174 1.66754,-2.04652 0.30319,-0.45478 0.75798,-1.74333 0.90956,-2.4255 0.1516,-0.68217 -0.60637,-0.30319 0.30318,-0.98536 0.90959,-0.68217 0.5306,-0.83377 1.6675395,-0.75797 1.13697,0.0758 0.83378,0 1.59173,0.37899 0.75798,0.37898 0.98537,0.60637 1.44016,0.37898 0.45476,-0.22739 0.90956,-0.75797 1.21274,-1.13695 0.30319,-0.37899 0.68218,-0.60638 0.75798,-1.06116 0.0758,-0.45478 0.45477,-0.90956 -0.37899,-0.60638 -0.83375,0.30319 -0.53057,0.30319 -1.66754,0.53058 -1.13694,0.22739 -0.98536,1.06116 -1.44012,0.0758 -0.4548,-0.98536 -0.5306,-1.44014 -0.5306,-1.44014 0,0 -0.45476,0 -0.37899,-1.06116 0.0758,-1.06116 -0.68217,-2.80449 1.36435,-3.33507 2.04653,-0.53057 3.33508,-0.0758 3.41088,0.2274 0.0758,0.30318 -0.60637,0.60637 0.30319,0.68217 0.90955,0.0758 0.98536,0.30319 1.51593,-0.45478 0.53056,-0.75797 1.13696,-0.68218 0.53056,-0.98536 -0.60637,-0.30319 -1.13694,-0.22739 -1.44012,-0.83377 -0.30319,-0.60638 0,-0.75797 -0.30319,-1.59173 -0.30318,-0.83377 -0.30318,-0.98536 -0.75798,-1.59174 -0.45476,-0.60638 -1.66753,-1.51594 -0.15158,-1.89492 1.51593,-0.37899 3.10767,-0.75797 2.80874,-0.54268 0,0 1.71508,-1.92947 2.78702,-1.71509 1.07193,0.21439 2.35825,0 3.43019,-0.85754 1.07193,-0.85755 2.78701,-0.42878 2.78701,-0.42878 l 1.28633,1.07194 c 0,0 1.71508,1.71509 2.78701,1.07193 1.07193,-0.64316 1.07193,1.07193 3.00141,1.28632 1.92947,0.21438 2.78701,0.64315 4.71649,1.28631 0,0 0.53596,-0.21439 0.42878,0.53596 -0.10721,0.75036 -1.17914,18.5444 -0.85757,18.75879 l 0.0921,0.14832 4.54782,0.53057 c 0,0 0.0758,0.0758 0.37899,0.98536 0.30318,0.90957 0.53057,1.51594 1.21274,2.72869 0.68218,1.21276 0.0758,4.85101 0.0758,4.85101 l 1.21275,1.66753 c 0,0 0.98536,0.45478 1.36435,0.53058 0.37896,0.0758 0.22738,1.97072 0.15158,2.72869 -0.0758,0.75797 -0.98536,0.37898 -1.51593,0.53058 -0.5306,0.15159 -0.68218,1.44014 -0.75798,2.19811 -0.0758,0.75797 -1.43801,0.45607 -1.43801,0.45607 z" id="alaska" sodipodi:nodetypes="csssssssssssssssssssssssssssssssssssssscsssssssssssssssscsssssssssscssccsscssccssccssssc"/>
    </g>
</svg>