<svg xmlns:inkscape="http://www.inkscape.org/namespaces/inkscape" xmlns:sodipodi="http://sodipodi.sourceforge.net/DTD/sodipodi-0.dtd" xmlns="http://www.w3.org/2000/svg" xmlns:svg="http://www.w3.org/2000/svg" width="440mm" height="300mm" viewBox="0 0 440 300" version="1.1" id="SVGRoot" sodipodi:docname="map.svg" inkscape:version="1.1.1 (3bf5ae0d25, 2021-09-20)">
  <sodipodi:namedview id="namedview345" pagecolor="#ffffff" bordercolor="#666666" borderopacity="1.0" inkscape:pageshadow="2" inkscape:pageopacity="0.0" inkscape:pagecheckerboard="0" inkscape:document-units="mm" showgrid="false" inkscape:zoom="0.22716751" inkscape:cx="464.41501" inkscape:cy="187.08661" inkscape:window-width="1280" inkscape:window-height="737" inkscape:window-x="-8" inkscape:window-y="-8" inkscape:window-maximized="1" inkscape:current-layer="layer1"/>
  <defs id="defs340"/>
  <g inkscape:label="Warstwa 1" inkscape:groupmode="layer" id="layer1">
    
    <path id="central_america" style="display:inline;fill:none;fill-opacity:1;fill-rule:evenodd;stroke:#ff0000;stroke-width:0.606375;enable-background:new" d="m 50.050277,119.02385 c 0,0 0.37899,2.12231 1.06116,2.04652 0.68215,-0.0758 4.6994,-0.0758 4.6994,-0.0758 l 2.34971,1.28855 c 0,0 0.83376,1.44014 1.44013,1.44014 0.60637,0 5.3058,-0.30319 5.68478,0 0.37899,0.30319 1.74332,1.97072 2.42549,1.97072 0.68218,0 0.90956,0.37898 1.13697,0.68217 0.22738,0.30319 0.98536,0.90956 1.59173,0.83377 0.60638,-0.0758 2.5771,-0.22739 2.69079,0 0.0379,0.0758 0.11369,1.66753 0.11369,2.19811 0,0.53058 -0.45476,1.44014 -0.68217,2.4255 -0.22739,0.98536 -1.13694,1.66753 -1.13694,2.19811 0,0.53058 1.21274,1.28855 1.21274,1.28855 -0.30385,1.69346 -0.53734,3.31656 0.15161,4.01724 l 0.0758,1.36434 0.90959,1.59174 c 0,0 1.36432,1.97072 3.10766,1.44014 1.74334,-0.53058 0.90956,-0.1516 2.34971,-0.83377 1.44013,-0.68217 0.98536,0.75797 1.74332,-0.75797 0.75797,-1.51594 0.2274,-1.66753 1.06116,-1.97072 0.83375,-0.30318 0.37899,-0.60637 1.44015,-0.30318 1.06114,0.30318 0.0758,0.37898 1.44013,0.45478 1.36435,0.0758 1.51593,-1.44015 1.36435,0.30318 -0.15161,1.74333 -0.30319,1.81913 -0.45479,2.27391 -0.15158,0.45478 0.22741,-0.0758 -0.30319,0.90957 -0.53057,0.98536 -0.83375,1.06115 -1.21274,1.28854 -0.37899,0.22739 -0.60637,0.37899 -0.60637,1.06116 0,0.68217 0.15158,1.21275 -0.53057,1.51594 -0.68218,0.30319 -1.36435,-0.0758 -1.21277,0.75797 0.1516,0.83376 -0.0758,1.06115 0.53059,1.44014 0.60637,0.37898 1.06114,0.45478 1.44013,1.13696 0.37899,0.68217 0.53059,1.51593 0.37899,1.81912 -0.15161,0.30319 -0.0758,1.28855 -0.53057,1.51594 -0.45479,0.22739 -1.06117,0.0758 -1.06117,1.06116 0,0.98536 0.4548,1.74333 0,1.97072 -0.45479,0.22739 -1.21274,-0.30319 -1.36435,0.22739 -0.15158,0.53058 -0.22738,0.98536 -0.30318,1.44014 -0.0758,0.45478 -0.45479,0.53058 -0.45479,0.83377 0,0.30318 0,0.15159 0,0.98535 0,0.83377 -0.53057,1.36435 0.22741,1.51595 0.75795,0.15159 1.13694,0.37898 1.51593,0.15159 0.37898,-0.22739 0.83378,-0.30319 1.13696,-0.53058 0.30319,-0.22739 0.75795,-0.83377 1.21275,-0.83377 0.45476,0 1.36435,0.22739 1.36435,0.22739 0,0 0.45476,1.13696 0.37896,1.51594 -0.0758,0.37899 0.22741,0.30319 0.15161,1.21275 -0.0758,0.90957 -0.0758,1.59174 -0.22739,1.89493 -0.1516,0.30318 -0.37899,0.60637 -0.53059,0.90956 -0.15158,0.30319 0,0.30319 -0.15158,0.75797 -0.15161,0.45478 0.0758,1.13695 -0.30319,0.83377 -0.37899,-0.30319 -0.1516,-0.30319 -0.37899,-0.60638 -0.22738,-0.30319 -0.37899,-0.68217 -0.83378,-1.44014 -0.45476,-0.75797 -0.37896,-0.30319 -1.28855,-0.75797 -0.90955,-0.45478 -0.83375,-0.98536 -1.44012,-0.68217 -0.60637,0.30318 -0.37899,0.83376 -1.06117,0.37898 -0.68217,-0.45478 -0.90956,-0.45478 -1.28854,-1.06116 -0.37899,-0.60637 -0.30319,-0.53057 -0.53057,-0.98536 -0.22741,-0.45478 -0.83378,-0.15159 -0.83378,-0.98535 0,-0.83377 0.2274,-0.98537 0,-1.44015 -0.22739,-0.45478 -0.45477,-0.68217 -0.60638,-1.06115 -0.15158,-0.37899 -0.22738,-0.0758 -0.22738,-0.83377 0,-0.75797 0,-1.28855 0,-1.59174 0,-0.30318 -0.30319,-1.51594 -0.30319,-1.51594 l -0.37898,-0.75796 c 0,0 -0.0758,-0.0758 -0.37899,-0.53058 -0.30319,-0.45479 -0.30319,-0.22739 -0.53057,-0.98536 -0.22739,-0.75797 -0.75798,-1.66754 -0.90956,-2.27391 -0.15161,-0.60638 -0.98536,-1.36435 -3.48668,-2.27391 -2.50129,-0.90956 -2.34969,-1.13695 -4.47201,-1.59174 -2.12231,-0.45478 -2.88028,-0.83376 -2.88028,-1.74332 0,-0.90957 0,-1.21275 -0.53057,-1.51594 -0.5306,-0.30319 -1.06117,-0.37899 -0.83379,-0.90957 0.22741,-0.53058 0.60638,-0.60637 0.98537,-1.28854 0.37899,-0.68218 0.45479,-0.83377 0.45479,-1.36435 0,-0.53058 0.22738,-0.60637 -0.60637,-0.98536 -0.83379,-0.37898 -2.50132,-1.81913 -2.50132,-1.81913 0,0 0.98536,-0.22739 -1.13694,0.0758 -2.1223,0.30319 -2.27391,1.51594 -2.88028,0.75797 -0.60638,-0.75797 0.45476,-3.41086 -0.30319,-3.78984 -0.75798,-0.37899 -0.68217,0.15159 -1.13697,-0.83377 -0.45476,-0.98536 -0.0758,-1.81913 -0.30318,-2.6529 -0.22739,-0.83376 0,0.45479 -0.60637,-2.3497 -0.60638,-2.80448 0.53059,-2.04652 -0.83376,-3.63825 -1.36435,-1.59174 -3.03189,-1.44014 -3.18347,-2.72869 0,0 0.0379,-3.41086 -0.0758,-3.71405 z" sodipodi:nodetypes="csccssssscsssccccssssssssssssssssssssssssssscssssssssssssssssssccssssssssssscsssssssc"/>
    
  </g>
</svg>