<svg xmlns:inkscape="http://www.inkscape.org/namespaces/inkscape" xmlns:sodipodi="http://sodipodi.sourceforge.net/DTD/sodipodi-0.dtd" xmlns="http://www.w3.org/2000/svg" xmlns:svg="http://www.w3.org/2000/svg" width="440mm" height="300mm" viewBox="0 0 440 300" version="1.1" id="SVGRoot" sodipodi:docname="map.svg" inkscape:version="1.1.1 (3bf5ae0d25, 2021-09-20)">
  <sodipodi:namedview id="namedview345" pagecolor="#ffffff" bordercolor="#666666" borderopacity="1.0" inkscape:pageshadow="2" inkscape:pageopacity="0.0" inkscape:pagecheckerboard="0" inkscape:document-units="mm" showgrid="false" inkscape:zoom="0.22716751" inkscape:cx="464.41501" inkscape:cy="187.08661" inkscape:window-width="1280" inkscape:window-height="737" inkscape:window-x="-8" inkscape:window-y="-8" inkscape:window-maximized="1" inkscape:current-layer="layer1"/>
  <defs id="defs340"/>
  <g inkscape:label="Warstwa 1" inkscape:groupmode="layer" id="layer1">
    
    <path style="display:inline;fill:none;fill-opacity:1;fill-rule:evenodd;stroke:#ff0000;stroke-width:0.606375;marker-start:none;marker-mid:none;enable-background:new" d="m 150.17803,52.777335 c 0,0 0.37896,2.3497 -0.1516,3.33507 -0.53057,0.98535 -0.60638,0.45478 -0.90956,1.89492 -0.30319,1.44014 -0.0758,1.97072 -0.60637,2.80448 -0.5306,0.83377 -0.37899,-0.53057 -0.60638,1.66754 -0.22741,2.19811 -0.0758,2.72869 -0.60637,2.95608 -0.53059,0.22739 0.15158,1.06115 -0.75798,1.06115 -0.90956,0 -1.21274,0.60638 -1.44015,-0.22739 -0.22738,-0.83376 0.15161,-1.21275 -0.75795,-1.28854 -0.90959,-0.0758 -1.44016,0.98536 -1.59174,-0.0758 -0.1516,-1.06116 0.22739,-1.44014 -0.53059,-1.74333 -0.75795,-0.30319 0.75798,2.19811 -1.74331,-0.75797 -2.50132,-2.95608 -2.04653,-5.0026 -2.04653,-5.0026 0,0 -0.75798,-0.83376 -0.75798,-1.36434 0,-0.53058 0.5306,-2.19811 -0.15158,-3.10768 -0.68217,-0.90956 -1.36435,-2.72869 -0.53059,-3.25926 0.83378,-0.53058 1.66753,-0.37899 1.89494,-1.59174 0.22739,-1.21275 0.15158,-1.06116 0.30319,-1.66753 0.15158,-0.60638 0.45476,-0.83377 -0.15161,-0.90957 -0.60637,-0.0758 0,0.22739 -1.13694,-0.0758 -1.13697,-0.30319 -0.98536,-0.75797 -1.28855,-0.83377 -0.30321,-0.0758 0.22739,0.45478 -0.75797,0.0758 -0.98537,-0.37899 -1.74334,-0.68217 -0.68218,-1.06116 1.06116,-0.37898 1.74334,-0.53058 2.19811,-0.37898 0.45479,0.15159 0.68217,0.98536 0.53059,-0.1516 -0.15161,-1.13695 -2.6529,-1.74333 -2.6529,-2.5013 0,-0.75796 0,-0.60637 0,-1.36434 0,-0.75797 -0.1516,-1.13695 -0.75797,-1.74333 -0.60638,-0.60638 -0.4548,-0.60638 -0.60638,-1.59174 -0.1516,-0.98536 -0.1516,-0.90956 -0.68217,-1.51594 -0.53057,-0.60637 -0.60637,0.2274 -0.98536,-0.83376 -0.37899,-1.06116 -0.37899,-1.28855 -1.13694,-1.28855 -0.75798,0 -0.68218,0.45478 -1.28855,-0.37898 -0.6064,-0.83377 -0.45479,-0.98536 -1.44016,-0.90957 -0.98536,0.0758 -1.74333,0.53058 -1.89491,0.83377 -0.15161,0.30319 0.22738,0.60638 -0.75798,0.68217 -0.98536,0.0758 -1.21275,0.0758 -1.74332,0.0758 -0.53059,0 -1.06116,0.22739 -1.06116,-0.0758 0,0 -0.60637,-0.90956 -1.59173,-0.68217 -0.98536,0.22739 -1.21275,0.90956 -1.51596,0.15159 -0.30319,-0.75796 -0.90956,-0.68217 -0.98534,-1.06115 -0.0758,-0.37899 -0.98536,0.0758 -0.0758,-0.90957 0.90956,-0.98536 0.30319,-1.21275 1.44013,-1.13695 1.13697,0.0758 0.90956,0.15159 1.51596,-0.15159 0.60637,-0.30319 1.44012,-0.37899 0.60637,-0.45479 0,0 0.30318,-0.45478 -0.5306,-0.60637 -0.83375,-0.1516 -1.74331,0.30319 -1.74331,-0.30319 0,-0.60637 -0.75798,-1.28855 0.30319,-1.28855 1.06116,0 1.66753,0.30319 2.1981,-0.22739 0.53057,-0.53058 0.53057,-0.37898 1.28855,-0.30319 0.75798,0.0758 1.51593,0.45479 1.74334,-0.15159 0.22738,-0.60637 1.44012,-0.68217 0.45476,-0.98536 -0.98536,-0.30319 -1.51593,-0.22739 -1.28854,-0.68217 0.22741,-0.45478 0.83378,-0.53058 0.60637,-1.06116 -0.22739,-0.53058 -1.28855,-0.98536 0.22741,-1.06116 1.51593,-0.0758 2.27391,0.60638 2.50129,-0.22739 0.22738,-0.83376 -0.60637,-1.51593 0.75798,-1.51593 1.36432,0 2.80447,-0.68218 2.88028,-1.13696 0.0758,-0.45478 -0.30319,-0.98536 0.98536,-0.68217 1.28855,0.30318 1.06114,0.98536 1.74331,0.15159 0.68218,-0.83376 -0.0758,-1.06115 1.28855,-0.75797 1.36435,0.30319 1.51596,0.45479 2.04652,0.0758 0.53057,-0.37898 -0.45479,-0.53058 0.83376,-0.37898 1.28855,0.15159 1.06116,0.60637 1.28855,-0.53058 0.22741,-1.13696 -0.83376,-0.98536 0.45479,-1.28855 1.28855,-0.30319 1.36435,0 1.97072,-0.83377 0.60637,-0.83376 0.0758,-0.60637 1.21275,-0.83376 1.13696,-0.22739 1.28854,0 0.75797,-0.83377 -0.53056,-0.83377 -1.51593,-1.28855 0,-1.44014 1.51593,-0.1516 2.34972,-0.30319 2.5013,-0.75797 0,0 -0.0758,0.60637 0.83378,0.37898 0.90956,-0.22739 0.75795,-0.53057 1.28854,-1.2127502 0.53057,-0.68217 0.37897,-0.83376 0.90956,-0.45478 0.53057,0.37899 -0.0758,0.68217 1.28855,0 1.36435,-0.68217 0.30319,-0.68217 1.66754,-0.45478 1.36433,0.22739 1.28854,0.0758 2.88027,0.15159 1.59174,0.0758 0.75797,0.30319 1.66754,0.53058 0.90956,0.22739 0.68217,0.1516 1.81912,0.1516 1.13696,0 0.90957,-0.2274 1.59174,0.22739 0.68217,0.4547802 0.37898,0.5305802 1.74333,0.5305802 1.36434,0 1.74333,-0.37899 1.97072,0.45478 0.22739,0.83376 -0.37899,0.90956 1.28854,1.13695 1.66754,0.22739 2.19811,-0.0758 1.28855,0.60638 -0.90956,0.68217 -2.80448,0.75797 -2.27391,1.21275 0.53058,0.45478 0.45478,0.30318 -0.98536,0.60637 -1.44014,0.30319 -3.56245,0.60638 -1.81912,0.83377 1.74333,0.22739 2.95608,-0.53058 3.41086,0.22739 0.45478,0.75797 -0.60638,0.83377 1.36435,0.60637 1.97072,-0.22739 1.13695,-0.68217 2.72868,-0.37898 1.59174,0.30319 1.28855,0.75797 1.81913,-0.22739 0.53058,-0.98536 -0.90956,-1.51594 0.83377,-1.13695 1.74333,0.37898 1.36434,0.37898 2.4255,-0.2274 1.06116,-0.60637 1.21275,-1.81912 1.66753,-0.37898 0.45478,1.44014 0.37898,1.74333 -0.60637,2.19811 -0.98537,0.45478 -0.90957,-0.22739 -1.21276,0.83377 -0.30318,1.06116 -0.22739,1.36434 -0.98535,1.97072 -0.75798,0.60637 -1.13696,0.0758 -0.98537,1.13695 0.1516,1.06116 0.1516,0.90956 -0.0758,1.97072 -0.22739,1.06116 -0.75797,1.36435 -0.0758,1.97072 0.68217,0.60638 0.68217,0 1.13696,0.90957 0.45478,0.90956 0.68217,0.90956 0.22739,1.97072 -0.45479,1.06115 -0.53058,0.53057 -0.68218,1.81912 -0.15159,1.28855 -0.30319,2.04652 0.22739,1.66753 0.53058,-0.37898 0.60638,-1.44014 0.68218,-0.37898 0.0758,1.06116 0.37898,1.74333 -0.53058,2.12231 -0.90957,0.37899 -0.83377,-0.15159 -0.98536,0.60638 -0.1516,0.75797 0.37898,0.98536 -0.30319,1.59173 -0.68217,0.60638 -0.0758,1.21276 -0.83377,0.53058 -0.75797,-0.68217 -1.21275,-1.74333 -1.81912,-1.06115 -0.60638,0.68217 -1.44015,0.0758 -0.75797,0.90956 0.68217,0.83377 1.13695,0.60638 1.28854,0.90956 0.1516,0.30319 0.0758,0.60638 0.30319,1.06116 0.22739,0.45478 0.0758,0.68217 0.68218,0.60638 0.60637,-0.0758 0.83376,0.22739 0.68217,0.75797 -0.15159,0.53057 -0.22739,0.83376 0.22739,1.36434 0.45478,0.53058 0.60637,0.53058 0.22739,0.75797 -0.37899,0.22739 -0.45478,0.30319 -0.98536,0.60637 -0.53058,0.30319 -0.45478,0.75797 -0.75797,0.83377 -0.30319,0.0758 -0.90956,0.45478 -0.98536,-0.30319 -0.0758,-0.75797 -0.15159,-1.74333 -0.60637,-2.12231 -0.45479,-0.37899 -1.13696,-1.36435 -1.28855,-0.45478 -0.1516,0.90956 0,1.21275 -0.22739,1.66753 -0.22739,0.45478 -1.13696,-0.15159 -0.22739,0.60637 0.90956,0.75797 1.28854,0.98537 1.28854,0.98537 0,0 0.83377,0.45478 0.45479,0.83376 -0.37899,0.37898 0.0758,0.53058 -1.06116,0.68217 -1.13696,0.1516 -0.60638,-0.98536 -1.66753,0.22739 -1.06116,1.21276 -1.81913,1.51594 -1.81913,1.51594 l -0.53058,-0.60637 c 0,0 -0.45478,-1.28855 -0.60638,-0.45478 -0.15159,0.83376 0,0.75797 -0.60637,2.04651 -0.60638,1.28855 -0.30319,1.59174 -0.98536,1.66753 -0.68217,0.0758 -1.21275,-0.45478 -1.59174,0.0758 -0.37898,0.53058 0.1516,0.37899 -0.53057,0.90957 -0.68218,0.53057 -0.90957,0.60637 -1.36435,0.60637 -0.45478,0 0.22739,-1.28855 -0.68217,0.0758 -0.90957,1.36434 -0.37899,1.51594 -1.13696,1.66753 -0.75796,0.15159 -0.90956,0.15159 -1.59173,0.15159 -0.68218,0 -1.06115,0.0758 -1.74332,0.0758 -0.68218,0 -1.21277,0.0758 -1.66754,0.30319 -0.45479,0.22739 -0.90956,0.75797 -0.90956,0.75797 z" id="greenland" sodipodi:nodetypes="cssssssssssscsssssssssssssssssssssssscsssssss"/>
    </g>
</svg>