<?xml version="1.0" encoding="UTF-8" standalone="no"?>
<!-- Created with Inkscape (http://www.inkscape.org/) -->

<svg
   width="440mm"
   height="300mm"
   viewBox="0 0 440 300"
   version="1.1"
   id="SVGRoot"
   sodipodi:docname="map.svg"
   inkscape:version="1.1.1 (3bf5ae0d25, 2021-09-20)"
   xmlns:inkscape="http://www.inkscape.org/namespaces/inkscape"
   xmlns:sodipodi="http://sodipodi.sourceforge.net/DTD/sodipodi-0.dtd"
   xmlns="http://www.w3.org/2000/svg"
   xmlns:svg="http://www.w3.org/2000/svg">
  <sodipodi:namedview
     id="namedview345"
     pagecolor="#ffffff"
     bordercolor="#666666"
     borderopacity="1.0"
     inkscape:pageshadow="2"
     inkscape:pageopacity="0.0"
     inkscape:pagecheckerboard="0"
     inkscape:document-units="mm"
     showgrid="false"
     inkscape:zoom="0.22716751"
     inkscape:cx="464.41501"
     inkscape:cy="187.08661"
     inkscape:window-width="1280"
     inkscape:window-height="737"
     inkscape:window-x="-8"
     inkscape:window-y="-8"
     inkscape:window-maximized="1"
     inkscape:current-layer="layer1" />
  <defs
     id="defs340" />
  <g
     inkscape:label="Warstwa 1"
     inkscape:groupmode="layer"
     id="layer1">
    
    <path
       id="alberta"
       style="display:inline;overflow:visible;visibility:visible;fill:none;fill-opacity:1;fill-rule:evenodd;stroke:#ff0000;stroke-width:0.606375;marker:none;marker-start:none;marker-mid:none;marker-end:none;enable-background:accumulate"
       d="m 43.605427,55.732125 c 0,0 0.0758,0.0758 0.37899,0.98536 0.30318,0.90957 0.53057,1.51594 1.21274,2.72869 0.68218,1.21276 0.0758,4.85101 0.0758,4.85101 l 1.21275,1.66753 c 0,0 0.98536,0.45478 1.36435,0.53058 0.37896,0.0758 0.22738,1.97072 0.15158,2.72869 -0.0758,0.75797 -0.98536,0.37898 -1.51593,0.53058 -0.5306,0.15159 -0.68218,1.44014 -0.75798,2.19811 -0.0758,0.75797 -1.43801,0.45607 -1.43801,0.45607 0.37896,0.75796 1.13694,0.83376 1.44013,2.19811 0.30318,1.36434 0.1516,0.90956 0.53057,1.44014 0.37898,0.53058 1.06116,0.60637 1.21277,1.81912 0.15158,1.21276 0.15158,0.53058 0.98536,2.12232 0.83375,1.59173 0.0758,2.27391 0.22738,3.71405 0.15161,1.44014 0.90956,0.90956 1.44015,1.66753 l 0.22527,0.83248 29.10602,-0.0758 2.42551,-29.33341 c 0,0 -38.12587,-1.06116 -38.27745,-1.06116 z"
       sodipodi:nodetypes="cssccsssscsssssc" />
    <path
       id="eastern_united_states"
       style="display:inline;fill:none;fill-opacity:1;fill-rule:evenodd;stroke:#ff0000;stroke-width:0.606375;enable-background:new"
       d="m 87.791927,85.764045 3.80534,0.0536 c 0.42879,0.21439 0.21439,3.2158 0.21439,3.2158 0,0 2.03666,-1.07193 3.53738,-0.64316 1.50069,0.42877 2.89422,-1.92948 3.2158,-0.53597 0.32157,1.39352 1.07193,2.57264 1.3935,3.00141 0.321583,0.42878 0.428763,1.07193 1.071943,2.78702 0.64315,1.71509 0.96472,3.43018 0.53596,4.18052 -0.42878,0.75036 -1.607903,1.82229 -0.64317,2.358245 0.96475,0.53597 1.82229,1.39351 2.35825,1.92948 0.53597,0.53597 3.00141,-1.39351 2.8942,-2.143855 -0.10718,-0.75035 -0.42876,-1.28632 0.10721,-1.50071 0.53597,-0.21438 1.39351,0.1072 1.82229,-0.42877 0.42876,-0.53597 1.17912,-1.5007 1.82227,-1.39351 0.64317,0.1072 2.14386,-0.42877 2.14386,-0.42877 0,0 1.07194,-0.32158 1.07194,-0.85754 0,0 6.2172,-0.16079 7.18193,-0.75036 0.96475,-0.58956 1.07193,-0.48236 1.07193,-0.48236 0,0 -0.42879,-2.35825 -0.21439,-2.51904 0.21439,-0.16079 0.69675,-0.32157 1.12553,-0.75035 0.42876,-0.42877 1.08112,-0.45636 1.67069,-0.34917 0.58957,0.10719 2.72423,1.36751 2.45623,2.54663 -0.26797,1.17912 -1.17911,3.37658 -0.21436,3.43018 0.96472,0.0536 1.71508,-0.0536 1.87587,0.58956 0.16078,0.64316 0.32157,1.12552 0.64314,1.23272 0.32158,0.10719 1.44712,-0.32158 1.42796,-0.50492 -0.019,-0.18334 -0.45476,0.64427 -0.87164,1.40224 -0.41691,0.75796 -1.02328,1.326435 -1.02328,1.326435 -1.28855,0.53058 -1.51593,2.19811 -1.97072,1.51593 -0.45477,-0.68217 -1.06114,-0.68217 -0.53057,-1.66753 0.53057,-0.985355 0.90956,-0.833755 0.75798,-1.743325 -0.15161,-0.90956 0.45476,-0.98536 -0.30319,-1.06115 -0.75798,-0.0758 -0.37899,-0.0758 -1.28854,0.22739 -0.90959,0.30318 -0.83379,-0.68217 -1.59176,0.53058 -0.75796,1.21275 -0.98534,1.13695 -1.51593,1.44014 -0.53057,0.303175 -0.30319,0.682165 -0.68218,1.136945 -0.37899,0.45478 -0.53057,0.68217 -0.83375,1.06116 -0.30319,0.37898 -0.37899,0.37898 -0.37899,1.21275 0,0.83377 0.68217,2.19811 0.68217,2.19811 0,0 -0.37899,1.06116 -0.83378,1.28855 -0.45477,0.22739 -0.53057,-0.53058 -2.50129,1.74333 -1.97072,2.27391 -1.74331,2.5013 -2.95609,3.03187 -1.21274,0.53058 -1.06113,0.60638 -1.13694,0.90957 -0.0758,0.30319 -0.90955,0.68217 -0.45479,1.36434 0.45479,0.68218 0,0.83377 0.68218,1.13696 0.68217,0.30319 1.36435,-0.30319 1.28854,0.68217 -0.0758,0.98536 -0.83375,1.97072 -2.04652,2.72869 -1.21275,0.75797 -2.80448,3.10767 -4.39621,3.48666 -1.59174,0.37898 -2.27391,0.90956 -2.19811,1.66753 0.0758,0.75797 0,1.66753 -0.83378,1.66753 -0.83375,0 -0.30319,0.37899 -0.30319,2.19811 0,1.81913 0.15161,2.34971 0.5306,3.03188 0.37899,0.68217 0.53057,0.68217 0.53057,1.74333 0,1.06116 0,1.81913 -0.0758,2.12231 -0.0758,0.30319 0.60637,0.2274 -0.53057,0.90957 -1.13697,0.68217 -2.12233,1.06115 -2.5771,-0.0758 -0.45479,-1.13695 -1.36435,-0.83377 -1.44015,-1.74333 -0.0758,-0.90956 0.30318,-3.10767 0.30318,-3.10767 0,0 -1.13694,-0.30319 -1.28854,-0.90957 -0.15158,-0.60637 -0.606373,-2.04651 -0.909563,-2.2739 -0.30319,-0.22739 -0.90956,-0.75797 -1.51593,-0.45478 -0.60637,0.30318 -1.66754,0.90956 -2.04653,0.83376 -0.37899,-0.0758 0.5306,0.0758 -1.59173,-0.53058 -2.1223,-0.60637 -3.10766,-0.90956 -4.01722,-0.98536 -0.90959,-0.0758 -3.03189,-0.0758 -3.41088,0 -0.37899,0.0758 -4.01725,0.90957 -4.47201,0.90957 -0.45479,0 -3.63826,0.75796 -4.47202,1.44014 -0.83378,0.68217 -0.75797,1.81912 -1.66753,2.19811 -0.90956,0.37898 -1.21275,0.53058 -1.21275,0.53058 0,0 -0.90958,1.06115 -0.98536,1.66753 -0.0758,0.60638 -0.83378,1.66753 -1.21277,1.89492 -0.37896,0.22739 -0.45476,0.1516 -0.22738,0.83377 0,0 -1.21274,-0.75797 -1.21274,-1.28855 0,-0.53058 0.90955,-1.21275 1.13694,-2.19811 0.22741,-0.98536 0.68217,-1.89492 0.68217,-2.4255 0,-0.53058 -0.0758,-2.12232 -0.0758,-2.12232 0,0 -0.75795,-2.80448 -0.53057,-3.25926 0.22738,-0.45478 -0.83376,-0.60638 -0.83376,-0.60638 0,0 -0.37898,-1.13695 -0.0758,-1.51594 0.30319,-0.37898 1.44013,-0.37898 1.74331,-0.53058 0.30322,-0.15159 1.36435,-0.45478 1.36435,-0.45478 0,0 0.60638,-3.33506 0.60638,-3.71405 0,-0.37898 0.45479,-2.4255 0.45479,-2.80448 0,-0.37899 2.04652,-1.13696 2.34971,-1.28855 0.30319,-0.1516 1.36435,0.68217 1.44013,-0.1516 0.0758,-0.83376 0,-2.72868 0.0758,-3.25926 0.0758,-0.53058 0.30319,-0.90957 0.60637,-1.06116 0.30319,-0.15159 6.89753,-0.0758 7.20072,-0.37898 0.30318,-0.30319 -0.30319,-22.208505 0.22217,-22.496645 z"
       sodipodi:nodetypes="ccsssssssssssccccssssssscccsssssssssscsssssssssssssssssscsssssssssscsscc" />
    <path
       id="western_united_states"
       style="display:inline;fill:none;fill-opacity:1;fill-rule:evenodd;stroke:#ff0000;stroke-width:0.606375;enable-background:new"
       d="m 87.791927,85.764045 c -0.52536,0.28814 0.081,22.193455 -0.22217,22.496645 -0.30319,0.30318 -6.89753,0.22739 -7.20072,0.37898 -0.30318,0.15159 -0.53057,0.53058 -0.60637,1.06116 -0.0758,0.53058 0,2.4255 -0.0758,3.25926 -0.0758,0.83377 -1.13694,0 -1.44013,0.1516 -0.30319,0.15159 -2.34971,0.90956 -2.34971,1.28855 0,0.37898 -0.45479,2.4255 -0.45479,2.80448 0,0.37899 -0.60638,3.71405 -0.60638,3.71405 0,0 -1.06113,0.30319 -1.36435,0.45478 -0.30318,0.1516 -1.44012,0.1516 -1.74331,0.53058 -0.30318,0.37899 0.0758,1.51594 0.0758,1.51594 0,0 1.06114,0.1516 0.83376,0.60638 -0.22738,0.45478 0.53057,3.25926 0.45479,3.10767 -0.0758,-0.15159 -2.04652,0 -2.6529,0.0758 -0.60637,0.0758 -1.36435,-0.53058 -1.59173,-0.83377 -0.22741,-0.30319 -0.45479,-0.68217 -1.13697,-0.68217 -0.68217,0 -2.0465,-1.66753 -2.42549,-1.97072 -0.37898,-0.30319 -5.07841,0 -5.68478,0 -0.60637,0 -1.44013,-1.44014 -1.44013,-1.44014 l -2.34971,-1.28855 c 0,0 -4.01725,0 -4.6994,0.0758 -0.68217,0.0758 -1.06116,-2.04652 -1.06116,-2.04652 -0.30319,-1.28855 -0.45479,-0.98536 -0.45479,-2.12231 0,-1.13696 -1.74331,-3.33507 -2.5771,-4.54782 -0.83375,-1.21275 -0.83375,-4.47202 -0.68217,-5.30579 0.1516,-0.83376 -0.15158,-3.86564 0.37899,-5.15419 0.53057,-1.28855 0.53057,-3.107665 0.90956,-4.850995 0.37898,-1.74333 -0.0758,-1.36435 0.83378,-3.56246 0.90956,-2.19811 0.83375,-0.75797 0.98536,-2.65289 0.15158,-1.89492 0.75795,-0.75797 0.83375,-2.34971 0.0758,-1.59173 0.37899,-2.3497 -0.15158,-3.10767 0,0 -0.1516,0.45478 0.45477,0.60638 0.60637,0.15159 34.86658,0.37898 37.21108,-0.21235 z"
       sodipodi:nodetypes="cssssssscsscscsssssccscssssssssc" />
    <path
       id="quebec"
       style="display:inline;fill:none;fill-opacity:1;fill-rule:evenodd;stroke:#ff0000;stroke-width:0.606375;enable-background:new"
       d="m 108.10502,82.709035 c 0,0 0.42876,-2.25105 1.17912,-2.78701 0.75036,-0.53597 1.17911,-3.43018 0.85754,-4.07334 -0.32158,-0.64316 -0.85754,-0.85754 -0.42878,-1.82228 0.42878,-0.96474 0.21439,-2.57263 1.28632,-2.25105 1.07193,0.32157 2.14387,0.21438 2.35826,-0.53597 0.21439,-0.75035 -0.10721,-0.75035 0,-1.39351 0.10718,-0.64316 0.64315,-0.85755 1.07193,-0.96474 0.42876,-0.10719 0.75033,0.21439 0.42876,-1.28631 -0.32158,-1.50071 0,-0.85755 -0.42876,-1.92948 -0.42878,-1.07193 -0.10721,-0.42877 -0.53597,-1.39351 -0.42878,-0.96474 -0.75035,-2.46544 0.32158,-2.57263 1.07193,-0.1072 -0.10721,-1.39351 0.64315,-1.71509 0.75036,-0.32158 2.14386,0.10719 1.82229,-1.17912 -0.32158,-1.28632 -1.92947,-3.85895 -0.85754,-3.96615 1.0719,-0.10719 2.5962,0.43979 2.5962,0.43979 l 3.78983,0.22739 c 0,0 -0.37898,1.44014 0.75798,1.59173 1.13694,0.1516 1.28855,0.83377 1.66751,1.06116 0.37899,0.22739 0.98536,0.75797 0.83378,1.06116 -0.1516,0.30319 -0.1516,0.60637 -0.0758,1.13695 0.0758,0.53058 0.45479,1.28855 0.15161,1.44014 -0.30319,0.1516 -0.60637,0.60638 -0.5306,1.21276 0.0758,0.60637 0.30319,1.51593 0.30319,1.51593 0,0 0.6064,0.83377 1.36435,0.45479 0.75798,-0.37899 0.53059,-0.68218 1.51593,-1.13696 0.98536,-0.45478 0.98536,0.53058 1.59176,-0.45478 0.60637,-0.98536 0.53057,-1.13695 0.68215,-1.51594 0.1516,-0.37898 0.90958,-1.36434 1.51595,-1.06116 0.60638,0.30319 -0.19208,3.03126 0.45107,3.99599 0.64317,0.96474 1.51966,-0.35773 1.59543,0.0971 0.0758,0.45478 0.15161,0.98536 0.22741,1.36434 0.0758,0.37899 -0.45479,0.68218 0,1.28855 0.45477,0.60638 0.53057,0.75797 0.45477,1.21275 -0.0758,0.45478 0.22741,0.83377 0.22741,0.83377 0,0 0.83375,-0.75797 1.21274,0.15159 0.37899,0.90957 0.0758,1.44014 0.75798,1.44014 0.68215,0 1.44013,1.06116 1.44013,1.06116 l 0.30318,1.59174 1.74334,-1.21275 1.66754,0.53057 c 0,0 -2.31182,1.06116 -1.85703,2.16022 0.45479,1.09905 2.80448,-1.28855 2.76659,0.18949 -0.0379,1.47804 -0.30319,2.99398 -0.87167,3.06978 -0.56849,0.0758 -1.47804,0.56847 -1.55385,0.90956 -0.0758,0.34108 -1.13694,1.02326 -1.81911,1.17485 -0.68218,0.1516 0.37899,0.75797 -1.06117,0.98536 -1.44013,0.22739 -1.89492,0.15159 -2.1981,0.15159 -0.30319,0 -0.30319,0.30319 -0.68218,0.98537 -0.37899,0.68217 -0.0758,0.90956 -0.45476,1.21274 -0.37899,0.30319 1.36432,0 -0.98537,0.53058 -2.34971,0.53058 -2.7287,0.68218 -2.7287,0.68218 0,0 -0.1516,0.22739 -0.90955,0.22739 -0.75798,0 -1.06117,-0.37899 -1.06117,-0.37899 0,0 -0.15158,-0.37898 -1.21274,-0.37898 -1.06117,0 -2.04653,0.98536 -2.04653,0.98536 0,0 -0.30319,0.37898 -0.90956,0.45478 -0.60637,0.0758 -1.44015,0.83377 -1.44015,0.83377 0,0 -0.83376,0.22739 -0.60637,1.13695 0.22741,0.90956 1.06116,1.74333 1.59173,1.13695 0.5306,-0.60637 1.36435,-3.03187 2.50132,-2.80448 1.13694,0.22739 2.65287,0.68217 2.34968,2.3497 -0.30318,1.66754 -0.37896,1.36435 -0.15158,2.19811 0.22739,0.83377 0.75798,1.28855 0.68218,2.04652 -0.0758,0.75797 -0.75798,0.53058 0.0758,1.21275 0.83376,0.68217 1.74332,1.74333 2.0465,0.75797 0.30319,-0.98536 0.68218,-1.66753 1.06117,-1.51594 0.37898,0.1516 1.44012,-0.30319 0.68217,1.21275 -0.75798,1.51594 -0.60637,1.59174 -1.28855,2.04652 -0.68217,0.45478 -0.60637,-0.75797 -1.81914,1.06116 0.019,0.18333 -1.10638,0.61211 -1.42796,0.50491 -0.32157,-0.10719 -0.48236,-0.58956 -0.64314,-1.23271 -0.16079,-0.64316 -0.91115,-0.53597 -1.87587,-0.58956 -0.96475,-0.0536 -0.0536,-2.25107 0.21436,-3.43019 0.268,-1.17912 -1.86666,-2.43943 -2.45623,-2.54662 -0.58957,-0.10719 -1.24193,-0.0796 -1.67069,0.34917 -0.42878,0.42877 -0.91114,0.58956 -1.12553,0.75035 -0.2144,0.16079 0.21439,2.51904 0.21439,2.51904 0,0 -0.10718,-0.1072 -1.07193,0.48236 -0.96473,0.58957 -7.18193,0.75035 -7.18193,0.75035 0,-0.53596 0,-2.35824 -0.64315,-2.25105 -0.64318,0.1072 -0.53597,0.42878 -0.96475,0.1072 -0.42879,-0.32158 -0.53597,-0.75036 -0.96473,-0.32158 -0.42878,0.42877 -0.21439,1.3935 -0.64317,1.28631 -0.42876,-0.10719 -1.07194,-1.07193 -1.50069,-0.96473 -0.42879,0.10719 -1.07194,0.96473 -1.07194,0.96473 0,0 0.2144,-10.29053 0.64315,-11.46966 z"
       sodipodi:nodetypes="cssssssssssssssccsssssscsssssssssscssccccsssssssssscscscscssssssssssscssssssscscsssssccc" />
    <path
       style="display:inline;fill:none;fill-opacity:1;fill-rule:evenodd;stroke:#ff0000;stroke-width:0.606375;enable-background:new"
       d="m 44.289717,72.408745 c -0.37899,-0.75797 -0.30319,0.0758 -0.5306,-1.21276 -0.22738,-1.28854 -0.68217,-1.13695 -1.06116,-1.51593 -0.37896,-0.37899 -0.90956,-0.45479 -0.68215,-1.13696 0.22738,-0.68217 0.37896,-0.68217 0.15158,-1.36434 -0.22738,-0.68218 -1.21274,-1.06116 -1.51593,-1.74333 -0.30319,-0.68217 -0.30319,-0.1516 -0.30319,-1.21275 0,-1.06116 0.30319,-1.21275 -0.60637,-1.51594 -0.90958,-0.30319 -1.51595,0.45478 -1.97072,-0.53058 -0.45479,-0.98536 -0.37899,-0.45478 -1.28855,-0.60638 -0.90958,-0.15159 -1.28854,-0.0758 -1.59173,-0.68217 -0.30319,-0.60637 -0.45479,-1.13695 -1.06117,-1.13695 -0.60637,0 -1.36435,-0.22739 -1.51593,-0.60638 -0.1516,-0.37898 -0.98536,-1.44014 -1.51595,-1.44014 -0.53057,0 -0.37899,0.37899 -1.21275,0.75797 -0.83375,0.37898 1.51593,0.75797 -0.30318,1.21275 -1.81912,0.45478 -2.6529,0.60638 -3.03189,0.30319 -0.37899,-0.30319 -1.74331,0.68217 -1.51593,-0.45478 0.22738,-1.13696 0.30319,-0.98536 0.68218,-1.28855 0.37899,-0.30319 1.44012,-0.37899 0.98536,-0.68217 -0.4548,-0.30319 -0.22739,-0.83377 -1.81915,-0.45479 -1.59173,0.37899 -2.04649,0.53058 -2.57709,0.90957 -0.53057,0.37898 -0.53057,1.13695 -0.75795,1.59173 -0.22741,0.45479 0.68217,0.30319 -1.06117,1.06116 -1.74334,0.75797 -0.83375,-0.37898 -2.65289,1.21275 -1.81912,1.59174 -1.21275,1.74333 -2.5771,1.97072 -1.36435,0.22739 -0.53057,0 -1.59173,1.13696 -1.06117,1.13695 -0.90956,1.66753 -1.97072,1.66753 -1.06117,0 -0.68218,1.89492 -1.6675395,0.60637 -0.98536,-1.28854 -1.66754,-0.75797 -0.90956,-1.36434 0.75798,-0.60638 0.90956,-0.45478 1.5159295,-0.60638 0.6064,-0.15159 0.30319,0.22739 0.98536,-0.75797 0.68218,-0.98536 0.5306,-1.36434 1.59174,-1.44014 1.06116,-0.0758 0.90958,0.90957 1.36435,-0.53058 0.45479,-1.44014 0,-1.36434 0.83378,-2.12231 0.83375,-0.75797 1.74331,-1.51594 0.68217,-1.59174 -1.06116,-0.0758 -1.13696,-0.30318 -2.12233,0.1516 -0.98536,0.45478 -1.06116,0.68217 -1.97072,0.53058 -0.90956,-0.1516 -1.13694,-0.22739 -1.13694,-0.60638 0,-0.37898 -0.37899,-1.59173 -0.37899,-1.59173 0,0 0.75798,-0.37899 -0.5305695,-0.68218 -1.28854,-0.30318 -1.36435,0.68218 -1.28854,-0.30318 0.0758,-0.98536 0.68214,-0.83377 0.15158,-1.28855 -0.53057,-0.45478 -0.68218,-0.75797 -1.36436,-0.45478 -0.68217,0.30318 -1.44012,1.06115 -0.98536,-0.0758 0.4548,-1.13695 1.36435,-1.59174 1.66754,-2.04652 0.30319,-0.45478 0.75798,-1.74333 0.90956,-2.4255 0.1516,-0.68217 -0.60637,-0.30319 0.30318,-0.98536 0.90959,-0.68217 0.5306,-0.83377 1.6675395,-0.75797 1.13697,0.0758 0.83378,0 1.59173,0.37899 0.75798,0.37898 0.98537,0.60637 1.44016,0.37898 0.45476,-0.22739 0.90956,-0.75797 1.21274,-1.13695 0.30319,-0.37899 0.68218,-0.60638 0.75798,-1.06116 0.0758,-0.45478 0.45477,-0.90956 -0.37899,-0.60638 -0.83375,0.30319 -0.53057,0.30319 -1.66754,0.53058 -1.13694,0.22739 -0.98536,1.06116 -1.44012,0.0758 -0.4548,-0.98536 -0.5306,-1.44014 -0.5306,-1.44014 0,0 -0.45476,0 -0.37899,-1.06116 0.0758,-1.06116 -0.68217,-2.80449 1.36435,-3.33507 2.04653,-0.53057 3.33508,-0.0758 3.41088,0.2274 0.0758,0.30318 -0.60637,0.60637 0.30319,0.68217 0.90955,0.0758 0.98536,0.30319 1.51593,-0.45478 0.53056,-0.75797 1.13696,-0.68218 0.53056,-0.98536 -0.60637,-0.30319 -1.13694,-0.22739 -1.44012,-0.83377 -0.30319,-0.60638 0,-0.75797 -0.30319,-1.59173 -0.30318,-0.83377 -0.30318,-0.98536 -0.75798,-1.59174 -0.45476,-0.60638 -1.66753,-1.51594 -0.15158,-1.89492 1.51593,-0.37899 3.10767,-0.75797 2.80874,-0.54268 0,0 1.71508,-1.92947 2.78702,-1.71509 1.07193,0.21439 2.35825,0 3.43019,-0.85754 1.07193,-0.85755 2.78701,-0.42878 2.78701,-0.42878 l 1.28633,1.07194 c 0,0 1.71508,1.71509 2.78701,1.07193 1.07193,-0.64316 1.07193,1.07193 3.00141,1.28632 1.92947,0.21438 2.78701,0.64315 4.71649,1.28631 0,0 0.53596,-0.21439 0.42878,0.53596 -0.10721,0.75036 -1.17914,18.5444 -0.85757,18.75879 l 0.0921,0.14832 4.54782,0.53057 c 0,0 0.0758,0.0758 0.37899,0.98536 0.30318,0.90957 0.53057,1.51594 1.21274,2.72869 0.68218,1.21276 0.0758,4.85101 0.0758,4.85101 l 1.21275,1.66753 c 0,0 0.98536,0.45478 1.36435,0.53058 0.37896,0.0758 0.22738,1.97072 0.15158,2.72869 -0.0758,0.75797 -0.98536,0.37898 -1.51593,0.53058 -0.5306,0.15159 -0.68218,1.44014 -0.75798,2.19811 -0.0758,0.75797 -1.43801,0.45607 -1.43801,0.45607 z"
       id="alaska"
       sodipodi:nodetypes="csssssssssssssssssssssssssssssssssssssscsssssssssssssssscsssssssssscssccsscssccssccssssc" />
    <path
       style="display:inline;fill:none;fill-opacity:1;fill-rule:evenodd;stroke:#ff0000;stroke-width:0.606375;enable-background:new"
       d="m 91.918847,58.697795 c -0.42876,1.5007 -0.64315,5.57404 -0.64315,5.57404 l 1.07193,0.85754 c 0,0 0.85754,1.50071 1.92947,2.57264 1.07194,1.07193 1.71509,3.21579 3.43019,2.78702 1.71509,-0.42877 2.358243,1.5007 2.358243,1.5007 l 1.28632,-0.85754 c 0,0 1.28633,-0.75036 1.50069,-0.32158 0.21439,0.42877 1.50072,0.85754 1.50072,0.85754 0,0 1.28632,-0.75035 2.46544,-0.85754 1.17911,-0.1072 0.21439,0.96474 0.21439,0.96474 l -2.46544,1.17912 c 0,0 0.53597,1.60789 1.17911,1.39351 0.64315,-0.21439 0.96473,2.46544 0.2144,3.00141 -0.75036,0.53596 0.21436,1.60789 0.21436,1.60789 l 0.42879,1.5007 1.17911,0.85754 0.3216,1.39351 h -0.10721 c -0.42875,1.17913 -0.64315,11.46966 -0.64315,11.46966 0,0 0.64315,-0.85754 1.07194,-0.96473 0.42875,-0.1072 1.07193,0.85754 1.50069,0.96473 0.42878,0.10719 0.21439,-0.85754 0.64317,-1.28631 0.42876,-0.42878 0.53594,0 0.96473,0.32158 0.42878,0.32158 0.32157,0 0.96475,-0.1072 0.64315,-0.10719 0.64315,1.71509 0.64315,2.25105 0,0.53597 -1.07194,0.85755 -1.07194,0.85755 0,0 -1.50069,0.53597 -2.14386,0.42877 -0.64315,-0.10719 -1.39351,0.85754 -1.82227,1.39351 -0.42878,0.53597 -1.28632,0.21439 -1.82229,0.42877 -0.53597,0.21439 -0.21439,0.75035 -0.10721,1.50071 0.10721,0.750345 -2.35823,2.679815 -2.8942,2.143855 -0.53596,-0.53597 -1.3935,-1.39351 -2.35825,-1.92948 -0.964733,-0.535955 0.21439,-1.607885 0.64317,-2.358245 0.42876,-0.75034 0.10719,-2.46544 -0.53596,-4.18053 -0.64318,-1.71508 -0.75036,-2.35824 -1.071943,-2.78701 -0.32157,-0.42878 -1.07193,-1.6079 -1.3935,-3.00141 -0.32158,-1.39351 -1.71511,0.96474 -3.2158,0.53597 -1.50072,-0.42877 -3.53738,0.64316 -3.53738,0.64316 0,0 0.2144,-3.00141 -0.21439,-3.2158 -0.42876,-0.21438 -12.00563,0.21439 -12.00563,0.21439 0,0 0,-0.32158 0,-1.71509 0,-1.39351 2.35826,-27.54861 2.35826,-27.54861 l 11.14809,0.32158 z"
       id="ontario"
       sodipodi:nodetypes="cccssccscsccsscccc" />
    <path
       style="display:inline;fill:none;fill-opacity:1;fill-rule:evenodd;stroke:#ff0000;stroke-width:0.606375;enable-background:new"
       d="m 93.003557,57.139805 c 0.42878,-1.5007 5.34688,-6.15991 5.34688,-6.15991 0,0 1.929483,-0.21438 2.787023,-0.85754 0.85754,-0.64316 -1.07193,-2.57264 -1.07193,-2.57264 l 0.42878,-1.28631 1.2863,1.07193 c 0,0 0.42878,0.85754 1.71511,0.85754 1.28629,0 0.85754,-1.28631 1.71508,-1.5007 0.85754,-0.21438 1.71508,-2.35825 1.71508,-2.35825 0,0 1.71511,0.64316 3.43019,-1.07192 1.71508,-1.7151 0.42876,-0.85755 0,-1.7151 -0.42878,-0.85754 0.42876,-1.50069 0.42876,-1.50069 l -1.2863,-0.42878 c 0,0 0.85754,-0.64316 0,-1.92947 -0.85754,-1.28632 -1.07193,0.64315 -1.92947,1.28631 -0.85757,0.64316 -0.64318,1.28632 -3.00141,0.85754 -2.35826,-0.42876 0,-1.28631 -0.21439,-2.14385 -0.21439,-0.85755 -2.57265,0.42877 -3.00141,-0.85755 -0.42878,-1.28632 -1.07193,0.64316 -0.85754,-0.64316 0.21436,-1.28632 -0.21439,-3.21579 -1.071933,-3.64456 -0.85754,-0.42877 1.715083,-4.50211 1.715083,-4.50211 0,0 1.71508,0.85754 1.92947,-0.64316 0.21439,-1.5007 1.07194,-1.28631 1.07194,-2.14386 0,-0.85754 -2.14387,-0.21438 -2.14387,-0.21438 l -0.42876,1.71509 c 0,0 -2.572653,-1.92949 -2.572653,0 0,1.92947 -0.85754,1.92947 -2.14386,4.5021 -1.2863,2.57264 -0.21437,4.07334 -0.21437,4.07334 0,0 1.2863,0.42877 0.85754,1.71509 -0.42878,1.28631 -3.0014,1.07193 -3.0014,1.07193 l -0.2144,-2.35825 h -1.71508 c 0,0 -0.21439,2.35825 0,3.21579 0.21439,0.85754 -4.71649,0.21439 -6.00281,-0.85754 -1.28633,-1.07193 -2.78702,0.85754 -4.07334,1.5007 -1.28633,0.64316 -2.35823,0.21438 -3.64456,-0.21438 -1.28632,-0.42878 -0.64315,1.71508 -3.43019,1.5007 -2.78701,-0.21439 -1.2863,-3.85895 -1.92947,-2.57264 -0.64315,1.28632 -3.43017,-1.07193 -4.93088,-2.35824 -1.50069,-1.28632 -4.28771,-0.85755 -4.28771,-0.85755 l -0.21439,-1.5007 h -1.50072 l -1.92947,0.42877 c 0,0 -1.50069,0.64316 -2.78702,0.42878 -1.28632,-0.21439 -1.07193,1.07192 -1.07193,1.07192 0,0 -1.50069,0.64316 -3.43016,0.42878 -1.92948,-0.21439 -1.71508,0.64315 -2.57265,1.28631 -0.85754,0.64316 -3.85895,-0.85754 -5.78842,-1.71509 -1.92948,-0.85754 -3.18979,0.93335 -5.11927,0.29019 0,0 -1.01671,18.98957 -0.86511,19.44435 0.15158,0.45478 50.10177,1.81912 52.60309,1.74333 2.50129,-0.0758 1.41655,0.11784 1.41655,0.11784 z"
       id="northwest_territory"
       sodipodi:nodetypes="cssscsccccssssssscccscssccsscsssssssccsscsscccsccssc" />
    <path
       style="display:inline;fill:none;fill-opacity:1;fill-rule:evenodd;stroke:#ff0000;stroke-width:0.606375;marker-start:none;marker-mid:none;enable-background:new"
       d="m 150.17803,52.777335 c 0,0 0.37896,2.3497 -0.1516,3.33507 -0.53057,0.98535 -0.60638,0.45478 -0.90956,1.89492 -0.30319,1.44014 -0.0758,1.97072 -0.60637,2.80448 -0.5306,0.83377 -0.37899,-0.53057 -0.60638,1.66754 -0.22741,2.19811 -0.0758,2.72869 -0.60637,2.95608 -0.53059,0.22739 0.15158,1.06115 -0.75798,1.06115 -0.90956,0 -1.21274,0.60638 -1.44015,-0.22739 -0.22738,-0.83376 0.15161,-1.21275 -0.75795,-1.28854 -0.90959,-0.0758 -1.44016,0.98536 -1.59174,-0.0758 -0.1516,-1.06116 0.22739,-1.44014 -0.53059,-1.74333 -0.75795,-0.30319 0.75798,2.19811 -1.74331,-0.75797 -2.50132,-2.95608 -2.04653,-5.0026 -2.04653,-5.0026 0,0 -0.75798,-0.83376 -0.75798,-1.36434 0,-0.53058 0.5306,-2.19811 -0.15158,-3.10768 -0.68217,-0.90956 -1.36435,-2.72869 -0.53059,-3.25926 0.83378,-0.53058 1.66753,-0.37899 1.89494,-1.59174 0.22739,-1.21275 0.15158,-1.06116 0.30319,-1.66753 0.15158,-0.60638 0.45476,-0.83377 -0.15161,-0.90957 -0.60637,-0.0758 0,0.22739 -1.13694,-0.0758 -1.13697,-0.30319 -0.98536,-0.75797 -1.28855,-0.83377 -0.30321,-0.0758 0.22739,0.45478 -0.75797,0.0758 -0.98537,-0.37899 -1.74334,-0.68217 -0.68218,-1.06116 1.06116,-0.37898 1.74334,-0.53058 2.19811,-0.37898 0.45479,0.15159 0.68217,0.98536 0.53059,-0.1516 -0.15161,-1.13695 -2.6529,-1.74333 -2.6529,-2.5013 0,-0.75796 0,-0.60637 0,-1.36434 0,-0.75797 -0.1516,-1.13695 -0.75797,-1.74333 -0.60638,-0.60638 -0.4548,-0.60638 -0.60638,-1.59174 -0.1516,-0.98536 -0.1516,-0.90956 -0.68217,-1.51594 -0.53057,-0.60637 -0.60637,0.2274 -0.98536,-0.83376 -0.37899,-1.06116 -0.37899,-1.28855 -1.13694,-1.28855 -0.75798,0 -0.68218,0.45478 -1.28855,-0.37898 -0.6064,-0.83377 -0.45479,-0.98536 -1.44016,-0.90957 -0.98536,0.0758 -1.74333,0.53058 -1.89491,0.83377 -0.15161,0.30319 0.22738,0.60638 -0.75798,0.68217 -0.98536,0.0758 -1.21275,0.0758 -1.74332,0.0758 -0.53059,0 -1.06116,0.22739 -1.06116,-0.0758 0,0 -0.60637,-0.90956 -1.59173,-0.68217 -0.98536,0.22739 -1.21275,0.90956 -1.51596,0.15159 -0.30319,-0.75796 -0.90956,-0.68217 -0.98534,-1.06115 -0.0758,-0.37899 -0.98536,0.0758 -0.0758,-0.90957 0.90956,-0.98536 0.30319,-1.21275 1.44013,-1.13695 1.13697,0.0758 0.90956,0.15159 1.51596,-0.15159 0.60637,-0.30319 1.44012,-0.37899 0.60637,-0.45479 0,0 0.30318,-0.45478 -0.5306,-0.60637 -0.83375,-0.1516 -1.74331,0.30319 -1.74331,-0.30319 0,-0.60637 -0.75798,-1.28855 0.30319,-1.28855 1.06116,0 1.66753,0.30319 2.1981,-0.22739 0.53057,-0.53058 0.53057,-0.37898 1.28855,-0.30319 0.75798,0.0758 1.51593,0.45479 1.74334,-0.15159 0.22738,-0.60637 1.44012,-0.68217 0.45476,-0.98536 -0.98536,-0.30319 -1.51593,-0.22739 -1.28854,-0.68217 0.22741,-0.45478 0.83378,-0.53058 0.60637,-1.06116 -0.22739,-0.53058 -1.28855,-0.98536 0.22741,-1.06116 1.51593,-0.0758 2.27391,0.60638 2.50129,-0.22739 0.22738,-0.83376 -0.60637,-1.51593 0.75798,-1.51593 1.36432,0 2.80447,-0.68218 2.88028,-1.13696 0.0758,-0.45478 -0.30319,-0.98536 0.98536,-0.68217 1.28855,0.30318 1.06114,0.98536 1.74331,0.15159 0.68218,-0.83376 -0.0758,-1.06115 1.28855,-0.75797 1.36435,0.30319 1.51596,0.45479 2.04652,0.0758 0.53057,-0.37898 -0.45479,-0.53058 0.83376,-0.37898 1.28855,0.15159 1.06116,0.60637 1.28855,-0.53058 0.22741,-1.13696 -0.83376,-0.98536 0.45479,-1.28855 1.28855,-0.30319 1.36435,0 1.97072,-0.83377 0.60637,-0.83376 0.0758,-0.60637 1.21275,-0.83376 1.13696,-0.22739 1.28854,0 0.75797,-0.83377 -0.53056,-0.83377 -1.51593,-1.28855 0,-1.44014 1.51593,-0.1516 2.34972,-0.30319 2.5013,-0.75797 0,0 -0.0758,0.60637 0.83378,0.37898 0.90956,-0.22739 0.75795,-0.53057 1.28854,-1.2127502 0.53057,-0.68217 0.37897,-0.83376 0.90956,-0.45478 0.53057,0.37899 -0.0758,0.68217 1.28855,0 1.36435,-0.68217 0.30319,-0.68217 1.66754,-0.45478 1.36433,0.22739 1.28854,0.0758 2.88027,0.15159 1.59174,0.0758 0.75797,0.30319 1.66754,0.53058 0.90956,0.22739 0.68217,0.1516 1.81912,0.1516 1.13696,0 0.90957,-0.2274 1.59174,0.22739 0.68217,0.4547802 0.37898,0.5305802 1.74333,0.5305802 1.36434,0 1.74333,-0.37899 1.97072,0.45478 0.22739,0.83376 -0.37899,0.90956 1.28854,1.13695 1.66754,0.22739 2.19811,-0.0758 1.28855,0.60638 -0.90956,0.68217 -2.80448,0.75797 -2.27391,1.21275 0.53058,0.45478 0.45478,0.30318 -0.98536,0.60637 -1.44014,0.30319 -3.56245,0.60638 -1.81912,0.83377 1.74333,0.22739 2.95608,-0.53058 3.41086,0.22739 0.45478,0.75797 -0.60638,0.83377 1.36435,0.60637 1.97072,-0.22739 1.13695,-0.68217 2.72868,-0.37898 1.59174,0.30319 1.28855,0.75797 1.81913,-0.22739 0.53058,-0.98536 -0.90956,-1.51594 0.83377,-1.13695 1.74333,0.37898 1.36434,0.37898 2.4255,-0.2274 1.06116,-0.60637 1.21275,-1.81912 1.66753,-0.37898 0.45478,1.44014 0.37898,1.74333 -0.60637,2.19811 -0.98537,0.45478 -0.90957,-0.22739 -1.21276,0.83377 -0.30318,1.06116 -0.22739,1.36434 -0.98535,1.97072 -0.75798,0.60637 -1.13696,0.0758 -0.98537,1.13695 0.1516,1.06116 0.1516,0.90956 -0.0758,1.97072 -0.22739,1.06116 -0.75797,1.36435 -0.0758,1.97072 0.68217,0.60638 0.68217,0 1.13696,0.90957 0.45478,0.90956 0.68217,0.90956 0.22739,1.97072 -0.45479,1.06115 -0.53058,0.53057 -0.68218,1.81912 -0.15159,1.28855 -0.30319,2.04652 0.22739,1.66753 0.53058,-0.37898 0.60638,-1.44014 0.68218,-0.37898 0.0758,1.06116 0.37898,1.74333 -0.53058,2.12231 -0.90957,0.37899 -0.83377,-0.15159 -0.98536,0.60638 -0.1516,0.75797 0.37898,0.98536 -0.30319,1.59173 -0.68217,0.60638 -0.0758,1.21276 -0.83377,0.53058 -0.75797,-0.68217 -1.21275,-1.74333 -1.81912,-1.06115 -0.60638,0.68217 -1.44015,0.0758 -0.75797,0.90956 0.68217,0.83377 1.13695,0.60638 1.28854,0.90956 0.1516,0.30319 0.0758,0.60638 0.30319,1.06116 0.22739,0.45478 0.0758,0.68217 0.68218,0.60638 0.60637,-0.0758 0.83376,0.22739 0.68217,0.75797 -0.15159,0.53057 -0.22739,0.83376 0.22739,1.36434 0.45478,0.53058 0.60637,0.53058 0.22739,0.75797 -0.37899,0.22739 -0.45478,0.30319 -0.98536,0.60637 -0.53058,0.30319 -0.45478,0.75797 -0.75797,0.83377 -0.30319,0.0758 -0.90956,0.45478 -0.98536,-0.30319 -0.0758,-0.75797 -0.15159,-1.74333 -0.60637,-2.12231 -0.45479,-0.37899 -1.13696,-1.36435 -1.28855,-0.45478 -0.1516,0.90956 0,1.21275 -0.22739,1.66753 -0.22739,0.45478 -1.13696,-0.15159 -0.22739,0.60637 0.90956,0.75797 1.28854,0.98537 1.28854,0.98537 0,0 0.83377,0.45478 0.45479,0.83376 -0.37899,0.37898 0.0758,0.53058 -1.06116,0.68217 -1.13696,0.1516 -0.60638,-0.98536 -1.66753,0.22739 -1.06116,1.21276 -1.81913,1.51594 -1.81913,1.51594 l -0.53058,-0.60637 c 0,0 -0.45478,-1.28855 -0.60638,-0.45478 -0.15159,0.83376 0,0.75797 -0.60637,2.04651 -0.60638,1.28855 -0.30319,1.59174 -0.98536,1.66753 -0.68217,0.0758 -1.21275,-0.45478 -1.59174,0.0758 -0.37898,0.53058 0.1516,0.37899 -0.53057,0.90957 -0.68218,0.53057 -0.90957,0.60637 -1.36435,0.60637 -0.45478,0 0.22739,-1.28855 -0.68217,0.0758 -0.90957,1.36434 -0.37899,1.51594 -1.13696,1.66753 -0.75796,0.15159 -0.90956,0.15159 -1.59173,0.15159 -0.68218,0 -1.06115,0.0758 -1.74332,0.0758 -0.68218,0 -1.21277,0.0758 -1.66754,0.30319 -0.45479,0.22739 -0.90956,0.75797 -0.90956,0.75797 z"
       id="greenland"
       sodipodi:nodetypes="cssssssssssscsssssssssssssssssssssssscsssssss" />
    <path
       id="central_america"
       style="display:inline;fill:none;fill-opacity:1;fill-rule:evenodd;stroke:#ff0000;stroke-width:0.606375;enable-background:new"
       d="m 50.050277,119.02385 c 0,0 0.37899,2.12231 1.06116,2.04652 0.68215,-0.0758 4.6994,-0.0758 4.6994,-0.0758 l 2.34971,1.28855 c 0,0 0.83376,1.44014 1.44013,1.44014 0.60637,0 5.3058,-0.30319 5.68478,0 0.37899,0.30319 1.74332,1.97072 2.42549,1.97072 0.68218,0 0.90956,0.37898 1.13697,0.68217 0.22738,0.30319 0.98536,0.90956 1.59173,0.83377 0.60638,-0.0758 2.5771,-0.22739 2.69079,0 0.0379,0.0758 0.11369,1.66753 0.11369,2.19811 0,0.53058 -0.45476,1.44014 -0.68217,2.4255 -0.22739,0.98536 -1.13694,1.66753 -1.13694,2.19811 0,0.53058 1.21274,1.28855 1.21274,1.28855 -0.30385,1.69346 -0.53734,3.31656 0.15161,4.01724 l 0.0758,1.36434 0.90959,1.59174 c 0,0 1.36432,1.97072 3.10766,1.44014 1.74334,-0.53058 0.90956,-0.1516 2.34971,-0.83377 1.44013,-0.68217 0.98536,0.75797 1.74332,-0.75797 0.75797,-1.51594 0.2274,-1.66753 1.06116,-1.97072 0.83375,-0.30318 0.37899,-0.60637 1.44015,-0.30318 1.06114,0.30318 0.0758,0.37898 1.44013,0.45478 1.36435,0.0758 1.51593,-1.44015 1.36435,0.30318 -0.15161,1.74333 -0.30319,1.81913 -0.45479,2.27391 -0.15158,0.45478 0.22741,-0.0758 -0.30319,0.90957 -0.53057,0.98536 -0.83375,1.06115 -1.21274,1.28854 -0.37899,0.22739 -0.60637,0.37899 -0.60637,1.06116 0,0.68217 0.15158,1.21275 -0.53057,1.51594 -0.68218,0.30319 -1.36435,-0.0758 -1.21277,0.75797 0.1516,0.83376 -0.0758,1.06115 0.53059,1.44014 0.60637,0.37898 1.06114,0.45478 1.44013,1.13696 0.37899,0.68217 0.53059,1.51593 0.37899,1.81912 -0.15161,0.30319 -0.0758,1.28855 -0.53057,1.51594 -0.45479,0.22739 -1.06117,0.0758 -1.06117,1.06116 0,0.98536 0.4548,1.74333 0,1.97072 -0.45479,0.22739 -1.21274,-0.30319 -1.36435,0.22739 -0.15158,0.53058 -0.22738,0.98536 -0.30318,1.44014 -0.0758,0.45478 -0.45479,0.53058 -0.45479,0.83377 0,0.30318 0,0.15159 0,0.98535 0,0.83377 -0.53057,1.36435 0.22741,1.51595 0.75795,0.15159 1.13694,0.37898 1.51593,0.15159 0.37898,-0.22739 0.83378,-0.30319 1.13696,-0.53058 0.30319,-0.22739 0.75795,-0.83377 1.21275,-0.83377 0.45476,0 1.36435,0.22739 1.36435,0.22739 0,0 0.45476,1.13696 0.37896,1.51594 -0.0758,0.37899 0.22741,0.30319 0.15161,1.21275 -0.0758,0.90957 -0.0758,1.59174 -0.22739,1.89493 -0.1516,0.30318 -0.37899,0.60637 -0.53059,0.90956 -0.15158,0.30319 0,0.30319 -0.15158,0.75797 -0.15161,0.45478 0.0758,1.13695 -0.30319,0.83377 -0.37899,-0.30319 -0.1516,-0.30319 -0.37899,-0.60638 -0.22738,-0.30319 -0.37899,-0.68217 -0.83378,-1.44014 -0.45476,-0.75797 -0.37896,-0.30319 -1.28855,-0.75797 -0.90955,-0.45478 -0.83375,-0.98536 -1.44012,-0.68217 -0.60637,0.30318 -0.37899,0.83376 -1.06117,0.37898 -0.68217,-0.45478 -0.90956,-0.45478 -1.28854,-1.06116 -0.37899,-0.60637 -0.30319,-0.53057 -0.53057,-0.98536 -0.22741,-0.45478 -0.83378,-0.15159 -0.83378,-0.98535 0,-0.83377 0.2274,-0.98537 0,-1.44015 -0.22739,-0.45478 -0.45477,-0.68217 -0.60638,-1.06115 -0.15158,-0.37899 -0.22738,-0.0758 -0.22738,-0.83377 0,-0.75797 0,-1.28855 0,-1.59174 0,-0.30318 -0.30319,-1.51594 -0.30319,-1.51594 l -0.37898,-0.75796 c 0,0 -0.0758,-0.0758 -0.37899,-0.53058 -0.30319,-0.45479 -0.30319,-0.22739 -0.53057,-0.98536 -0.22739,-0.75797 -0.75798,-1.66754 -0.90956,-2.27391 -0.15161,-0.60638 -0.98536,-1.36435 -3.48668,-2.27391 -2.50129,-0.90956 -2.34969,-1.13695 -4.47201,-1.59174 -2.12231,-0.45478 -2.88028,-0.83376 -2.88028,-1.74332 0,-0.90957 0,-1.21275 -0.53057,-1.51594 -0.5306,-0.30319 -1.06117,-0.37899 -0.83379,-0.90957 0.22741,-0.53058 0.60638,-0.60637 0.98537,-1.28854 0.37899,-0.68218 0.45479,-0.83377 0.45479,-1.36435 0,-0.53058 0.22738,-0.60637 -0.60637,-0.98536 -0.83379,-0.37898 -2.50132,-1.81913 -2.50132,-1.81913 0,0 0.98536,-0.22739 -1.13694,0.0758 -2.1223,0.30319 -2.27391,1.51594 -2.88028,0.75797 -0.60638,-0.75797 0.45476,-3.41086 -0.30319,-3.78984 -0.75798,-0.37899 -0.68217,0.15159 -1.13697,-0.83377 -0.45476,-0.98536 -0.0758,-1.81913 -0.30318,-2.6529 -0.22739,-0.83376 0,0.45479 -0.60637,-2.3497 -0.60638,-2.80448 0.53059,-2.04652 -0.83376,-3.63825 -1.36435,-1.59174 -3.03189,-1.44014 -3.18347,-2.72869 0,0 0.0379,-3.41086 -0.0758,-3.71405 z"
       sodipodi:nodetypes="csccssssscsssccccssssssssssssssssssssssssssscssssssssssssssssssccssssssssssscsssssssc" />
    
  </g>
</svg>
