<svg xmlns:inkscape="http://www.inkscape.org/namespaces/inkscape" xmlns:sodipodi="http://sodipodi.sourceforge.net/DTD/sodipodi-0.dtd" xmlns="http://www.w3.org/2000/svg" xmlns:svg="http://www.w3.org/2000/svg" width="440mm" height="300mm" viewBox="0 0 440 300" version="1.1" id="SVGRoot" sodipodi:docname="map.svg" inkscape:version="1.1.1 (3bf5ae0d25, 2021-09-20)">
  <sodipodi:namedview id="namedview345" pagecolor="#ffffff" bordercolor="#666666" borderopacity="1.0" inkscape:pageshadow="2" inkscape:pageopacity="0.0" inkscape:pagecheckerboard="0" inkscape:document-units="mm" showgrid="false" inkscape:zoom="0.22716751" inkscape:cx="464.41501" inkscape:cy="187.08661" inkscape:window-width="1280" inkscape:window-height="737" inkscape:window-x="-8" inkscape:window-y="-8" inkscape:window-maximized="1" inkscape:current-layer="layer1"/>
  <defs id="defs340"/>
  <g inkscape:label="Warstwa 1" inkscape:groupmode="layer" id="layer1">
    
    <path style="display:inline;fill:none;fill-opacity:1;fill-rule:evenodd;stroke:#ff0000;stroke-width:0.606375;enable-background:new" d="m 91.918847,58.697795 c -0.42876,1.5007 -0.64315,5.57404 -0.64315,5.57404 l 1.07193,0.85754 c 0,0 0.85754,1.50071 1.92947,2.57264 1.07194,1.07193 1.71509,3.21579 3.43019,2.78702 1.71509,-0.42877 2.358243,1.5007 2.358243,1.5007 l 1.28632,-0.85754 c 0,0 1.28633,-0.75036 1.50069,-0.32158 0.21439,0.42877 1.50072,0.85754 1.50072,0.85754 0,0 1.28632,-0.75035 2.46544,-0.85754 1.17911,-0.1072 0.21439,0.96474 0.21439,0.96474 l -2.46544,1.17912 c 0,0 0.53597,1.60789 1.17911,1.39351 0.64315,-0.21439 0.96473,2.46544 0.2144,3.00141 -0.75036,0.53596 0.21436,1.60789 0.21436,1.60789 l 0.42879,1.5007 1.17911,0.85754 0.3216,1.39351 h -0.10721 c -0.42875,1.17913 -0.64315,11.46966 -0.64315,11.46966 0,0 0.64315,-0.85754 1.07194,-0.96473 0.42875,-0.1072 1.07193,0.85754 1.50069,0.96473 0.42878,0.10719 0.21439,-0.85754 0.64317,-1.28631 0.42876,-0.42878 0.53594,0 0.96473,0.32158 0.42878,0.32158 0.32157,0 0.96475,-0.1072 0.64315,-0.10719 0.64315,1.71509 0.64315,2.25105 0,0.53597 -1.07194,0.85755 -1.07194,0.85755 0,0 -1.50069,0.53597 -2.14386,0.42877 -0.64315,-0.10719 -1.39351,0.85754 -1.82227,1.39351 -0.42878,0.53597 -1.28632,0.21439 -1.82229,0.42877 -0.53597,0.21439 -0.21439,0.75035 -0.10721,1.50071 0.10721,0.750345 -2.35823,2.679815 -2.8942,2.143855 -0.53596,-0.53597 -1.3935,-1.39351 -2.35825,-1.92948 -0.964733,-0.535955 0.21439,-1.607885 0.64317,-2.358245 0.42876,-0.75034 0.10719,-2.46544 -0.53596,-4.18053 -0.64318,-1.71508 -0.75036,-2.35824 -1.071943,-2.78701 -0.32157,-0.42878 -1.07193,-1.6079 -1.3935,-3.00141 -0.32158,-1.39351 -1.71511,0.96474 -3.2158,0.53597 -1.50072,-0.42877 -3.53738,0.64316 -3.53738,0.64316 0,0 0.2144,-3.00141 -0.21439,-3.2158 -0.42876,-0.21438 -12.00563,0.21439 -12.00563,0.21439 0,0 0,-0.32158 0,-1.71509 0,-1.39351 2.35826,-27.54861 2.35826,-27.54861 l 11.14809,0.32158 z" id="ontario" sodipodi:nodetypes="cccssccscsccsscccc"/>
    </g>
</svg>