<svg xmlns:inkscape="http://www.inkscape.org/namespaces/inkscape" xmlns:sodipodi="http://sodipodi.sourceforge.net/DTD/sodipodi-0.dtd" xmlns="http://www.w3.org/2000/svg" xmlns:svg="http://www.w3.org/2000/svg" width="440mm" height="300mm" viewBox="0 0 440 300" version="1.1" id="SVGRoot" sodipodi:docname="map.svg" inkscape:version="1.1.1 (3bf5ae0d25, 2021-09-20)">
  <sodipodi:namedview id="namedview345" pagecolor="#ffffff" bordercolor="#666666" borderopacity="1.0" inkscape:pageshadow="2" inkscape:pageopacity="0.0" inkscape:pagecheckerboard="0" inkscape:document-units="mm" showgrid="false" inkscape:zoom="0.22716751" inkscape:cx="464.41501" inkscape:cy="187.08661" inkscape:window-width="1280" inkscape:window-height="737" inkscape:window-x="-8" inkscape:window-y="-8" inkscape:window-maximized="1" inkscape:current-layer="layer1"/>
  <defs id="defs340"/>
  <g inkscape:label="Warstwa 1" inkscape:groupmode="layer" id="layer1">
    
    <path id="quebec" style="display:inline;fill:none;fill-opacity:1;fill-rule:evenodd;stroke:#ff0000;stroke-width:0.606375;enable-background:new" d="m 108.10502,82.709035 c 0,0 0.42876,-2.25105 1.17912,-2.78701 0.75036,-0.53597 1.17911,-3.43018 0.85754,-4.07334 -0.32158,-0.64316 -0.85754,-0.85754 -0.42878,-1.82228 0.42878,-0.96474 0.21439,-2.57263 1.28632,-2.25105 1.07193,0.32157 2.14387,0.21438 2.35826,-0.53597 0.21439,-0.75035 -0.10721,-0.75035 0,-1.39351 0.10718,-0.64316 0.64315,-0.85755 1.07193,-0.96474 0.42876,-0.10719 0.75033,0.21439 0.42876,-1.28631 -0.32158,-1.50071 0,-0.85755 -0.42876,-1.92948 -0.42878,-1.07193 -0.10721,-0.42877 -0.53597,-1.39351 -0.42878,-0.96474 -0.75035,-2.46544 0.32158,-2.57263 1.07193,-0.1072 -0.10721,-1.39351 0.64315,-1.71509 0.75036,-0.32158 2.14386,0.10719 1.82229,-1.17912 -0.32158,-1.28632 -1.92947,-3.85895 -0.85754,-3.96615 1.0719,-0.10719 2.5962,0.43979 2.5962,0.43979 l 3.78983,0.22739 c 0,0 -0.37898,1.44014 0.75798,1.59173 1.13694,0.1516 1.28855,0.83377 1.66751,1.06116 0.37899,0.22739 0.98536,0.75797 0.83378,1.06116 -0.1516,0.30319 -0.1516,0.60637 -0.0758,1.13695 0.0758,0.53058 0.45479,1.28855 0.15161,1.44014 -0.30319,0.1516 -0.60637,0.60638 -0.5306,1.21276 0.0758,0.60637 0.30319,1.51593 0.30319,1.51593 0,0 0.6064,0.83377 1.36435,0.45479 0.75798,-0.37899 0.53059,-0.68218 1.51593,-1.13696 0.98536,-0.45478 0.98536,0.53058 1.59176,-0.45478 0.60637,-0.98536 0.53057,-1.13695 0.68215,-1.51594 0.1516,-0.37898 0.90958,-1.36434 1.51595,-1.06116 0.60638,0.30319 -0.19208,3.03126 0.45107,3.99599 0.64317,0.96474 1.51966,-0.35773 1.59543,0.0971 0.0758,0.45478 0.15161,0.98536 0.22741,1.36434 0.0758,0.37899 -0.45479,0.68218 0,1.28855 0.45477,0.60638 0.53057,0.75797 0.45477,1.21275 -0.0758,0.45478 0.22741,0.83377 0.22741,0.83377 0,0 0.83375,-0.75797 1.21274,0.15159 0.37899,0.90957 0.0758,1.44014 0.75798,1.44014 0.68215,0 1.44013,1.06116 1.44013,1.06116 l 0.30318,1.59174 1.74334,-1.21275 1.66754,0.53057 c 0,0 -2.31182,1.06116 -1.85703,2.16022 0.45479,1.09905 2.80448,-1.28855 2.76659,0.18949 -0.0379,1.47804 -0.30319,2.99398 -0.87167,3.06978 -0.56849,0.0758 -1.47804,0.56847 -1.55385,0.90956 -0.0758,0.34108 -1.13694,1.02326 -1.81911,1.17485 -0.68218,0.1516 0.37899,0.75797 -1.06117,0.98536 -1.44013,0.22739 -1.89492,0.15159 -2.1981,0.15159 -0.30319,0 -0.30319,0.30319 -0.68218,0.98537 -0.37899,0.68217 -0.0758,0.90956 -0.45476,1.21274 -0.37899,0.30319 1.36432,0 -0.98537,0.53058 -2.34971,0.53058 -2.7287,0.68218 -2.7287,0.68218 0,0 -0.1516,0.22739 -0.90955,0.22739 -0.75798,0 -1.06117,-0.37899 -1.06117,-0.37899 0,0 -0.15158,-0.37898 -1.21274,-0.37898 -1.06117,0 -2.04653,0.98536 -2.04653,0.98536 0,0 -0.30319,0.37898 -0.90956,0.45478 -0.60637,0.0758 -1.44015,0.83377 -1.44015,0.83377 0,0 -0.83376,0.22739 -0.60637,1.13695 0.22741,0.90956 1.06116,1.74333 1.59173,1.13695 0.5306,-0.60637 1.36435,-3.03187 2.50132,-2.80448 1.13694,0.22739 2.65287,0.68217 2.34968,2.3497 -0.30318,1.66754 -0.37896,1.36435 -0.15158,2.19811 0.22739,0.83377 0.75798,1.28855 0.68218,2.04652 -0.0758,0.75797 -0.75798,0.53058 0.0758,1.21275 0.83376,0.68217 1.74332,1.74333 2.0465,0.75797 0.30319,-0.98536 0.68218,-1.66753 1.06117,-1.51594 0.37898,0.1516 1.44012,-0.30319 0.68217,1.21275 -0.75798,1.51594 -0.60637,1.59174 -1.28855,2.04652 -0.68217,0.45478 -0.60637,-0.75797 -1.81914,1.06116 0.019,0.18333 -1.10638,0.61211 -1.42796,0.50491 -0.32157,-0.10719 -0.48236,-0.58956 -0.64314,-1.23271 -0.16079,-0.64316 -0.91115,-0.53597 -1.87587,-0.58956 -0.96475,-0.0536 -0.0536,-2.25107 0.21436,-3.43019 0.268,-1.17912 -1.86666,-2.43943 -2.45623,-2.54662 -0.58957,-0.10719 -1.24193,-0.0796 -1.67069,0.34917 -0.42878,0.42877 -0.91114,0.58956 -1.12553,0.75035 -0.2144,0.16079 0.21439,2.51904 0.21439,2.51904 0,0 -0.10718,-0.1072 -1.07193,0.48236 -0.96473,0.58957 -7.18193,0.75035 -7.18193,0.75035 0,-0.53596 0,-2.35824 -0.64315,-2.25105 -0.64318,0.1072 -0.53597,0.42878 -0.96475,0.1072 -0.42879,-0.32158 -0.53597,-0.75036 -0.96473,-0.32158 -0.42878,0.42877 -0.21439,1.3935 -0.64317,1.28631 -0.42876,-0.10719 -1.07194,-1.07193 -1.50069,-0.96473 -0.42879,0.10719 -1.07194,0.96473 -1.07194,0.96473 0,0 0.2144,-10.29053 0.64315,-11.46966 z" sodipodi:nodetypes="cssssssssssssssccsssssscsssssssssscssccccsssssssssscscscscssssssssssscssssssscscsssssccc"/>
    </g>
</svg>