<svg xmlns:inkscape="http://www.inkscape.org/namespaces/inkscape" xmlns:sodipodi="http://sodipodi.sourceforge.net/DTD/sodipodi-0.dtd" xmlns="http://www.w3.org/2000/svg" xmlns:svg="http://www.w3.org/2000/svg" width="440mm" height="300mm" viewBox="0 0 440 300" version="1.1" id="SVGRoot" sodipodi:docname="map.svg" inkscape:version="1.1.1 (3bf5ae0d25, 2021-09-20)">
  <sodipodi:namedview id="namedview345" pagecolor="#ffffff" bordercolor="#666666" borderopacity="1.0" inkscape:pageshadow="2" inkscape:pageopacity="0.0" inkscape:pagecheckerboard="0" inkscape:document-units="mm" showgrid="false" inkscape:zoom="0.22716751" inkscape:cx="464.41501" inkscape:cy="187.08661" inkscape:window-width="1280" inkscape:window-height="737" inkscape:window-x="-8" inkscape:window-y="-8" inkscape:window-maximized="1" inkscape:current-layer="layer1"/>
  <defs id="defs340"/>
  <g inkscape:label="Warstwa 1" inkscape:groupmode="layer" id="layer1">
    <path id="east_africa" style="display:inline;fill:none;fill-opacity:1;fill-rule:evenodd;stroke:#ff0000;stroke-width:0.606375;enable-background:new" d="m 238.66615,201.26455 c 0,0 -0.32158,-1.28631 -0.85755,-2.03667 -0.53597,-0.75035 -0.21439,-1.60789 -0.21439,-2.14386 0,-0.53597 0.21439,-0.85754 0.53597,-1.28632 0.32158,-0.42877 0.10719,-0.64316 0.10719,-0.64316 l 0.53597,-1.07193 c 0,0 0.32158,-0.85754 0.32158,-1.60789 0,-0.75035 -0.42877,-0.42878 -0.85755,-0.53597 -0.42877,-0.10719 -0.10719,-0.21438 0.53597,-0.53596 0.64316,-0.32158 0.42877,-1.07194 0.53596,-1.71509 0.1072,-0.64316 -0.21438,-3.32299 -0.32158,-3.85895 0,0 1.23706,-0.78577 1.61604,-0.63418 0.37899,0.15159 0.1516,-2.72869 1.13696,-3.03188 0.98536,-0.30318 17.58489,0.68218 17.50909,-0.30318 l 0.15159,0.15159 c 0.22739,0.68217 0.75797,0.60638 0.75797,0.60638 0,0 1.21275,0.90956 1.36435,1.36434 0.15159,0.45478 0.30319,0.15159 0.30319,0.53058 0,0.37898 0.22739,1.74333 0.53057,2.65289 0.30319,0.90956 0.37899,0.45478 0.98536,0.98536 0.60638,0.53058 0.1516,0.45478 0.1516,1.66753 0,1.21275 0.60637,0.90957 1.21275,1.89493 0.60637,0.98536 0.0758,0.53057 0.37898,1.36434 0.30319,0.83377 0.37899,1.21275 0.68217,1.81913 0.30319,0.60637 0.45479,0.45478 0.83377,0.45478 0.37898,0 0.45478,0.22739 0.45478,1.13695 0,0.90957 1.44015,1.21275 2.04652,2.12232 0.60637,0.90956 0.68217,0.60637 1.06116,1.21275 0.37898,0.60637 0,0.45478 -0.37899,1.74333 -0.37898,1.28855 0.0758,1.36434 0.45478,1.97072 0.37899,0.60637 2.42551,0.53058 2.42551,0.53058 0,0 1.81912,-0.1516 2.5013,-0.53058 0.68217,-0.37899 0.60637,-0.53058 0.90956,-0.75797 0.30318,-0.22739 2.4255,0 3.94144,-0.37899 1.51594,-0.37898 3.48666,-1.81912 4.39622,-0.22739 0.90956,1.59174 -2.27391,7.88289 -3.63825,10.91476 -1.36435,3.03188 -5.15419,6.06376 -7.5039,8.33766 -2.3497,2.27391 -3.78985,5.0784 -3.94144,5.38159 -0.15159,0.30318 -0.75797,0.90956 -1.06116,1.06115 -0.30318,0.1516 -0.60637,0.37899 -1.21275,1.13696 -0.60637,0.75797 -0.98536,0.45478 -1.81912,1.06116 -0.83377,0.60637 -0.68218,1.21274 -0.68218,1.66753 0,0.45478 -0.22739,1.44014 -0.45478,1.74333 -0.22739,0.30318 0.30319,1.81912 0.30319,2.3497 0,0.53058 -0.15159,1.74333 -0.15159,1.74333 0,0 0,0.22739 0.83376,0.68217 0.83377,0.45478 0.30319,3.18347 0.30319,3.18347 l 0.15159,0.30319 c 0,0 -0.98536,0.98536 -1.66753,0.98536 -0.68217,0 -1.59174,0.83377 -1.59174,0.83377 0,0 -0.37898,0.0758 -1.13695,0.30319 -0.75797,0.22739 -1.36434,0.15159 -2.04651,1.06115 -0.68218,0.90957 -0.30319,0.83377 0.22739,2.5771 0.53057,1.74333 -0.22739,0.68217 -0.45479,1.28855 -0.22739,0.60637 0,1.89492 0,2.65289 0,0.75797 -0.53058,1.06116 -0.90956,1.36434 -0.37898,0.30319 -1.59174,-0.90956 -2.04652,-1.66753 -0.45478,-0.75797 0,-1.97072 0.30319,-2.88028 0.30319,-0.90957 -0.68217,-2.19811 -0.90956,-2.95608 -0.22739,-0.75797 -0.1516,-0.83377 0.22739,-1.51594 0.37898,-0.68217 0.0758,-0.53058 -0.1516,-1.59174 -0.22739,-1.06115 -0.83376,-0.98536 -1.06115,-1.44014 -0.22739,-0.45478 -0.90957,-1.36434 -1.51594,-1.36434 -0.60638,0 -0.30319,-0.98536 -0.45478,-1.51594 -0.1516,-0.53058 -1.21275,-0.30319 -1.59174,-0.1516 -0.37898,0.1516 -0.45478,-0.37898 -0.68217,-2.04651 -0.22739,-1.66754 -0.68217,-5.91216 -0.60638,-6.59434 0.0758,-0.68217 1.74333,0.60638 2.04652,0.1516 0.30319,-0.45478 0.37899,-3.86565 0.22739,-4.77521 -0.15159,-0.90956 1.28855,-0.53058 2.19811,-0.60637 0.90957,-0.0758 1.06116,-1.21276 1.44014,-1.97073 0.37899,-0.75796 0.75797,-0.68217 1.13696,-0.83376 0.37898,-0.15159 0.30319,-0.90956 0.75797,-1.51594 0.45478,-0.60637 1.06115,-1.66753 1.06115,-2.5013 0,-0.83376 -1.13695,-1.66753 -2.50129,-1.74333 -1.36435,-0.0758 -1.06116,0.60638 -2.95608,0.1516 -1.89493,-0.45479 -2.27391,-0.37899 -2.88029,-0.53058 -0.60637,-0.1516 -0.53058,-1.13696 -1.21275,-1.36435 -0.68217,-0.22739 -1.51594,1.28855 -1.51594,1.28855 0,0 -0.75797,-0.22739 -1.51593,-2.04652 -0.75798,-1.81912 -1.81913,-2.3497 -2.12232,-2.4255 -0.30319,-0.0758 -0.37898,-2.19811 -0.37898,-2.57709 0,-0.37899 -1.36435,-0.83377 -1.66754,-1.28855 -0.30318,-0.45478 -0.53057,-1.13695 -1.06115,-1.28855 -0.53058,-0.15159 -0.90957,-0.15159 -1.13696,-1.44014 -0.22739,-1.28855 -0.72486,-2.50027 -0.72486,-2.50027 z" sodipodi:nodetypes="csssccsssscsscccsssssssssssssscssssssssssssscsc"/>
    </g>
</svg>