<svg xmlns:inkscape="http://www.inkscape.org/namespaces/inkscape" xmlns:sodipodi="http://sodipodi.sourceforge.net/DTD/sodipodi-0.dtd" xmlns="http://www.w3.org/2000/svg" xmlns:svg="http://www.w3.org/2000/svg" width="440mm" height="300mm" viewBox="0 0 440 300" version="1.1" id="SVGRoot" sodipodi:docname="map.svg" inkscape:version="1.1.1 (3bf5ae0d25, 2021-09-20)">
  <sodipodi:namedview id="namedview345" pagecolor="#ffffff" bordercolor="#666666" borderopacity="1.0" inkscape:pageshadow="2" inkscape:pageopacity="0.0" inkscape:pagecheckerboard="0" inkscape:document-units="mm" showgrid="false" inkscape:zoom="0.22716751" inkscape:cx="464.41501" inkscape:cy="187.08661" inkscape:window-width="1280" inkscape:window-height="737" inkscape:window-x="-8" inkscape:window-y="-8" inkscape:window-maximized="1" inkscape:current-layer="layer1"/>
  <defs id="defs340"/>
  <g inkscape:label="Warstwa 1" inkscape:groupmode="layer" id="layer1">
    <path style="display:inline;fill:none;fill-opacity:1;fill-rule:evenodd;stroke:#ff0000;stroke-width:0.606375;enable-background:new" d="m 290.02336,249.31877 c 0.1516,0.60638 0.60638,0.45479 0.60638,1.81913 0,1.36435 0.30319,3.33507 -0.60638,2.12232 -0.90956,-1.21276 -0.90956,-1.66754 -0.90956,-0.90957 0,0.75797 0.15159,2.12232 0.15159,2.12232 0,0 0.74623,1.03126 -0.21851,1.03126 -0.96474,0 -1.07193,-0.10719 -1.07193,0.32158 0,0.42877 0.10719,1.28631 0.10719,1.28631 l -0.64316,0.64316 -0.32158,1.39351 c 0,0 1.07193,0.1072 0.42877,1.17912 -0.64315,1.07194 -0.85754,1.39352 -0.85754,1.39352 0,0 0.1072,-0.96474 -0.10719,1.17912 -0.21439,2.14386 -0.21439,2.46544 -0.21439,2.46544 0,0 0.64316,-0.21438 -0.21438,0.85755 -0.85755,1.07193 -1.17913,1.39351 -1.39351,1.92947 -0.21439,0.53597 0.21438,1.07193 -0.42878,1.60789 -0.64316,0.53597 -0.96474,0.96474 -0.96474,0.96474 l -0.64315,0.64316 c 0,0 -0.21439,0.85755 -0.21439,1.28632 0,0.42877 -0.32158,0.75035 -0.32158,0.75035 0,0 -0.32158,0.32158 -0.32158,0.75035 0,0.42878 0.1072,0.64316 -0.42877,1.07194 -0.53596,0.42876 -0.32158,0.53596 -0.96474,1.07192 -0.64316,0.53597 -0.85754,-0.21438 -0.85754,0.96474 0,1.17913 -0.32158,1.71509 -0.85755,1.71509 -0.53596,0 -5.68122,0.10719 -6.53877,0 -0.85755,-0.1072 0.53597,-4.39491 -0.64316,-5.14527 -1.17912,-0.75035 -1.92947,-3.32298 -1.17912,-3.85895 0.75035,-0.53596 0.32158,0 0.85754,-0.53596 0.53597,-0.53597 0.53597,-0.53597 0.85755,-1.17913 0.32158,-0.64315 0.85754,-0.64315 0.85754,-0.64315 0,0 -0.64316,-1.39351 -0.21438,-1.39351 0.42877,0 0.21438,-1.6079 0.21438,-1.6079 0,0 0.21439,-0.75035 0.53597,-1.28632 0.32158,-0.53596 -0.32158,-1.07192 0.53596,-1.17912 0.85754,-0.1072 1.28632,0.1072 1.28632,-0.42877 0,-0.53597 -0.53596,-0.64316 -0.96474,-0.75036 -0.42877,-0.10719 -0.64316,0 -0.64316,-0.75034 0,-0.75036 -0.32158,-0.42878 -0.53596,-1.17913 -0.21439,-0.75035 -0.85755,-0.32158 -0.10719,-1.28632 0.75035,-0.96473 0.75035,-0.32158 0.96473,-1.28631 0.21439,-0.96474 -0.64316,-1.6079 0.42878,-1.6079 1.07192,0 1.3935,0.32158 2.46543,-0.10719 1.07194,-0.42877 -0.10719,-0.53597 1.6079,-0.42877 1.71509,0.10719 1.82228,0.64316 2.46544,0 0.64316,-0.64316 0.96474,-0.42878 1.07193,-1.17912 0.10719,-0.75036 0,-0.96474 0.75035,-1.28632 0.75036,-0.32158 0.75036,0 1.28632,-0.42877 0.53596,-0.42878 0.96473,-0.96474 0.85754,-1.6079 -0.10719,-0.64316 -0.64316,-0.96474 0.32158,-0.96474 0.96474,0 0.85755,0.32158 1.28632,-0.21439 0.42877,-0.53596 0.32158,-0.53596 0.53596,-1.5007 0.21439,-0.96474 0,-1.17912 0.53597,-1.5007 0.53596,-0.32158 1.5007,-1.39351 1.5007,-1.39351 0,0 0.32158,-0.96474 0.75035,0.53596 0.42878,1.50071 0,1.28632 0.53597,1.71509 0.53597,0.42878 0.64315,0.1072 0.64315,0.64316 0,0.53597 -0.21438,1.6079 -0.21438,1.6079 z" id="madagascar"/>
    </g>
</svg>
