<svg xmlns:inkscape="http://www.inkscape.org/namespaces/inkscape" xmlns:sodipodi="http://sodipodi.sourceforge.net/DTD/sodipodi-0.dtd" xmlns="http://www.w3.org/2000/svg" xmlns:svg="http://www.w3.org/2000/svg" width="440mm" height="300mm" viewBox="0 0 440 300" version="1.1" id="SVGRoot" sodipodi:docname="map.svg" inkscape:version="1.1.1 (3bf5ae0d25, 2021-09-20)">
  <sodipodi:namedview id="namedview345" pagecolor="#ffffff" bordercolor="#666666" borderopacity="1.0" inkscape:pageshadow="2" inkscape:pageopacity="0.0" inkscape:pagecheckerboard="0" inkscape:document-units="mm" showgrid="false" inkscape:zoom="0.22716751" inkscape:cx="464.41501" inkscape:cy="187.08661" inkscape:window-width="1280" inkscape:window-height="737" inkscape:window-x="-8" inkscape:window-y="-8" inkscape:window-maximized="1" inkscape:current-layer="layer1"/>
  <defs id="defs340"/>
  <g inkscape:label="Warstwa 1" inkscape:groupmode="layer" id="layer1">
    <path id="south_africa" style="display:inline;fill:none;fill-opacity:1;fill-rule:evenodd;stroke:#ff0000;stroke-width:0.606375;enable-background:new" d="m 221.73033,231.20331 c 0.37898,0.53058 1.74333,-0.60638 2.19811,-0.22739 0.45478,0.37898 1.66753,1.21275 2.12231,1.44014 0.45478,0.22739 2.95608,-0.15159 3.56246,0.30319 0.60637,0.45478 1.06115,0.22739 1.06115,0.22739 0,0 -0.37898,2.57709 0,2.95608 0.37899,0.37898 1.28855,0.83376 1.81913,0.0758 0.53058,-0.75796 4.47202,-1.21274 4.69941,-0.60637 0.22739,0.60637 -0.37898,1.81913 0.37898,2.4255 0.75798,0.60638 1.28855,1.06116 1.21276,1.66753 -0.0758,0.60638 -0.83377,1.21275 -0.53058,2.04652 0.30319,0.83377 1.13695,1.13695 2.04651,1.06116 0.90957,-0.0758 0.83377,0.60637 1.59174,0.75797 0.75797,0.15159 3.71405,0.15159 4.01724,0.37898 0.30319,0.22739 1.06115,0.75797 1.28855,1.13696 0.22739,0.37898 1.06115,1.74332 1.59173,1.21275 0.53058,-0.53058 1.13696,-3.33507 0.30319,-3.63826 -0.83377,-0.30318 -1.36434,-0.30318 -1.36434,-1.21275 0,-0.90956 0.45478,-2.5013 0.75796,-2.5013 0.30319,0 0.68218,-0.37898 0.68218,-0.37898 0,0 2.3497,0 1.59173,-0.60638 0.37899,-0.15159 1.44014,-0.37898 1.59174,0.1516 0.15159,0.53058 -0.1516,1.51594 0.45478,1.51594 0.60637,0 1.28855,0.90956 1.51594,1.36434 0.22739,0.45478 0.83376,0.37899 1.06115,1.44014 0.22739,1.06116 0.53058,0.90957 0.1516,1.59174 -0.37899,0.68217 -0.45478,0.75797 -0.22739,1.51594 0.22739,0.75797 1.21275,2.04651 0.90956,2.95608 -0.30319,0.90956 -0.75797,2.12231 -0.30319,2.88028 0.45478,0.75797 1.66754,1.97072 2.04652,1.66753 0.37898,-0.30318 0.90956,-0.60637 0.90956,-1.36434 0,-0.75797 -0.22739,-2.04652 0,-2.65289 0.2274,-0.60638 0.98536,0.45478 0.45479,-1.28855 -0.53058,-1.74333 -0.90957,-1.66753 -0.22739,-2.5771 0.68217,-0.90956 1.28854,-0.83376 2.04651,-1.06115 0.75797,-0.22739 1.13695,-0.30319 1.13695,-0.30319 0,0 0.90957,-0.83377 1.59174,-0.83377 0.68217,0 1.66753,-0.98536 1.66753,-0.98536 0,0 -0.15159,-0.30319 -0.15159,-0.30319 0,0 1.74333,-0.53057 1.44014,0.0758 -0.30319,0.60638 0.53058,2.80449 0.53058,2.80449 0,0 0.0758,0.45478 0.22739,1.06115 0.15159,0.60638 0.0758,0.68218 0.15159,1.28855 0.0758,0.60638 -0.22739,0.90957 -0.30318,1.36435 -0.0758,0.45478 0.0758,0.83376 0.15159,1.44014 0.0758,0.60637 -0.37898,1.97072 -0.53058,2.3497 -0.15159,0.37899 -0.60637,0.37899 -0.90956,0.68218 -0.30319,0.30318 -0.37899,0.75797 -1.06116,1.44014 -0.68217,0.68217 -0.53058,0.68217 -0.98536,1.36434 -0.45478,0.68217 -0.0758,0.30319 -0.75797,1.36435 -0.68217,1.06115 -0.37898,0.30319 -1.06116,0.53058 -0.68217,0.22739 -1.06115,0.98535 -1.36434,1.06115 -0.30319,0.0758 -1.13695,0.83377 -1.59173,3.63826 -0.45479,2.80448 0.45478,3.33506 0.22739,3.86564 -0.22739,0.53058 -1.66754,2.5771 -1.89493,3.18347 -0.22739,0.60637 -0.45478,0.53058 -1.13695,0.83377 -0.68217,0.30318 -0.45478,1.51594 -0.45478,1.97072 0,0.45478 -0.45479,1.97072 -1.28855,2.72869 -0.83377,0.75797 -0.0758,0.68217 0.15159,0.98536 0.22739,0.30318 0.22739,0.68217 0.0758,1.66753 -0.15159,0.98536 -0.98536,0.45478 -1.44014,0.75797 -0.45478,0.30319 -1.89493,1.97072 -1.74333,2.57709 0.15159,0.60638 0.75797,0.53058 0.75797,0.53058 0,0 -0.98536,1.06116 -1.89492,2.19811 -0.90957,1.13696 0.0758,0.68218 0.30318,1.44015 0.22739,0.75796 -0.53057,0.15159 -0.98536,0.15159 -0.45478,0 -0.53058,0.22739 -0.98536,0.60637 -0.45478,0.37899 -0.75797,0.30319 -2.88028,0.75797 -2.12231,0.45479 -0.83377,0.75797 -1.89493,1.51594 -1.06115,0.75797 -0.98535,0.98536 -3.94144,0.98536 -2.95608,0 -1.97071,0.30319 -2.50129,0.53058 -0.53058,0.22739 -0.90957,0.22739 -1.51594,0.22739 -0.60638,0 -1.06116,0.30319 -1.44014,0.53058 -0.37899,0.22739 -0.68218,0.83377 -0.68218,0.83377 0,0 -0.30318,-0.1516 -0.60637,-0.68218 -0.30319,-0.53057 -0.98536,-0.30318 -1.51594,-0.37898 -0.53058,-0.0758 -0.60638,-0.15159 -1.13696,-0.83377 -0.53057,-0.68217 0.1516,-0.90956 0.1516,-1.28855 0,-0.37898 -0.45478,-1.59173 -0.45478,-2.19811 0,-0.60637 0,-0.90956 0,-1.66753 0,-0.75797 -0.0758,-0.75797 -0.0758,-1.59173 0,-0.83377 0,-0.90957 -0.22739,-1.36435 -0.22739,-0.45478 -0.83377,-0.98536 -0.98536,-1.81913 -0.15159,-0.83376 0,-1.13695 0,-1.81912 0,-0.68217 -0.75797,-0.30319 -0.90956,-0.60638 -0.1516,-0.30319 -0.53058,-0.60637 -0.83377,-1.51593 -0.30319,-0.90957 0.0758,-0.83377 0.0758,-1.59174 0,-0.75797 0,-0.83377 0,-1.44014 0,-0.60638 -0.45478,-0.83377 -0.60638,-1.21275 -0.15159,-0.37899 -1.06115,-1.97072 -1.13695,-2.5013 -0.0758,-0.53058 -0.15159,-0.83377 -0.15159,-1.51594 0,-0.68217 0.0758,-0.60638 0.15159,-1.13695 0.0758,-0.53058 -0.37899,-0.83377 -0.37899,-1.21275 0,-0.37899 -1.97072,-2.27391 -1.97072,-2.27391 0,0 -0.22739,-0.1516 -0.30318,-0.60638 -0.0758,-0.45478 -0.45479,-0.75797 -1.13696,-1.59173 -0.68217,-0.83377 -0.37898,-0.83377 -0.30319,-1.44015 0.0758,-0.60637 -0.0758,-1.21275 -0.15159,-1.59173 -0.0758,-0.37899 -0.83377,-2.04652 -0.83377,-2.04652 0,0 -0.0758,-0.75797 0.0758,-1.36434 0.1516,-0.60638 0.37899,-0.75797 0.45478,-1.66754 0.0758,-0.90956 0,-0.68217 0.0758,-1.21275 0.0758,-0.53058 0.15159,-0.53058 0.37898,-0.98536 0.22739,-0.45478 0.60638,-0.83376 0.60638,-1.51594 0,-0.68217 0.45478,-1.28855 0.60638,-1.59173 0.15159,-0.30319 0.45478,-0.60638 0.90956,-1.28855 0.45478,-0.68217 -0.22739,-0.45478 -0.1516,-1.06116 0.0758,-0.60637 -0.0758,-1.06115 -0.15159,-1.51594 -0.0758,-0.45478 -1.21275,-1.89492 -1.51594,-2.72869 -0.30319,-0.83376 1.06116,-1.66753 2.12231,-3.33506 h 0.0379 c 1.21276,-1.78123 -2.53919,-4.66151 -2.53919,-5.38158 z" sodipodi:nodetypes="cssscssssssssssssssccsssssssssssssscsccscssssssssssssssssssssscsssssssssscssssssssssssssssssscsssscssssssssssc"/>
  </g>
</svg>