<?xml version="1.0" encoding="UTF-8" standalone="no"?>
<!-- Created with Inkscape (http://www.inkscape.org/) -->

<svg
   width="440mm"
   height="300mm"
   viewBox="0 0 440 300"
   version="1.1"
   id="SVGRoot"
   sodipodi:docname="map.svg"
   inkscape:version="1.1.1 (3bf5ae0d25, 2021-09-20)"
   xmlns:inkscape="http://www.inkscape.org/namespaces/inkscape"
   xmlns:sodipodi="http://sodipodi.sourceforge.net/DTD/sodipodi-0.dtd"
   xmlns="http://www.w3.org/2000/svg"
   xmlns:svg="http://www.w3.org/2000/svg">
  <sodipodi:namedview
     id="namedview345"
     pagecolor="#ffffff"
     bordercolor="#666666"
     borderopacity="1.0"
     inkscape:pageshadow="2"
     inkscape:pageopacity="0.0"
     inkscape:pagecheckerboard="0"
     inkscape:document-units="mm"
     showgrid="false"
     inkscape:zoom="0.22716751"
     inkscape:cx="464.41501"
     inkscape:cy="187.08661"
     inkscape:window-width="1280"
     inkscape:window-height="737"
     inkscape:window-x="-8"
     inkscape:window-y="-8"
     inkscape:window-maximized="1"
     inkscape:current-layer="layer1" />
  <defs
     id="defs340" />
  <g
     inkscape:label="Warstwa 1"
     inkscape:groupmode="layer"
     id="layer1">
    <path
       style="display:inline;overflow:visible;visibility:visible;fill:none;fill-opacity:1;fill-rule:evenodd;stroke:#ff0000;stroke-width:0.606375;marker:none;marker-start:none;marker-mid:none;marker-end:none;enable-background:accumulate"
       d="m 394.52484,234.60159 c 0,0 0.10718,0.32158 0.42876,-0.96474 0.3216,-1.28632 0.10721,-1.92948 0.53599,-2.89421 0.42876,-0.96474 0.64315,-0.85755 1.50069,-1.28632 0.85754,-0.42877 1.07193,-0.64316 1.28632,-1.07193 0.21437,-0.42877 0.85755,-0.53596 1.50069,-0.42877 0.64315,0.10719 0.96475,0.42877 1.50072,-0.32158 0.53594,-0.75035 0.42876,-0.96474 0.96473,-0.75035 0.53596,0.21438 0.21439,0.21438 0.96475,0.42877 0.75033,0.21439 1.50069,0.53597 3.0014,0.21439 1.50069,-0.32158 1.60787,-1.07194 1.71508,-0.21439 0.10719,0.85755 0.10719,0.96473 0.64315,0.96473 0.53597,0 0.53597,0.1072 0.2144,0.75036 -0.32158,0.64316 -0.10719,0.21438 -0.96476,1.39351 -0.85754,1.17912 -1.28629,1.28631 -1.3935,2.14386 -0.10719,0.85754 0.10721,1.39351 0.10721,1.39351 0,0 -0.42879,1.17912 0.32157,1.17912 0.75036,0 0.85754,-0.32158 1.82229,-0.42877 0.96473,-0.10719 1.82227,-0.21439 1.92948,0.75035 0.10718,0.96474 0.75033,2.78702 1.3935,2.89421 0.64315,0.1072 0.64315,0.32158 1.71509,0.1072 1.07193,-0.21439 1.50069,0.32158 1.6079,-0.64316 0.10718,-0.96474 0.10718,-1.17912 0.10718,-1.92947 0,-0.75036 -1.07193,0.42876 0.32157,-1.7151 1.39351,-2.14386 1.71511,-0.75035 1.39351,-3.10859 -0.32157,-2.35825 -0.96472,-2.14387 -0.42876,-3.64457 0.53597,-1.5007 0.32158,-1.5007 0.64315,-1.39351 0,0 0.96475,-0.10719 1.07193,1.39351 0.10721,1.5007 0.53597,2.78702 0.53597,3.43018 0,0.64316 0.42879,3.00141 0.42879,3.00141 0,0 0.75033,0.85754 1.17911,0.53596 0.42876,-0.32158 1.07193,-0.42877 1.07193,-1.17912 0,-0.75036 0.2144,-1.6079 0.42876,-1.17913 0.21439,0.42877 0.85757,0.75035 0.85757,1.39351 0,0.64316 -0.10721,1.28632 0,1.92948 0.10718,0.64315 0.75033,1.28632 0.75033,1.28632 0,0 0.21439,1.28631 0.21439,1.71508 0,0.42878 0.21439,0.75036 0,1.82229 -0.21439,1.07192 -0.21439,1.17912 -0.10718,2.14386 0.10718,0.96473 0.21436,1.39351 0.64315,1.5007 0.42878,0.10719 0.42878,0.10719 0.85754,0.10719 0.42878,0 0.53597,-0.42877 0.85754,0.1072 0.32158,0.53596 0.42878,0.85754 1.17912,0.96473 0.75035,0.10719 1.39353,0 1.39353,0 0,0 0.32157,0.53597 0.32157,1.17912 0,0.64316 -0.10718,0.85755 0.10719,1.71509 0.21439,0.85755 0.21439,0.96474 0.75036,1.07194 0.53596,0.10719 0.85754,0.21438 0.85754,0.21438 0,0 0.10721,0.53597 0.10721,1.39351 0,0.85755 0.21436,1.39351 0.21436,1.39351 l 0.85754,0.64316 c 0,0 0.21439,0.53597 0.64318,1.07193 0.42876,0.53596 0.85754,0.64316 0.85754,0.64316 0,0 0.32157,0.64316 0.42876,1.17912 0.10721,0.53597 -0.21437,0.21439 0.42878,0.96474 0.64315,0.75035 0.75036,0.96473 0.75036,1.60789 0,0.64316 0.53596,1.07193 0.32157,1.92948 -0.21439,0.85754 -0.10721,1.17912 -0.21439,2.25106 -0.10718,1.07192 0.10718,-0.2144 -0.10718,1.60789 -0.21439,1.82228 -0.10721,2.35825 -0.21439,3.0014 -0.10719,0.64316 -0.32158,0.1072 -0.42879,1.28632 -0.10718,1.17913 -0.21439,2.14386 -0.21439,2.14386 0,0 -0.75033,1.07193 -1.2863,1.07193 -0.53596,0 -1.50071,-0.42877 -1.50071,0.1072 0,0.53596 -0.53594,0.96473 0.21439,1.17912 0.75036,0.21439 0.96475,-0.42877 0.96475,0.32158 0,0.75035 -0.21439,0.96474 -0.85754,1.5007 -0.64318,0.53596 -0.64318,0.42878 -1.39354,0.85754 -0.75033,0.42878 -0.32157,-0.21438 -0.85754,1.17913 -0.53594,1.39351 -0.42876,1.39351 -0.85754,1.92948 -0.42876,0.53596 -0.53597,0.53596 -0.75033,1.17912 -0.21439,0.64315 -0.21439,0.85754 -0.21439,1.60789 0,0.75036 -0.21439,1.07193 -0.21439,1.07193 0,0 -0.85755,0.85755 -0.85755,1.6079 0,0.75035 0.53597,1.07193 0.10719,1.60789 -0.42876,0.53597 0,0.53597 -0.96473,0.64316 -0.96475,0.1072 -1.3935,0.1072 -1.3935,0.1072 l -1.50072,0.32158 c 0,0 -0.21439,-0.64317 -0.75036,-0.32158 -0.53597,0.32158 -0.32157,0.21438 -0.75033,0.75035 -0.42878,0.53596 -0.53597,0.53596 -1.07193,0.85754 -0.53597,0.32158 0,0.42877 -0.32158,0.96474 -0.3216,0.53597 -0.42878,1.07193 -1.07193,0.75035 -0.64318,-0.32158 -0.85757,-0.21438 -1.07193,-0.85754 -0.2144,-0.64316 0.10718,-0.75036 -0.96475,-1.07193 -1.07194,-0.32158 -1.17912,-0.32158 -1.17912,-0.32158 0,0 -0.32157,0.21438 -0.53597,0.75035 -0.21439,0.53596 0.10719,0.75035 -0.64315,1.07193 -0.75035,0.32158 -0.75035,0.64316 -1.50071,0.10719 l 0.14277,-0.1634 c 0,0 0,-3.43017 0.10718,-4.28772 0.10721,-0.85755 -0.21439,-0.75035 -0.64315,-1.39351 -0.42878,-0.64316 0.53597,-25.61914 0.42876,-26.15511 -0.10719,-0.53596 -18.11563,0.21439 -18.11563,0.21439 z"
       id="eastern_australia"
       sodipodi:nodetypes="csssssssssssssscsssssssssscsscssssscssssssscssscsccscsssssssscsssssssssscsssccssssssscssc" />
    <path
       id="indonesia"
       style="display:inline;fill:none;fill-opacity:1;fill-rule:evenodd;stroke:#ff0000;stroke-width:0.606375;enable-background:new"
       d="m 361.80305,235.59953 c 0.5306,0.83377 0.22739,0.98536 1.44016,0.98536 1.21274,0 1.97072,-0.22739 2.65289,-0.0758 0.68215,0.1516 0.37897,0.37899 1.13695,0.30319 0.75797,-0.0758 1.44015,-0.53058 2.04652,-0.60637 0.60637,-0.0758 1.36432,-0.1516 1.81912,0 0.45479,0.15159 1.13696,0.68217 1.97072,0.75797 0.83375,0.0758 2.7287,0.0758 3.03189,0.15159 0.30318,0.0758 1.28854,0.83376 1.74331,0.30319 0.45479,-0.53058 0.60637,-0.37899 0.75798,-1.21275 0.15158,-0.83377 0.15158,-1.28855 -0.37899,-1.44014 -0.53057,-0.1516 -0.15158,-0.45479 -1.44013,-0.53058 -1.28855,-0.0758 -1.66753,-0.2274 -2.04652,-0.37899 -0.37899,-0.15159 -0.98537,-0.75797 -1.44016,-0.90956 -0.45476,-0.1516 -1.74331,-0.68217 -2.57709,-0.68217 -0.83376,0 -2.50129,-0.1516 -3.33505,-0.1516 -0.83378,0 -0.98536,-0.37898 -1.89494,0.30319 -0.90956,0.68217 -1.66751,0.98536 -2.19811,1.36434 -0.53057,0.37899 -0.37899,0.0758 -0.60637,0.83377 -0.22738,0.75797 -0.45479,1.13695 -0.68218,0.98536 z m 14.17402,-4.9268 c 0.30319,-1.06116 0.0758,-0.90956 0.15161,-1.81913 0.0758,-0.90956 0.30319,-0.68217 0.68217,-1.28854 0.37899,-0.60638 0.15158,-1.59174 0.83376,-0.45479 0.68217,1.13696 0.45479,1.59174 1.28855,2.27391 0.83378,0.68218 0.98536,1.44014 1.66753,0.75797 0.68218,-0.68217 1.97073,-1.36434 1.21275,-2.19811 -0.75795,-0.83377 -1.21275,0 -1.28855,-1.97072 -0.0758,-1.97072 -0.15158,-2.65289 -0.68218,-2.57709 -0.53056,0.0758 -0.98533,0.83376 -1.06113,-0.2274 -0.0758,-1.06115 -0.37899,-2.3497 0.45476,-2.4255 0.83378,-0.0758 1.66754,0.45478 2.19813,-0.53058 0.53057,-0.98536 1.13695,-1.28854 0.15158,-1.44014 -0.98536,-0.15159 -1.74334,-0.30319 -2.2739,-0.22739 -0.53057,0.0758 -0.90956,0.0758 -0.83376,-0.37898 0.0758,-0.45479 -0.53059,-0.90957 0.53057,-0.90957 1.06116,0 0.83375,0.22739 1.81912,0.1516 0.98536,-0.0758 1.97072,-0.60638 2.2739,-0.90957 0.30319,-0.30318 0.68218,-1.66753 1.13697,-1.97072 0.45477,-0.30318 0.75798,-0.53057 0.68218,-0.90956 -0.0758,-0.37899 -0.22741,-0.68217 -0.68218,-0.83377 -0.45479,-0.15159 -1.21274,-0.30318 -1.44015,0 -0.22738,0.30319 -0.75795,1.13696 -1.28855,1.36435 -0.53057,0.22739 -3.10766,0.0758 -3.71403,0.37898 -0.60638,0.30319 -1.13697,0.68217 -1.51596,0.90957 -0.37896,0.22739 -1.21275,0.60637 -1.06114,1.51594 0.15158,0.90956 0.15158,1.66753 0.15158,2.04651 0,0.37899 -0.75795,1.44014 -0.90956,1.81913 -0.15158,0.37898 0.0758,1.51594 -0.15158,2.04652 -0.22741,0.53058 -0.37899,0.22739 -0.37899,0.98536 0,0.75796 -0.1516,0.90956 0.0758,1.44014 0.22741,0.53058 0.6064,0.53058 0.37899,1.28854 -0.22738,0.75797 -0.60637,0.30319 -0.30319,1.13696 0.30319,0.83376 0.68218,0.53058 0.75798,1.28855 0.0758,0.75797 -0.1516,1.06116 0,1.66753 0.15158,0.60637 1.21275,0.0758 1.13694,0 z m -6.36693,-3.86564 c 0,0 -0.15158,-0.75797 1.13697,-2.04652 1.28854,-1.28855 1.66751,-1.36434 1.66751,-2.65289 0,-1.28855 -0.0758,-1.21275 -0.68215,-1.81913 -0.6064,-0.60638 -1.44016,-0.98536 -0.68218,-1.89492 0.75796,-0.90957 0.68218,-1.13696 1.66751,-1.36435 0.98536,-0.22739 1.97073,-1.66753 2.04653,-2.19811 0.0758,-0.53058 0.15161,-0.83376 -0.0758,-1.51594 -0.22739,-0.68217 -0.83376,-1.89492 -0.90956,-2.72869 -0.0758,-0.83376 -0.15158,-1.44014 -0.0758,-2.04652 0.0758,-0.60637 0.6064,-0.60637 1.28855,-1.44014 0.68218,-0.83376 0.83378,-0.45478 0.83378,-1.66753 0,-1.21275 -0.0758,-2.72869 -0.45479,-3.03188 -0.37899,-0.30318 -0.53057,-0.15159 -1.36435,-0.45478 -0.83375,-0.30319 -1.21274,-1.06115 -2.34968,-1.74333 -1.13697,-0.68217 -1.89492,-0.75797 -2.12233,-0.37898 -0.22739,0.37898 0.22741,-0.90956 -0.22739,0.98536 -0.45479,1.89492 -0.37899,2.3497 -0.90955,2.72869 -0.5306,0.37898 -1.36435,0.60637 -1.59174,1.36434 -0.22741,0.75797 0.60637,1.28855 -0.60637,2.5771 -1.21277,1.28855 -3.41088,3.71405 -5.00261,4.01724 -1.59173,0.30318 -2.7287,0.68217 -2.7287,1.21275 0,0.53057 0.68218,1.21275 0.5306,1.81912 -0.15161,0.60638 -1.21275,1.21275 -1.06117,1.51594 0.15161,0.30319 0.53057,0 0.83378,0.68218 0.30319,0.68217 0.30319,2.80448 0.30319,2.80448 l 1.44013,1.59174 c 0,0 -1.06117,1.59173 -0.53057,2.04651 0.53057,0.45479 0.75795,0.53058 1.36435,1.21275 0.60637,0.68218 1.36432,1.44015 2.27391,1.51594 0.90955,0.0758 1.44012,0.53058 2.1223,0.83377 0.68217,0.30319 0.90956,0 1.74334,-0.0758 0.83375,-0.0758 2.34968,0.22739 2.1223,0.1516 z m -14.31795,-10.32113 0.42875,-1.07193 c 0,0 0.10721,1.17912 0.2144,1.82228 0.1072,0.64316 -0.2144,1.50071 0.1072,1.92948 0.32158,0.42877 0.10719,0.64315 0,1.28631 -0.1072,0.64316 0.42876,1.71509 0.42876,1.71509 l 0.78394,0.92585 0.83378,0.15159 c 0,0 0.37896,0.53058 0.53057,0.90956 0.1516,0.37899 0.68217,0.60638 0.68217,0.60638 0,0 0,0.83377 0,1.36434 0,0.53058 -0.60637,0.83377 0.0758,0.98536 0.68218,0.1516 1.51593,0.1516 1.97073,0.1516 0.45476,0 0.30318,0.22739 0.60637,0.83377 0.30319,0.60637 0.60637,0.68217 0.68217,1.51593 0.0758,0.83377 0.0758,1.44014 -0.2274,1.81913 -0.30319,0.37898 -0.0758,0.68217 -0.45477,1.13695 -0.37899,0.45478 -0.98536,0.53058 -1.44015,0.60638 -0.45477,0.0758 -0.60638,0.0758 -0.75798,0.60637 -0.15158,0.53058 0.98536,1.06116 -0.45477,0.98537 -1.44015,-0.0758 -1.36435,0.30318 -1.66753,-0.45479 -0.30319,-0.75797 0.53056,-1.06116 -0.53057,-1.44014 -1.06117,-0.37898 -0.15161,1.13695 -1.74334,-0.98536 -1.59174,-2.12231 -2.12231,-0.68217 -2.34972,-2.5771 -0.22738,-1.89492 -0.90955,-2.3497 -1.81911,-3.78984 -0.90956,-1.44014 -1.28855,-2.4255 -2.04653,-2.65289 -0.75795,-0.2274 -1.06113,0.68217 -1.44012,-0.30319 -0.37899,-0.98536 -0.37899,-0.45478 -0.37899,-1.59174 0,-1.13695 -0.0758,-1.06116 -0.60638,-2.12231 -0.53059,-1.06116 -0.60637,-0.98536 -0.90955,-2.12231 -0.30322,-1.13696 -0.15161,-0.60638 -1.51596,-2.34971 -1.36435,-1.74333 -1.51593,-1.89492 -2.72867,-2.80449 -1.21276,-0.90956 -1.51595,-1.06116 -1.44016,-2.27391 0.0758,-1.21275 -0.75797,-2.4255 0,-2.65289 0.75798,-0.22739 0.90956,-0.45478 1.66754,0 0.75798,0.45478 0.83375,0.98536 1.44015,1.13696 0.60637,0.15159 0.98534,0.0758 1.44013,0.0758 0.45479,0 0.30319,-0.60637 1.06116,0.30319 0.75796,0.90956 0.90956,0.90956 1.28855,1.74333 0.37899,0.83377 0.37899,1.13695 0.75795,1.59174 0.37899,0.45478 0.68218,0.45478 1.06117,0.22739 0.37899,-0.22739 0.75798,-0.90957 0.98536,-0.45479 0.22738,0.45479 0.22738,0.68218 0.37899,0.98537 0.1516,0.30318 0.60637,-0.68218 0.60637,0.60637 0,1.28855 -0.45477,1.89492 0.22738,1.44014 0.68218,-0.45478 1.36435,-0.90956 1.36435,-0.90956 0,0 -0.0758,-0.22739 0.22739,0.53058 0.30321,0.75797 0.37898,1.44014 1.06116,1.74333 0.68218,0.30318 0.90956,0.30318 0.90956,0.30318 z" />
    <path
       style="display:inline;fill:none;fill-opacity:1;fill-rule:evenodd;stroke:#ff0000;stroke-width:0.606375;enable-background:new"
       d="m 394.92632,201.7183 c 0,0 0.30318,-1.66753 0.90956,-2.12231 0.60637,-0.45478 0.1516,-0.60638 0.1516,-1.36435 0,-0.75797 -0.6064,-1.51594 0.15158,-1.66753 0.75798,-0.15159 0.90956,0 1.97072,-0.15159 1.06117,-0.1516 2.12233,-0.75797 2.12233,-0.75797 l 0.90956,0.90956 c 0,0 0.45477,0.45478 1.81912,0.45478 1.36435,0 1.81911,0.60638 2.42551,1.66754 0.60637,1.06115 0.30319,1.51593 1.97073,2.57709 1.6675,1.06116 3.33504,1.51594 4.2446,1.81913 0.90958,0.30318 1.66754,0.75796 1.51596,1.66753 -0.15161,0.90956 0.90955,1.36434 -0.30319,1.66753 0,0 3.47062,1.49281 3.8994,2.45754 0.42876,0.96474 1.17912,1.39351 0.32158,1.92948 -0.85754,0.53596 -1.82229,0.10719 -1.71508,0.75035 0.10718,0.64316 0.75033,1.07193 0.96472,1.82228 0.21439,0.75035 0.96475,1.17913 0.96475,2.03667 0,0.85754 -0.21439,1.39351 0.64315,1.92948 0.85754,0.53596 0.96475,0.53596 0.96475,1.17912 0,0.64316 0,1.5007 0,1.5007 0,0 -0.64318,0.64316 -1.71511,0.64316 -1.07193,0 -1.60787,-0.85755 -2.03666,-0.85755 -0.42878,0 -1.50069,-0.21438 -1.50069,-0.21438 0,0 -0.75036,-3.00141 -2.89422,-3.53737 -2.14387,-0.53596 -2.14387,-0.85754 -2.14387,-0.42877 0,0.42877 0.75036,1.39351 -0.10718,1.71509 -0.85754,0.32158 -1.28632,0.32158 -1.82229,0.32158 -0.53597,0 1.82229,0.96473 -0.85754,0.85754 -2.67983,-0.10719 -2.89423,-1.07193 -4.07334,-0.32158 -1.17912,0.75035 -4.71649,-2.25106 -4.71649,-2.25106 0,0 -1.6079,0.1072 -1.6079,-0.75034 0,-0.85755 -0.42878,-0.96474 0.10721,-1.71509 0.53594,-0.75036 0.53594,-0.85755 0.53594,-1.71509 0,-0.85755 0.21439,-1.07194 0.21439,-1.92948 0,-0.85754 0.53597,-1.17912 -0.21439,-1.5007 -0.75033,-0.32158 -1.39351,-0.53597 -1.50069,-1.28632 -0.10718,-0.75035 -0.10718,-0.85754 -0.64315,-0.85754 -0.53597,0 0,0.10719 -0.85757,0.10719 -0.85754,0 -1.50069,0.64316 -2.25104,-0.32158 -0.75036,-0.96474 -0.85755,-0.96474 -2.25105,-0.96474 -1.39351,0 -4.39492,2.03667 -2.03666,0 2.35823,-2.03666 2.78702,-2.14385 2.78702,-2.14385 0,0 -2.46545,0 -2.57265,-0.85755 -0.10719,-0.85754 -0.32158,-2.25106 -0.85755,-2.46544 -0.53596,-0.21438 -1.17911,-0.53597 -0.96472,-1.28631 0.21439,-0.75036 0.64315,-3.43019 2.78702,-3.32299 2.14386,0.10719 2.57262,0.96474 3.21579,1.28632 0.64315,0.32157 1.82227,-0.85755 2.03666,0.21438 0.21439,1.07193 0,2.89422 0,2.89422 0,0 0.75036,0.53596 0.96475,1.60789 z"
       id="new_guinea"
       sodipodi:nodetypes="cssssccssssssssssssscsscsssssscssssssssssscssssssccc" />
    <path
       id="western_australia"
       style="display:inline;overflow:visible;visibility:visible;fill:none;fill-opacity:1;fill-rule:evenodd;stroke:#ff0000;stroke-width:0.606375;marker:none;marker-start:none;marker-mid:none;marker-end:none;enable-background:accumulate"
       d="m 412.96204,289.27004 0.14277,-0.1634 c 0,0 0,-3.43017 0.10718,-4.28772 0.10721,-0.85755 -0.21439,-0.75035 -0.64315,-1.39351 -0.42878,-0.64316 0.53597,-25.61914 0.42876,-26.15511 -0.10719,-0.53596 -18.11563,0.21439 -18.11563,0.21439 l -0.35713,-22.8831 -1.28633,-0.75035 c 0,0 -0.96472,-0.64316 -1.50068,-0.96474 -0.53597,-0.32158 -0.96475,1.17912 -1.39351,1.39351 -0.42879,0.21438 -1.71511,0.96474 -1.71511,0.96474 0,0 -0.32157,1.07192 -0.53597,1.82228 -0.21436,0.75035 -1.17911,0.10719 -2.35823,0.53597 -1.17911,0.42876 -0.10721,0.42876 -0.42878,1.5007 -0.32158,1.07193 -0.32158,0.10719 -1.2863,0.10719 -0.96475,0 -0.42878,0.42877 -1.07193,1.28632 -0.64318,0.85754 -0.75036,0.21438 -1.6079,0.96473 -0.85754,0.75035 -0.21439,0.75035 -0.75036,1.82228 -0.53597,1.07194 -0.64315,0.53597 -1.2863,0.96474 -0.64317,0.42877 -1.71511,1.5007 -2.35826,2.14386 -0.64315,0.64316 -0.96475,0.32158 -2.25105,0.21439 -1.28632,-0.1072 -0.53596,0 -1.50071,0.10719 -0.96473,0.10719 -0.75036,0.75035 -1.39351,1.28632 -0.64315,0.53596 -0.96472,0.75035 -1.71508,1.5007 -0.75036,0.75035 -0.32158,0.32158 -1.50072,0.42877 -1.17911,0.1072 -0.64315,0.1072 -1.82226,0.85755 -1.17914,0.75035 -0.10721,0.96474 -0.21439,1.82228 -0.10721,0.85755 -0.32158,0.85755 -0.64315,1.60789 -0.3216,0.75036 0,0.96474 0.32157,1.82229 0.32158,0.85754 0.96472,0.32158 0.96472,0.32158 0,0 -0.21436,1.28631 0,1.71508 0.2144,0.42878 -0.10718,0 -1.07193,0 -0.96472,0 -0.42876,0.32158 -0.42876,1.07193 0,0.75036 0,0.75036 0,0.75036 0,0 -0.32157,0.10719 -0.64317,0.75034 -0.32158,0.64317 0,0.53597 0.10721,1.28633 0.10718,0.75034 0.21439,1.07192 0.53596,1.82228 0.32158,0.75035 0.64315,0.53596 1.17912,1.71509 0.53597,1.17912 0.21439,1.28631 0.21439,2.35824 0,1.07193 0,0.75035 0.10718,2.14386 0.10721,1.39351 0.75036,0.96474 0.75036,0.96474 0,0 0.75036,0.53597 1.17912,0.85754 0.42878,0.32158 0.42878,0.64316 0.64317,1.7151 0.21437,1.07193 -0.3216,0.85754 -0.53596,1.50069 -0.21439,0.64316 0,0.42878 -0.10721,1.7151 -0.10718,1.28631 -0.53597,0.75035 -0.96473,1.28631 -0.42878,0.53596 -0.32157,0.53596 -0.64317,1.39351 -0.32158,0.85754 0,0.64316 0.53597,1.07193 0.53596,0.42877 1.17914,0.75035 1.82229,1.28632 1.48005,1.62072 3.07027,1.20642 4.93088,0.21439 0.96472,-0.53597 0.53596,-0.64316 1.28632,-0.96474 0.75033,-0.32158 0.53597,-0.21439 0.96473,-0.42878 0.42878,-0.21438 0.75035,-0.53596 1.3935,-1.17912 0.64318,-0.64315 0.2144,-0.10719 0.96475,-0.53597 0.75036,-0.42876 0.85754,-0.75034 2.03666,-1.17912 1.17912,-0.42877 1.50072,-0.10719 1.50072,-0.10719 0,0 0,0 0.96472,0 0.96475,0 0.42878,0.10719 0.64318,0.53597 0.21436,0.42876 0.85754,0.42876 1.28629,0.42876 0.42879,0 1.07194,-0.10718 1.6079,-0.32157 0.53597,-0.21439 -0.10718,-0.96474 -0.10718,-1.39351 0,-0.42877 0,-0.53597 0.32158,-1.28632 0.32157,-0.75035 1.28632,-0.96473 1.71508,-0.96473 0.42878,0 1.50071,-0.21439 1.92947,-0.64316 0.42879,-0.42877 0.64318,-0.21439 1.50072,-0.32158 0.85754,-0.10719 0.75036,-0.32159 1.3935,-0.96474 0.64315,-0.64316 0.64315,-0.32158 1.82227,-0.32158 1.17914,0 0.64318,0 1.82229,0 1.17912,0 1.07193,0.10719 1.82229,0.21439 0.75033,0.10719 1.17912,0.85754 1.71508,1.17912 0.53597,0.32158 0.2144,0.42877 0.2144,1.28631 0,0.85755 0.10718,0.96474 0.96472,2.46545 0.85754,1.5007 1.28632,1.5007 1.28632,1.5007 0,0 0.75036,-1.07193 1.39351,-2.03667 0.64315,-0.96474 0.53597,-0.32158 1.50072,-0.64316 0.96472,-0.32158 0.32157,-0.64316 0.53594,-2.03666 0.21439,-1.39351 0.64317,-0.42878 1.39353,-0.32158 0.75033,0.10719 0,1.3935 -0.21439,2.14386 -0.21439,0.75035 -0.64318,0.96473 -1.17914,1.5007 -0.53594,0.53597 -0.53594,0.64316 -1.17912,1.39351 -0.64315,0.75035 -0.32157,0.64316 -0.21439,1.5007 0.10721,0.85755 1.17914,-0.75035 1.6079,-1.39351 0.42878,-0.64315 0.42878,-0.21439 0.96475,-0.10719 0.53597,0.10719 0.10718,1.39351 0.10718,2.03667 0,0.64316 0.10721,0.53596 0.64315,0.85754 0.536,0.32158 0.536,0.96474 0.21439,1.82228 -0.32157,0.85755 0,0.85755 0.10721,1.50071 0.10719,0.64315 1.2863,2.25105 1.71509,2.67982 0.42878,0.42877 0.32157,0.21439 0.75035,0.42877 0.42876,0.21439 0.21437,0.42878 0.96473,0.96474 z"
       sodipodi:nodetypes="ccssscccsscsssssssssssssssssscssscsssssscsssssssccssssscsssssssssssssssscssssssssssssssssc" />

    

  </g>
</svg>
