<svg xmlns:inkscape="http://www.inkscape.org/namespaces/inkscape" xmlns:sodipodi="http://sodipodi.sourceforge.net/DTD/sodipodi-0.dtd" xmlns="http://www.w3.org/2000/svg" xmlns:svg="http://www.w3.org/2000/svg" width="440mm" height="300mm" viewBox="0 0 440 300" version="1.1" id="SVGRoot" sodipodi:docname="map.svg" inkscape:version="1.1.1 (3bf5ae0d25, 2021-09-20)">
  <sodipodi:namedview id="namedview345" pagecolor="#ffffff" bordercolor="#666666" borderopacity="1.0" inkscape:pageshadow="2" inkscape:pageopacity="0.0" inkscape:pagecheckerboard="0" inkscape:document-units="mm" showgrid="false" inkscape:zoom="0.22716751" inkscape:cx="464.41501" inkscape:cy="187.08661" inkscape:window-width="1280" inkscape:window-height="737" inkscape:window-x="-8" inkscape:window-y="-8" inkscape:window-maximized="1" inkscape:current-layer="layer1"/>
  <defs id="defs340"/>
  <g inkscape:label="Warstwa 1" inkscape:groupmode="layer" id="layer1">
    <path style="display:inline;overflow:visible;visibility:visible;fill:none;fill-opacity:1;fill-rule:evenodd;stroke:#ff0000;stroke-width:0.606375;marker:none;marker-start:none;marker-mid:none;marker-end:none;enable-background:accumulate" d="m 394.52484,234.60159 c 0,0 0.10718,0.32158 0.42876,-0.96474 0.3216,-1.28632 0.10721,-1.92948 0.53599,-2.89421 0.42876,-0.96474 0.64315,-0.85755 1.50069,-1.28632 0.85754,-0.42877 1.07193,-0.64316 1.28632,-1.07193 0.21437,-0.42877 0.85755,-0.53596 1.50069,-0.42877 0.64315,0.10719 0.96475,0.42877 1.50072,-0.32158 0.53594,-0.75035 0.42876,-0.96474 0.96473,-0.75035 0.53596,0.21438 0.21439,0.21438 0.96475,0.42877 0.75033,0.21439 1.50069,0.53597 3.0014,0.21439 1.50069,-0.32158 1.60787,-1.07194 1.71508,-0.21439 0.10719,0.85755 0.10719,0.96473 0.64315,0.96473 0.53597,0 0.53597,0.1072 0.2144,0.75036 -0.32158,0.64316 -0.10719,0.21438 -0.96476,1.39351 -0.85754,1.17912 -1.28629,1.28631 -1.3935,2.14386 -0.10719,0.85754 0.10721,1.39351 0.10721,1.39351 0,0 -0.42879,1.17912 0.32157,1.17912 0.75036,0 0.85754,-0.32158 1.82229,-0.42877 0.96473,-0.10719 1.82227,-0.21439 1.92948,0.75035 0.10718,0.96474 0.75033,2.78702 1.3935,2.89421 0.64315,0.1072 0.64315,0.32158 1.71509,0.1072 1.07193,-0.21439 1.50069,0.32158 1.6079,-0.64316 0.10718,-0.96474 0.10718,-1.17912 0.10718,-1.92947 0,-0.75036 -1.07193,0.42876 0.32157,-1.7151 1.39351,-2.14386 1.71511,-0.75035 1.39351,-3.10859 -0.32157,-2.35825 -0.96472,-2.14387 -0.42876,-3.64457 0.53597,-1.5007 0.32158,-1.5007 0.64315,-1.39351 0,0 0.96475,-0.10719 1.07193,1.39351 0.10721,1.5007 0.53597,2.78702 0.53597,3.43018 0,0.64316 0.42879,3.00141 0.42879,3.00141 0,0 0.75033,0.85754 1.17911,0.53596 0.42876,-0.32158 1.07193,-0.42877 1.07193,-1.17912 0,-0.75036 0.2144,-1.6079 0.42876,-1.17913 0.21439,0.42877 0.85757,0.75035 0.85757,1.39351 0,0.64316 -0.10721,1.28632 0,1.92948 0.10718,0.64315 0.75033,1.28632 0.75033,1.28632 0,0 0.21439,1.28631 0.21439,1.71508 0,0.42878 0.21439,0.75036 0,1.82229 -0.21439,1.07192 -0.21439,1.17912 -0.10718,2.14386 0.10718,0.96473 0.21436,1.39351 0.64315,1.5007 0.42878,0.10719 0.42878,0.10719 0.85754,0.10719 0.42878,0 0.53597,-0.42877 0.85754,0.1072 0.32158,0.53596 0.42878,0.85754 1.17912,0.96473 0.75035,0.10719 1.39353,0 1.39353,0 0,0 0.32157,0.53597 0.32157,1.17912 0,0.64316 -0.10718,0.85755 0.10719,1.71509 0.21439,0.85755 0.21439,0.96474 0.75036,1.07194 0.53596,0.10719 0.85754,0.21438 0.85754,0.21438 0,0 0.10721,0.53597 0.10721,1.39351 0,0.85755 0.21436,1.39351 0.21436,1.39351 l 0.85754,0.64316 c 0,0 0.21439,0.53597 0.64318,1.07193 0.42876,0.53596 0.85754,0.64316 0.85754,0.64316 0,0 0.32157,0.64316 0.42876,1.17912 0.10721,0.53597 -0.21437,0.21439 0.42878,0.96474 0.64315,0.75035 0.75036,0.96473 0.75036,1.60789 0,0.64316 0.53596,1.07193 0.32157,1.92948 -0.21439,0.85754 -0.10721,1.17912 -0.21439,2.25106 -0.10718,1.07192 0.10718,-0.2144 -0.10718,1.60789 -0.21439,1.82228 -0.10721,2.35825 -0.21439,3.0014 -0.10719,0.64316 -0.32158,0.1072 -0.42879,1.28632 -0.10718,1.17913 -0.21439,2.14386 -0.21439,2.14386 0,0 -0.75033,1.07193 -1.2863,1.07193 -0.53596,0 -1.50071,-0.42877 -1.50071,0.1072 0,0.53596 -0.53594,0.96473 0.21439,1.17912 0.75036,0.21439 0.96475,-0.42877 0.96475,0.32158 0,0.75035 -0.21439,0.96474 -0.85754,1.5007 -0.64318,0.53596 -0.64318,0.42878 -1.39354,0.85754 -0.75033,0.42878 -0.32157,-0.21438 -0.85754,1.17913 -0.53594,1.39351 -0.42876,1.39351 -0.85754,1.92948 -0.42876,0.53596 -0.53597,0.53596 -0.75033,1.17912 -0.21439,0.64315 -0.21439,0.85754 -0.21439,1.60789 0,0.75036 -0.21439,1.07193 -0.21439,1.07193 0,0 -0.85755,0.85755 -0.85755,1.6079 0,0.75035 0.53597,1.07193 0.10719,1.60789 -0.42876,0.53597 0,0.53597 -0.96473,0.64316 -0.96475,0.1072 -1.3935,0.1072 -1.3935,0.1072 l -1.50072,0.32158 c 0,0 -0.21439,-0.64317 -0.75036,-0.32158 -0.53597,0.32158 -0.32157,0.21438 -0.75033,0.75035 -0.42878,0.53596 -0.53597,0.53596 -1.07193,0.85754 -0.53597,0.32158 0,0.42877 -0.32158,0.96474 -0.3216,0.53597 -0.42878,1.07193 -1.07193,0.75035 -0.64318,-0.32158 -0.85757,-0.21438 -1.07193,-0.85754 -0.2144,-0.64316 0.10718,-0.75036 -0.96475,-1.07193 -1.07194,-0.32158 -1.17912,-0.32158 -1.17912,-0.32158 0,0 -0.32157,0.21438 -0.53597,0.75035 -0.21439,0.53596 0.10719,0.75035 -0.64315,1.07193 -0.75035,0.32158 -0.75035,0.64316 -1.50071,0.10719 l 0.14277,-0.1634 c 0,0 0,-3.43017 0.10718,-4.28772 0.10721,-0.85755 -0.21439,-0.75035 -0.64315,-1.39351 -0.42878,-0.64316 0.53597,-25.61914 0.42876,-26.15511 -0.10719,-0.53596 -18.11563,0.21439 -18.11563,0.21439 z" id="eastern_australia" sodipodi:nodetypes="csssssssssssssscsssssssssscsscssssscssssssscssscsccscsssssssscsssssssssscsssccssssssscssc"/>
    </g>
</svg>