<svg xmlns:inkscape="http://www.inkscape.org/namespaces/inkscape" xmlns:sodipodi="http://sodipodi.sourceforge.net/DTD/sodipodi-0.dtd" xmlns="http://www.w3.org/2000/svg" xmlns:svg="http://www.w3.org/2000/svg" width="440mm" height="300mm" viewBox="0 0 440 300" version="1.1" id="SVGRoot" sodipodi:docname="map.svg" inkscape:version="1.1.1 (3bf5ae0d25, 2021-09-20)">
  <sodipodi:namedview id="namedview345" pagecolor="#ffffff" bordercolor="#666666" borderopacity="1.0" inkscape:pageshadow="2" inkscape:pageopacity="0.0" inkscape:pagecheckerboard="0" inkscape:document-units="mm" showgrid="false" inkscape:zoom="0.22716751" inkscape:cx="464.41501" inkscape:cy="187.08661" inkscape:window-width="1280" inkscape:window-height="737" inkscape:window-x="-8" inkscape:window-y="-8" inkscape:window-maximized="1" inkscape:current-layer="layer1"/>
  <defs id="defs340"/>
  <g inkscape:label="Warstwa 1" inkscape:groupmode="layer" id="layer1">
    <path id="western_australia" style="display:inline;overflow:visible;visibility:visible;fill:none;fill-opacity:1;fill-rule:evenodd;stroke:#ff0000;stroke-width:0.606375;marker:none;marker-start:none;marker-mid:none;marker-end:none;enable-background:accumulate" d="m 412.96204,289.27004 0.14277,-0.1634 c 0,0 0,-3.43017 0.10718,-4.28772 0.10721,-0.85755 -0.21439,-0.75035 -0.64315,-1.39351 -0.42878,-0.64316 0.53597,-25.61914 0.42876,-26.15511 -0.10719,-0.53596 -18.11563,0.21439 -18.11563,0.21439 l -0.35713,-22.8831 -1.28633,-0.75035 c 0,0 -0.96472,-0.64316 -1.50068,-0.96474 -0.53597,-0.32158 -0.96475,1.17912 -1.39351,1.39351 -0.42879,0.21438 -1.71511,0.96474 -1.71511,0.96474 0,0 -0.32157,1.07192 -0.53597,1.82228 -0.21436,0.75035 -1.17911,0.10719 -2.35823,0.53597 -1.17911,0.42876 -0.10721,0.42876 -0.42878,1.5007 -0.32158,1.07193 -0.32158,0.10719 -1.2863,0.10719 -0.96475,0 -0.42878,0.42877 -1.07193,1.28632 -0.64318,0.85754 -0.75036,0.21438 -1.6079,0.96473 -0.85754,0.75035 -0.21439,0.75035 -0.75036,1.82228 -0.53597,1.07194 -0.64315,0.53597 -1.2863,0.96474 -0.64317,0.42877 -1.71511,1.5007 -2.35826,2.14386 -0.64315,0.64316 -0.96475,0.32158 -2.25105,0.21439 -1.28632,-0.1072 -0.53596,0 -1.50071,0.10719 -0.96473,0.10719 -0.75036,0.75035 -1.39351,1.28632 -0.64315,0.53596 -0.96472,0.75035 -1.71508,1.5007 -0.75036,0.75035 -0.32158,0.32158 -1.50072,0.42877 -1.17911,0.1072 -0.64315,0.1072 -1.82226,0.85755 -1.17914,0.75035 -0.10721,0.96474 -0.21439,1.82228 -0.10721,0.85755 -0.32158,0.85755 -0.64315,1.60789 -0.3216,0.75036 0,0.96474 0.32157,1.82229 0.32158,0.85754 0.96472,0.32158 0.96472,0.32158 0,0 -0.21436,1.28631 0,1.71508 0.2144,0.42878 -0.10718,0 -1.07193,0 -0.96472,0 -0.42876,0.32158 -0.42876,1.07193 0,0.75036 0,0.75036 0,0.75036 0,0 -0.32157,0.10719 -0.64317,0.75034 -0.32158,0.64317 0,0.53597 0.10721,1.28633 0.10718,0.75034 0.21439,1.07192 0.53596,1.82228 0.32158,0.75035 0.64315,0.53596 1.17912,1.71509 0.53597,1.17912 0.21439,1.28631 0.21439,2.35824 0,1.07193 0,0.75035 0.10718,2.14386 0.10721,1.39351 0.75036,0.96474 0.75036,0.96474 0,0 0.75036,0.53597 1.17912,0.85754 0.42878,0.32158 0.42878,0.64316 0.64317,1.7151 0.21437,1.07193 -0.3216,0.85754 -0.53596,1.50069 -0.21439,0.64316 0,0.42878 -0.10721,1.7151 -0.10718,1.28631 -0.53597,0.75035 -0.96473,1.28631 -0.42878,0.53596 -0.32157,0.53596 -0.64317,1.39351 -0.32158,0.85754 0,0.64316 0.53597,1.07193 0.53596,0.42877 1.17914,0.75035 1.82229,1.28632 1.48005,1.62072 3.07027,1.20642 4.93088,0.21439 0.96472,-0.53597 0.53596,-0.64316 1.28632,-0.96474 0.75033,-0.32158 0.53597,-0.21439 0.96473,-0.42878 0.42878,-0.21438 0.75035,-0.53596 1.3935,-1.17912 0.64318,-0.64315 0.2144,-0.10719 0.96475,-0.53597 0.75036,-0.42876 0.85754,-0.75034 2.03666,-1.17912 1.17912,-0.42877 1.50072,-0.10719 1.50072,-0.10719 0,0 0,0 0.96472,0 0.96475,0 0.42878,0.10719 0.64318,0.53597 0.21436,0.42876 0.85754,0.42876 1.28629,0.42876 0.42879,0 1.07194,-0.10718 1.6079,-0.32157 0.53597,-0.21439 -0.10718,-0.96474 -0.10718,-1.39351 0,-0.42877 0,-0.53597 0.32158,-1.28632 0.32157,-0.75035 1.28632,-0.96473 1.71508,-0.96473 0.42878,0 1.50071,-0.21439 1.92947,-0.64316 0.42879,-0.42877 0.64318,-0.21439 1.50072,-0.32158 0.85754,-0.10719 0.75036,-0.32159 1.3935,-0.96474 0.64315,-0.64316 0.64315,-0.32158 1.82227,-0.32158 1.17914,0 0.64318,0 1.82229,0 1.17912,0 1.07193,0.10719 1.82229,0.21439 0.75033,0.10719 1.17912,0.85754 1.71508,1.17912 0.53597,0.32158 0.2144,0.42877 0.2144,1.28631 0,0.85755 0.10718,0.96474 0.96472,2.46545 0.85754,1.5007 1.28632,1.5007 1.28632,1.5007 0,0 0.75036,-1.07193 1.39351,-2.03667 0.64315,-0.96474 0.53597,-0.32158 1.50072,-0.64316 0.96472,-0.32158 0.32157,-0.64316 0.53594,-2.03666 0.21439,-1.39351 0.64317,-0.42878 1.39353,-0.32158 0.75033,0.10719 0,1.3935 -0.21439,2.14386 -0.21439,0.75035 -0.64318,0.96473 -1.17914,1.5007 -0.53594,0.53597 -0.53594,0.64316 -1.17912,1.39351 -0.64315,0.75035 -0.32157,0.64316 -0.21439,1.5007 0.10721,0.85755 1.17914,-0.75035 1.6079,-1.39351 0.42878,-0.64315 0.42878,-0.21439 0.96475,-0.10719 0.53597,0.10719 0.10718,1.39351 0.10718,2.03667 0,0.64316 0.10721,0.53596 0.64315,0.85754 0.536,0.32158 0.536,0.96474 0.21439,1.82228 -0.32157,0.85755 0,0.85755 0.10721,1.50071 0.10719,0.64315 1.2863,2.25105 1.71509,2.67982 0.42878,0.42877 0.32157,0.21439 0.75035,0.42877 0.42876,0.21439 0.21437,0.42878 0.96473,0.96474 z" sodipodi:nodetypes="ccssscccsscsssssssssssssssssscssscsssssscsssssssccssssscsssssssssssssssscssssssssssssssssc"/>

    

  </g>
</svg>