<?xml version="1.0" encoding="UTF-8" standalone="no"?>
<!-- Created with Inkscape (http://www.inkscape.org/) -->

<svg
   width="440mm"
   height="300mm"
   viewBox="0 0 440 300"
   version="1.1"
   id="SVGRoot"
   sodipodi:docname="map.svg"
   inkscape:version="1.1.1 (3bf5ae0d25, 2021-09-20)"
   xmlns:inkscape="http://www.inkscape.org/namespaces/inkscape"
   xmlns:sodipodi="http://sodipodi.sourceforge.net/DTD/sodipodi-0.dtd"
   xmlns="http://www.w3.org/2000/svg"
   xmlns:svg="http://www.w3.org/2000/svg">
  <sodipodi:namedview
     id="namedview345"
     pagecolor="#ffffff"
     bordercolor="#666666"
     borderopacity="1.0"
     inkscape:pageshadow="2"
     inkscape:pageopacity="0.0"
     inkscape:pagecheckerboard="0"
     inkscape:document-units="mm"
     showgrid="false"
     inkscape:zoom="0.22716751"
     inkscape:cx="464.41501"
     inkscape:cy="187.08661"
     inkscape:window-width="1280"
     inkscape:window-height="737"
     inkscape:window-x="-8"
     inkscape:window-y="-8"
     inkscape:window-maximized="1"
     inkscape:current-layer="layer1" />
  <defs
     id="defs340" />
  <g
     inkscape:label="Warstwa 1"
     inkscape:groupmode="layer"
     id="layer1">
    <path
       id="southern_europe"
       style="display:inline;overflow:visible;visibility:visible;fill:none;fill-opacity:1;fill-rule:evenodd;stroke:#ff0000;stroke-width:0.606375;marker:none;marker-start:none;marker-mid:none;marker-end:none;enable-background:accumulate"
       d="m 233.78204,109.43554 c 0.15159,-0.0379 0.30319,-0.49268 0.45478,-0.72008 0.1516,-0.22738 0.72007,-0.26528 0.72007,-0.26528 0,0 0.98536,-0.0379 1.40225,0.22739 0.41688,0.26529 0.15159,0.45478 0.18949,1.25065 0.0379,0.79586 0.0379,0.64427 0.15159,1.02325 0.1137,0.37899 0.30319,0.2274 0.98536,0.41689 0.68217,0.18949 0.45478,0.11369 0.98536,0.18949 0.53058,0.0758 0.41689,0.45478 0.68217,1.02326 0.26529,0.56848 0.30319,0.98536 0.56848,1.47804 0.26529,0.49268 0.26529,0.79587 0.26529,0.94746 0,0.1516 -0.18949,0.90956 -0.22739,1.32645 -0.0379,0.41688 -0.22739,0.49268 -0.30319,0.68217 -0.0758,0.18949 -0.0379,0.72007 -0.0379,0.90956 0,0.18949 0.26529,0.45478 0.49268,0.72007 0.22739,0.26529 0.22739,0.49268 0.22739,0.90957 0,0.41688 -0.34108,1.06115 -0.34108,1.44014 0,0.37898 0.56847,0.64427 0.49268,0.98536 -0.0758,0.34108 1.32644,1.36434 1.32644,1.36434 0,0 -0.68217,0.45479 -0.37898,0.90957 0.30319,0.45478 0.68217,0.83376 0.53058,1.13695 -0.1516,0.30319 -0.0758,0.30319 -0.45478,0.60638 -0.37899,0.30319 -0.60638,0.22739 -0.60638,0.90956 0,0.68217 0.53058,0.83377 0.1516,1.44014 -0.37899,0.60638 -0.2274,0.53058 -0.53058,0.98536 -0.30319,0.45478 -0.45479,0.83377 -0.60638,1.28855 -0.15159,0.45478 0.30319,0.53058 -0.22739,0.98536 -0.53058,0.45478 -0.68217,0.22739 -0.83377,0.75797 -0.15159,0.53058 0.0758,0.53058 -0.22739,0.90956 -0.30318,0.37899 -0.30318,0.60638 -0.60637,0.83377 -0.30319,0.22739 -0.30319,0.15159 -0.68218,0.60637 -0.37898,0.45479 -0.0758,0.68218 -0.37898,1.06116 -0.30319,0.37898 -0.53058,0.0758 -0.68217,0.60638 -0.1516,0.53057 0,0.30318 0.0758,0.83376 0.0758,0.53058 0.45478,0.53058 0,1.13696 -0.45479,0.60637 -0.68218,0.98536 -0.98537,1.21275 -0.30318,0.22739 -0.30318,-0.0758 -0.53057,0.60637 -0.22739,0.68217 0.15159,0.90957 -0.30319,1.06116 -0.45478,0.15159 -0.68217,0.15159 -1.13696,0.22739 -0.45478,0.0758 -0.68217,-0.0758 -0.98535,0 -0.30319,0.0758 -0.45479,0 -0.68218,0.37899 -0.22739,0.37898 -0.45478,0.30318 -0.15159,0.75796 0.30319,0.45479 0.22739,0.45479 0.53058,0.75797 0.30319,0.30319 0.53058,0.53058 0.83376,0.83377 0.30319,0.30319 0.53058,0.45478 0.60638,0.83377 0.0758,0.37898 0.0758,0.68217 0.0758,0.68217 0,0 0.37898,1.13695 0.0758,1.28855 -0.30319,0.15159 -0.60637,0.15159 -0.68217,0.60637 -0.0758,0.45478 -0.15159,0.30319 0,0.83377 0.15159,0.53058 0,0.53058 0.30319,0.83376 0.30319,0.30319 0.37898,0.30319 0.83376,0.75797 0.45479,0.45479 0.98536,0.53058 0.68218,0.90957 -0.30319,0.37898 -0.68218,0.45478 -1.13696,0.30319 -0.45478,-0.1516 -0.68217,0.22739 -0.98536,-0.45479 -0.30318,-0.68217 -0.45478,-0.83376 -0.45478,-0.83376 0,0 -0.45478,0.0758 -0.45478,0.45478 0,0.37898 1.13695,0.45478 -0.30319,0.45478 -1.44014,0 -1.28855,0.45478 -1.66753,0 -0.37899,-0.45478 -0.0758,-0.60638 -0.60638,-0.75797 -0.53058,-0.15159 -0.60637,0.30319 -0.83376,-0.15159 -0.22739,-0.45479 -0.30319,-0.45479 -0.30319,-1.13696 0,-0.68217 0.37898,-0.68217 0.15159,-1.59173 -0.22739,-0.90956 -0.37898,-0.68217 -0.53057,-1.21275 -0.1516,-0.53058 0,-0.53058 0,-1.21275 0,-0.68218 -0.2274,-0.98536 -0.2274,-0.98536 0,0 -0.22739,-0.1516 -0.37898,-0.90957 -0.15159,-0.75797 -0.0758,-0.83376 -0.22739,-1.51594 -0.1516,-0.68217 -0.0758,-0.90956 -0.45478,-0.90956 -0.37899,0 -0.1516,0.30319 -0.75797,-0.15159 -0.60638,-0.45478 -0.30319,-0.60638 -0.83377,-0.83377 -0.53058,-0.22739 -0.60638,0.22739 -0.75797,-0.53058 -0.15159,-0.75797 -0.15159,-0.37898 -0.15159,-1.28855 0,-0.90956 0,-1.21275 0,-1.59173 0,-0.37899 0.30318,-0.37899 -0.1516,-0.98536 -0.45478,-0.60638 -0.37898,-0.75797 -0.90956,-0.83377 -0.53058,-0.0758 -0.37898,0.53058 -0.83377,-0.22739 -0.45478,-0.75797 -0.53057,-1.21275 -1.13695,-1.36434 -0.60637,-0.1516 -0.53058,0.22739 -0.83377,-0.1516 -0.30318,-0.37898 -0.15159,-0.45478 -0.53058,-0.83376 -0.37898,-0.37899 0.0758,-0.53058 -0.90956,-0.53058 -0.98536,0 -0.98536,-0.53058 -1.51594,-0.30319 -0.53057,0.22739 -0.68217,0.60637 -0.68217,0.98536 0,0.37898 0,0.37898 0.0758,0.90956 0.0758,0.53058 -0.0758,0.83377 0.30319,0.90957 0.37898,0.0758 0.37898,-0.30319 0.45478,0.37898 0.0758,0.68217 -0.0758,1.36435 0.83376,0.98536 0.90957,-0.37898 1.44014,-0.90956 1.51594,-0.45478 0.0758,0.45478 -0.0758,0.53058 0.0758,1.13695 0.15159,0.60638 0,1.13696 0.53058,1.51594 0.53058,0.37899 0.75797,0.37899 0.98536,0.68217 0.22739,0.30319 0.15159,0.22739 0.45478,0.37899 0.30319,0.15159 0.30319,0.83377 0.68217,1.36435 0.37899,0.53057 0.83377,0.0758 0.60638,0.75796 -0.22739,0.68218 -0.22739,0.98536 -0.53058,1.21276 -0.30319,0.22739 -0.98536,0.45478 -1.44014,0.0758 -0.45478,-0.37898 -0.83377,-0.68217 -0.83377,-0.68217 0,0 0.37899,-0.75797 -0.53058,-0.53058 -0.90956,0.22739 -0.90956,0.30319 -1.28854,0.30319 -0.37899,0 -0.60638,-0.60638 -0.45479,0.22739 0.1516,0.83377 0.75797,1.13695 0.75797,1.13695 0,0 0.68217,0 0.60638,0.75797 -0.0758,0.75797 0.22739,0.53058 -0.1516,1.28855 -0.37898,0.75797 -0.30318,0.60638 -0.60637,1.28855 -0.30319,0.68217 0,0.68217 -0.37899,1.21275 -0.37898,0.53058 -0.53057,0.83376 -1.06115,1.06116 -0.53058,0.22739 -0.53058,-0.2274 -0.75797,0.60637 -0.22739,0.83377 -0.1516,0.83377 -0.53058,0.98536 -0.37899,0.15159 -1.21275,0.15159 -1.51594,0.37899 -0.30319,0.22739 0.22739,0.53057 -0.60637,0.30318 -0.83377,-0.22739 -0.60638,-0.22739 -0.98537,-0.30318 -0.37898,-0.0758 -0.53057,-0.0758 -0.83376,-0.45479 -0.30319,-0.37898 -0.0758,-1.06115 -0.37899,-0.83376 -0.30318,0.22739 -0.53057,1.06115 -0.83376,0.22739 -0.30319,-0.83377 -0.22739,-0.90956 -0.53058,-1.06116 -0.30319,-0.15159 -0.45478,0.75797 -0.53058,-0.22739 -0.0758,-0.98536 -0.22739,-0.98536 0.22739,-1.44014 0.45478,-0.45478 0.60638,-0.60638 0.98536,-0.60638 0.37899,0 0.45478,0.0758 0.90957,0.1516 0.45478,0.0758 0.37898,0.45478 0.75796,0.53058 0.37899,0.0758 1.51594,-0.60638 1.66754,-0.1516 0.15159,0.45479 -0.1516,1.81913 0.22739,0.60638 0.37898,-1.21275 0.15159,-1.44014 0.68217,-1.89492 0.53058,-0.45479 1.06116,-0.90957 1.28855,-1.21276 0.22739,-0.30318 0.45478,-0.75797 -0.0758,-1.28854 -0.53058,-0.53058 -0.68217,0 -0.68217,-0.98536 0,-0.98536 0.15159,-1.21275 -0.1516,-1.74333 -0.30318,-0.53058 0,-0.37899 -0.60637,-0.68218 -0.60638,-0.30318 -0.60638,-0.45478 -0.90956,-0.83376 -0.30319,-0.37899 -0.83377,-0.68217 -1.36435,-0.83377 -0.53058,-0.15159 -0.15159,0.22739 -0.68217,-0.60637 -0.53058,-0.83377 -0.68217,-1.06116 -1.13696,-0.98536 -0.45478,0.0758 -0.22739,0.68217 -0.68217,0.15159 -0.45478,-0.53058 -0.30318,-0.60637 -0.60637,-0.83377 -0.30319,-0.22739 -0.45478,0 -0.83377,-0.30318 -0.37899,-0.30319 -0.37899,-0.30319 -0.45478,-0.90957 -0.0758,-0.60637 0.0758,-0.83376 -0.30319,-1.13695 -0.37898,-0.30319 -1.13695,-0.53058 -1.13695,-0.53058 0,0 0.15159,-0.15159 -0.83377,0 -0.98536,0.15159 -1.06116,0.15159 -1.36434,0.37898 0,0 1.47004,-0.51625 0.5053,-1.37379 -0.96474,-0.85755 -1.39351,-1.92948 -0.96474,-2.03667 0.42878,-0.1072 0.96474,-0.53596 1.07194,-0.96474 0.10719,-0.42877 0.26798,-1.28632 0.0536,-1.5543 -0.21439,-0.26798 -1.33991,-1.01833 -1.33991,-1.01833 0,0 -0.64316,-0.53597 -0.53597,-0.75036 0.10719,-0.21438 0.64316,-0.80394 0.64316,-0.80394 0,0 0.64315,0.10719 0.64315,-0.80395 0,-0.91114 0,-1.39351 -0.21438,-1.92948 -0.21439,-0.53596 -0.26798,-0.96473 0.10719,-1.33991 0.37518,-0.37518 0.80395,-0.96474 0.91114,-1.17912 0.1072,-0.21439 0.1072,-0.58956 0.80395,-0.48237 0.69676,0.10719 0.85755,-0.0536 1.33991,-0.26799 0.48237,-0.21438 0.96474,-0.80394 0.96474,-0.80394 0,0 0.80395,-0.1072 0.80395,0.16079 0,0.26798 0.53596,1.82228 1.07193,1.60789 0.53597,-0.21438 1.5543,-0.48236 2.03667,-0.75035 0.48237,-0.26798 0.42877,-0.53596 1.07193,-0.48237 0.64316,0.0536 0.75035,0.16079 1.4471,-0.0536 0.69676,-0.21438 1.07193,-0.26798 1.39351,-0.69675 0.32158,-0.42877 1.44711,-1.39351 1.44711,-1.92948 0,-0.53596 0,-1.23272 0,-1.23272 0,0 2.30465,-0.32158 2.84062,-0.37517 0.53596,-0.0536 1.07193,-0.0536 1.39351,-0.26799 0.32158,-0.21438 0.32158,-0.64316 0.58956,-0.69675 0.26798,-0.0536 1.12552,0.10719 1.12552,0.10719 0,0 0,0.16079 0.26799,0.21439 0.26798,0.0536 0.80395,0.64316 0.69675,1.12552 -0.10719,0.48237 -0.42877,1.01834 -0.53596,1.23273 -0.1072,0.21438 -0.37518,0.91114 -0.32158,1.12552 0.0536,0.21439 0.64316,1.07193 0.64316,1.07193 v 2.35825 h 5.57404 c 0,0 0.42877,-0.91114 0.37517,-1.33991 -0.0536,-0.42878 -0.53597,-1.07194 -0.53597,-1.28632 0,-0.21438 0.1072,-1.92947 0.1072,-1.92947 0,0 0.32158,-1.76869 1.12553,-2.30466 0.80394,-0.53596 1.28631,-0.75035 1.33991,-1.01833 0.0536,-0.26798 0.16079,-0.80395 0.42877,-0.91114 0.26798,-0.1072 0.69676,-0.53596 0.69676,-0.53596 0,0 -0.1608,0 0.26116,-0.66133 z"
       sodipodi:nodetypes="cscssssssssssssssscsssssssssssssssssssssssssscsssssssscssssssssscsssssssssssssssssssssssssssssscssscsssssssssssssssssssssssssssssssssssscsc" />
    <path
       id="western_europe"
       style="display:inline;overflow:visible;visibility:visible;fill:none;fill-opacity:1;fill-rule:evenodd;stroke:#ff0000;stroke-width:0.606375;marker:none;marker-start:none;marker-mid:none;marker-end:none;enable-background:accumulate"
       d="m 206.13305,117.97555 c -0.69675,-0.10719 -0.69675,0.26798 -0.80394,0.48237 -0.1072,0.21438 -0.53596,0.80394 -0.91114,1.17912 -0.37518,0.37518 -0.32158,0.80395 -0.1072,1.33991 0.21439,0.53597 0.21439,1.01834 0.21439,1.92948 0,0.91114 -0.64316,0.80395 -0.64316,0.80395 0,0 -0.53596,0.58956 -0.64316,0.80394 -0.10719,0.21439 0.53597,0.75036 0.53597,0.75036 0,0 1.12552,0.75035 1.33991,1.01833 0.21439,0.26798 0.0536,1.12553 -0.0536,1.5543 -0.1072,0.42878 -0.64316,0.85754 -1.07193,0.96474 -0.42878,0.10719 0,1.17912 0.96473,2.03667 0.96474,0.85754 0.35224,1.05222 0.35224,1.05222 0,0 -0.55435,0.0942 -0.85754,0.32157 -0.30319,0.2274 -0.0758,0.2274 -0.37898,0.60638 -0.30319,0.37899 -0.22739,0.45478 -0.75797,0.60638 -0.53058,0.15159 -0.0758,0.45478 -0.60638,0.37898 -0.53058,-0.0758 -0.45478,0.15159 -0.75797,-0.15159 -0.30319,-0.30319 -0.0758,-0.68217 -0.60637,-0.68217 -0.53058,0 -0.75797,0.0758 -0.53058,-0.37899 0.22739,-0.45478 0.53058,-0.45478 -0.0758,-0.45478 -0.60638,0 -0.53058,0.15159 -1.28855,0 -0.75797,-0.1516 -1.06115,-0.0758 -1.36434,-0.0758 l -0.83377,1.51594 c 0,0 0.0758,0.30319 0,0.68217 -0.0758,0.37899 -0.37898,0.68218 -0.37898,0.68218 0,0 -0.22739,0.22739 -0.22739,0.68217 0,0.45478 0.15159,0.53057 -0.30319,0.98536 -0.45478,0.45478 -0.45478,0.60637 -0.75797,0.75797 -0.30319,0.15159 -0.30319,0.0758 -0.53058,0.37898 -0.22739,0.30319 -0.37898,0.30319 -0.53058,0.68217 -0.15159,0.37899 -0.15159,0.37899 0.0758,0.75797 0.22739,0.37899 0.37898,0.83377 0.37898,0.83377 0,0 0.22739,0.0758 0.0758,0.75797 -0.15159,0.68217 -0.22739,1.13695 -0.22739,1.13695 0,0 0,0.30319 0.0758,0.90956 0.0758,0.60638 0.60637,1.28855 0.60637,1.28855 l 0.37899,0.53058 c 0,0 0.22739,0.90956 0.30319,1.36435 0.0758,0.45478 0.75797,0.30319 0.0758,0.90956 -0.68217,0.60637 -1.66753,0.98536 -2.3497,2.12231 -0.68218,1.13696 -0.45479,2.04652 -0.98536,2.6529 -0.53058,0.60637 -0.0758,0.68217 -0.75797,0.68217 -0.68217,0 -1.28855,-0.75797 -1.66754,0 -0.37898,0.75797 -0.60637,1.44014 -1.13695,1.51594 -0.53058,0.0758 -0.60638,-0.83377 -0.60638,0.22739 0,1.06116 -0.22739,1.74333 -0.22739,1.74333 0,0 -0.15159,0.53058 -0.68217,0.45478 -0.53058,-0.0758 -0.60637,-0.1516 -1.06116,-0.22739 -0.45478,-0.0758 -0.45478,0.22739 -0.83376,-0.22739 -0.37898,-0.45478 -0.45478,-0.68217 -0.60638,-1.06116 -0.15159,-0.37898 -0.15159,-0.53058 -0.75797,-0.60638 -0.60637,-0.0758 -0.60637,0.1516 -0.90956,-0.37898 -0.30319,-0.53058 -0.45478,-0.68217 -0.90956,-0.60637 -0.45478,0.0758 -0.45478,0.37898 -1.06116,-0.2274 -0.60637,-0.60637 -0.60637,-1.06115 -0.90956,-0.98536 -0.30319,0.0758 -0.68217,0.60638 -0.68217,0.60638 0,0 0.0758,0.30319 -0.83377,0.22739 -0.90956,-0.0758 -1.06116,-0.22739 -1.74333,-0.22739 -0.68217,0 -0.75797,0.45478 -1.36434,0.15159 -0.60638,-0.30318 -0.68218,-0.37898 -0.68218,-0.75797 0,-0.37898 0.0758,-0.90956 -0.22739,-1.21275 -0.30319,-0.30318 0.0758,-0.68217 -0.37898,-0.90956 -0.45478,-0.22739 -0.22739,-0.15159 -0.75797,-0.15159 -0.53058,0 -0.53058,0.0758 -1.06116,-0.2274 -0.53058,-0.30318 -0.75797,0.1516 -0.53058,-0.68217 0.22739,-0.83376 0.0758,-0.75797 0.45478,-1.36434 0.37899,-0.60638 0.37899,-0.60638 0.60638,-1.28855 0.22739,-0.68217 0.30319,-0.83377 0.68217,-1.81912 0.37899,-0.98537 0.53058,-0.68218 0.53058,-1.44015 0,-0.75797 -0.30319,-0.75797 0.15159,-1.28854 0.45479,-0.53058 0.53058,-0.53058 0.45479,-1.13696 -0.0758,-0.60637 0.15159,-0.45478 -0.1516,-0.90956 -0.30319,-0.45478 -1.06115,-1.13696 -1.36434,-1.44015 -0.30319,-0.30318 -0.22739,0.0758 -0.37899,-0.83376 -0.15159,-0.90956 -0.45478,-0.75797 -0.60637,-1.28855 -0.1516,-0.53058 -0.1516,-0.53058 -0.1516,-1.21275 0,-0.68217 -0.53058,-0.45478 -0.53058,-0.83377 0,-0.37898 -0.22739,-0.68217 0.30319,-0.98535 0.53058,-0.30319 0.60638,-0.0758 1.28855,-0.68218 0.68217,-0.60637 0.68217,-0.45478 0.83377,-0.98536 0.15159,-0.53058 0.68217,-0.83376 0.68217,-0.83376 0,0 -0.0758,0.0758 0.37898,0.53057 0.45479,0.45478 0.53058,0.45478 0.60638,0.75797 0.0758,0.30319 -0.22739,0.37899 0.68217,0.60638 0.90956,0.22739 0.68217,0.30319 1.59174,0.30319 0.90956,0 1.13695,0.0758 1.51594,-0.0758 0.37898,-0.15159 0.75797,-0.37899 0.75797,-0.37899 0,0 0.30318,-0.22739 0.83376,-0.22739 0.53058,0 0.60638,-0.0758 1.06116,0.0758 0.45478,0.15159 0.0758,0.22739 0.53058,0.15159 0.45478,-0.0758 0.53057,0.0758 0.90956,-0.15159 0.37898,-0.22739 0.60638,0.15159 0.83377,-0.53058 0.22739,-0.68217 0,-0.90956 0.60637,-1.36434 0.60638,-0.45478 0.83377,-0.60638 1.44014,-0.60638 0.60638,0 -0.37898,-0.98536 -0.75797,-1.06115 -0.37898,-0.0758 -0.60637,0.30318 -0.60637,-0.0758 0,-0.37899 -0.0758,-0.45478 0.15159,-1.06116 0.22739,-0.60637 0.68217,-0.98536 0.68217,-0.98536 0,0 -0.0758,-0.30319 -0.15159,-0.83376 -0.0758,-0.53058 0.98536,-0.83377 0.30319,-1.28855 -0.68217,-0.45478 -0.98536,-0.68217 -1.44014,-0.68217 -0.45478,0 -0.37899,0.75796 -0.75797,-0.1516 -0.37899,-0.90956 -0.0758,-1.06116 -0.45479,-1.51594 -0.37898,-0.45478 -0.53057,-0.30318 -0.90956,-0.83376 -0.37898,-0.53058 0.1516,-0.45479 -0.68217,-1.06116 -0.83377,-0.60638 -1.36434,-0.75797 -1.74333,-0.75797 -0.37898,0 -0.53058,0.53058 -0.45478,-0.22739 0.0758,-0.75797 0.0758,-0.98536 0.60638,-1.44014 0.53057,-0.45478 1.89492,-0.83377 2.4255,-0.90957 0.53057,-0.0758 -0.30319,-0.30318 0.83376,-0.0758 1.13696,0.22739 0.75797,0.22739 1.28855,0.30319 0.53058,0.0758 1.51594,0.37898 1.51594,0.37898 0,0 0.15159,-1.13696 0.45478,-1.51594 0.30319,-0.37898 0.37899,-0.37898 0.60638,-0.98536 0.22739,-0.60637 0.30318,-0.68217 1.06115,-0.90956 0.75797,-0.22739 1.28855,0.37898 1.28855,0.37898 0,0 -0.98536,0.98536 -0.22739,0.60638 0.75797,-0.37899 -0.22739,-1.59174 1.44014,-1.36435 1.66753,0.22739 2.27391,1.21275 2.5013,0.0758 0.22739,-1.13695 0,-1.13695 0.37899,-1.74333 0.37898,-0.60638 0.37898,-0.60638 1.06115,-0.98536 0.68218,-0.37898 0.53058,-1.51594 1.36435,-1.66753 0.83376,-0.1516 0.53058,0 1.28854,-0.1516 0.75798,-0.15159 0.68218,0 1.13696,-0.53057 0,0 0.72007,0.18949 0.68217,0.45478 -0.0379,0.26529 0.60638,1.93282 0.60638,1.93282 0,0 0.79587,0.49268 1.32644,1.25065 0.53058,0.75797 0.79587,1.44014 1.06116,1.51594 0.26529,0.0758 0.41688,0.0758 0.49268,0.56847 0.0758,0.49268 0.1137,0.56848 0.34109,0.87167 0.22739,0.30319 0.56847,0.26529 0.64427,0.72007 0.0758,0.45478 0.18949,0.94746 0.37898,1.17485 0.1895,0.22739 0.75798,0.64428 0.75798,0.64428 0,0 0.49268,0.45478 0.54747,0.35394 z"
       sodipodi:nodetypes="csssscscssssccssssssssccscsssssscscsccsssssssscssssssssscsssssssssssssssssssssssscssssscsssssssssscssssssssssssscssscsssssssc" />
    <path
       id="northern_europe"
       style="display:inline;overflow:visible;visibility:visible;fill:none;fill-opacity:1;fill-rule:evenodd;stroke:#ff0000;stroke-width:0.606375;marker:none;marker-start:none;marker-mid:none;marker-end:none;enable-background:accumulate"
       d="m 231.35654,85.370015 0.75797,0.0758 c 0.51347,0.48128 0.8803,1.04145 1.40224,1.51594 0,0 1.51594,0.83376 2.04652,0.83376 0.53058,0 1.13695,-0.34108 1.44014,-0.37898 0.30319,-0.0379 -0.0379,0.53058 -0.0379,0.72007 0,0.18949 0.41688,1.97072 0.60637,2.3497 0.1895,0.37899 0.2274,4.8889 0.26529,5.72267 0.0379,0.83377 0.83377,1.66753 1.06116,1.85703 0.22739,0.18949 0.37899,0.64427 0.37899,0.83376 0,0.1895 -0.49268,0.83377 -0.53058,1.09906 -0.0379,0.265285 0.0758,0.720065 0.0379,1.061155 -0.0379,0.34108 -0.30319,0.49268 -0.60638,0.75796 -0.30319,0.26529 -0.22739,0.87167 -0.41688,1.25065 -0.1895,0.37899 -0.49268,0.37899 -0.87167,0.53058 -1.02178,1.39418 -1.27192,2.63017 -3.03187,3.03188 -0.34109,0 -1.25065,0.26529 -1.36435,0.56848 -0.11369,0.30319 -0.11369,0.90956 -0.11369,0.90956 l 1.40224,1.32645 c -0.42195,0.66132 -0.26116,0.66132 -0.26116,0.66132 0,0 -0.42877,0.42877 -0.69676,0.53597 -0.26798,0.10719 -0.37517,0.64315 -0.42877,0.91113 -0.0536,0.26799 -0.53596,0.48238 -1.33991,1.01834 -0.80395,0.53596 -1.12553,2.30465 -1.12553,2.30465 0,0 -0.10719,1.71509 -0.10719,1.92947 0,0.21439 0.48237,0.85755 0.53597,1.28632 0.0536,0.42878 -0.37518,1.33991 -0.37518,1.33991 h -5.57404 v -2.35824 c 0,0 -0.58956,-0.85755 -0.64316,-1.07194 -0.0536,-0.21438 0.21439,-0.91114 0.32158,-1.12552 0.1072,-0.21438 0.42878,-0.75035 0.53596,-1.23272 0.1072,-0.48237 -0.42876,-1.07193 -0.69675,-1.12553 -0.26798,-0.0536 -0.26798,-0.21438 -0.26798,-0.21438 0,0 -0.85755,-0.16079 -1.12553,-0.1072 -0.26798,0.0536 -0.26798,0.48238 -0.58956,0.69676 -0.32158,0.21438 -0.85755,0.21438 -1.39351,0.26798 -0.53596,0.0536 -2.84061,0.37518 -2.84061,0.37518 0,0 0,0.69675 0,1.23272 0,0.53597 -1.12553,1.5007 -1.44711,1.92947 -0.32158,0.42877 -0.69676,0.48237 -1.39351,0.69676 -0.69675,0.21438 -0.80395,0.10719 -1.44711,0.0536 -0.64316,-0.0536 -0.58956,0.21438 -1.07193,0.48237 -0.48237,0.26798 -1.5007,0.53597 -2.03667,0.75035 -0.53596,0.21438 -1.07193,-1.33992 -1.07193,-1.6079 0,-0.26798 -0.80395,-0.16078 -0.80395,-0.16078 0,0 -0.48236,0.58956 -0.96473,0.80394 -0.48237,0.21439 -0.64316,0.37518 -1.33992,0.26798 -0.69675,-0.10719 -0.54747,-0.35394 -0.54747,-0.35394 0,0 -0.56848,-0.41688 -0.75797,-0.64427 -0.18949,-0.22739 -0.30319,-0.72007 -0.37898,-1.17485 -0.0758,-0.45479 -0.41689,-0.41689 -0.64428,-0.72008 -0.22739,-0.30318 -0.26529,-0.37898 -0.34108,-0.87166 -0.0758,-0.49268 -0.22739,-0.49268 -0.49268,-0.56848 -0.26529,-0.0758 -0.53058,-0.75797 -1.06116,-1.51594 -0.53058,-0.75796 -1.32645,-1.25065 -1.32645,-1.25065 0,0 -0.64427,-1.66753 -0.60637,-1.93282 0.0379,-0.26529 -0.68218,-0.45478 -0.68218,-0.45478 0.45479,-0.53058 0.83377,-1.89492 1.21276,-2.04652 0.37898,-0.15159 0.60637,0.22739 0.83376,-0.98536 0.22739,-1.21275 -0.15159,-0.98536 0.22739,-1.28854 0.37899,-0.30319 0.83377,0.0758 1.06116,-0.75797 0.22739,-0.83377 0.1516,-0.98536 0.1516,-1.36435 0,-0.37898 -1.06116,-0.37898 0.37898,-0.68217 1.44014,-0.30319 1.51594,0.15159 1.81913,-0.45478 0.30318,-0.60638 0.30318,-0.45478 0.45478,-1.061155 0.15159,-0.60638 0.45478,-0.45478 0.83376,-1.06116 0.37899,-0.60637 0.1516,-0.60637 0.37899,-1.13695 0.22739,-0.53058 0.22739,-2.5013 0.60637,-2.65289 0.37899,-0.1516 0.37899,0.30318 0.60638,-0.30319 0.22739,-0.60638 0,-0.75797 0.45478,-1.36435 0.45478,-0.60637 0.53058,-0.53057 0.98536,-0.83376 0.45478,-0.30319 0.53058,-0.22739 0.68217,-0.60638 0.1516,-0.37898 -0.53058,-0.30318 0.53058,-1.06115 1.06116,-0.75797 0.98536,-0.45479 1.13696,-0.83377 0.15159,-0.37898 0.30318,-0.60637 0.37898,-0.98536 0.0758,-0.37899 0,-0.37899 0.0758,-0.90956 0.0758,-0.53058 0,-0.1516 0.0758,-1.06116 0.0758,-0.90956 0.22739,-1.51594 0.30319,-1.89492 0.0758,-0.37899 0.15159,-0.60638 -0.22739,-0.53058 -0.37898,0.0758 -0.45478,0.68217 -0.53058,0 -0.0758,-0.68218 -0.22739,-0.90957 -0.37898,-1.28855 -0.1516,-0.37899 -0.37899,-1.06116 -0.37899,-1.06116 0,0 -0.30319,-0.30318 0,-0.75797 0.30319,-0.45478 0.68218,-1.13695 0.68218,-1.13695 0,0 0.22739,-0.22739 0.60637,-0.30319 0.37898,-0.0758 0.45478,0.0758 0.75797,-0.30319 0.30319,-0.37898 -0.30319,-0.45478 0.45478,-0.53058 0.75797,-0.0758 0.90957,-0.0758 0.90957,-0.0758 l -0.45479,0.68217 -0.0758,0.60638 c 0,0 0.83376,0.45478 0.98536,1.36434 0.15159,0.90957 0.30318,0.98536 0.22739,1.44014 -0.0758,0.45478 -0.1516,2.27391 -0.1516,2.27391 0,0 0,0.60638 0.45478,0.98536 0.45479,0.37899 0.75797,0.53058 1.21276,0.60638 0.45478,0.0758 1.28854,0.15159 1.66753,0 0.37898,-0.1516 0.75797,-0.22739 1.13695,0 0.37899,0.22739 0.83377,0 1.13696,-0.1516 0.30318,-0.15159 0.68217,-0.30318 1.06115,-0.37898 0.37899,-0.0758 0.68218,-0.0758 1.44015,-0.0758 0.75796,0 0.98535,0.1516 1.28854,-0.15159 0.30319,-0.30319 0.22739,-0.0758 0.60638,-0.37899 0.37898,-0.30319 1.13695,-0.68217 1.51594,-0.68217 0.37898,0 0.37898,-0.0758 0.83376,-0.15159 0.45479,-0.0758 1.06116,-0.37899 1.66753,-0.1516 0.60638,0.22739 0.83377,0.30319 1.36435,0.37899 0.53058,0.0758 0.75797,0.22739 1.06116,0 z"
       sodipodi:nodetypes="cccsssssssssssccscccssscsscccsssscssscssssssscsccsssssscscsssssssssssssssssssssssscscssscccsscsssssssssssssc" />
  </g>
</svg>
