<svg xmlns:inkscape="http://www.inkscape.org/namespaces/inkscape" xmlns:sodipodi="http://sodipodi.sourceforge.net/DTD/sodipodi-0.dtd" xmlns="http://www.w3.org/2000/svg" xmlns:svg="http://www.w3.org/2000/svg" width="440mm" height="300mm" viewBox="0 0 440 300" version="1.1" id="SVGRoot" sodipodi:docname="map.svg" inkscape:version="1.1.1 (3bf5ae0d25, 2021-09-20)">
  <sodipodi:namedview id="namedview345" pagecolor="#ffffff" bordercolor="#666666" borderopacity="1.0" inkscape:pageshadow="2" inkscape:pageopacity="0.0" inkscape:pagecheckerboard="0" inkscape:document-units="mm" showgrid="false" inkscape:zoom="0.22716751" inkscape:cx="464.41501" inkscape:cy="187.08661" inkscape:window-width="1280" inkscape:window-height="737" inkscape:window-x="-8" inkscape:window-y="-8" inkscape:window-maximized="1" inkscape:current-layer="layer1"/>
  <defs id="defs340"/>
  <g inkscape:label="Warstwa 1" inkscape:groupmode="layer" id="layer1">
    
    <path id="peru" style="display:inline;fill:none;fill-opacity:1;fill-rule:evenodd;stroke:#ff0000;stroke-width:0.606375;enable-background:new" d="m 100.45523,212.02669 c 0.5306,-0.1516 0.60637,0.98535 0.45479,1.59173 -0.1516,0.60638 0.0758,1.21275 0.75795,1.89492 0.68218,0.68218 1.44016,1.44015 1.74334,1.97072 0.30319,0.53058 1.06117,0.98536 1.21275,1.59174 0.1516,0.60637 0.37899,1.21275 1.13697,1.81913 0.75795,0.60637 1.21274,-0.0758 1.36435,-0.53058 0.15158,-0.45479 -0.0758,-1.51594 0.0758,-2.5771 0.15161,-1.06115 1.51596,0.15159 1.51596,0.15159 0,0 0.53057,1.13696 0.75795,1.51594 0.22741,0.37899 1.21277,0.22739 1.66754,-0.22739 0.45479,-0.45478 0.75798,-0.37898 1.06116,-0.37898 0.30319,0 0.90956,0.60637 1.97072,0.45478 1.06117,-0.15159 1.13695,-0.22739 2.0465,0.60637 0.90959,0.83377 0.15161,1.28855 0.98537,1.81913 0.83378,0.53058 0.83378,0 1.36435,0.22739 0.53059,0.22739 0.2274,0.90957 1.06116,1.44015 0.83375,0.53057 3.03189,0.0758 3.78984,0.37898 0.75798,0.30319 0,0.98536 0,1.51594 0,0.53058 0,1.97072 -0.37899,2.12231 -0.37896,0.1516 -0.90956,1.21275 -0.83376,2.04652 0.0758,0.83377 2.04653,0 2.88028,-0.37899 0.83379,-0.37898 1.21275,-0.30318 2.04653,-1.06115 0.83376,-0.75797 3.10766,-2.04652 3.10766,-2.04652 -0.0758,-1.06116 -1.81911,-1.66753 -2.04652,-3.25927 -0.22738,-1.59173 -0.45477,-2.72869 -0.83376,-3.03188 -0.37899,-0.30318 -0.75797,0 -1.28854,-0.83376 -0.53057,-0.83377 -0.90956,-1.13696 -1.81912,-1.66753 -0.90958,-0.53058 -0.45479,-1.36435 -0.30319,-2.04652 0.15158,-0.68217 -0.60639,-2.65289 -1.06116,-3.56246 -0.45479,-0.90956 -0.98536,-0.90956 -1.21274,-1.97072 -0.22741,-1.06116 -0.30319,-1.36434 -0.98537,-1.89492 -0.68217,-0.53058 -1.59173,-0.60638 -1.74334,-1.06116 -0.15158,-0.45478 0.15161,-1.06115 -0.30318,-1.51594 -0.45479,-0.45478 -0.83376,-1.51594 -1.21275,-2.2739 -0.37898,-0.75797 -1.74334,-0.0758 -2.7287,-0.0758 -0.98536,0 -0.98536,-1.28855 -1.59173,-1.66753 -0.60637,-0.37899 -1.21274,-0.0758 -1.89492,-0.37899 -0.68217,-0.30319 -0.37899,-0.83377 -1.28855,-0.90956 -0.90955,-0.0758 -0.98536,-0.75797 -1.44015,-1.51594 -0.45477,-0.75797 -1.89492,-1.44014 -2.50129,-1.36435 -0.60637,0.0758 -0.83376,0.83377 -1.13694,1.13696 -0.30319,0.30319 -1.44016,0.30319 -2.5771,0.53058 -1.13696,0.22739 -2.652893,1.36434 -4.320433,1.44014 -1.66754,0.0758 -1.59173,-1.74333 -1.44015,-2.5771 0.1516,-0.83376 2.34971,-1.06115 2.50131,-2.3497 0.15158,-1.28855 -1.97072,-0.1516 -2.8045,-0.60638 -0.83376,-0.45478 -2.95608,-0.53057 -3.03186,-1.13695 -0.0758,-0.60638 -0.83378,-0.68217 -1.44015,-0.68217 -0.60638,0 -1.44013,-0.75797 -1.89492,-1.59174 -0.4548,-0.83377 0.75797,-1.21275 0.83375,-1.81912 0.0758,-0.60638 1.74334,-0.37899 2.34971,-0.83377 0.60637,-0.45478 0.4548,-2.80449 0.53057,-3.18347 0.0758,-0.37899 2.5417,-0.35276 2.5417,-0.35276 0,0 -0.48239,-1.28632 -0.80397,-1.6079 -0.32157,-0.32158 -0.91112,-0.48237 -1.3399,-0.58956 -0.42878,-0.10719 -1.12554,-0.85755 -1.6615,-0.80395 -0.53597,0.0536 -1.92948,0.0536 -2.30466,-0.37517 -0.37515,-0.42877 -1.01833,-0.91114 -1.98305,-0.96474 -0.96475,-0.0536 -1.39351,0.64316 -2.03668,-0.37518 -0.64315,-1.01833 -1.82227,-2.41184 -2.14387,-2.46544 -0.32157,-0.0536 -1.82226,-0.21438 -1.4102,-0.65137 -1.13697,0.75797 -1.06117,2.27391 -1.51593,3.41086 -0.45479,1.13695 -0.83378,1.59174 -1.21277,2.80449 -0.37899,1.21275 0.22741,0.90956 0.68217,2.19811 0.4548,1.28855 -0.15158,0.60637 -0.37899,1.36434 -0.22738,0.75797 -0.0758,3.18347 -0.0758,3.18347 0,0 0.53057,1.59174 0.83375,1.89493 0.30319,0.30318 1.51593,1.66753 1.51593,1.66753 0,0 -0.15158,0.98536 0.15161,2.19811 0.30318,1.21275 0.83375,0.75797 1.13694,1.36434 0.30319,0.60638 1.51596,1.89493 1.89492,2.19812 0.37899,0.30318 1.21277,1.59173 2.04652,1.89492 0.83379,0.30319 0.22739,1.44014 0.15161,2.04652 -0.0758,0.60637 0.83376,1.97072 1.13694,2.57709 0.30319,0.60638 0.45479,0.1516 0.75798,0.60638 0.30319,0.45478 1.13694,1.06116 1.66754,1.36434 0.53057,0.30319 1.06113,0.37899 1.06113,0.37899 0,0 0.75798,0.68217 1.28855,1.06115 0.5306,0.37899 1.21277,0.53058 1.66754,0.68218 0.45479,0.15159 1.21277,1.81912 1.59173,2.19811 0,0 1.66754,0.68217 2.04653,0.75797 0.37899,0.0758 1.06116,-0.83377 1.591733,-0.90956 z" sodipodi:nodetypes="cssssssscsssssssssssssscssssssssssssssssssssssssssssscssssssscsssscscsssssssscsss"/>
  </g>
</svg>