<?xml version="1.0" encoding="UTF-8" standalone="no"?>
<!-- Created with Inkscape (http://www.inkscape.org/) -->

<svg
   width="440mm"
   height="300mm"
   viewBox="0 0 440 300"
   version="1.1"
   id="SVGRoot"
   sodipodi:docname="map.svg"
   inkscape:version="1.1.1 (3bf5ae0d25, 2021-09-20)"
   xmlns:inkscape="http://www.inkscape.org/namespaces/inkscape"
   xmlns:sodipodi="http://sodipodi.sourceforge.net/DTD/sodipodi-0.dtd"
   xmlns="http://www.w3.org/2000/svg"
   xmlns:svg="http://www.w3.org/2000/svg">
  <sodipodi:namedview
     id="namedview345"
     pagecolor="#ffffff"
     bordercolor="#666666"
     borderopacity="1.0"
     inkscape:pageshadow="2"
     inkscape:pageopacity="0.0"
     inkscape:pagecheckerboard="0"
     inkscape:document-units="mm"
     showgrid="false"
     inkscape:zoom="0.22716751"
     inkscape:cx="464.41501"
     inkscape:cy="187.08661"
     inkscape:window-width="1280"
     inkscape:window-height="737"
     inkscape:window-x="-8"
     inkscape:window-y="-8"
     inkscape:window-maximized="1"
     inkscape:current-layer="layer1" />
  <defs
     id="defs340" />
  <g
     inkscape:label="Warstwa 1"
     inkscape:groupmode="layer"
     id="layer1">
    
    <path
       style="display:inline;fill:none;fill-opacity:1;fill-rule:evenodd;stroke:#ff0000;stroke-width:0.606375;enable-background:new"
       d="m 82.415567,177.0843 c 1.13694,-0.75797 0.90956,-2.27391 0.90956,-2.72869 0,-0.45478 0,-1.28855 0,-1.89492 0,-0.60638 -0.0758,-1.06116 0.60637,-1.81913 0.68217,-0.75797 1.06116,-1.44014 1.06116,-1.44014 l 0.75798,-0.68217 v -1.21276 l 0.45477,-1.36434 c 0,0 0.30318,-0.68217 0.37899,-0.98536 0.0758,-0.30319 -0.15161,-1.51594 -0.15161,-1.51594 l 0.15161,-0.98536 1.89492,-0.53058 c 0,0 0.22738,0.22739 0.83378,0 0.60637,-0.22739 1.21274,-0.75797 1.21274,-0.75797 l 1.36435,-0.75797 c 0,0 0.90956,-0.60637 1.21275,-0.90956 0.30318,-0.30319 1.36435,-0.68217 1.36435,-0.68217 0,0 0.53057,-0.1516 0.90955,-0.1516 0.37899,0 1.66754,-0.37898 1.66754,-0.37898 0,0 0.0758,-0.37898 0.53057,-0.68217 0.45479,-0.30319 0.75798,-0.68218 1.13697,-0.75797 0.37896,-0.0758 2.425493,-0.37899 2.425493,-0.37899 0,0 0.75797,0.53058 0.83375,1.28855 0.0758,0.75797 -0.22738,1.21275 0.37899,1.13695 0.60637,-0.0758 1.21277,-0.22739 1.51596,-0.37898 0.30318,-0.15159 0.15158,-0.83377 0.90955,-0.30319 0.75796,0.53058 0.83376,0.68217 1.13695,0.68217 0.30318,0 1.13696,-0.22739 1.13696,-0.22739 l 3.33505,1.13696 c 0,0 0.75798,-0.1516 1.13697,-0.22739 0.37899,-0.0758 2.27391,-0.22739 2.27391,-0.22739 0,0 0.83375,0.22739 1.13694,0.53058 0.30321,0.30318 2.19813,1.44014 2.8045,2.3497 0.60637,0.90956 1.51593,1.21275 1.66754,1.59174 0.15158,0.37898 0.75795,0.75797 1.06113,0.75797 0.30319,0 0.30319,0.60637 0.68218,0.68217 0.37899,0.0758 1.21277,0.0758 1.21277,0.0758 0,0 0.0758,0.30319 0.37896,0.68218 0.30319,0.37898 0.98536,-0.37899 1.13697,0.45478 0.15158,0.83376 -0.0758,1.28854 0.37899,1.28854 0.45477,0 0.90956,-0.30318 0.90956,-0.30318 l 0.75798,-0.30319 c 0,0 0,-0.60637 0.60637,0 0.60637,0.60637 1.06114,0.45478 1.59173,0.60637 0.53057,0.1516 -0.22741,0.53058 1.06114,0.83377 1.28855,0.30319 2.50132,0.45478 2.8045,0.45478 0.30319,0 0.30319,-1.21275 1.36435,-0.22739 1.06114,0.98536 1.81912,1.44014 1.81912,1.44014 0,0 -2.6252,2.16705 -2.9468,2.8102 -0.32157,0.64316 -0.53594,2.03667 -1.28629,2.14387 -0.75036,0.10719 -5.25246,0.32158 -5.25246,0.32158 0,0 0.21437,1.28631 -0.42878,1.28631 -0.64315,0 -6.96754,-0.21438 -6.96754,-0.21438 l -0.85754,-2.57264 c 0,0 -0.75036,0.53597 -0.85757,-0.53596 -0.10718,-1.07193 -0.10718,-2.78702 -0.10718,-2.78702 0,0 -1.6079,0.85754 -2.57263,1.17912 -0.96475,0.32158 -1.82229,1.92948 -2.67983,1.6079 -0.85754,-0.32158 -1.28632,-1.39351 -1.50071,-0.53597 -0.21437,0.85755 0.1072,3.43018 -0.53597,3.64457 -0.64315,0.21438 -0.85754,-0.16079 -1.39351,0.48237 -0.53597,0.64315 -1.98305,0.80394 -2.41183,0.42877 -0.42879,-0.37518 -0.75036,-0.80395 -1.23272,-0.96474 -0.48237,-0.16079 -0.75036,-0.42877 -1.28633,-0.48237 -0.53597,-0.0536 -0.64315,-0.32158 -1.07193,0.16079 -0.42876,0.48237 -1.33991,1.28632 -1.50069,1.71509 -0.16079,0.42877 -1.018333,1.98307 -0.803943,2.57263 0.21437,0.58957 1.071933,0.42877 1.071933,1.50071 0,1.07193 -0.3216,1.60789 -0.911143,1.76868 -0.58957,0.16079 -3.53737,1.12553 -3.53737,1.12553 0,0 -0.48239,-1.28632 -0.80397,-1.6079 -0.32157,-0.32158 -0.91112,-0.48237 -1.3399,-0.58956 -0.42878,-0.10719 -1.12554,-0.85755 -1.6615,-0.80395 -0.53597,0.0536 -1.92948,0.0536 -2.30466,-0.37517 -0.37515,-0.42877 -1.01833,-0.91114 -1.98305,-0.96474 -0.96475,-0.0536 -1.39351,0.64316 -2.03668,-0.37518 -0.64315,-1.01833 -1.82227,-2.41184 -2.14387,-2.46544 -0.32157,-0.0536 -1.82226,-0.21438 -1.4102,-0.65137 z"
       id="venezuela"
       sodipodi:nodetypes="csssccccscccsccscscsscsssssccscssssscsssccsssssc" />
    <path
       id="brazil"
       style="display:inline;fill:none;fill-opacity:1;fill-rule:evenodd;stroke:#ff0000;stroke-width:0.606375;enable-background:new"
       d="m 135.17023,170.26257 c 0,0 -2.6252,2.16705 -2.9468,2.8102 -0.32157,0.64316 -0.53594,2.03667 -1.28629,2.14387 -0.75036,0.10719 -5.25246,0.32158 -5.25246,0.32158 0,0 0.21437,1.28631 -0.42878,1.28631 -0.64315,0 -6.96754,-0.21438 -6.96754,-0.21438 l -0.85754,-2.57264 c 0,0 -0.75036,0.53597 -0.85757,-0.53596 -0.10718,-1.07193 -0.10718,-2.78702 -0.10718,-2.78702 0,0 -1.6079,0.85754 -2.57263,1.17912 -0.96475,0.32158 -1.82229,1.92948 -2.67983,1.6079 -0.85754,-0.32158 -1.28632,-1.39351 -1.50071,-0.53597 -0.21437,0.85755 0.1072,3.43018 -0.53597,3.64457 -0.64315,0.21438 -0.85754,-0.16079 -1.39351,0.48237 -0.53597,0.64315 -1.98305,0.80394 -2.41183,0.42877 -0.42879,-0.37518 -0.75036,-0.80395 -1.23272,-0.96474 -0.48237,-0.16079 -0.75036,-0.42877 -1.28633,-0.48237 -0.53597,-0.0536 -0.64315,-0.32158 -1.07193,0.16079 -0.42876,0.48237 -1.33991,1.28632 -1.50069,1.71509 -0.16079,0.42877 -1.018333,1.98307 -0.803943,2.57263 0.21437,0.58957 1.071933,0.42877 1.071933,1.50071 0,1.07193 -0.3216,1.60789 -0.911143,1.76868 -0.58957,0.16079 -3.53737,1.12553 -3.53737,1.12553 0,0 -2.4659,-0.0263 -2.5417,0.35276 -0.0758,0.37898 0.0758,2.72869 -0.53057,3.18347 -0.60637,0.45478 -2.27391,0.22739 -2.34971,0.83377 -0.0758,0.60637 -1.28855,0.98535 -0.83375,1.81912 0.45479,0.83377 1.28854,1.59174 1.89492,1.59174 0.60637,0 1.36435,0.0758 1.44015,0.68217 0.0758,0.60638 2.1981,0.68217 3.03186,1.13695 0.83378,0.45478 2.95608,-0.68217 2.8045,0.60638 -0.1516,1.28855 -2.34971,1.51594 -2.50131,2.3497 -0.15158,0.83377 -0.22739,2.6529 1.44015,2.5771 1.66754,-0.0758 3.183473,-1.21275 4.320433,-1.44014 1.13694,-0.22739 2.27391,-0.22739 2.5771,-0.53058 0.30318,-0.30319 0.53057,-1.06116 1.13694,-1.13696 0.60637,-0.0758 2.04652,0.60638 2.50129,1.36435 0.45479,0.75797 0.5306,1.44014 1.44015,1.51594 0.90956,0.0758 0.60638,0.60637 1.28855,0.90956 0.68218,0.30319 1.28855,0 1.89492,0.37899 0.60637,0.37898 0.60637,1.66753 1.59173,1.66753 0.98536,0 2.34972,-0.68217 2.7287,0.0758 0.37899,0.75796 0.75796,1.81912 1.21275,2.2739 0.45479,0.45479 0.1516,1.06116 0.30318,1.51594 0.15161,0.45478 1.06117,0.53058 1.74334,1.06116 0.68218,0.53058 0.75796,0.83376 0.98537,1.89492 0.22738,1.06116 0.75795,1.06116 1.21274,1.97072 0.45477,0.90957 1.21274,2.88029 1.06116,3.56246 -0.1516,0.68217 -0.60639,1.51594 0.30319,2.04652 0.90956,0.53057 1.28855,0.83376 1.81912,1.66753 0.53057,0.83376 0.90955,0.53058 1.28854,0.83376 0.37899,0.30319 0.60638,1.44015 0.83376,3.03188 0.22741,1.59174 1.97072,2.19811 2.04652,3.25927 0.0758,1.06116 0.15161,1.81913 -0.22738,1.89492 -0.37899,0.0758 -1.13697,0.75797 -1.21274,1.81913 -0.0758,1.06116 -2.04653,1.59173 -2.04653,1.59173 0,0 -1.28855,0.90957 -1.13697,1.51594 0.15161,0.60638 3.03189,0.1516 3.03189,0.53058 0,0.37899 -0.45479,3.10768 -0.15158,3.18347 0.30319,0.0758 2.27391,-0.60637 2.5771,-0.22739 0.30318,0.37899 -0.37899,2.72869 -0.22741,2.95608 0.1516,0.22739 1.89492,1.51594 2.31182,1.17485 0.79587,-0.26528 0.34107,-0.34108 0.49268,-0.79586 0.15158,-0.45478 0.15158,-0.37899 0.53057,-0.90957 0.37899,-0.53057 0.15161,-0.53057 0.30319,-0.98536 0.1516,-0.45478 0.37898,-0.83376 0.68217,-1.13695 0.30319,-0.30319 0.45479,-0.37898 0.60637,-0.83377 0.15161,-0.45478 0.0758,-0.68217 0.15161,-1.44014 0.0758,-0.75797 0.98536,-0.83376 1.81911,-1.13695 0.83376,-0.30319 0.75798,-1.21275 0.83376,-1.97072 0.0758,-0.75797 -0.22738,-0.22739 -0.22738,-1.06116 0,-0.83377 -0.0758,-1.13695 -0.15158,-1.97072 -0.0758,-0.83377 0.0758,-0.30319 0.45476,-0.68217 0.37899,-0.37899 0.37899,-2.04652 1.28855,-3.94144 0.90956,-1.89493 7.5797,-2.4255 7.88289,-2.5013 0.30319,-0.0758 2.04653,-0.68217 2.27391,-0.98536 0.22738,-0.30319 0.98536,-0.98536 1.59173,-1.28855 0.60637,-0.30319 0.22738,-0.83377 0.37899,-1.51594 0.15158,-0.68217 0.30319,-0.45478 0.68218,-0.60637 0.37899,-0.1516 0.30318,-0.60638 0.68217,-1.13696 0.37897,-0.53058 0,-1.06115 0.22738,-1.51593 0.22739,-0.45479 0.90957,-0.60638 1.44014,-0.83377 0.53058,-0.22739 0.2274,-0.98536 0.68218,-1.44014 0.45478,-0.45479 0,-2.04652 0,-3.03188 0,-0.98536 0,-1.06116 0.45478,-1.66753 0.45478,-0.60638 -0.1516,-1.81913 -0.1516,-1.81913 l 0.1516,-1.06116 c 0,0 -0.22739,-1.21275 -0.0758,-1.81912 0.15159,-0.60638 0.75797,-0.90957 1.66753,-1.51594 0.90957,-0.60638 0.30319,-1.97072 0.30319,-1.97072 v -1.06116 c 0,0 1.36435,-0.60638 2.4255,-0.60638 1.06116,0 1.06116,-1.51593 1.97072,-2.4255 0.90957,-0.90956 0.45478,-1.81912 0.60638,-2.57709 0.15159,0.30318 -0.1516,-0.45478 -0.37899,-1.13696 -0.22739,-0.68217 -0.0758,-0.98536 -0.22739,-2.04651 -0.15159,-1.06116 -0.75797,-1.51594 -1.36434,-2.12232 -0.60638,-0.60637 -1.44014,-0.45478 -1.97072,-0.60637 -0.53058,-0.1516 -0.83377,-1.13696 -1.36435,-1.28855 -0.53057,-0.15159 -2.57709,-1.59174 -3.71405,-1.74333 -1.13695,-0.15159 -1.21275,-0.0758 -1.74332,-0.68217 -0.5306,-0.60638 -0.83378,-0.22739 -1.21275,-0.22739 -0.37899,0 -0.98536,0.30319 -1.44015,0 -0.45479,-0.30319 -0.68218,-0.1516 -1.36435,-0.1516 -0.68218,0 -1.28855,-0.22739 -1.59173,-0.75797 -0.30319,-0.53057 -0.30319,-0.60637 -0.75796,-0.83376 -0.45479,-0.22739 -0.98536,-0.0758 -1.44015,-0.30319 -0.45479,-0.22739 -0.98536,-0.45478 -1.44015,-0.53058 -0.45477,-0.0758 -0.98536,0.0758 -1.44013,0 -0.45479,-0.0758 -1.51593,-0.30319 -1.89492,-0.30319 -0.37899,0 -1.51596,0.22739 -2.04653,0.22739 -0.53056,0 -1.44015,-0.90956 -2.1981,-1.21275 -0.75798,-0.30318 0.68217,-0.0758 1.81912,-1.44014 1.13696,-1.36434 -0.45477,-2.19811 -0.75796,-2.72869 -0.30321,-0.53058 -0.37899,-0.98536 -0.83378,-2.57709 -0.45476,-1.59174 -0.60637,-1.44015 -0.60637,-1.44015 z"
       sodipodi:nodetypes="csscsccscssssssssssssscsssssssssssssssssssssssssssssssscssssscsssssssssssssssssssssssccssccsscsssssssssssssssssssssc" />
    <path
       id="argentina"
       style="display:inline;fill:none;fill-opacity:1;fill-rule:evenodd;stroke:#ff0000;stroke-width:0.606375;enable-background:new"
       d="m 130.24342,225.97332 c 0.0758,1.06116 0.15161,1.81913 -0.22738,1.89492 -0.37899,0.0758 -1.13697,0.75797 -1.21274,1.81913 -0.0758,1.06116 -2.04653,1.59173 -2.04653,1.59173 0,0 -1.28855,0.90957 -1.13697,1.51594 0.15161,0.60638 3.03189,0.1516 3.03189,0.53058 0,0.37899 -0.45479,3.10768 -0.15158,3.18347 0.30319,0.0758 2.27391,-0.60637 2.5771,-0.22739 0.30318,0.37899 -0.37899,2.72869 -0.22741,2.95608 0.1516,0.22739 1.89492,1.51594 2.29285,1.15591 -0.8527,0.20844 -2.82342,1.118 -2.44443,1.64858 0.37899,0.53058 0.90955,0.68217 0,0.90956 -0.90956,0.22739 -0.75798,0.1516 -1.66754,0.30319 -0.90956,0.15159 -0.75798,0.0758 -1.74334,0.30319 -0.98536,0.22739 -1.13694,0.53058 -1.74331,0.60637 -0.60637,0.0758 -0.90959,-0.0758 -1.28855,-0.0758 -0.37899,0 -0.68218,0 -0.68218,0.37898 0,0.37899 -0.0758,0.45478 0.30319,0.75797 0.37899,0.30319 1.44013,0.60638 1.51593,0.90956 0.0758,0.30319 0.0758,0.53058 0.0758,1.06116 0,0.53058 0.0758,0.60638 0.37899,0.68217 0.30319,0.0758 0.37899,0.1516 0.45477,0.45479 0.0758,0.30318 -0.75795,1.36434 -1.21275,1.66753 -0.45479,0.30319 -0.83375,0.68217 -1.89491,0.75797 -1.06117,0.0758 -0.83376,-0.0758 -1.51593,0.30318 -0.68218,0.37899 -0.68218,0.45478 -1.44016,0.45478 -0.75798,0 -0.98536,0 -1.74334,0.1516 -0.75795,0.15159 -1.28854,0.30319 -1.28854,0.30319 0,0 0.30318,0.45478 0.37898,0.90956 0.0758,0.45478 0.4548,0.53058 0.15161,1.21275 -0.30319,0.68217 -0.83378,0.98536 -1.06116,1.28855 -0.22739,0.30319 -0.22739,0.15159 -0.22739,0.75797 l -1.59173,0.22739 c 0,0 -0.5306,-0.45478 -0.68218,0.22739 -0.1516,0.68217 0.60638,1.28855 0.60638,1.28855 0,0 -1.06117,1.59173 -0.90956,1.97072 0.15158,0.37898 0.53057,0.98536 0.37899,1.28855 -0.15161,0.30318 -0.0758,0.45478 -0.45479,0.75797 -0.37899,0.30318 -0.0758,0.60637 -0.30319,0.90956 -0.22738,0.30319 -0.45479,0.75797 -0.98536,0.98536 -0.53057,0.22739 -0.68218,0.60638 -0.68218,0.60638 l -0.37899,0.68217 c 0,0 -0.30318,0.37898 0.0758,0.83376 0.37899,0.45479 0.75798,0.1516 0.53057,0.98536 -0.22739,0.83377 -0.15158,1.06116 -0.15158,1.06116 0,0 0.75795,-0.83377 0.68217,1.44014 -0.0758,2.27391 -0.45479,2.80449 -0.45479,2.80449 0,0 -0.37899,-0.0758 -0.22738,0.60637 0.15158,0.68218 0.45476,1.28855 0.0758,1.66754 -0.37899,0.37898 -0.30319,-0.2274 -0.90959,0.98536 -0.60637,1.21275 0,2.88028 0.37899,3.25926 0.37899,0.37899 0.68218,0.45479 0.60638,1.21276 -0.0758,0.75796 -0.45477,0.83376 -0.15158,1.36434 0.30318,0.53058 1.28854,0.90956 1.44012,1.44014 0.15161,0.53058 -0.15158,0.90956 0.15161,1.28855 0.30319,0.37899 0.68217,0.68217 0.68217,0.68217 0,0 -0.1516,0.60638 -0.1516,1.28855 0,0.68217 -0.30319,0.60638 -0.30319,1.21275 0,0.60638 0,1.36435 0.30319,0.60638 0.30318,-0.75797 0.22741,-0.75797 0.53059,-1.06116 0.30319,-0.30319 1.28855,-0.30319 1.59174,-0.30319 0.30318,0 0.60637,-0.45478 1.13694,-0.22739 0.53059,0.22739 0.60637,0 0.90956,0.75797 0.30318,0.75797 0.1516,0.90956 0.75797,1.06116 0.60638,0.15159 1.13697,0.0758 1.74334,0.0758 0.60638,0 0.75796,-0.45478 0.90956,0.22739 0.15158,0.68218 1.06117,0.90957 0.15158,1.21276 -0.90956,0.30318 -1.06114,0 -1.97072,0.30318 -0.90956,0.30319 -0.90956,0.30319 -1.21274,0.37899 -0.30319,0.0758 -0.30319,0.30319 -0.83376,0.53058 -0.53059,0.22739 -0.22741,0.45478 -1.21274,0.22739 -0.98536,-0.22739 -0.6064,0.0758 -1.28855,-0.37899 -0.68218,-0.45478 -0.98536,-0.68217 -0.98536,-0.98536 0,-0.30318 -0.45479,-0.60637 -0.45479,-0.60637 l -1.74334,-1.51594 c 0,0 -0.15158,0 -0.83376,0 -0.68217,0 -0.75798,0 -1.21274,0 -0.4548,0 -0.75798,-0.37899 -0.75798,-0.37899 l -1.06117,0.0379 c 0,0 -0.26527,-0.26529 -0.11369,-0.60637 0.15161,-0.34109 0.15161,-0.34109 -0.0379,-0.37899 -0.18949,-0.0379 -0.72009,-0.0758 -1.06116,-0.18949 -0.34107,-0.1137 0,-0.60638 -0.0758,-0.75797 -0.0758,-0.15159 -0.79587,-0.15159 -1.17486,-0.18949 -0.37896,-0.0379 -0.90956,-0.22739 -1.21274,-0.60638 -0.30319,-0.37898 -0.22739,-0.49268 -0.87167,-1.02326 -0.64426,-0.53058 -0.45477,-0.60637 -1.02325,-0.79586 -0.56849,-0.18949 -0.75798,-0.1516 -0.87167,-0.60638 -0.11369,-0.45478 -0.56849,-0.53058 -0.75795,-0.98536 -0.1895,-0.45478 0,-0.75797 -0.5306,-1.09905 -0.530573,-0.34109 -0.644263,-0.0758 -0.720063,-0.79587 -0.0758,-0.72007 0.11369,-1.06116 -0.0758,-1.44014 -0.18949,-0.37899 -0.0758,-0.0758 -0.37899,-0.53058 -0.30318,-0.45478 -0.45476,-0.53058 -0.56845,-1.06116 -0.11372,-0.53058 -0.11372,-0.79587 -0.30322,-1.13695 -0.18946,-0.34109 -0.53056,-0.49268 -0.56845,-0.87167 -0.0379,-0.37898 -0.0379,-0.53058 -0.0379,-0.87166 0,-0.34109 0.11369,-0.60638 -0.0758,-1.36435 -0.1895,-0.75797 -0.0758,-0.94746 -0.4548,-1.40224 -0.37899,-0.45478 -0.41687,-0.15159 -0.72006,-1.13696 -0.30319,-0.98535 -0.64429,-1.13695 -0.45479,-1.62963 0.18949,-0.49268 0.30318,-0.56848 0.3411,-0.94746 0.0379,-0.37898 0.26527,-0.30319 0.30318,-0.83377 0.0379,-0.53058 0.0379,-0.37898 0.0379,-1.09905 0,-0.72007 -0.45479,0.18949 0.0758,-1.78123 0.53057,-1.97072 0.53057,-1.89492 0.56848,-2.34971 0.0379,-0.45478 0.75795,-0.53057 0.49265,-1.32644 -0.26527,-0.79587 -0.41687,-0.79587 -0.34107,-1.32645 0.0758,-0.53058 0.37899,-0.75797 0.30319,-1.02326 -0.0758,-0.26529 0.0379,-0.15159 -0.0758,-0.45478 -0.11369,-0.30319 0.30319,-0.15159 -0.18949,-0.53058 -0.49268,-0.37898 -0.64426,-0.30319 -0.72007,-0.87166 -0.0758,-0.56848 -0.0758,-1.02326 -0.0379,-3.25927 0.0379,-2.23601 -0.1137,-2.3876 0.26527,-3.03188 0.37899,-0.64427 0.56848,-0.72007 0.56848,-1.25065 0,-0.53058 0.30319,-1.21275 0.0758,-1.85702 -0.22738,-0.64428 -0.41687,-0.72007 -0.18949,-1.09906 0.22738,-0.37898 0.41688,-0.37898 0.41688,-0.83376 0,-0.45478 0,0.18949 0.0379,-0.79587 0.0379,-0.98536 -0.2653,-0.26529 0.11369,-1.55384 0.37899,-1.28855 0.53057,-2.57709 0.56849,-3.22137 0.0379,-0.64427 0.0758,-0.83376 -0.11372,-1.21275 -0.1895,-0.37898 -0.45477,-2.19811 -0.45477,-2.80448 0,-0.60638 0.1137,-0.45479 0.26527,-1.06116 0.15161,-0.60638 0.1895,-0.72007 0.15161,-0.90956 -0.0379,-0.1895 0,-0.37899 0.11369,-0.87167 0.11369,-0.49268 -0.11369,-1.51594 0.30319,-2.5771 0.41688,-1.06115 0.53059,-0.64427 0.41688,-1.40224 -0.1137,-0.75797 -0.98537,-1.97072 -0.72007,-2.80449 0.2653,-0.83376 0.5306,-0.68217 0.49268,-1.78122 -0.0379,-1.09906 -0.15158,-2.5771 0.11369,-3.18348 0.2653,-0.60637 0.41688,-2.69078 0.30319,-3.18346 l 0.11369,-0.0379 c 0.22741,-1.74333 -0.68215,-3.25927 -0.68215,-3.25927 0,0 0.90956,-0.98536 1.440133,-1.13695 0.5306,-0.1516 0.60637,0.98535 0.45479,1.59173 -0.1516,0.60638 0.0758,1.21275 0.75795,1.89492 0.68218,0.68218 1.44016,1.44015 1.74334,1.97072 0.30319,0.53058 1.06117,0.98536 1.21275,1.59174 0.1516,0.60637 0.37899,1.21275 1.13697,1.81913 0.75795,0.60637 1.21274,-0.0758 1.36435,-0.53058 0.15158,-0.45479 -0.0758,-1.51594 0.0758,-2.5771 0.15161,-1.06115 1.51596,0.15159 1.51596,0.15159 0,0 0.53057,1.13696 0.75795,1.51594 0.22741,0.37899 1.21277,0.22739 1.66754,-0.22739 0.45479,-0.45478 0.75798,-0.37898 1.06116,-0.37898 0.30319,0 0.90956,0.60637 1.97072,0.45478 1.06117,-0.15159 1.13695,-0.22739 2.0465,0.60637 0.90959,0.83377 0.15161,1.28855 0.98537,1.81913 0.83378,0.53058 0.83378,0 1.36435,0.22739 0.53059,0.22739 0.2274,0.90957 1.06116,1.44015 0.83375,0.53057 3.03189,0.0758 3.78984,0.37898 0.75798,0.30319 0,0.98536 0,1.51594 0,0.53058 0,1.97072 -0.37899,2.12231 -0.37896,0.1516 -0.90956,1.21275 -0.83376,2.04652 0.0758,0.83377 2.04653,0 2.88028,-0.37899 0.83379,-0.37898 1.21275,-0.30318 2.04653,-1.06115 0.83376,-0.75797 3.10766,-2.04652 3.10766,-2.04652 z"
       sodipodi:nodetypes="csscssssscssssssssssssssssscsssccscsssssccsscscsssssssscsssssssssssssssssccssccssssssssssssssssssssssssssssssssssssssssssssssssssssc" />
    <path
       id="peru"
       style="display:inline;fill:none;fill-opacity:1;fill-rule:evenodd;stroke:#ff0000;stroke-width:0.606375;enable-background:new"
       d="m 100.45523,212.02669 c 0.5306,-0.1516 0.60637,0.98535 0.45479,1.59173 -0.1516,0.60638 0.0758,1.21275 0.75795,1.89492 0.68218,0.68218 1.44016,1.44015 1.74334,1.97072 0.30319,0.53058 1.06117,0.98536 1.21275,1.59174 0.1516,0.60637 0.37899,1.21275 1.13697,1.81913 0.75795,0.60637 1.21274,-0.0758 1.36435,-0.53058 0.15158,-0.45479 -0.0758,-1.51594 0.0758,-2.5771 0.15161,-1.06115 1.51596,0.15159 1.51596,0.15159 0,0 0.53057,1.13696 0.75795,1.51594 0.22741,0.37899 1.21277,0.22739 1.66754,-0.22739 0.45479,-0.45478 0.75798,-0.37898 1.06116,-0.37898 0.30319,0 0.90956,0.60637 1.97072,0.45478 1.06117,-0.15159 1.13695,-0.22739 2.0465,0.60637 0.90959,0.83377 0.15161,1.28855 0.98537,1.81913 0.83378,0.53058 0.83378,0 1.36435,0.22739 0.53059,0.22739 0.2274,0.90957 1.06116,1.44015 0.83375,0.53057 3.03189,0.0758 3.78984,0.37898 0.75798,0.30319 0,0.98536 0,1.51594 0,0.53058 0,1.97072 -0.37899,2.12231 -0.37896,0.1516 -0.90956,1.21275 -0.83376,2.04652 0.0758,0.83377 2.04653,0 2.88028,-0.37899 0.83379,-0.37898 1.21275,-0.30318 2.04653,-1.06115 0.83376,-0.75797 3.10766,-2.04652 3.10766,-2.04652 -0.0758,-1.06116 -1.81911,-1.66753 -2.04652,-3.25927 -0.22738,-1.59173 -0.45477,-2.72869 -0.83376,-3.03188 -0.37899,-0.30318 -0.75797,0 -1.28854,-0.83376 -0.53057,-0.83377 -0.90956,-1.13696 -1.81912,-1.66753 -0.90958,-0.53058 -0.45479,-1.36435 -0.30319,-2.04652 0.15158,-0.68217 -0.60639,-2.65289 -1.06116,-3.56246 -0.45479,-0.90956 -0.98536,-0.90956 -1.21274,-1.97072 -0.22741,-1.06116 -0.30319,-1.36434 -0.98537,-1.89492 -0.68217,-0.53058 -1.59173,-0.60638 -1.74334,-1.06116 -0.15158,-0.45478 0.15161,-1.06115 -0.30318,-1.51594 -0.45479,-0.45478 -0.83376,-1.51594 -1.21275,-2.2739 -0.37898,-0.75797 -1.74334,-0.0758 -2.7287,-0.0758 -0.98536,0 -0.98536,-1.28855 -1.59173,-1.66753 -0.60637,-0.37899 -1.21274,-0.0758 -1.89492,-0.37899 -0.68217,-0.30319 -0.37899,-0.83377 -1.28855,-0.90956 -0.90955,-0.0758 -0.98536,-0.75797 -1.44015,-1.51594 -0.45477,-0.75797 -1.89492,-1.44014 -2.50129,-1.36435 -0.60637,0.0758 -0.83376,0.83377 -1.13694,1.13696 -0.30319,0.30319 -1.44016,0.30319 -2.5771,0.53058 -1.13696,0.22739 -2.652893,1.36434 -4.320433,1.44014 -1.66754,0.0758 -1.59173,-1.74333 -1.44015,-2.5771 0.1516,-0.83376 2.34971,-1.06115 2.50131,-2.3497 0.15158,-1.28855 -1.97072,-0.1516 -2.8045,-0.60638 -0.83376,-0.45478 -2.95608,-0.53057 -3.03186,-1.13695 -0.0758,-0.60638 -0.83378,-0.68217 -1.44015,-0.68217 -0.60638,0 -1.44013,-0.75797 -1.89492,-1.59174 -0.4548,-0.83377 0.75797,-1.21275 0.83375,-1.81912 0.0758,-0.60638 1.74334,-0.37899 2.34971,-0.83377 0.60637,-0.45478 0.4548,-2.80449 0.53057,-3.18347 0.0758,-0.37899 2.5417,-0.35276 2.5417,-0.35276 0,0 -0.48239,-1.28632 -0.80397,-1.6079 -0.32157,-0.32158 -0.91112,-0.48237 -1.3399,-0.58956 -0.42878,-0.10719 -1.12554,-0.85755 -1.6615,-0.80395 -0.53597,0.0536 -1.92948,0.0536 -2.30466,-0.37517 -0.37515,-0.42877 -1.01833,-0.91114 -1.98305,-0.96474 -0.96475,-0.0536 -1.39351,0.64316 -2.03668,-0.37518 -0.64315,-1.01833 -1.82227,-2.41184 -2.14387,-2.46544 -0.32157,-0.0536 -1.82226,-0.21438 -1.4102,-0.65137 -1.13697,0.75797 -1.06117,2.27391 -1.51593,3.41086 -0.45479,1.13695 -0.83378,1.59174 -1.21277,2.80449 -0.37899,1.21275 0.22741,0.90956 0.68217,2.19811 0.4548,1.28855 -0.15158,0.60637 -0.37899,1.36434 -0.22738,0.75797 -0.0758,3.18347 -0.0758,3.18347 0,0 0.53057,1.59174 0.83375,1.89493 0.30319,0.30318 1.51593,1.66753 1.51593,1.66753 0,0 -0.15158,0.98536 0.15161,2.19811 0.30318,1.21275 0.83375,0.75797 1.13694,1.36434 0.30319,0.60638 1.51596,1.89493 1.89492,2.19812 0.37899,0.30318 1.21277,1.59173 2.04652,1.89492 0.83379,0.30319 0.22739,1.44014 0.15161,2.04652 -0.0758,0.60637 0.83376,1.97072 1.13694,2.57709 0.30319,0.60638 0.45479,0.1516 0.75798,0.60638 0.30319,0.45478 1.13694,1.06116 1.66754,1.36434 0.53057,0.30319 1.06113,0.37899 1.06113,0.37899 0,0 0.75798,0.68217 1.28855,1.06115 0.5306,0.37899 1.21277,0.53058 1.66754,0.68218 0.45479,0.15159 1.21277,1.81912 1.59173,2.19811 0,0 1.66754,0.68217 2.04653,0.75797 0.37899,0.0758 1.06116,-0.83377 1.591733,-0.90956 z"
       sodipodi:nodetypes="cssssssscsssssssssssssscssssssssssssssssssssssssssssscssssssscsssscscsssssssscsss" />
  </g>
</svg>

    

