<svg xmlns:inkscape="http://www.inkscape.org/namespaces/inkscape" xmlns:sodipodi="http://sodipodi.sourceforge.net/DTD/sodipodi-0.dtd" xmlns="http://www.w3.org/2000/svg" xmlns:svg="http://www.w3.org/2000/svg" width="440mm" height="300mm" viewBox="0 0 440 300" version="1.1" id="SVGRoot" sodipodi:docname="map.svg" inkscape:version="1.1.1 (3bf5ae0d25, 2021-09-20)">
  <sodipodi:namedview id="namedview345" pagecolor="#ffffff" bordercolor="#666666" borderopacity="1.0" inkscape:pageshadow="2" inkscape:pageopacity="0.0" inkscape:pagecheckerboard="0" inkscape:document-units="mm" showgrid="false" inkscape:zoom="0.22716751" inkscape:cx="464.41501" inkscape:cy="187.08661" inkscape:window-width="1280" inkscape:window-height="737" inkscape:window-x="-8" inkscape:window-y="-8" inkscape:window-maximized="1" inkscape:current-layer="layer1"/>
  <defs id="defs340"/>
  <g inkscape:label="Warstwa 1" inkscape:groupmode="layer" id="layer1">
    <path id="china" style="display:inline;overflow:visible;visibility:visible;fill:none;fill-opacity:1;fill-rule:evenodd;stroke:#ff0000;stroke-width:0.606375;marker:none;marker-start:none;marker-mid:none;marker-end:none;enable-background:accumulate" d="m 376.35606,121.97993 c -0.60637,0.30319 -0.0758,0.30319 -0.0758,0.68217 0,0.37899 0.53059,0.15159 0.53059,0.68217 0,0.53058 0.15158,0.45479 0.45477,0.60638 0.30319,0.15159 0.0758,0.45478 0.0758,1.28855 0,0.83376 0.0758,0.37898 0.68218,0.53058 0.60637,0.15159 0.30318,0.22739 0.45479,1.13695 0.15158,0.90956 0.60637,0.30319 0.90956,0.30319 0.30319,0 0.30319,0.15159 0.53057,0.60637 0.22741,0.45479 0,0.30319 -0.75795,0.75797 -0.75798,0.45478 0.75795,0.53058 1.59173,0.75797 0.83375,0.22739 0.53057,1.21275 0.37896,2.04652 -0.15158,0.83376 0.37899,0.68217 0.90959,1.59174 0.53057,0.90956 0.0758,1.44014 -0.5306,2.88028 -0.60637,1.44014 0.30319,0.98536 0.98536,1.06115 0.68218,0.0758 0.5306,2.04652 0.0758,3.03188 -0.4548,0.98536 0.0758,0.90956 0.0758,2.19811 0,1.28855 -0.22738,1.51594 -0.37899,2.5013 -0.15161,0.98536 -0.22738,0.83377 -0.60637,1.44014 -0.37899,0.60638 -0.15161,1.21275 -0.15161,2.19811 0,0.98536 -0.98536,0.98536 -1.66754,1.13696 -0.68214,0.15159 -0.37896,0.0758 -0.30318,0.75797 0.0758,0.68217 -0.30319,0.83377 -0.90956,1.44014 -0.60637,0.60637 -0.30319,0.15159 -0.68217,1.13695 -0.37899,0.98536 -0.0758,0.53058 -0.90956,1.28855 -0.83376,0.75797 -0.83376,1.13696 -0.83376,1.13696 0,0 0,0.68217 -0.1516,1.44014 -0.15158,0.75797 -0.68218,0.15159 -0.98537,0.0758 -0.30318,-0.0758 -0.83375,0.37899 -1.06116,0.83377 -0.22738,0.45478 -1.13694,0.68217 -1.89492,1.44014 -0.75795,0.75797 0.0758,0.1516 0.30319,0.68217 0.22741,0.53058 -0.53057,0.90957 -0.90956,1.21275 -0.37899,0.30319 -0.68218,1.06116 -1.28855,1.44015 -0.60637,0.37898 -1.08794,-1.26176 -2.06412,-1.52934 0.16079,-0.0402 -0.94313,-1.28734 -0.57028,-1.47376 0.37282,-0.18642 -0.55928,-1.02532 -0.55928,-1.02532 0,0 0,-0.51267 -0.27964,-0.51267 -0.27963,0 -0.27963,-0.0932 -0.37285,-0.37284 -0.0932,-0.27964 -0.41944,-0.32624 -0.41944,-0.32624 0,0 -0.51266,-0.0466 -0.51266,-0.37285 0,-0.32624 0,-0.41945 0,-0.8855 0,-0.46606 -0.18642,-0.93212 -0.41944,-0.93212 -0.23305,0 -1.11855,-0.0932 -1.11855,-0.0932 0,0 -0.37285,-0.69908 -0.60587,-0.74569 -0.23302,-0.0466 -0.69909,-0.13982 -0.88551,0 -0.18643,0.13982 -0.60587,0.46605 -0.65249,0.74569 -0.0466,0.27963 -0.69908,0.8389 -0.69908,0.8389 0,0 0.23304,0.32624 -0.27964,0.41945 -0.51266,0.0932 -1.6778,0.0466 -1.91082,0.0932 -0.23305,0.0466 -0.65249,0.93212 -0.65249,1.21175 0,0.27963 0.18643,1.07193 -0.41944,1.16514 -0.60587,0.0932 -1.67781,-0.0466 -2.00404,-0.41945 -0.32625,-0.37285 -1.21176,-1.6312 -1.6778,-1.58459 -0.46606,0.0466 -1.35157,-1.16514 -1.30498,-1.35157 0.0466,-0.18642 0.37285,-0.27963 -0.18642,-0.60587 -0.55925,-0.32624 -0.69908,-0.18642 -0.88551,-0.74569 -0.18643,-0.55927 -0.27964,-1.44477 -0.51266,-1.6312 -0.23302,-0.18642 -0.46606,-0.27963 -0.9321,-0.51266 -0.46606,-0.23303 -0.65249,-0.79229 -0.97872,-0.88551 -0.32626,-0.0932 -0.41947,-0.0466 -0.60587,0.27963 -0.18642,0.32625 -0.60589,1.02533 -0.60589,1.02533 l -0.74568,0.55927 c 0,0 -0.23302,-0.32624 -0.65249,0.23303 0,0 -1.53799,-4.24112 -1.77101,-4.47415 -0.23302,-0.23302 -5.91892,-0.32624 -5.96553,-0.13981 -0.0466,0.18642 -0.69908,1.07192 -0.97871,1.07192 -0.27964,0 -1.02533,-0.79229 -1.02533,-0.79229 0,0 0.23303,-2.19047 0.0466,-2.4235 -0.18642,-0.23302 -1.77101,-0.8389 -1.95744,-0.74569 -0.18642,0.0932 -0.55927,1.30497 -0.8389,1.30497 -0.27963,0 -2.23707,-1.07194 -2.4235,-1.81763 -0.18642,-0.74569 0.37285,-0.74569 -0.46605,-0.79229 -0.8389,-0.0466 -0.18642,0.8389 -1.44478,0.55926 -1.25835,-0.27963 -1.39817,-0.46605 -1.58459,-0.65248 -0.18642,-0.18642 -0.74569,-0.88551 -1.39817,-0.88551 -0.65248,0 -1.95743,-0.69908 -2.05065,-0.93211 -0.0932,-0.23303 -0.32624,-0.51266 -0.51266,-0.74569 -0.18643,-0.23303 -0.18643,-1.02532 -0.46606,-1.25835 -0.27964,-0.23303 -1.25836,0.55927 -1.49138,0.60587 -0.23303,0.0466 -1.02533,-0.27963 -0.88551,-0.74569 0.13982,-0.46606 0.37285,-1.07193 0.65248,-1.21175 0.27964,-0.13982 0.8389,-0.60587 0.88551,-0.93211 0.0466,-0.32624 0.23303,-0.46606 0.32624,-1.21175 0.0932,-0.74569 -0.32624,-2.4701 -0.41945,-3.02936 -0.0932,-0.55928 -0.0932,-2.28369 -0.0932,-2.28369 0,0 0.0466,-0.65247 0.0466,-0.8389 0,-0.18642 0.13981,-0.60587 0.13981,-0.60587 0,0 -0.8389,0.23303 -1.02532,0.27963 -0.18643,0.0466 -2.05065,0.0466 -2.23707,0.0466 -0.18643,0 -1.21175,-0.55927 -1.25836,-0.74568 -0.0466,-0.18643 -0.13981,-1.25836 -0.23302,-1.44478 -0.0932,-0.18642 -0.13982,-0.83891 -0.32625,-0.65248 l -0.8389,1.21175 0.0466,0.0932 c -1.16514,0.60587 -1.81762,0.37284 -1.86795,0.27237 0,-0.52728 0.19773,-0.72501 0.19773,-1.31821 0,-0.59319 -0.52728,-2.24095 -0.52728,-2.24095 0,0 -0.46137,-0.72501 -0.85684,-0.85683 -0.39546,-0.13183 -0.98865,-0.79093 -0.98865,-0.79093 0,0 -0.46137,-1.25229 -0.46137,-1.77958 0,-0.52728 0.26364,-2.70232 0.59319,-2.76824 0.32956,-0.0659 1.2523,-0.6591 1.77958,-0.6591 0.52729,0 1.38412,0.0659 1.64776,-0.13182 0.26364,-0.19773 0.72502,-2.70233 0.98866,-3.36143 0.26364,-0.6591 0.39546,-1.18639 0.85683,-1.12047 0.46137,0.0659 1.31821,0 1.2523,-1.12048 -0.0659,-1.12048 -0.19773,-3.29552 -0.65911,-4.02053 -0.46137,-0.72502 -0.79092,-0.85684 -0.52728,-1.51594 0.26364,-0.65911 0.5932,-0.85683 0.5932,-0.85683 -0.0536,-0.1072 -0.13182,-0.92275 -0.16478,-0.98867 0.36251,0.26365 0.69206,0 1.41708,-0.13181 0.72501,-0.13182 0.32954,-0.65911 0.39545,-0.92275 0.0659,-0.26364 -0.0659,-0.79092 -0.26363,-1.18638 -0.19774,-0.39547 0,-0.39547 0.19772,-0.72502 0.19774,-0.32955 1.12048,-0.92274 1.18639,-1.2523 0.0659,-0.32955 0.13182,-2.306855 0.13182,-2.306855 0,0 1.9114,-0.26364 2.30686,-0.46138 0.39547,-0.19772 0,-2.76823 0,-2.76823 l 1.53419,-0.12427 c -0.0932,0.41945 0.0932,0.46606 0.46606,0.55927 0.37284,0.0932 0.51266,0.32624 0.8389,0.97872 0.32624,0.65248 0.69908,0.23303 1.6778,0.41945 0.97872,0.18642 1.67781,-0.93211 2.09726,-1.07193 0.41945,-0.13982 0.46606,0.51266 1.02532,1.02532 0.55927,0.51267 0.55927,0.7923 1.02533,0.88551 0.46605,0.0932 0.65248,0.69909 0.93211,1.25836 0.27963,0.559255 0.0466,1.025315 0,1.537975 -0.0466,0.51266 -0.55927,0.65248 -0.97872,1.44478 -0.41945,0.79229 0.41945,0.51266 0.8389,0.60587 0.41945,0.0932 0.37285,0.55927 0.83891,0.8389 0.46605,0.27964 0.55926,-0.27963 1.11853,-0.69908 0.55927,-0.41945 0.32624,0.60588 0.65248,0.7923 0.32624,0.18642 0.83891,0.51266 1.16514,0.37284 0,0 0.68744,1.15582 1.06261,1.26302 0.37518,0.10719 0.69676,3.91254 0.69676,3.91254 0,0 0.58956,-0.37517 0.75035,0.1072 0.16079,0.48236 0.37517,1.28631 0.37517,1.28631 0,0 0.80395,0.48237 0.80395,0.75035 0,0.26798 -0.0536,0.91114 0.16079,1.01833 0.21439,0.1072 1.07193,0.48238 1.07193,0.48238 l 0.21439,0.80394 c 0,0 0.10718,0.69676 0.42876,0.75035 0.3216,0.0536 0.48239,-0.0536 0.91114,0.16079 0.42879,0.21439 0.53597,0.26799 0.91115,0.26799 0.37518,0 0.53597,-0.0536 0.53597,0.26798 0,0.32158 -0.0536,0.85754 0.16078,0.91114 0.2144,0.0536 0.75036,0.1072 0.75036,0.1072 0,0 0.16079,0.32157 0.37518,0.53596 0.21439,0.21438 0.85754,0.26798 0.96473,0.48237 0.1072,0.21438 0.16078,0.58956 0.21439,0.80394 0.0536,0.21439 -0.16079,0.69676 0.64315,0.75036 0.80396,0.0536 5.46684,-0.64316 5.46684,-0.64316 l 0.32158,0.53596 c 0,0 0.3216,0.32158 0.69678,0.42878 0.37515,0.10719 1.07193,-0.16079 1.66148,0.10719 0.58957,0.26798 1.07193,0.42877 1.33993,0.42877 0.26797,0 0.80393,0 0.80393,0 0,0 0.16079,0.75035 0.42876,0.80395 0.268,0.0536 1.33993,-0.37518 1.33993,-0.37518 0,0 0.21439,-0.32158 0.53596,-0.26798 0.32158,0.0536 0.37518,-0.69675 0.96473,-0.75035 0.58957,-0.0536 0.91114,-0.0536 1.12554,-0.0536 0.21439,0 1.50069,-0.64316 1.55429,-0.1072 0.0536,0.53597 0.10721,0.85755 0.37518,1.17913 0.26797,0.32158 1.01833,0.53596 1.28632,0.53596 0.26797,0 0.85755,-0.37518 1.23272,-0.58956 0.37518,-0.21438 0.53597,-0.42877 1.01833,-0.32158 0.48237,0.1072 0.96473,0.42878 1.17912,0.53596 0.21439,0.1072 0.32157,0.1072 0.96475,0.32158 0.64315,0.2144 1.50069,0.1608 1.50069,0.1608 0,0 1.55429,0.16078 2.14387,0.32158 1.01832,0.75034 1.44711,0.69675 1.76913,0.5742 z" sodipodi:nodetypes="csssssssssssssccscsssssccssssssssscscsccccsssscscssssssssssssssssscssscccssssssssssssscssscssscsscscssssssscssssssssssssssssssssssssc"/>
    </g>
</svg>