<svg xmlns:inkscape="http://www.inkscape.org/namespaces/inkscape" xmlns:sodipodi="http://sodipodi.sourceforge.net/DTD/sodipodi-0.dtd" xmlns="http://www.w3.org/2000/svg" xmlns:svg="http://www.w3.org/2000/svg" width="440mm" height="300mm" viewBox="0 0 440 300" version="1.1" id="SVGRoot" sodipodi:docname="map.svg" inkscape:version="1.1.1 (3bf5ae0d25, 2021-09-20)">
  <sodipodi:namedview id="namedview345" pagecolor="#ffffff" bordercolor="#666666" borderopacity="1.0" inkscape:pageshadow="2" inkscape:pageopacity="0.0" inkscape:pagecheckerboard="0" inkscape:document-units="mm" showgrid="false" inkscape:zoom="0.22716751" inkscape:cx="464.41501" inkscape:cy="187.08661" inkscape:window-width="1280" inkscape:window-height="737" inkscape:window-x="-8" inkscape:window-y="-8" inkscape:window-maximized="1" inkscape:current-layer="layer1"/>
  <defs id="defs340"/>
  <g inkscape:label="Warstwa 1" inkscape:groupmode="layer" id="layer1">
    <path style="display:inline;fill:none;fill-opacity:1;fill-rule:evenodd;stroke:#ff0000;stroke-width:0.606375;marker-start:none;marker-mid:none;enable-background:new" d="m 392.91694,128.80205 c 0,-0.75036 0.32157,-2.67983 -0.10718,-2.78702 -0.42879,-0.10719 -0.42879,-0.42877 -1.17914,-0.32158 -0.75034,0.10719 -1.6079,-0.32158 -1.6079,-0.32158 0,0 -0.21437,-0.75035 1.07193,-1.5007 1.28632,-0.75036 2.03668,-1.17913 2.03668,-1.17913 l -0.64315,-0.42877 c 0,0 -1.39353,-0.10719 -0.75035,-0.53596 0.64314,-0.42878 0.75035,-0.96474 1.28629,-1.6079 0.536,-0.64316 1.82229,-3.96614 2.57265,-5.25246 0.75036,-1.28632 2.46544,-0.85754 2.46544,-0.85754 l 1.17912,-3.00141 c 0,0 -0.96473,-2.25105 0.64315,-3.0014 1.6079,-0.75036 1.71511,0.10719 2.14386,-1.71509 0.42879,-1.82228 1.71511,-1.50071 1.92948,-2.14386 0.21439,-0.64316 0.42878,-0.64316 0.10721,-1.71509 -0.32158,-1.07193 -1.17915,-2.03667 -1.17915,-2.03667 0,0 -0.42875,-1.607895 -0.42875,-2.465435 0,-0.85754 -0.21439,-2.25106 0.53596,-2.57264 0.75036,-0.32157 -0.64317,-2.03666 -0.64317,-2.03666 0,0 0.42878,-0.64316 -0.10718,-1.07193 -0.53597,-0.42877 -0.85755,-0.96474 -0.85755,-1.50071 0,-0.53596 0.10719,-1.92947 0.10719,-1.92947 0,0 0.53596,-0.85754 0.96475,-0.96474 0.42875,-0.10719 0.85754,0.1072 0.85754,-0.96474 0,-1.07193 -0.53597,-2.67982 -0.53597,-2.67982 0,0 -2.25105,-3.32298 -2.67983,-3.53738 -0.42876,-0.21438 -0.42876,-0.42876 -0.10718,-1.07192 0.32157,-0.64316 2.46544,2.57263 3.96613,2.78702 1.50071,0.21438 2.89422,0 2.89422,0 l 1.39351,-0.64316 2.78701,0.10719 c 0,0 1.17912,0.10719 1.39351,1.28632 0.21439,1.17912 1.71508,0.75035 0.96475,1.82228 -0.75036,1.07193 -0.64317,1.60789 -1.39351,1.5007 -0.75035,-0.10719 -0.64317,-0.64316 -1.17914,-0.53596 -0.53596,0.10719 -0.96472,0 -0.96472,1.17912 0,1.17912 0.85754,1.28632 0.10718,2.25106 -0.75036,0.96473 -0.42876,1.3935 -1.50069,1.3935 -1.07193,0 -2.03668,-0.10719 -3.10862,0.1072 -1.0719,0.21438 -1.60787,-0.53597 -1.60787,0.42877 0,0.96474 0,1.17912 0.53597,1.28632 0.53594,0.10719 0.96472,0 0.75033,0.64316 -0.21439,0.64316 -0.85754,1.07192 -0.42876,1.28631 0.42876,0.21439 0.96473,-0.32158 0.96473,0.21439 l 1.82229,0.10719 0.32157,1.07193 c 0,0 0.21439,0 0.85754,0.10719 0.64315,0.1072 1.07194,-0.42877 1.28633,0.32158 0.21439,0.75036 0.53596,1.07193 0.53596,1.07193 0,0 0.32158,0 0.42876,0.75035 0.10721,0.75035 0.21439,0.96474 0.21439,1.50071 0,0.535955 -0.53596,2.251045 -0.53596,2.251045 0,0 -0.42876,0.42878 -0.32158,1.28632 0.10719,0.85754 0.53597,0 0.64315,1.07193 0.10721,1.07193 0.10721,1.39351 0.10721,2.14386 0,0.75035 -0.10721,0.64316 0.53597,1.17912 0.64315,0.53597 0.85754,1.07193 0.85754,1.07193 0,0 0.53596,0.32158 0.53596,1.07194 0,0.75034 0,1.3935 0,1.3935 0,0 -0.32157,0.1072 -0.75035,0.1072 -0.42876,0 -0.96475,-0.1072 -0.96475,-0.1072 0,0 -0.10719,0.32158 -0.32158,1.07193 -0.21436,0.75036 -1.17911,1.17913 -1.17911,1.17913 0,0 0,1.07193 -0.42879,1.17912 -0.42875,0.1072 -0.75033,0.1072 -1.17911,0.21439 -0.42876,0.10719 -0.75036,0 -0.96473,0.53597 -0.21439,0.53596 0,0.64315 -0.53596,0.75034 -0.53597,0.1072 -1.07194,-0.85754 -1.17915,0.53597 -0.10718,1.39351 0.75036,1.92948 -0.32157,2.25105 -1.07193,0.32158 -1.71508,0.53597 -1.71508,0.53597 0,0 0.21439,0.85754 -0.53597,0.64316 -0.75036,-0.21439 -1.6079,-0.96474 -1.6079,-1.5007 0,-0.53597 -0.10718,-0.85755 -0.10718,-0.85755 l -1.50072,0.96473 c 0,0 0.21439,0.53597 -0.85754,0.53597 -1.07193,0 -1.50069,-1.17912 -1.2863,0 0.21437,1.17912 0.64315,2.03667 0.75034,2.46544 0.1072,0.42877 0.75035,0.1072 0.64314,0.75035 -0.10718,0.64316 0.10721,0.64316 -0.32157,1.07193 -0.42876,0.42878 -1.2863,0.53597 -1.71508,0.53597 -0.42876,0 -0.53597,-0.10719 -1.39351,0 -0.85754,0.10719 -1.28984,4.14112 -1.28984,4.14112 l -0.75796,0.68217 z" id="japan" sodipodi:nodetypes="csscsccsssccsssscsscsscsscssscccsssssssssssss"/>
    </g>
</svg>