<svg xmlns:inkscape="http://www.inkscape.org/namespaces/inkscape" xmlns:sodipodi="http://sodipodi.sourceforge.net/DTD/sodipodi-0.dtd" xmlns="http://www.w3.org/2000/svg" xmlns:svg="http://www.w3.org/2000/svg" width="440mm" height="300mm" viewBox="0 0 440 300" version="1.1" id="SVGRoot" sodipodi:docname="map.svg" inkscape:version="1.1.1 (3bf5ae0d25, 2021-09-20)">
  <sodipodi:namedview id="namedview345" pagecolor="#ffffff" bordercolor="#666666" borderopacity="1.0" inkscape:pageshadow="2" inkscape:pageopacity="0.0" inkscape:pagecheckerboard="0" inkscape:document-units="mm" showgrid="false" inkscape:zoom="0.22716751" inkscape:cx="464.41501" inkscape:cy="187.08661" inkscape:window-width="1280" inkscape:window-height="737" inkscape:window-x="-8" inkscape:window-y="-8" inkscape:window-maximized="1" inkscape:current-layer="layer1"/>
  <defs id="defs340"/>
  <g inkscape:label="Warstwa 1" inkscape:groupmode="layer" id="layer1">
    <path id="mongolia" style="display:inline;overflow:visible;visibility:visible;fill:none;fill-opacity:1;fill-rule:evenodd;stroke:#ff0000;stroke-width:0.606375;marker:none;marker-start:none;marker-mid:none;marker-end:none;enable-background:accumulate" d="m 336.91556,91.442945 c 0,0 0.41946,0 0.60588,0.55927 0.18642,0.55926 0.69909,1.44477 0.18642,2.14385 -0.51266,0.69909 -0.93211,2.00405 -0.37284,3.26241 0.55926,1.25835 1.53798,1.39817 1.44477,2.14386 -0.0932,0.745685 -0.23303,0.559255 -0.32624,1.584585 -0.0932,1.02533 0.0932,1.6778 -0.14368,2.10921 -0.11756,0.58043 -0.69522,1.2464 -0.69522,1.2464 0,0 0.68743,1.15582 1.06261,1.26301 0.37518,0.1072 0.69676,3.91255 0.69676,3.91255 0,0 0.58956,-0.37518 0.75034,0.10719 0.1608,0.48237 0.37518,1.28632 0.37518,1.28632 0,0 0.80394,0.48236 0.80394,0.75035 0,0.26798 -0.0536,0.91114 0.16079,1.01833 0.21439,0.1072 1.07193,0.48237 1.07193,0.48237 l 0.21439,0.80395 c 0,0 0.10721,0.69675 0.42879,0.75035 0.32157,0.0536 0.48236,-0.0536 0.91114,0.16079 0.42876,0.21439 0.53594,0.26799 0.91112,0.26799 0.37518,0 0.53597,-0.0536 0.53597,0.26798 0,0.32158 -0.0536,0.85754 0.16078,0.91114 0.2144,0.0536 0.75036,0.10719 0.75036,0.10719 0,0 0.16079,0.32158 0.37518,0.53596 0.21439,0.21439 0.85754,0.26799 0.96475,0.48237 0.10719,0.21439 0.16079,0.58957 0.21437,0.80395 0.0536,0.21438 -0.16079,0.69676 0.64317,0.75035 0.80394,0.0536 5.46685,-0.64315 5.46685,-0.64315 l 0.32158,0.53596 c 0,0 0.32157,0.32158 0.69675,0.42877 0.37518,0.10719 1.07193,-0.16079 1.66148,0.10719 0.58957,0.26799 1.07193,0.42878 1.33993,0.42878 0.26797,0 0.80393,0 0.80393,0 0,0 0.16079,0.75035 0.42879,0.80395 0.26797,0.0536 1.3399,-0.37518 1.3399,-0.37518 0,0 0.21439,-0.32158 0.53597,-0.26798 0.32157,0.0536 0.37517,-0.69676 0.96475,-0.75036 0.58954,-0.0536 0.91111,-0.0536 1.12551,-0.0536 0.21439,0 1.50071,-0.64316 1.55429,-0.10719 0.0536,0.53597 0.10721,0.85755 0.37518,1.17913 0.268,0.32157 1.01836,0.53596 1.28633,0.53596 0.26797,0 0.85754,-0.37518 1.23272,-0.58956 0.37517,-0.21439 0.53596,-0.42878 1.01832,-0.32158 0.48237,0.10719 0.96475,0.42877 1.17912,0.53596 0.21439,0.1072 0.3216,0.1072 0.96475,0.32158 0.64315,0.21439 1.50069,0.16079 1.50069,0.16079 0,0 1.55432,0.16079 2.09992,0.36234 0.25926,0.15446 1.3962,0.57134 1.81308,0.53344 0.60637,-0.30318 0.5306,0.30319 1.36435,-0.60637 0.83376,-0.90957 0.30319,-0.1516 1.13697,-1.36435 0.83376,-1.21275 2.19811,-1.36434 0.68215,-1.51594 -1.51593,-0.15159 -1.28855,0.30319 -1.81912,-0.22739 -0.53057,-0.53057 -0.0758,-0.68217 -0.98536,-0.60637 -0.90956,0.0758 -0.90956,0.22739 -1.13694,-0.0758 -0.22741,-0.30319 0.45477,-0.53058 -0.68217,-0.53058 -1.13697,0 -0.75798,0.45478 -1.66754,-0.0758 -0.90956,-0.53058 -0.98536,-0.30319 -0.90956,-0.90957 0.0758,-0.60637 0.0758,-1.13695 0.68218,-1.28855 0.60637,-0.15159 0.45476,0 0.83375,-0.30318 0.37899,-0.30319 0.60637,-0.37899 0.60637,-0.83377 0,-0.45478 0.83378,-0.68217 1.06117,-1.28855 0.22738,-0.60637 0.22738,-1.51594 0.68217,-1.51594 0.45477,0 0.45477,-0.0758 0.83376,0.98536 0.37899,1.06116 -0.53057,1.51594 0.53057,1.59174 1.06116,0.0758 1.66753,0.15159 2.12233,0.0758 0.45479,-0.0758 0.15157,0.0758 0.68217,0.68217 0.53057,0.60637 0.45477,0.90956 0.98536,1.28855 0.53057,0.37898 0.60637,1.06115 0.60637,1.06115 0,0 0,0.37899 0.68218,0.22739 0.68217,-0.15159 1.74331,-0.15159 1.74331,-0.15159 0,0 -0.30318,-0.37898 0.0758,0.90956 0.37899,1.28855 0.60638,0.98536 0.60638,2.12232 0,1.13695 -0.53057,1.74333 0,2.12231 0.53059,0.37899 1.13696,0.53058 1.13696,0.53058 0,0 1.59174,-1.51594 1.74332,-2.19811 0.1516,-0.68217 0.6064,-0.90956 0.53059,-1.44014 -0.0758,-0.53058 -0.22741,-0.1516 0.0758,-0.83377 0.30318,-0.68217 0.30318,-1.89492 0.30318,-1.89492 0,0 -0.30318,-0.0758 -0.6064,-0.22739 -0.30318,-0.1516 -0.45476,-0.0758 -0.60637,-0.90957 -0.15158,-0.83376 0.15161,-0.83376 -0.37896,-1.06115 -0.5306,-0.22739 -0.75798,-0.60638 -0.90959,-1.06116 -0.15158,-0.45478 -0.0758,-0.75797 -0.45476,-0.83377 -0.37899,-0.0758 -0.30319,-0.15159 -1.13697,-0.75796 -0.83375,-0.60638 -0.68217,-0.30319 -1.28855,-0.68218 -0.60637,-0.37898 -0.75795,-0.60637 -0.75795,-1.13695 0,-0.53058 -0.1516,-0.68217 0.22738,-1.06116 0.37899,-0.37898 0.60638,0.45478 0.68218,-0.90956 0.0758,-1.36435 -0.37899,-1.44014 0.30319,-2.80449 0.68217,-1.36434 0.53056,-1.89492 1.06116,-2.3497 0.34107,-0.26529 0.26527,0 1.26958,-1.06116 0.058,0.0327 0.058,0.0863 -0.5315,-0.0209 -0.58957,-0.10719 -0.69675,-1.232715 -1.44711,-1.286305 -0.75036,-0.0536 -1.23272,-0.48238 -1.39351,-1.07194 -0.16078,-0.58956 -0.69675,-2.30465 -1.87587,-2.25105 -1.17914,0.0536 -1.39353,-1.50071 -2.46544,-2.78702 -1.07193,-1.28632 1.2863,-1.17913 1.2863,-1.6079 0,-0.42877 -0.16079,-0.0536 -0.32157,-1.23272 0,0 -0.54674,0.55586 -1.22891,0.36637 -0.68218,-0.18949 -1.13697,-0.41689 -1.21275,-0.94746 -0.0758,-0.53058 -0.75798,-0.79587 -0.75798,-0.79587 0,0 -0.94747,-0.0379 -0.98536,-0.34109 -0.0379,-0.30319 -0.18949,-0.53058 -0.30318,-1.47804 -0.11369,-0.94746 -0.0379,-1.17485 -0.41688,-1.17485 -0.37899,0 -0.83378,0.0758 -0.98536,-0.0758 -0.15161,-0.15159 -0.3411,-0.26529 -0.37899,-0.75797 -0.0379,-0.49268 -0.0758,-0.98536 -0.30319,-1.06115 -0.22741,-0.0758 -0.60637,-0.26529 -0.83378,-0.26529 -0.22738,0 -0.98536,0.15159 -1.06114,-0.1516 -0.0758,-0.30319 -0.1516,-0.72007 -0.0758,-1.02325 0.0758,-0.30319 0.18949,-0.49268 0.18949,-0.75797 0,-0.26529 -0.1516,-0.87167 -0.1516,-0.87167 0,0 -0.26527,0 -0.53057,-0.22739 -0.2653,-0.22739 -0.2653,-0.56848 -0.64429,-0.64427 -0.37896,-0.0758 -0.60637,-0.1895 -0.94744,0.18949 -0.3411,0.37898 -0.56849,0.72007 -0.75798,0.79587 -0.1895,0.0758 -1.32644,0.18949 -1.70543,0.18949 -0.37899,0 -0.94747,-0.22739 -0.94747,-0.22739 l -0.26527,-0.30319 c 0,0 -0.5306,-0.18949 -0.5306,0.0379 0,0.22739 0.1895,0.45478 0,0.75797 -0.18949,0.30319 -0.0758,0.30319 -0.49268,0.64427 -0.41687,0.34109 -0.68217,0.41689 -0.72006,0.68217 -0.0379,0.26529 -0.0379,0.37899 0.18949,0.64428 0.22739,0.26529 0.34108,0.18949 0.4548,0.53058 0.11369,0.34108 0.15158,0.41688 0.15158,0.79586 0,0.37899 0.0379,0.90957 -0.22739,1.13696 -0.26529,0.22739 -0.3411,0.18949 -0.53059,0.68217 -0.1895,0.49268 -0.34108,0.56848 -0.45477,0.79587 -0.11369,0.22739 -0.2653,0.34108 -0.0379,0.79587 0.22741,0.45478 0.45479,0.75797 0.6064,0.94746 0.15158,0.18949 0.34107,0.49268 0.18946,0.98536 -0.15158,0.49268 -0.18946,0.75797 -0.49268,1.06116 -0.30318,0.30318 -0.56845,0.94746 -0.79586,1.21275 -0.22739,0.26528 -0.15158,0.56847 -0.53057,0.37898 -0.37899,-0.18949 -0.64426,-0.53058 -0.68218,-0.68217 -0.0379,-0.1516 -0.0758,-0.30319 -0.18949,-0.75797 -0.11369,-0.45478 -0.26527,-1.02326 -0.34108,-1.17485 -0.0758,-0.1516 -1.03909,-0.66194 -1.28029,-0.17957 -0.24119,0.48237 -0.16079,0.93794 -0.53597,1.09873 -0.37517,0.16079 -0.45555,0.16079 -0.61637,0.40197 -0.16076,0.24119 -0.61635,0.91114 -0.96472,0.83075 -0.34838,-0.0804 -0.42879,-0.16079 -0.99153,-0.24119 -0.56277,-0.0804 -1.01835,-0.26798 -1.25952,0.0804 -0.2412,0.34838 -0.85754,0.85754 -1.28633,0.69676 -0.42878,-0.1608 -0.99152,-0.48238 -1.12551,-0.61637 -0.13401,-0.13399 -0.96475,-0.50916 -1.39353,-0.45557 -0.42876,0.0536 -0.42876,0.16079 -1.2595,0.10719 -0.83076,-0.0536 -1.6347,-0.37517 -2.17066,-0.37517 -0.53597,0 -1.92948,-0.69675 -2.35826,-0.61636 -0.42876,0.0804 -0.34838,0.0804 -0.80394,0.26798 -0.45558,0.18759 -0.77716,-0.10719 -0.96475,0.21439 -0.18759,0.32158 -0.18759,0.77715 -0.75033,0.69675 -0.56277,-0.0804 -0.85757,-0.0804 -1.07193,-0.29478 -0.2144,-0.21438 -0.37518,-0.53596 -0.37518,-0.53596 0,0 -0.34838,-0.13399 -0.56277,-0.0804 -0.21439,0.0536 -0.77715,0 -0.77715,0 0,0 -0.48237,-0.48236 -0.58956,-0.50917 -0.1072,-0.0268 -0.56277,-0.29477 -0.75036,-0.26798 -0.18758,0.0268 -0.99153,0.16079 -0.99153,0.16079 0,0 -1.17913,0.0804 -0.98455,0.34605 z" sodipodi:nodetypes="csssssssscscsssccsssscsssssccsscscsccsssssccssssssssssscscssscssscsssssssssssccsssssscccscssssssc"/>
    </g>
</svg>