<svg xmlns:inkscape="http://www.inkscape.org/namespaces/inkscape" xmlns:sodipodi="http://sodipodi.sourceforge.net/DTD/sodipodi-0.dtd" xmlns="http://www.w3.org/2000/svg" xmlns:svg="http://www.w3.org/2000/svg" width="440mm" height="300mm" viewBox="0 0 440 300" version="1.1" id="SVGRoot" sodipodi:docname="map.svg" inkscape:version="1.1.1 (3bf5ae0d25, 2021-09-20)">
  <sodipodi:namedview id="namedview345" pagecolor="#ffffff" bordercolor="#666666" borderopacity="1.0" inkscape:pageshadow="2" inkscape:pageopacity="0.0" inkscape:pagecheckerboard="0" inkscape:document-units="mm" showgrid="false" inkscape:zoom="0.22716751" inkscape:cx="464.41501" inkscape:cy="187.08661" inkscape:window-width="1280" inkscape:window-height="737" inkscape:window-x="-8" inkscape:window-y="-8" inkscape:window-maximized="1" inkscape:current-layer="layer1"/>
  <defs id="defs340"/>
  <g inkscape:label="Warstwa 1" inkscape:groupmode="layer" id="layer1">
    <path id="siam" style="display:inline;overflow:visible;visibility:visible;fill:none;fill-opacity:1;fill-rule:evenodd;stroke:#ff0000;stroke-width:0.606375;marker:none;marker-start:none;marker-mid:none;marker-end:none;enable-background:accumulate" d="m 368.01841,160.78796 c -1.13697,-0.22739 0.22738,-1.13696 -1.97073,-1.44014 -2.1981,-0.30319 -2.04652,5.53317 -1.89492,6.13955 0.15158,0.60637 0.75798,0.90956 2.12231,0.75797 1.36435,-0.1516 1.06116,0 1.36435,1.36434 0.30318,1.36435 -0.15158,2.4255 -0.15158,2.4255 0,0 0.45476,-0.15159 1.21274,-0.45478 0.75798,-0.30318 1.81912,0.45478 2.27391,2.5771 0.45477,2.12231 0.60637,2.12231 1.36435,3.33506 0.75795,1.21275 0.60637,1.81913 0.90956,3.48666 0.30318,1.66754 -0.30319,3.63826 -0.45479,4.69941 -0.15158,1.06116 -2.12231,3.18347 -2.12231,3.78985 0,0.60637 -1.97072,2.12231 -2.12232,2.72869 -0.15158,0.60637 -0.90956,-0.45478 -0.90956,-0.45478 0,0 -0.75798,-2.12232 -1.06117,-2.72869 -0.30318,-0.60638 -0.75795,-0.90957 -0.75795,-0.90957 l 0.15158,-1.36434 c 0,0 -0.75795,-0.45478 -1.36432,-0.45478 -0.6064,0 -0.6064,-0.60638 -0.6064,-0.60638 l -1.36433,-1.06115 c 0,0 -0.1516,-0.1516 -0.90958,-0.30319 -0.75795,-0.1516 -0.60637,0 -0.75795,0.60637 -0.15161,0.60638 -0.45479,0.60638 -1.21277,1.36435 -0.75795,0.75797 0.30321,0.45478 1.06116,1.21275 0.75798,0.75797 0.45479,0.45478 0.45479,1.66753 0,1.21275 0,1.66753 1.06117,4.54782 1.06114,2.88028 0.90956,1.06115 0.90956,1.06115 0,0 0.30318,0.45479 0.30318,1.21276 0,0.75796 -0.60637,0.75796 -0.60637,0.75796 0,0 -1.06116,0.1516 -1.97072,0 -0.90956,-0.15159 -0.30319,-0.30318 -1.81914,-2.27391 -1.51593,-1.97072 -1.51593,-2.12231 -2.12231,-2.57709 -0.60637,-0.45478 0.15158,-1.06116 0,-1.81913 -0.1516,-0.75796 0,-1.81912 -0.45479,-2.4255 -0.45477,-0.60637 -0.45477,-0.90956 -0.75795,-1.97072 -0.30319,-1.06115 0,-1.97072 0.15158,-2.88028 0.1516,-0.90956 -0.75795,-1.06116 -0.90956,-2.27391 -0.15161,-1.21275 -0.30319,-1.06116 -0.30319,-1.06116 0,0 -2.7287,-1.66753 -3.18346,-1.06115 -0.45479,0.60637 -1.21275,-1.21275 -1.21275,-1.21275 0,0 -1.97072,0.60637 -2.12233,-0.30319 -0.15157,-0.90957 -4.09302,-5.0026 -4.24463,-6.06376 -0.15158,-1.06116 -0.15158,-2.12231 -0.90955,-2.2739 -0.75798,-0.1516 -1.28855,-1.81913 -1.28855,-1.81913 l -0.53057,-1.28855 c -0.16563,-2.04512 0.12959,-2.1926 0.31403,-2.36904 0.55928,-0.0466 0.83889,0.0466 0.97872,-0.55926 0.13981,-0.60587 0.60587,-1.21175 0.9321,-1.35157 0.32626,-0.13981 0.41947,-1.58459 0.41947,-1.58459 l 1.07194,-0.37284 c 0,0 0.27961,-2.37689 0.69908,-2.79635 0.41944,-0.41945 1.02531,-1.53798 1.02531,-1.53798 0.41947,-0.55927 0.65249,-0.23303 0.65249,-0.23303 l 0.74568,-0.55927 c 0,0 0.41947,-0.69908 0.60589,-1.02533 0.1864,-0.32623 0.27961,-0.37284 0.60587,-0.27963 0.32623,0.0932 0.51266,0.65248 0.97872,0.88551 0.46604,0.23303 0.69908,0.32624 0.9321,0.51266 0.23302,0.18643 0.32623,1.07193 0.51266,1.6312 0.18643,0.55927 0.32626,0.41945 0.88551,0.74569 0.55927,0.32624 0.23304,0.41945 0.18642,0.60587 -0.0466,0.18643 0.83892,1.39818 1.30498,1.35157 0.46604,-0.0466 1.35155,1.21174 1.6778,1.58459 0.32623,0.37285 1.39817,0.51266 2.00404,0.41945 0.60587,-0.0932 0.41944,-0.88551 0.41944,-1.16514 0,-0.27963 0.41944,-1.16514 0.65249,-1.21175 0.23302,-0.0466 1.39816,0 1.91082,-0.0932 0.51268,-0.0932 0.27964,-0.41945 0.27964,-0.41945 0,0 0.65249,-0.55927 0.69908,-0.8389 0.0466,-0.27964 0.46606,-0.60587 0.65249,-0.74569 0.18642,-0.13982 0.65249,-0.0466 0.88551,0 0.23302,0.0466 0.60587,0.74569 0.60587,0.74569 0,0 0.8855,0.0932 1.11855,0.0932 0.23302,0 0.41944,0.46606 0.41944,0.93212 0,0.46605 0,0.55926 0,0.8855 0,0.32624 0.51266,0.37285 0.51266,0.37285 0,0 0.32623,0.0466 0.41944,0.32624 0.0932,0.27963 0.0932,0.37284 0.37285,0.37284 0.27964,0 0.27964,0.51267 0.27964,0.51267 0,0 0.9321,0.8389 0.55928,1.02532 -0.37285,0.18642 0.4363,1.48716 0.4363,1.48716 z" sodipodi:nodetypes="csssscssssssscsccsccsssssscscsssssssscscssscccssccsc"/>
    </g>
</svg>