<svg xmlns:inkscape="http://www.inkscape.org/namespaces/inkscape" xmlns:sodipodi="http://sodipodi.sourceforge.net/DTD/sodipodi-0.dtd" xmlns="http://www.w3.org/2000/svg" xmlns:svg="http://www.w3.org/2000/svg" width="440mm" height="300mm" viewBox="0 0 440 300" version="1.1" id="SVGRoot" sodipodi:docname="map.svg" inkscape:version="1.1.1 (3bf5ae0d25, 2021-09-20)">
  <sodipodi:namedview id="namedview345" pagecolor="#ffffff" bordercolor="#666666" borderopacity="1.0" inkscape:pageshadow="2" inkscape:pageopacity="0.0" inkscape:pagecheckerboard="0" inkscape:document-units="mm" showgrid="false" inkscape:zoom="0.22716751" inkscape:cx="464.41501" inkscape:cy="187.08661" inkscape:window-width="1280" inkscape:window-height="737" inkscape:window-x="-8" inkscape:window-y="-8" inkscape:window-maximized="1" inkscape:current-layer="layer1"/>
  <defs id="defs340"/>
  <g inkscape:label="Warstwa 1" inkscape:groupmode="layer" id="layer1">
    <path id="yakursk" style="display:inline;overflow:visible;visibility:visible;fill:none;fill-opacity:1;fill-rule:evenodd;stroke:#ff0000;stroke-width:0.606375;marker:none;marker-start:none;marker-mid:none;marker-end:none;enable-background:accumulate" d="m 381.20707,28.825505 c -0.30319,-0.68217 0.45479,-0.75797 -0.68218,-1.36435 -1.13694,-0.60637 -1.59173,-0.45478 -2.27391,-0.68217 -0.68217,-0.22739 -0.53057,-0.37898 -0.22738,-1.21275 0.30318,-0.83376 1.28855,-0.90956 -0.0758,-1.21275 -1.36433,-0.30319 -1.28855,-0.83377 -2.27391,-0.83377 -0.98536,0 -0.75795,0 -1.28855,0.2274 -0.53057,0.22739 -0.60637,0.22739 -0.83376,0.53057 -0.22738,0.30319 0.22739,0.68218 -0.30318,0.53058 -0.5306,-0.15159 -0.22738,0.0758 -0.75798,-0.53058 -0.53057,-0.60637 -0.37899,-0.83376 -1.06116,-0.75797 -0.68215,0.0758 -0.15158,-0.0758 -1.13695,0.1516 -0.98536,0.22739 -1.28854,0.22739 -1.97072,0.30319 -0.68217,0.0758 -1.81911,0.98536 -1.81911,0.98536 0,0 0.0758,0.15159 -0.75798,0.22739 -0.83376,0.0758 -0.30319,-0.37899 -1.44016,0.45478 -1.13694,0.83377 -0.60637,0.90956 -1.51593,0.83377 -0.90955,-0.0758 -0.45476,-0.60638 -1.44012,-0.1516 -0.98536,0.45478 -1.06117,0.22739 -1.06117,0.83377 0,0.60637 -0.60637,0.98536 -0.60637,0.98536 0,0 0,-0.22739 -0.22741,-0.98536 -0.22738,-0.75797 -0.53057,-0.45478 -0.45476,-1.21275 0.0758,-0.75797 -3.18347,-1.21275 -3.63826,-2.27391 -0.4548,-1.06116 -0.37899,-0.90957 -0.53057,-1.89492 -0.15161,-0.98537 -1.97072,-1.44015 -2.27391,-1.36435 -0.30319,0.0758 -1.13697,0.98536 -1.51596,1.44014 -0.37896,0.45478 -0.53057,0.83377 -1.13694,1.28855 -0.52358,0.51578 -1.01224,0.8331 -1.47804,1.17485 l 0.18949,1.55384 c 0,0.30319 -0.0758,1.21275 0.60638,1.89492 0.68217,0.68218 0.90955,0.37899 1.21274,0.68218 0.30319,0.30318 -0.0758,2.2739 -0.15158,2.72869 -0.0758,0.45478 -0.37899,0.45478 -0.68217,0.98535 -0.30319,0.53058 -0.0758,0.83377 -0.30319,1.74333 -0.22741,0.90957 -0.5306,0.53058 -0.75798,1.44015 -0.22738,0.90956 0,0.83376 0.30319,1.44014 0.30318,0.60637 0.30318,1.13695 0.30318,2.04651 0,0.90957 -0.15158,0.37899 -0.53057,0.45479 -0.37899,0.0758 -0.75797,0.37898 -1.51593,0.45478 -0.75797,0.0758 -1.59176,0.37898 -1.97072,-0.0758 -0.37899,-0.45478 -0.75798,-0.53058 -2.12233,-0.37898 -1.36435,0.15159 -0.37899,0.60637 -0.53057,1.21275 -0.1516,0.60637 -0.60637,0.53057 -1.51594,0.68217 -0.90956,0.15159 -0.60637,0.22739 -0.68217,1.21275 -0.0758,0.98536 1.06115,1.59174 1.66752,1.81913 0.6064,0.22739 0.75798,0.37898 0.98536,0.75797 0.22741,0.37898 0.90958,0.22739 1.81914,1.06115 0.90956,0.83377 0.15158,0.98536 -0.45479,1.59174 -0.60637,0.60637 0.37899,2.72869 0.83378,3.03188 0.45477,0.30318 0.68218,0.75797 0.90956,2.57709 0.22738,1.81913 0.90956,1.97072 0.90956,1.97072 0,0 0.53057,0.30319 0.60637,2.19811 0.0758,1.89493 0.5306,3.48666 0.5306,3.48666 0,0 2.95605,-0.90956 3.71403,-1.36434 0.75798,-0.45478 0.68218,-0.53058 0.90956,-1.59174 0.22741,-1.06116 0.30318,-2.80449 1.13697,-2.95608 0.83375,-0.15159 0.68217,1.06116 0.68217,1.06116 0.0758,0.45478 0.90956,0.30319 1.81912,0.45478 0.64153,0.10692 0.37809,-0.46491 0.24691,-1.02397 -0.0548,-0.23356 -0.0865,-0.46488 -0.0196,-0.64356 0.22738,-0.60638 7.45535,0.0686 7.45535,0.0686 0.26797,-0.64316 0.75033,-1.07193 1.55429,-1.82229 0.80394,-0.75034 0.16079,-2.09026 0.21439,-2.35824 0.0536,-0.26798 1.07194,-1.12553 1.5543,-2.94781 0.48236,-1.82228 1.07193,-0.48237 1.07193,-0.48237 0,0 1.23272,-1.07193 1.66148,-1.82228 0.42878,-0.75035 2.78701,-0.64316 3.05501,-0.53596 0.268,0.10719 0.10718,1.17912 0.48236,1.92947 0.37518,0.75035 0.16079,0.32158 0.80397,0.26798 0.64314,-0.0536 1.07193,-0.26798 1.66147,-0.26798 0.58957,0 0.32158,0.85754 0.58957,0.96474 0.26797,0.10719 1.23272,0 1.50069,-0.0536 0.268,-0.0536 0.85755,-0.48237 1.23272,-0.80395 0.37518,-0.32158 0.10721,-1.39351 0.16082,-1.87588 0.0536,-0.48237 0.58954,-0.64316 0.75033,-1.01834 0.16079,-0.37517 0,-1.39351 -0.0536,-1.87587 -0.0536,-0.48237 -0.42876,-1.07193 -0.80394,-1.17913 -0.37518,-0.10719 -1.87587,-0.21438 -2.46544,-0.26798 -0.58957,-0.0536 -0.58957,-2.89421 -0.32158,-4.71649 0.26797,-1.82228 0.10719,-1.39352 0.37516,-1.71509 0.26799,-0.32158 1.17914,-0.48237 1.50071,-0.48237 0.32158,0 0.75036,-0.69676 0.80394,-1.23272 0.0536,-0.53597 0.48239,-0.42877 0.69675,-0.96473 0.2144,-0.53598 0.91115,-0.26799 1.66151,-0.37518 0.75036,-0.1072 0.26797,-0.91115 0.26797,-1.76869 z" sodipodi:nodetypes="csssssssssssscssssscsssssscccssssssssssssssssssssscscssscssscssscsssssssssssssssssssc"/>
    </g>
</svg>