<svg xmlns:inkscape="http://www.inkscape.org/namespaces/inkscape" xmlns:sodipodi="http://sodipodi.sourceforge.net/DTD/sodipodi-0.dtd" xmlns="http://www.w3.org/2000/svg" xmlns:svg="http://www.w3.org/2000/svg" width="440mm" height="300mm" viewBox="0 0 440 300" version="1.1" id="SVGRoot" sodipodi:docname="all.svg" inkscape:version="1.1.1 (3bf5ae0d25, 2021-09-20, custom)">
  <sodipodi:namedview id="namedview345" pagecolor="#ffffff" bordercolor="#666666" borderopacity="1.0" inkscape:pageshadow="2" inkscape:pageopacity="0.0" inkscape:pagecheckerboard="0" inkscape:document-units="mm" showgrid="false" inkscape:zoom="42.728027" inkscape:cx="440.9986" inkscape:cy="1082.9777" inkscape:window-width="1916" inkscape:window-height="1030" inkscape:window-x="0" inkscape:window-y="0" inkscape:window-maximized="1" inkscape:current-layer="layer1"/>
  <defs id="defs340"/>
  <g inkscape:label="Warstwa 1" inkscape:groupmode="layer" id="layer1">
    <path id="afghanistan" style="display:inline;overflow:visible;visibility:visible;fill:none;fill-opacity:1;fill-rule:evenodd;stroke:#ff0000;stroke-width:0.606375;marker:none;marker-start:none;marker-mid:none;marker-end:none;enable-background:accumulate" d="m 319.0437,105.48915 -0.0659,-0.13182 c -0.39546,-0.32955 -0.52728,-1.05456 -1.05456,-1.31821 -0.52728,-0.26364 -0.72502,-0.26364 -0.79093,-0.79092 -0.0659,-0.52728 -0.26364,-1.31821 -0.26364,-1.31821 0,0 -0.65911,-0.98865 -0.98865,-0.98865 -0.32956,0 -1.64777,0.32955 -1.91141,0.13182 -0.26364,-0.19773 -1.51594,-0.0659 -1.97731,-0.46137 -0.46137,-0.39547 -0.52728,-0.725015 -1.12047,-0.46138 -0.5932,0.26364 -1.64777,0.32955 -1.64777,0.32955 l -0.98865,-0.659095 c 0,0 -0.52728,-0.19773 -1.05456,-0.52728 -0.52729,-0.32955 -0.5932,-1.12048 -0.79093,-1.45003 -0.19773,-0.32955 -0.5932,-0.85683 -0.85683,-1.05457 -0.26365,-0.19773 -0.52729,-0.59319 -0.85684,-0.92274 -0.32955,-0.32956 -0.72501,-0.52728 -1.18639,-0.6591 -0.46137,-0.13183 -0.85683,-0.19774 -0.98865,-0.5932 -0.13182,-0.39546 0,-0.72502 -0.26364,-0.79092 -0.26365,-0.0659 -0.92275,-0.32956 -0.92275,-0.32956 0,0 -0.0659,-0.92274 -0.39546,-1.12047 -0.32956,-0.19773 -0.98866,-0.72502 -1.38412,-0.92275 -0.39546,-0.19773 -0.85683,-0.26364 -0.98865,-0.79092 -0.13182,-0.52729 -0.32956,-0.72502 -0.32956,-0.72502 0,0 -0.79092,-0.52728 -0.92274,-0.85683 -0.13182,-0.32955 -0.52728,-0.98866 -0.52728,-0.98866 l -0.85684,-0.92274 -0.98865,-0.32955 -1.23224,-0.0779 -0.3319,0.28917 c -0.64316,0.32158 -0.31959,0.27976 -0.85555,0.49414 -0.53597,0.21439 -2.46544,0.21439 -2.57264,0.96474 -0.10719,0.75035 -0.21438,0.96474 -0.64316,1.82229 -0.42877,0.85754 -0.53596,1.07192 -1.07193,1.17912 -0.53596,0.10719 -0.75035,0 -1.28631,-0.1072 -0.53597,-0.10719 -1.50071,-0.53596 -1.50071,-0.53596 l -0.85754,-0.1072 -0.75035,-0.75034 c 0,0 -0.42877,0.32158 -0.85755,0.53596 -0.42877,0.21438 -1.39351,1.07193 -1.39351,1.07193 0,0 -1.5007,0.42877 -1.92947,0.42877 -0.42878,0 -0.42878,-0.10719 -0.85754,0 -0.42878,0.10719 -1.17913,0 -1.50071,0.42877 -0.32158,0.42878 0.42877,0.85755 -1.17912,0.96474 -1.6079,0.1072 -1.6079,0.1072 -2.03667,0.1072 -0.42877,0 -1.17912,2.25105 -1.17912,2.25105 0,0 0.85754,0.75035 0.21438,0.96474 -0.64315,0.21438 -1.07193,0.85754 -1.3935,1.28632 -0.32158,0.42876 -0.53597,0.75034 -0.42878,1.28631 0.1072,0.53596 0,0.857535 0.21439,1.500695 0.21439,0.64316 0.75035,1.92947 0.75035,1.92947 0,0 0.42877,0.2144 0.32158,0.85755 -0.10719,0.64316 -0.42877,0.96474 -0.10719,1.5007 0.32157,0.53597 0.96473,0.75036 0.96473,0.75036 l 0.64316,0.85754 c 0,0 0.85755,-0.21438 0.85755,0.53596 0,0.75035 0.10719,1.07193 0.21438,1.92948 0,0 0.6194,0.84831 1.04817,0.52673 0.42877,-0.32158 1.17913,-0.85755 1.17913,-1.50071 0,-0.64316 -0.1072,-0.85754 0.42877,-0.96474 0.53597,-0.10719 0.85754,-0.10719 1.39351,-0.32158 0.53596,-0.21438 0.32158,-0.21438 0.96473,-0.21438 0.64316,0 0.53597,-0.32158 0.85755,0.32158 0.32157,0.64316 -0.10719,0.21438 0.10719,1.17912 0.21438,0.96474 0.32158,0.85755 0.42878,1.50071 0.10718,0.64315 0,0.42877 -0.2144,1.28631 -0.21438,0.85754 -0.21438,0.96474 -0.75034,1.17912 -0.53597,0.21439 -1.6079,0.75036 -1.71509,1.6079 -0.1072,0.85755 0,-0.21439 0.10719,1.17913 0.10719,1.3935 0.10719,1.82227 0.53597,2.03666 0.42877,0.21439 0.53596,0.10719 0.53596,0.75035 0,0.64316 -0.32158,0.85754 0.42877,0.96474 0.75036,0.10719 1.28632,-0.1072 1.28632,-0.1072 0,0 1.39351,0.21439 1.07193,1.07194 -0.32158,0.85754 -0.96474,0.32158 -0.53597,1.28631 0.42878,0.96474 0.53597,0.21439 0.64316,1.28632 0.1072,1.07193 -0.32158,1.39351 0.21439,1.39351 0.53596,0 1.5007,0.42877 1.5007,0.42877 l 0.1072,1.39351 0.21438,0.85755 c 0,0 -1.39351,-0.53597 -1.17912,0.42877 0.21438,0.96473 0.42877,0.96473 0.42877,0.96473 0,0 1.39351,-0.10718 1.39351,0.85755 0,0.96474 -0.21439,1.28632 -0.10719,1.82228 0.10719,0.53597 0.64316,0.1072 0.53596,0.85754 0,0 -0.0888,1.17902 0.47146,1.50857 0.56024,0.32955 1.12048,0.3625 1.38412,0.26364 0.26364,-0.0989 0.75797,-0.9557 1.28525,-0.92275 0.52728,0.0329 0.85684,-0.23068 1.21935,0.0989 0.3625,0.32955 0.72501,0.26364 1.05456,0.32955 0.32955,0.0659 0.56024,0.16478 1.02161,0.62615 0.46137,0.46137 0.65911,0.75797 0.75797,0.92275 0.0989,0.16477 0.0989,0.62615 0.32955,0.9557 0.23069,0.32955 0.75797,0.42842 0.92275,0.46137 0.16478,0.0329 1.15343,-0.0989 1.45003,0.13182 0.29659,0.23068 1.0216,1.21934 1.08752,1.48298 0.0659,0.26364 0.79092,0.52729 0.79092,0.52729 0,0 1.64776,-0.19773 1.9114,-0.92275 0.26364,-0.72502 1.64776,-1.64776 1.64776,-2.10913 0,-0.46137 0,-1.18639 0.32955,-1.2523 0.32955,-0.0659 1.71367,-0.52728 2.17505,-0.46137 0.46137,0.0659 1.38411,0.26364 1.64776,-0.32955 0.26363,-0.5932 0.19772,-2.30687 1.12047,-2.37278 0.92274,-0.0659 1.45003,-0.59319 2.04322,0 0.5932,0.5932 2.24096,1.51595 2.24096,1.51595 0,0 2.24095,0.32954 2.96596,-0.46138 0.72502,-0.79092 1.38412,-1.77958 1.38412,-2.30686 0,-0.52729 0.19773,-0.72502 0.19773,-1.31821 0,-0.59319 -0.52728,-2.24096 -0.52728,-2.24096 0,0 -0.46137,-0.72501 -0.85684,-0.85683 -0.39546,-0.13182 -0.98865,-0.79093 -0.98865,-0.79093 0,0 -0.46137,-1.25229 -0.46137,-1.77957 0,-0.52729 0.26364,-2.70233 0.59319,-2.76824 0.32955,-0.0659 1.2523,-0.6591 1.77958,-0.6591 0.52728,0 1.38412,0.0659 1.64776,-0.13183 0.26364,-0.19772 0.72502,-2.70232 0.98865,-3.36142 0.26365,-0.65911 0.39547,-1.18639 0.85684,-1.12048 0.46137,0.0659 1.3182,0 1.2523,-1.12048 -0.0659,-1.12047 -0.19774,-3.29551 -0.65911,-4.02053 -0.46137,-0.72501 -0.79093,-0.85683 -0.52728,-1.51594 0.26364,-0.6591 0.59319,-0.85683 0.59319,-0.85683 z" sodipodi:nodetypes="ccsscssssccssssssscssscscccccssssscccscssssscsssscssccscssssssssssssssscsssscccscsscssssssssssscssssssscssscscssssssssscc"/>
    </g>
</svg>