<?xml version="1.0" encoding="UTF-8" standalone="no"?>
<!-- Created with Inkscape (http://www.inkscape.org/) -->

<svg
   width="440mm"
   height="300mm"
   viewBox="0 0 440 300"
   version="1.1"
   id="SVGRoot"
   sodipodi:docname="all.svg"
   inkscape:version="1.1.1 (3bf5ae0d25, 2021-09-20, custom)"
   xmlns:inkscape="http://www.inkscape.org/namespaces/inkscape"
   xmlns:sodipodi="http://sodipodi.sourceforge.net/DTD/sodipodi-0.dtd"
   xmlns="http://www.w3.org/2000/svg"
   xmlns:svg="http://www.w3.org/2000/svg">
  <sodipodi:namedview
     id="namedview345"
     pagecolor="#ffffff"
     bordercolor="#666666"
     borderopacity="1.0"
     inkscape:pageshadow="2"
     inkscape:pageopacity="0.0"
     inkscape:pagecheckerboard="0"
     inkscape:document-units="mm"
     showgrid="false"
     inkscape:zoom="42.728027"
     inkscape:cx="440.9986"
     inkscape:cy="1082.9777"
     inkscape:window-width="1916"
     inkscape:window-height="1030"
     inkscape:window-x="0"
     inkscape:window-y="0"
     inkscape:window-maximized="1"
     inkscape:current-layer="layer1" />
  <defs
     id="defs340" />
  <g
     inkscape:label="all"
     inkscape:groupmode="layer"
     id="layer1">
    <!-- africa -->
    <path
       style="display:inline;fill:none;fill-opacity:1;fill-rule:evenodd;stroke:#ff0000;stroke-width:0.606375;enable-background:new"
       d="m 290.02336,249.31877 c 0.1516,0.60638 0.60638,0.45479 0.60638,1.81913 0,1.36435 0.30319,3.33507 -0.60638,2.12232 -0.90956,-1.21276 -0.90956,-1.66754 -0.90956,-0.90957 0,0.75797 0.15159,2.12232 0.15159,2.12232 0,0 0.74623,1.03126 -0.21851,1.03126 -0.96474,0 -1.07193,-0.10719 -1.07193,0.32158 0,0.42877 0.10719,1.28631 0.10719,1.28631 l -0.64316,0.64316 -0.32158,1.39351 c 0,0 1.07193,0.1072 0.42877,1.17912 -0.64315,1.07194 -0.85754,1.39352 -0.85754,1.39352 0,0 0.1072,-0.96474 -0.10719,1.17912 -0.21439,2.14386 -0.21439,2.46544 -0.21439,2.46544 0,0 0.64316,-0.21438 -0.21438,0.85755 -0.85755,1.07193 -1.17913,1.39351 -1.39351,1.92947 -0.21439,0.53597 0.21438,1.07193 -0.42878,1.60789 -0.64316,0.53597 -0.96474,0.96474 -0.96474,0.96474 l -0.64315,0.64316 c 0,0 -0.21439,0.85755 -0.21439,1.28632 0,0.42877 -0.32158,0.75035 -0.32158,0.75035 0,0 -0.32158,0.32158 -0.32158,0.75035 0,0.42878 0.1072,0.64316 -0.42877,1.07194 -0.53596,0.42876 -0.32158,0.53596 -0.96474,1.07192 -0.64316,0.53597 -0.85754,-0.21438 -0.85754,0.96474 0,1.17913 -0.32158,1.71509 -0.85755,1.71509 -0.53596,0 -5.68122,0.10719 -6.53877,0 -0.85755,-0.1072 0.53597,-4.39491 -0.64316,-5.14527 -1.17912,-0.75035 -1.92947,-3.32298 -1.17912,-3.85895 0.75035,-0.53596 0.32158,0 0.85754,-0.53596 0.53597,-0.53597 0.53597,-0.53597 0.85755,-1.17913 0.32158,-0.64315 0.85754,-0.64315 0.85754,-0.64315 0,0 -0.64316,-1.39351 -0.21438,-1.39351 0.42877,0 0.21438,-1.6079 0.21438,-1.6079 0,0 0.21439,-0.75035 0.53597,-1.28632 0.32158,-0.53596 -0.32158,-1.07192 0.53596,-1.17912 0.85754,-0.1072 1.28632,0.1072 1.28632,-0.42877 0,-0.53597 -0.53596,-0.64316 -0.96474,-0.75036 -0.42877,-0.10719 -0.64316,0 -0.64316,-0.75034 0,-0.75036 -0.32158,-0.42878 -0.53596,-1.17913 -0.21439,-0.75035 -0.85755,-0.32158 -0.10719,-1.28632 0.75035,-0.96473 0.75035,-0.32158 0.96473,-1.28631 0.21439,-0.96474 -0.64316,-1.6079 0.42878,-1.6079 1.07192,0 1.3935,0.32158 2.46543,-0.10719 1.07194,-0.42877 -0.10719,-0.53597 1.6079,-0.42877 1.71509,0.10719 1.82228,0.64316 2.46544,0 0.64316,-0.64316 0.96474,-0.42878 1.07193,-1.17912 0.10719,-0.75036 0,-0.96474 0.75035,-1.28632 0.75036,-0.32158 0.75036,0 1.28632,-0.42877 0.53596,-0.42878 0.96473,-0.96474 0.85754,-1.6079 -0.10719,-0.64316 -0.64316,-0.96474 0.32158,-0.96474 0.96474,0 0.85755,0.32158 1.28632,-0.21439 0.42877,-0.53596 0.32158,-0.53596 0.53596,-1.5007 0.21439,-0.96474 0,-1.17912 0.53597,-1.5007 0.53596,-0.32158 1.5007,-1.39351 1.5007,-1.39351 0,0 0.32158,-0.96474 0.75035,0.53596 0.42878,1.50071 0,1.28632 0.53597,1.71509 0.53597,0.42878 0.64315,0.1072 0.64315,0.64316 0,0.53597 -0.21438,1.6079 -0.21438,1.6079 z"
       id="madagascar" />
    <path
       style="display:inline;fill:none;fill-opacity:1;fill-rule:evenodd;stroke:#ff0000;stroke-width:0.606375;enable-background:new"
       d="m 220.21439,159.19622 c -0.53058,-0.60637 -0.60638,-0.83376 -0.83377,-1.28854 -0.22739,-0.45479 -0.37898,-1.28855 -1.13695,-1.36435 -0.75797,-0.0758 -0.68217,0.68217 -0.90957,-0.45478 -0.22739,-1.13696 -0.45478,-2.04652 -0.75796,-2.27391 -0.30319,-0.22739 -0.83377,-0.45478 -1.51594,-1.13695 -0.68217,-0.68218 -0.75797,-1.36435 -0.75797,-1.36435 l -1.28855,-0.83376 c 0,0 -3.33506,0.15159 -3.71405,0.15159 -0.37898,0 -1.06116,0.0758 -1.51594,0.37899 -0.45478,0.30318 -0.22739,0.45478 -1.06116,0.83376 -0.83376,0.37898 -2.19811,1.06116 -2.57709,1.21275 -0.37899,0.1516 -2.12232,0.22739 -2.12232,0.22739 0,0 0,0.60638 -0.68217,1.06116 -0.68217,0.45478 -1.59173,0.98536 -2.3497,0.90956 -0.75797,-0.0758 -0.84525,-0.34485 -1.44014,-0.22739 -1.12048,0.22126 -1.85466,0.95949 -2.27391,0.90956 -0.38378,-0.0457 -1.06116,0.22739 -1.74333,0.45479 -0.68217,0.22739 0.0758,0.30318 -1.36435,0.30318 -1.44014,0 -2.19811,0 -2.65289,-0.0758 -0.45478,-0.0758 -0.83377,0.15159 -1.21275,0.22739 -0.37899,0.0758 -0.90956,0.15159 -0.76882,0.25449 -0.85755,0 -1.28631,0.64316 -1.28631,0.64316 l 0.21438,2.78702 -1.92947,2.14386 c 0,0 -0.42878,1.71509 -0.85755,3.0014 -0.42877,1.28632 -1.07193,2.57264 -1.07193,2.57264 l -0.85755,2.35824 c 0,0 -0.94665,0.48901 -0.87085,0.868 0.0758,0.37898 0.22739,1.13695 -0.0758,1.36434 -0.30318,0.22739 -0.68217,0 -1.06115,0.75797 -0.37899,0.75797 -0.68218,1.44014 -0.68218,1.74333 0,0.30319 0.37899,0.60638 -0.15159,1.21275 -0.53058,0.60638 -1.06116,0.68217 -1.21275,1.97072 -0.15159,1.28855 -0.75797,2.4255 -0.15159,3.18347 0.60637,0.75797 0.98536,1.36435 0.98536,2.19811 0,0.83377 -0.22739,0.75797 -0.1516,1.97072 0.0758,1.21275 0.22739,1.13696 0.22739,1.97072 0,0.83377 -0.0758,1.97072 -0.22739,2.95608 -0.15159,0.98536 -0.45478,1.28855 -0.68217,2.42551 -0.22739,1.13695 -1.59174,1.59173 -0.53058,2.57709 1.06116,0.98536 0.90957,1.89492 1.21275,2.72869 0.30319,0.83377 3.03188,0.60638 3.03188,2.34971 0,1.74333 2.04652,1.97072 2.19811,2.88028 0.15159,0.90956 -0.37899,2.19811 1.44014,2.95608 1.81913,0.75797 1.66754,1.89492 2.04652,2.19811 0.37898,0.30319 2.04652,0.53058 2.4255,0.98536 0.37898,0.45478 0.90956,1.21275 1.28855,1.59174 0.37898,0.37898 0.75797,0.98536 2.04652,0.90956 1.28854,-0.0758 1.44014,0 3.48666,-0.22739 2.04651,-0.22739 3.48665,-0.30319 4.01723,-0.37899 0.53058,-0.0758 1.66753,0.30319 2.5013,-0.0758 0.83377,-0.37899 0.68217,-1.06116 1.74333,-1.28855 1.06116,-0.22739 1.44014,0 2.12231,-0.1516 0.68218,-0.15159 3.33507,-0.15159 3.71405,0.1516 0.37899,0.30319 0.83377,0 1.28855,0.98536 0.45478,0.98536 -0.90956,2.5013 1.97072,2.3497 2.88029,-0.15159 4.54782,-0.60637 4.9268,0.0758 0.37899,0.68217 -0.90956,1.66753 -0.68217,2.5771 0.22739,0.90956 0.53058,1.13695 0.22739,1.59173 l 0.34598,0.18641 c 0.32158,0.64316 0.32158,0.96474 0.75036,1.17913 0.42877,0.21438 1.60789,-0.75036 1.60789,-0.75036 0,0 0.96474,0 1.92947,0.21439 0.96474,0.21439 1.07194,-0.21439 2.03667,-0.42877 0.96474,-0.21439 1.17912,0.75035 1.17912,0.75035 0,0 0.75036,0.53597 1.6079,0 0.85754,-0.53597 0.64316,-0.75035 0.32158,-1.6079 -0.32158,-0.85754 0.21438,-1.07193 0.42877,-3.43018 0.21439,-2.35824 -0.75035,-1.17912 -0.75035,-1.17912 0,0 -0.32158,-0.75035 -0.21438,-2.25106 0.10718,-1.5007 0.53596,-0.42877 0.85754,-1.07192 0.32158,-0.64316 0.75035,-0.64316 1.28631,-1.07194 0.53597,-0.42877 1.28632,-0.42877 1.82229,-0.75035 0.53596,-0.32158 0.85754,-0.96474 1.71509,-1.28632 0.85754,-0.32157 1.71509,-0.75034 3.1086,-1.3935 1.3935,-0.64316 1.07192,-1.28632 1.07192,-1.82229 0,-0.53596 1.39352,-2.03666 1.39352,-2.03666 0,0 -0.32158,-1.28631 -0.85755,-2.03667 -0.53597,-0.75035 -0.21439,-1.60789 -0.21439,-2.14386 0,-0.53597 0.21439,-0.85754 0.53597,-1.28632 0.32158,-0.42877 0.10719,-0.64316 0.10719,-0.64316 l 0.53597,-1.07193 c 0,0 0.32158,-0.85754 0.32158,-1.60789 0,-0.75035 -0.42877,-0.42878 -0.85755,-0.53597 -0.42877,-0.10719 -0.10719,-0.21438 0.53597,-0.53596 0.64316,-0.32158 0.42877,-1.07194 0.53596,-1.71509 0.1072,-0.64316 -0.21438,-3.32299 -0.32158,-3.85895 -0.10719,-0.53596 -2.35824,0.10719 -2.89421,-0.1072 -0.53596,-0.21438 -0.85754,-0.64316 -0.85754,-0.64316 0,0 -0.42877,-1.28631 -0.53597,-1.92947 -0.10719,-0.64316 -1.60789,0.1072 -2.14386,0 -0.53596,-0.10719 -0.10719,-0.85754 -0.32158,-1.60789 -0.21438,-0.75035 -1.07193,-0.42877 -1.60789,-0.42877 -0.53597,0 -1.39351,-0.42878 -2.14387,-0.96474 -0.75034,-0.53597 -0.96474,0.21438 -1.82228,0.32158 -0.85754,0.10719 -0.85754,-0.1072 -1.17912,-0.64316 -0.32158,-0.53597 -1.39351,0.32158 -2.35825,0.21439 -0.96473,-0.1072 -0.75035,-0.53597 -1.28631,-1.39352 -0.53596,-0.85754 -1.07194,-0.21438 -2.25106,-0.53596 -1.17912,-0.32158 -0.75035,-0.42877 -0.85754,-1.28632 -0.10719,-0.85754 -0.85755,-0.75035 -0.85755,-0.75035 0,0 -0.10719,-0.96474 -0.21438,-1.71509 -0.1072,-0.75035 0.10719,-1.92947 0.10719,-2.35824 0,-0.42878 -0.21439,-2.03667 -0.96474,-2.35825 -0.75035,-0.32158 -0.21438,-1.07193 -0.21438,-1.07193 0,0 -0.32158,-1.07193 -0.21439,-1.6079 0.10719,-0.53596 0.85755,-1.17912 1.39351,-1.17912 0.53597,0 0.85755,-0.64316 0.85755,-0.64316 0,0 -0.85755,-1.28631 -1.28632,-2.03667 -0.42877,-0.75035 0.75035,-0.64316 0.75035,-0.64316 l 0.53597,-0.64315 c 0,0 0.21438,-0.32158 1.17912,-0.85755 0.96473,-0.53597 0.41422,-1.76374 0.41422,-1.76374 z"
       id="north_africa"
       sodipodi:nodetypes="csssssccsssscssssssssccccsccsssssssssssssssssssssssssssssssc" />
    <path
       id="egypt"
       style="display:inline;fill:none;fill-opacity:1;fill-rule:evenodd;stroke:#ff0000;stroke-width:0.606375;enable-background:new"
       d="m 238.98772,185.82875 c -0.10719,-0.53596 -2.35824,0.10719 -2.89421,-0.1072 -0.53596,-0.21438 -0.85754,-0.64316 -0.85754,-0.64316 0,0 -0.42877,-1.28631 -0.53597,-1.92947 -0.10719,-0.64316 -1.60789,0.1072 -2.14386,0 -0.53596,-0.10719 -0.10719,-0.85754 -0.32158,-1.60789 -0.21438,-0.75035 -1.07193,-0.42877 -1.60789,-0.42877 -0.53597,0 -1.39351,-0.42878 -2.14387,-0.96474 -0.75034,-0.53597 -0.96474,0.21438 -1.82228,0.32158 -0.85754,0.10719 -0.85754,-0.1072 -1.17912,-0.64316 -0.32158,-0.53597 -1.39351,0.32158 -2.35825,0.21439 -0.96473,-0.1072 -0.75035,-0.53597 -1.28631,-1.39352 -0.53596,-0.85754 -1.07194,-0.21438 -2.25106,-0.53596 -1.17912,-0.32158 -0.75035,-0.42877 -0.85754,-1.28632 -0.10719,-0.85754 -0.85755,-0.75035 -0.85755,-0.75035 0,0 -0.10719,-0.96474 -0.21438,-1.71509 -0.1072,-0.75035 0.10719,-1.92947 0.10719,-2.35824 0,-0.42878 -0.21439,-2.03667 -0.96474,-2.35825 -0.75035,-0.32158 -0.21438,-1.07193 -0.21438,-1.07193 0,0 -0.32158,-1.07193 -0.21439,-1.6079 0.10719,-0.53596 0.85755,-1.17912 1.39351,-1.17912 0.53597,0 0.85755,-0.64316 0.85755,-0.64316 0,0 -0.85755,-1.28631 -1.28632,-2.03667 -0.42877,-0.75035 0.75035,-0.64316 0.75035,-0.64316 l 0.53597,-0.64315 c 0,0 0.21438,-0.32158 1.17912,-0.85755 0.96473,-0.53597 0.41422,-1.76374 0.41422,-1.76374 0,0 0.98536,0.0758 1.97072,0.22739 0.98536,0.1516 0.83377,0.60638 1.44014,1.21275 0.60637,0.60638 0.83377,0.75797 2.12232,1.21276 1.28854,0.45478 1.36434,0.68217 2.19811,0.68217 0.83376,0 2.19811,-0.75797 2.72868,-0.98536 0.53058,-0.22739 1.44015,-0.30319 5.0784,-0.53058 3.63825,-0.22739 3.63825,2.12231 4.47202,1.81913 0.83377,-0.30319 1.74333,0 2.19811,0.15159 0.45478,0.15159 1.74333,0.60637 2.5013,0.60637 0.75797,0 1.59173,0.45479 1.89492,0.60638 0.30319,0.15159 3.78985,0.90956 4.16883,0.90956 l 0.98536,-0.90956 0.75797,0.22739 c 0,0 0.60638,0.30319 0.90956,0.30319 0.30319,0 0.45479,-0.53058 0.45479,-0.53058 l 1.21275,-0.75797 1.36434,2.65289 c 0,0 -0.60637,1.59174 -0.60637,2.04652 0,0.45478 -0.0758,1.59174 -0.37899,1.66753 -0.30319,0.0758 -0.68217,-0.0758 -1.13695,-0.37898 -0.45478,-0.30319 -0.90957,-1.13696 -1.59174,-1.59174 -0.68217,-0.45478 0,1.51594 0,1.51594 -0.0758,0.30319 1.44015,2.34971 4.09304,5.98796 2.65289,3.63825 0.30319,1.81913 0.83376,2.72869 0.53058,0.90956 1.06116,1.21275 1.21276,2.5771 0.15159,1.36434 0.0758,0.68217 0.30318,1.36434 l -0.15159,-0.15159 c 0.0758,0.98536 -16.52373,0 -17.50909,0.30318 -0.98536,0.30319 -0.75797,3.18347 -1.13696,3.03188 -0.37898,-0.15159 -1.61604,0.63418 -1.61604,0.63418 z"
       sodipodi:nodetypes="cscssssssssssscssscsscsccsccssssssssscccscccsssscsssc" />
    <path
       id="east_africa"
       style="display:inline;fill:none;fill-opacity:1;fill-rule:evenodd;stroke:#ff0000;stroke-width:0.606375;enable-background:new"
       d="m 238.66615,201.26455 c 0,0 -0.32158,-1.28631 -0.85755,-2.03667 -0.53597,-0.75035 -0.21439,-1.60789 -0.21439,-2.14386 0,-0.53597 0.21439,-0.85754 0.53597,-1.28632 0.32158,-0.42877 0.10719,-0.64316 0.10719,-0.64316 l 0.53597,-1.07193 c 0,0 0.32158,-0.85754 0.32158,-1.60789 0,-0.75035 -0.42877,-0.42878 -0.85755,-0.53597 -0.42877,-0.10719 -0.10719,-0.21438 0.53597,-0.53596 0.64316,-0.32158 0.42877,-1.07194 0.53596,-1.71509 0.1072,-0.64316 -0.21438,-3.32299 -0.32158,-3.85895 0,0 1.23706,-0.78577 1.61604,-0.63418 0.37899,0.15159 0.1516,-2.72869 1.13696,-3.03188 0.98536,-0.30318 17.58489,0.68218 17.50909,-0.30318 l 0.15159,0.15159 c 0.22739,0.68217 0.75797,0.60638 0.75797,0.60638 0,0 1.21275,0.90956 1.36435,1.36434 0.15159,0.45478 0.30319,0.15159 0.30319,0.53058 0,0.37898 0.22739,1.74333 0.53057,2.65289 0.30319,0.90956 0.37899,0.45478 0.98536,0.98536 0.60638,0.53058 0.1516,0.45478 0.1516,1.66753 0,1.21275 0.60637,0.90957 1.21275,1.89493 0.60637,0.98536 0.0758,0.53057 0.37898,1.36434 0.30319,0.83377 0.37899,1.21275 0.68217,1.81913 0.30319,0.60637 0.45479,0.45478 0.83377,0.45478 0.37898,0 0.45478,0.22739 0.45478,1.13695 0,0.90957 1.44015,1.21275 2.04652,2.12232 0.60637,0.90956 0.68217,0.60637 1.06116,1.21275 0.37898,0.60637 0,0.45478 -0.37899,1.74333 -0.37898,1.28855 0.0758,1.36434 0.45478,1.97072 0.37899,0.60637 2.42551,0.53058 2.42551,0.53058 0,0 1.81912,-0.1516 2.5013,-0.53058 0.68217,-0.37899 0.60637,-0.53058 0.90956,-0.75797 0.30318,-0.22739 2.4255,0 3.94144,-0.37899 1.51594,-0.37898 3.48666,-1.81912 4.39622,-0.22739 0.90956,1.59174 -2.27391,7.88289 -3.63825,10.91476 -1.36435,3.03188 -5.15419,6.06376 -7.5039,8.33766 -2.3497,2.27391 -3.78985,5.0784 -3.94144,5.38159 -0.15159,0.30318 -0.75797,0.90956 -1.06116,1.06115 -0.30318,0.1516 -0.60637,0.37899 -1.21275,1.13696 -0.60637,0.75797 -0.98536,0.45478 -1.81912,1.06116 -0.83377,0.60637 -0.68218,1.21274 -0.68218,1.66753 0,0.45478 -0.22739,1.44014 -0.45478,1.74333 -0.22739,0.30318 0.30319,1.81912 0.30319,2.3497 0,0.53058 -0.15159,1.74333 -0.15159,1.74333 0,0 0,0.22739 0.83376,0.68217 0.83377,0.45478 0.30319,3.18347 0.30319,3.18347 l 0.15159,0.30319 c 0,0 -0.98536,0.98536 -1.66753,0.98536 -0.68217,0 -1.59174,0.83377 -1.59174,0.83377 0,0 -0.37898,0.0758 -1.13695,0.30319 -0.75797,0.22739 -1.36434,0.15159 -2.04651,1.06115 -0.68218,0.90957 -0.30319,0.83377 0.22739,2.5771 0.53057,1.74333 -0.22739,0.68217 -0.45479,1.28855 -0.22739,0.60637 0,1.89492 0,2.65289 0,0.75797 -0.53058,1.06116 -0.90956,1.36434 -0.37898,0.30319 -1.59174,-0.90956 -2.04652,-1.66753 -0.45478,-0.75797 0,-1.97072 0.30319,-2.88028 0.30319,-0.90957 -0.68217,-2.19811 -0.90956,-2.95608 -0.22739,-0.75797 -0.1516,-0.83377 0.22739,-1.51594 0.37898,-0.68217 0.0758,-0.53058 -0.1516,-1.59174 -0.22739,-1.06115 -0.83376,-0.98536 -1.06115,-1.44014 -0.22739,-0.45478 -0.90957,-1.36434 -1.51594,-1.36434 -0.60638,0 -0.30319,-0.98536 -0.45478,-1.51594 -0.1516,-0.53058 -1.21275,-0.30319 -1.59174,-0.1516 -0.37898,0.1516 -0.45478,-0.37898 -0.68217,-2.04651 -0.22739,-1.66754 -0.68217,-5.91216 -0.60638,-6.59434 0.0758,-0.68217 1.74333,0.60638 2.04652,0.1516 0.30319,-0.45478 0.37899,-3.86565 0.22739,-4.77521 -0.15159,-0.90956 1.28855,-0.53058 2.19811,-0.60637 0.90957,-0.0758 1.06116,-1.21276 1.44014,-1.97073 0.37899,-0.75796 0.75797,-0.68217 1.13696,-0.83376 0.37898,-0.15159 0.30319,-0.90956 0.75797,-1.51594 0.45478,-0.60637 1.06115,-1.66753 1.06115,-2.5013 0,-0.83376 -1.13695,-1.66753 -2.50129,-1.74333 -1.36435,-0.0758 -1.06116,0.60638 -2.95608,0.1516 -1.89493,-0.45479 -2.27391,-0.37899 -2.88029,-0.53058 -0.60637,-0.1516 -0.53058,-1.13696 -1.21275,-1.36435 -0.68217,-0.22739 -1.51594,1.28855 -1.51594,1.28855 0,0 -0.75797,-0.22739 -1.51593,-2.04652 -0.75798,-1.81912 -1.81913,-2.3497 -2.12232,-2.4255 -0.30319,-0.0758 -0.37898,-2.19811 -0.37898,-2.57709 0,-0.37899 -1.36435,-0.83377 -1.66754,-1.28855 -0.30318,-0.45478 -0.53057,-1.13695 -1.06115,-1.28855 -0.53058,-0.15159 -0.90957,-0.15159 -1.13696,-1.44014 -0.22739,-1.28855 -0.72486,-2.50027 -0.72486,-2.50027 z"
       sodipodi:nodetypes="csssccsssscsscccsssssssssssssscssssssssssssscsc" />
    <path
       id="congo"
       style="display:inline;fill:none;fill-opacity:1;fill-rule:evenodd;stroke:#ff0000;stroke-width:0.606375;enable-background:new"
       d="m 250.76055,237.72184 c -0.37898,0.1516 -0.45478,-0.37898 -0.68217,-2.04651 -0.22739,-1.66754 -0.68217,-5.91216 -0.60638,-6.59434 0.0758,-0.68217 1.74333,0.60638 2.04652,0.1516 0.30319,-0.45478 0.37899,-3.86565 0.22739,-4.77521 -0.15159,-0.90956 1.28855,-0.53058 2.19811,-0.60637 0.90957,-0.0758 1.06116,-1.21276 1.44014,-1.97073 0.37899,-0.75796 0.75797,-0.68217 1.13696,-0.83376 0.37898,-0.15159 0.30319,-0.90956 0.75797,-1.51594 0.45478,-0.60637 1.06115,-1.66753 1.06115,-2.5013 0,-0.83376 -1.13695,-1.66753 -2.50129,-1.74333 -1.36435,-0.0758 -1.06116,0.60638 -2.95608,0.1516 -1.89493,-0.45479 -2.27391,-0.37899 -2.88029,-0.53058 -0.60637,-0.1516 -0.53058,-1.13696 -1.21275,-1.36435 -0.68217,-0.22739 -1.51594,1.28855 -1.51594,1.28855 0,0 -0.75797,-0.22739 -1.51593,-2.04652 -0.75798,-1.81912 -1.81913,-2.3497 -2.12232,-2.4255 -0.30319,-0.0758 -0.37898,-2.19811 -0.37898,-2.57709 0,-0.37899 -1.36435,-0.83377 -1.66754,-1.28855 -0.30318,-0.45478 -0.53057,-1.13695 -1.06115,-1.28855 -0.53058,-0.15159 -0.90957,-0.15159 -1.13696,-1.44014 0,0 -0.30318,-2.19811 -0.70352,-2.42499 -0.0214,-0.0753 -1.41486,1.42542 -1.41486,1.96138 0,0.53597 0.32158,1.17913 -1.07192,1.82229 -1.39351,0.64316 -2.25106,1.07193 -3.1086,1.3935 -0.85755,0.32158 -1.17913,0.96474 -1.71509,1.28632 -0.53597,0.32158 -1.28632,0.32158 -1.82229,0.75035 -0.53596,0.42878 -0.96473,0.42878 -1.28631,1.07194 -0.32158,0.64315 -0.75036,-0.42878 -0.85754,1.07192 -0.1072,1.50071 0.21438,2.25106 0.21438,2.25106 0,0 0.96474,-1.17912 0.75035,1.17912 -0.21439,2.35825 -0.75035,2.57264 -0.42877,3.43018 0.32158,0.85755 0.53596,1.07193 -0.32158,1.6079 -0.85754,0.53597 -1.6079,0 -1.6079,0 0,0 -0.21438,-0.96474 -1.17912,-0.75035 -0.96473,0.21438 -1.07193,0.64316 -2.03667,0.42877 -0.96473,-0.21439 -1.92947,-0.21439 -1.92947,-0.21439 0,0 -1.17912,0.96474 -1.60789,0.75036 -0.42878,-0.21439 -0.42878,-0.53597 -0.75036,-1.17913 l -0.38388,-0.11061 c -0.64427,-0.22739 -0.72007,1.28855 -0.72007,1.28855 0.22739,0.68217 0.83377,0.98536 0.53058,1.28854 -0.30319,0.30319 -0.68217,1.21275 -1.06116,1.74333 -0.37898,0.53058 -1.97072,1.28855 -1.36434,1.97072 0.60637,0.68218 4.62361,3.86565 5.45738,5.76057 0,0 0.37898,0.53058 0.75797,1.06116 0.37898,0.53058 1.74333,-0.60638 2.19811,-0.22739 0.45478,0.37898 1.66753,1.21275 2.12231,1.44014 0.45478,0.22739 2.95608,-0.15159 3.56246,0.30319 0.60637,0.45478 1.06115,0.22739 1.06115,0.22739 0,0 -0.37898,2.57709 0,2.95608 0.37899,0.37898 1.28855,0.83376 1.81913,0.0758 0.53058,-0.75796 4.47202,-1.21274 4.69941,-0.60637 0.22739,0.60637 -0.37898,1.81913 0.37898,2.4255 0.75798,0.60638 1.28855,1.06116 1.21276,1.66753 -0.0758,0.60638 -0.83377,1.21275 -0.53058,2.04652 0.30319,0.83377 1.13695,1.13695 2.04651,1.06116 0.90957,-0.0758 0.83377,0.60637 1.59174,0.75797 0.75797,0.15159 3.71405,0.15159 4.01724,0.37898 0.30319,0.22739 1.06115,0.75797 1.28855,1.13696 0.22739,0.37898 1.06115,1.74332 1.59173,1.21275 0.53058,-0.53058 1.13696,-3.33507 0.30319,-3.63826 -0.83377,-0.30318 -1.36434,-0.30318 -1.36434,-1.21275 0,-0.90956 0.45478,-2.5013 0.75796,-2.5013 0.30319,0 0.68218,-0.37898 0.68218,-0.37898 0,0 2.3497,0 1.59173,-0.60638 z"
       sodipodi:nodetypes="ccccscsscssscsssssssccsccssssscsssssssssssssc" />
    <path
       id="south_africa"
       style="display:inline;fill:none;fill-opacity:1;fill-rule:evenodd;stroke:#ff0000;stroke-width:0.606375;enable-background:new"
       d="m 221.73033,231.20331 c 0.37898,0.53058 1.74333,-0.60638 2.19811,-0.22739 0.45478,0.37898 1.66753,1.21275 2.12231,1.44014 0.45478,0.22739 2.95608,-0.15159 3.56246,0.30319 0.60637,0.45478 1.06115,0.22739 1.06115,0.22739 0,0 -0.37898,2.57709 0,2.95608 0.37899,0.37898 1.28855,0.83376 1.81913,0.0758 0.53058,-0.75796 4.47202,-1.21274 4.69941,-0.60637 0.22739,0.60637 -0.37898,1.81913 0.37898,2.4255 0.75798,0.60638 1.28855,1.06116 1.21276,1.66753 -0.0758,0.60638 -0.83377,1.21275 -0.53058,2.04652 0.30319,0.83377 1.13695,1.13695 2.04651,1.06116 0.90957,-0.0758 0.83377,0.60637 1.59174,0.75797 0.75797,0.15159 3.71405,0.15159 4.01724,0.37898 0.30319,0.22739 1.06115,0.75797 1.28855,1.13696 0.22739,0.37898 1.06115,1.74332 1.59173,1.21275 0.53058,-0.53058 1.13696,-3.33507 0.30319,-3.63826 -0.83377,-0.30318 -1.36434,-0.30318 -1.36434,-1.21275 0,-0.90956 0.45478,-2.5013 0.75796,-2.5013 0.30319,0 0.68218,-0.37898 0.68218,-0.37898 0,0 2.3497,0 1.59173,-0.60638 0.37899,-0.15159 1.44014,-0.37898 1.59174,0.1516 0.15159,0.53058 -0.1516,1.51594 0.45478,1.51594 0.60637,0 1.28855,0.90956 1.51594,1.36434 0.22739,0.45478 0.83376,0.37899 1.06115,1.44014 0.22739,1.06116 0.53058,0.90957 0.1516,1.59174 -0.37899,0.68217 -0.45478,0.75797 -0.22739,1.51594 0.22739,0.75797 1.21275,2.04651 0.90956,2.95608 -0.30319,0.90956 -0.75797,2.12231 -0.30319,2.88028 0.45478,0.75797 1.66754,1.97072 2.04652,1.66753 0.37898,-0.30318 0.90956,-0.60637 0.90956,-1.36434 0,-0.75797 -0.22739,-2.04652 0,-2.65289 0.2274,-0.60638 0.98536,0.45478 0.45479,-1.28855 -0.53058,-1.74333 -0.90957,-1.66753 -0.22739,-2.5771 0.68217,-0.90956 1.28854,-0.83376 2.04651,-1.06115 0.75797,-0.22739 1.13695,-0.30319 1.13695,-0.30319 0,0 0.90957,-0.83377 1.59174,-0.83377 0.68217,0 1.66753,-0.98536 1.66753,-0.98536 0,0 -0.15159,-0.30319 -0.15159,-0.30319 0,0 1.74333,-0.53057 1.44014,0.0758 -0.30319,0.60638 0.53058,2.80449 0.53058,2.80449 0,0 0.0758,0.45478 0.22739,1.06115 0.15159,0.60638 0.0758,0.68218 0.15159,1.28855 0.0758,0.60638 -0.22739,0.90957 -0.30318,1.36435 -0.0758,0.45478 0.0758,0.83376 0.15159,1.44014 0.0758,0.60637 -0.37898,1.97072 -0.53058,2.3497 -0.15159,0.37899 -0.60637,0.37899 -0.90956,0.68218 -0.30319,0.30318 -0.37899,0.75797 -1.06116,1.44014 -0.68217,0.68217 -0.53058,0.68217 -0.98536,1.36434 -0.45478,0.68217 -0.0758,0.30319 -0.75797,1.36435 -0.68217,1.06115 -0.37898,0.30319 -1.06116,0.53058 -0.68217,0.22739 -1.06115,0.98535 -1.36434,1.06115 -0.30319,0.0758 -1.13695,0.83377 -1.59173,3.63826 -0.45479,2.80448 0.45478,3.33506 0.22739,3.86564 -0.22739,0.53058 -1.66754,2.5771 -1.89493,3.18347 -0.22739,0.60637 -0.45478,0.53058 -1.13695,0.83377 -0.68217,0.30318 -0.45478,1.51594 -0.45478,1.97072 0,0.45478 -0.45479,1.97072 -1.28855,2.72869 -0.83377,0.75797 -0.0758,0.68217 0.15159,0.98536 0.22739,0.30318 0.22739,0.68217 0.0758,1.66753 -0.15159,0.98536 -0.98536,0.45478 -1.44014,0.75797 -0.45478,0.30319 -1.89493,1.97072 -1.74333,2.57709 0.15159,0.60638 0.75797,0.53058 0.75797,0.53058 0,0 -0.98536,1.06116 -1.89492,2.19811 -0.90957,1.13696 0.0758,0.68218 0.30318,1.44015 0.22739,0.75796 -0.53057,0.15159 -0.98536,0.15159 -0.45478,0 -0.53058,0.22739 -0.98536,0.60637 -0.45478,0.37899 -0.75797,0.30319 -2.88028,0.75797 -2.12231,0.45479 -0.83377,0.75797 -1.89493,1.51594 -1.06115,0.75797 -0.98535,0.98536 -3.94144,0.98536 -2.95608,0 -1.97071,0.30319 -2.50129,0.53058 -0.53058,0.22739 -0.90957,0.22739 -1.51594,0.22739 -0.60638,0 -1.06116,0.30319 -1.44014,0.53058 -0.37899,0.22739 -0.68218,0.83377 -0.68218,0.83377 0,0 -0.30318,-0.1516 -0.60637,-0.68218 -0.30319,-0.53057 -0.98536,-0.30318 -1.51594,-0.37898 -0.53058,-0.0758 -0.60638,-0.15159 -1.13696,-0.83377 -0.53057,-0.68217 0.1516,-0.90956 0.1516,-1.28855 0,-0.37898 -0.45478,-1.59173 -0.45478,-2.19811 0,-0.60637 0,-0.90956 0,-1.66753 0,-0.75797 -0.0758,-0.75797 -0.0758,-1.59173 0,-0.83377 0,-0.90957 -0.22739,-1.36435 -0.22739,-0.45478 -0.83377,-0.98536 -0.98536,-1.81913 -0.15159,-0.83376 0,-1.13695 0,-1.81912 0,-0.68217 -0.75797,-0.30319 -0.90956,-0.60638 -0.1516,-0.30319 -0.53058,-0.60637 -0.83377,-1.51593 -0.30319,-0.90957 0.0758,-0.83377 0.0758,-1.59174 0,-0.75797 0,-0.83377 0,-1.44014 0,-0.60638 -0.45478,-0.83377 -0.60638,-1.21275 -0.15159,-0.37899 -1.06115,-1.97072 -1.13695,-2.5013 -0.0758,-0.53058 -0.15159,-0.83377 -0.15159,-1.51594 0,-0.68217 0.0758,-0.60638 0.15159,-1.13695 0.0758,-0.53058 -0.37899,-0.83377 -0.37899,-1.21275 0,-0.37899 -1.97072,-2.27391 -1.97072,-2.27391 0,0 -0.22739,-0.1516 -0.30318,-0.60638 -0.0758,-0.45478 -0.45479,-0.75797 -1.13696,-1.59173 -0.68217,-0.83377 -0.37898,-0.83377 -0.30319,-1.44015 0.0758,-0.60637 -0.0758,-1.21275 -0.15159,-1.59173 -0.0758,-0.37899 -0.83377,-2.04652 -0.83377,-2.04652 0,0 -0.0758,-0.75797 0.0758,-1.36434 0.1516,-0.60638 0.37899,-0.75797 0.45478,-1.66754 0.0758,-0.90956 0,-0.68217 0.0758,-1.21275 0.0758,-0.53058 0.15159,-0.53058 0.37898,-0.98536 0.22739,-0.45478 0.60638,-0.83376 0.60638,-1.51594 0,-0.68217 0.45478,-1.28855 0.60638,-1.59173 0.15159,-0.30319 0.45478,-0.60638 0.90956,-1.28855 0.45478,-0.68217 -0.22739,-0.45478 -0.1516,-1.06116 0.0758,-0.60637 -0.0758,-1.06115 -0.15159,-1.51594 -0.0758,-0.45478 -1.21275,-1.89492 -1.51594,-2.72869 -0.30319,-0.83376 1.06116,-1.66753 2.12231,-3.33506 h 0.0379 c 1.21276,-1.78123 -2.53919,-4.66151 -2.53919,-5.38158 z"
       sodipodi:nodetypes="cssscssssssssssssssccsssssssssssssscsccscssssssssssssssssssssscsssssssssscssssssssssssssssssscsssscssssssssssc" />
  </g>
</svg>
