<svg xmlns:inkscape="http://www.inkscape.org/namespaces/inkscape" xmlns:sodipodi="http://sodipodi.sourceforge.net/DTD/sodipodi-0.dtd" xmlns="http://www.w3.org/2000/svg" xmlns:svg="http://www.w3.org/2000/svg" width="440mm" height="300mm" viewBox="0 0 440 300" version="1.1" id="SVGRoot" sodipodi:docname="all.svg" inkscape:version="1.1.1 (3bf5ae0d25, 2021-09-20, custom)">
  <sodipodi:namedview id="namedview345" pagecolor="#ffffff" bordercolor="#666666" borderopacity="1.0" inkscape:pageshadow="2" inkscape:pageopacity="0.0" inkscape:pagecheckerboard="0" inkscape:document-units="mm" showgrid="false" inkscape:zoom="42.728027" inkscape:cx="440.9986" inkscape:cy="1082.9777" inkscape:window-width="1916" inkscape:window-height="1030" inkscape:window-x="0" inkscape:window-y="0" inkscape:window-maximized="1" inkscape:current-layer="layer1"/>
  <defs id="defs340"/>
  <g inkscape:label="Warstwa 1" inkscape:groupmode="layer" id="layer1">
    <path id="alberta" style="display:inline;overflow:visible;visibility:visible;fill:none;fill-opacity:1;fill-rule:evenodd;stroke:#ff0000;stroke-width:0.606375;marker:none;marker-start:none;marker-mid:none;marker-end:none;enable-background:accumulate" d="m 43.605427,55.732 c 0,0 0.0758,0.07592 0.37899,0.985485 0.30318,0.90957 0.53057,1.51594 1.21274,2.72869 0.68218,1.21276 0.0758,4.85101 0.0758,4.85101 l 1.21275,1.66753 c 0,0 0.98536,0.45478 1.36435,0.53058 0.37896,0.0758 0.22738,1.97072 0.15158,2.72869 -0.0758,0.75797 -0.98536,0.37898 -1.51593,0.53058 -0.5306,0.15159 -0.68218,1.44014 -0.75798,2.19811 -0.0758,0.75797 -1.43801,0.45607 -1.43801,0.45607 0.37896,0.75796 1.13694,0.83376 1.44013,2.19811 0.30318,1.36434 0.1516,0.90956 0.53057,1.44014 0.37898,0.53058 1.06116,0.60637 1.21277,1.81912 0.15158,1.21276 0.15158,0.53058 0.98536,2.12232 0.83375,1.59173 0.0758,2.27391 0.22738,3.71405 0.15161,1.44014 0.90956,0.90956 1.44015,1.66753 l 0.185407,0.651066 29.280153,0.01094 2.29124,-29.238737 c 0,0 -8.737462,-0.304246 -18.287877,-0.569536 C 54.044585,55.958459 43.681217,55.732 43.605427,55.732 Z" sodipodi:nodetypes="cssccsssscssssscccccc"/>
  </g>
</svg>