<?xml version="1.0" encoding="UTF-8" standalone="no"?>
<!-- Created with Inkscape (http://www.inkscape.org/) -->

<svg
   width="440mm"
   height="300mm"
   viewBox="0 0 440 300"
   version="1.1"
   id="SVGRoot"
   sodipodi:docname="all.svg"
   inkscape:version="1.1.1 (3bf5ae0d25, 2021-09-20, custom)"
   xmlns:inkscape="http://www.inkscape.org/namespaces/inkscape"
   xmlns:sodipodi="http://sodipodi.sourceforge.net/DTD/sodipodi-0.dtd"
   xmlns="http://www.w3.org/2000/svg"
   xmlns:svg="http://www.w3.org/2000/svg">
  <sodipodi:namedview
     id="namedview345"
     pagecolor="#ffffff"
     bordercolor="#666666"
     borderopacity="1.0"
     inkscape:pageshadow="2"
     inkscape:pageopacity="0.0"
     inkscape:pagecheckerboard="0"
     inkscape:document-units="mm"
     showgrid="false"
     inkscape:zoom="42.728027"
     inkscape:cx="440.9986"
     inkscape:cy="1082.9777"
     inkscape:window-width="1916"
     inkscape:window-height="1030"
     inkscape:window-x="0"
     inkscape:window-y="0"
     inkscape:window-maximized="1"
     inkscape:current-layer="layer1" />
  <defs
     id="defs340" />
  <g
     inkscape:label="all"
     inkscape:groupmode="layer"
     id="layer1">

    <!-- asia -->
    <path
       style="display:inline;fill:none;fill-opacity:1;fill-rule:evenodd;stroke:#ff0000;stroke-width:0.606375;marker-start:none;marker-mid:none;enable-background:new"
       d="m 392.91694,128.80205 c 0,-0.75036 0.32157,-2.67983 -0.10718,-2.78702 -0.42879,-0.10719 -0.42879,-0.42877 -1.17914,-0.32158 -0.75034,0.10719 -1.6079,-0.32158 -1.6079,-0.32158 0,0 -0.21437,-0.75035 1.07193,-1.5007 1.28632,-0.75036 2.03668,-1.17913 2.03668,-1.17913 l -0.64315,-0.42877 c 0,0 -1.39353,-0.10719 -0.75035,-0.53596 0.64314,-0.42878 0.75035,-0.96474 1.28629,-1.6079 0.536,-0.64316 1.82229,-3.96614 2.57265,-5.25246 0.75036,-1.28632 2.46544,-0.85754 2.46544,-0.85754 l 1.17912,-3.00141 c 0,0 -0.96473,-2.25105 0.64315,-3.0014 1.6079,-0.75036 1.71511,0.10719 2.14386,-1.71509 0.42879,-1.82228 1.71511,-1.50071 1.92948,-2.14386 0.21439,-0.64316 0.42878,-0.64316 0.10721,-1.71509 -0.32158,-1.07193 -1.17915,-2.03667 -1.17915,-2.03667 0,0 -0.42875,-1.607895 -0.42875,-2.465435 0,-0.85754 -0.21439,-2.25106 0.53596,-2.57264 0.75036,-0.32157 -0.64317,-2.03666 -0.64317,-2.03666 0,0 0.42878,-0.64316 -0.10718,-1.07193 -0.53597,-0.42877 -0.85755,-0.96474 -0.85755,-1.50071 0,-0.53596 0.10719,-1.92947 0.10719,-1.92947 0,0 0.53596,-0.85754 0.96475,-0.96474 0.42875,-0.10719 0.85754,0.1072 0.85754,-0.96474 0,-1.07193 -0.53597,-2.67982 -0.53597,-2.67982 0,0 -2.25105,-3.32298 -2.67983,-3.53738 -0.42876,-0.21438 -0.42876,-0.42876 -0.10718,-1.07192 0.32157,-0.64316 2.46544,2.57263 3.96613,2.78702 1.50071,0.21438 2.89422,0 2.89422,0 l 1.39351,-0.64316 2.78701,0.10719 c 0,0 1.17912,0.10719 1.39351,1.28632 0.21439,1.17912 1.71508,0.75035 0.96475,1.82228 -0.75036,1.07193 -0.64317,1.60789 -1.39351,1.5007 -0.75035,-0.10719 -0.64317,-0.64316 -1.17914,-0.53596 -0.53596,0.10719 -0.96472,0 -0.96472,1.17912 0,1.17912 0.85754,1.28632 0.10718,2.25106 -0.75036,0.96473 -0.42876,1.3935 -1.50069,1.3935 -1.07193,0 -2.03668,-0.10719 -3.10862,0.1072 -1.0719,0.21438 -1.60787,-0.53597 -1.60787,0.42877 0,0.96474 0,1.17912 0.53597,1.28632 0.53594,0.10719 0.96472,0 0.75033,0.64316 -0.21439,0.64316 -0.85754,1.07192 -0.42876,1.28631 0.42876,0.21439 0.96473,-0.32158 0.96473,0.21439 l 1.82229,0.10719 0.32157,1.07193 c 0,0 0.21439,0 0.85754,0.10719 0.64315,0.1072 1.07194,-0.42877 1.28633,0.32158 0.21439,0.75036 0.53596,1.07193 0.53596,1.07193 0,0 0.32158,0 0.42876,0.75035 0.10721,0.75035 0.21439,0.96474 0.21439,1.50071 0,0.535955 -0.53596,2.251045 -0.53596,2.251045 0,0 -0.42876,0.42878 -0.32158,1.28632 0.10719,0.85754 0.53597,0 0.64315,1.07193 0.10721,1.07193 0.10721,1.39351 0.10721,2.14386 0,0.75035 -0.10721,0.64316 0.53597,1.17912 0.64315,0.53597 0.85754,1.07193 0.85754,1.07193 0,0 0.53596,0.32158 0.53596,1.07194 0,0.75034 0,1.3935 0,1.3935 0,0 -0.32157,0.1072 -0.75035,0.1072 -0.42876,0 -0.96475,-0.1072 -0.96475,-0.1072 0,0 -0.10719,0.32158 -0.32158,1.07193 -0.21436,0.75036 -1.17911,1.17913 -1.17911,1.17913 0,0 0,1.07193 -0.42879,1.17912 -0.42875,0.1072 -0.75033,0.1072 -1.17911,0.21439 -0.42876,0.10719 -0.75036,0 -0.96473,0.53597 -0.21439,0.53596 0,0.64315 -0.53596,0.75034 -0.53597,0.1072 -1.07194,-0.85754 -1.17915,0.53597 -0.10718,1.39351 0.75036,1.92948 -0.32157,2.25105 -1.07193,0.32158 -1.71508,0.53597 -1.71508,0.53597 0,0 0.21439,0.85754 -0.53597,0.64316 -0.75036,-0.21439 -1.6079,-0.96474 -1.6079,-1.5007 0,-0.53597 -0.10718,-0.85755 -0.10718,-0.85755 l -1.50072,0.96473 c 0,0 0.21439,0.53597 -0.85754,0.53597 -1.07193,0 -1.50069,-1.17912 -1.2863,0 0.21437,1.17912 0.64315,2.03667 0.75034,2.46544 0.1072,0.42877 0.75035,0.1072 0.64314,0.75035 -0.10718,0.64316 0.10721,0.64316 -0.32157,1.07193 -0.42876,0.42878 -1.2863,0.53597 -1.71508,0.53597 -0.42876,0 -0.53597,-0.10719 -1.39351,0 -0.85754,0.10719 -1.28984,4.14112 -1.28984,4.14112 l -0.75796,0.68217 z"
       id="japan"
       sodipodi:nodetypes="csscsccsssccsssscsscsscsscssscccsssssssssssss" />
    <path
       id="yakursk"
       style="display:inline;overflow:visible;visibility:visible;fill:none;fill-opacity:1;fill-rule:evenodd;stroke:#ff0000;stroke-width:0.606375;marker:none;marker-start:none;marker-mid:none;marker-end:none;enable-background:accumulate"
       d="m 381.20707,28.825505 c -0.30319,-0.68217 0.45479,-0.75797 -0.68218,-1.36435 -1.13694,-0.60637 -1.59173,-0.45478 -2.27391,-0.68217 -0.68217,-0.22739 -0.53057,-0.37898 -0.22738,-1.21275 0.30318,-0.83376 1.28855,-0.90956 -0.0758,-1.21275 -1.36433,-0.30319 -1.28855,-0.83377 -2.27391,-0.83377 -0.98536,0 -0.75795,0 -1.28855,0.2274 -0.53057,0.22739 -0.60637,0.22739 -0.83376,0.53057 -0.22738,0.30319 0.22739,0.68218 -0.30318,0.53058 -0.5306,-0.15159 -0.22738,0.0758 -0.75798,-0.53058 -0.53057,-0.60637 -0.37899,-0.83376 -1.06116,-0.75797 -0.68215,0.0758 -0.15158,-0.0758 -1.13695,0.1516 -0.98536,0.22739 -1.28854,0.22739 -1.97072,0.30319 -0.68217,0.0758 -1.81911,0.98536 -1.81911,0.98536 0,0 0.0758,0.15159 -0.75798,0.22739 -0.83376,0.0758 -0.30319,-0.37899 -1.44016,0.45478 -1.13694,0.83377 -0.60637,0.90956 -1.51593,0.83377 -0.90955,-0.0758 -0.45476,-0.60638 -1.44012,-0.1516 -0.98536,0.45478 -1.06117,0.22739 -1.06117,0.83377 0,0.60637 -0.60637,0.98536 -0.60637,0.98536 0,0 0,-0.22739 -0.22741,-0.98536 -0.22738,-0.75797 -0.53057,-0.45478 -0.45476,-1.21275 0.0758,-0.75797 -3.18347,-1.21275 -3.63826,-2.27391 -0.4548,-1.06116 -0.37899,-0.90957 -0.53057,-1.89492 -0.15161,-0.98537 -1.97072,-1.44015 -2.27391,-1.36435 -0.30319,0.0758 -1.13697,0.98536 -1.51596,1.44014 -0.37896,0.45478 -0.53057,0.83377 -1.13694,1.28855 -0.52358,0.51578 -1.01224,0.8331 -1.47804,1.17485 l 0.18949,1.55384 c 0,0.30319 -0.0758,1.21275 0.60638,1.89492 0.68217,0.68218 0.90955,0.37899 1.21274,0.68218 0.30319,0.30318 -0.0758,2.2739 -0.15158,2.72869 -0.0758,0.45478 -0.37899,0.45478 -0.68217,0.98535 -0.30319,0.53058 -0.0758,0.83377 -0.30319,1.74333 -0.22741,0.90957 -0.5306,0.53058 -0.75798,1.44015 -0.22738,0.90956 0,0.83376 0.30319,1.44014 0.30318,0.60637 0.30318,1.13695 0.30318,2.04651 0,0.90957 -0.15158,0.37899 -0.53057,0.45479 -0.37899,0.0758 -0.75797,0.37898 -1.51593,0.45478 -0.75797,0.0758 -1.59176,0.37898 -1.97072,-0.0758 -0.37899,-0.45478 -0.75798,-0.53058 -2.12233,-0.37898 -1.36435,0.15159 -0.37899,0.60637 -0.53057,1.21275 -0.1516,0.60637 -0.60637,0.53057 -1.51594,0.68217 -0.90956,0.15159 -0.60637,0.22739 -0.68217,1.21275 -0.0758,0.98536 1.06115,1.59174 1.66752,1.81913 0.6064,0.22739 0.75798,0.37898 0.98536,0.75797 0.22741,0.37898 0.90958,0.22739 1.81914,1.06115 0.90956,0.83377 0.15158,0.98536 -0.45479,1.59174 -0.60637,0.60637 0.37899,2.72869 0.83378,3.03188 0.45477,0.30318 0.68218,0.75797 0.90956,2.57709 0.22738,1.81913 0.90956,1.97072 0.90956,1.97072 0,0 0.53057,0.30319 0.60637,2.19811 0.0758,1.89493 0.5306,3.48666 0.5306,3.48666 0,0 2.95605,-0.90956 3.71403,-1.36434 0.75798,-0.45478 0.68218,-0.53058 0.90956,-1.59174 0.22741,-1.06116 0.30318,-2.80449 1.13697,-2.95608 0.83375,-0.15159 0.68217,1.06116 0.68217,1.06116 0.0758,0.45478 0.90956,0.30319 1.81912,0.45478 0.64153,0.10692 0.37809,-0.46491 0.24691,-1.02397 -0.0548,-0.23356 -0.0865,-0.46488 -0.0196,-0.64356 0.22738,-0.60638 7.45535,0.0686 7.45535,0.0686 0.26797,-0.64316 0.75033,-1.07193 1.55429,-1.82229 0.80394,-0.75034 0.16079,-2.09026 0.21439,-2.35824 0.0536,-0.26798 1.07194,-1.12553 1.5543,-2.94781 0.48236,-1.82228 1.07193,-0.48237 1.07193,-0.48237 0,0 1.23272,-1.07193 1.66148,-1.82228 0.42878,-0.75035 2.78701,-0.64316 3.05501,-0.53596 0.268,0.10719 0.10718,1.17912 0.48236,1.92947 0.37518,0.75035 0.16079,0.32158 0.80397,0.26798 0.64314,-0.0536 1.07193,-0.26798 1.66147,-0.26798 0.58957,0 0.32158,0.85754 0.58957,0.96474 0.26797,0.10719 1.23272,0 1.50069,-0.0536 0.268,-0.0536 0.85755,-0.48237 1.23272,-0.80395 0.37518,-0.32158 0.10721,-1.39351 0.16082,-1.87588 0.0536,-0.48237 0.58954,-0.64316 0.75033,-1.01834 0.16079,-0.37517 0,-1.39351 -0.0536,-1.87587 -0.0536,-0.48237 -0.42876,-1.07193 -0.80394,-1.17913 -0.37518,-0.10719 -1.87587,-0.21438 -2.46544,-0.26798 -0.58957,-0.0536 -0.58957,-2.89421 -0.32158,-4.71649 0.26797,-1.82228 0.10719,-1.39352 0.37516,-1.71509 0.26799,-0.32158 1.17914,-0.48237 1.50071,-0.48237 0.32158,0 0.75036,-0.69676 0.80394,-1.23272 0.0536,-0.53597 0.48239,-0.42877 0.69675,-0.96473 0.2144,-0.53598 0.91115,-0.26799 1.66151,-0.37518 0.75036,-0.1072 0.26797,-0.91115 0.26797,-1.76869 z"
       sodipodi:nodetypes="csssssssssssscssssscsssssscccssssssssssssssssssssscscssscssscssscsssssssssssssssssssc" />
    <path
       id="kamchatka"
       style="display:inline;overflow:visible;visibility:visible;fill:none;fill-opacity:1;fill-rule:evenodd;stroke:#ff0000;stroke-width:0.606375;marker:none;marker-start:none;marker-mid:none;marker-end:none;enable-background:accumulate"
       d="m 386.20967,101.05998 c 0.60638,-0.45479 0.45477,0.0758 0.98537,-1.061155 0.53056,-1.13695 0.37898,-1.51594 0.75795,-1.89493 0.37899,-0.37898 1.21277,-1.74332 1.13697,-2.72869 -0.0758,-0.98535 -0.37899,-0.90956 -0.15161,-1.81912 0.22741,-0.90956 0.30318,-0.90956 0.45479,-2.12231 0.15161,-1.21275 -0.15161,-1.06116 0.22738,-2.5013 0.37899,-1.44014 0.4548,-1.74333 0.22741,-2.27391 -0.22741,-0.53058 -0.37899,-1.13695 -0.37899,-2.04652 0,-0.90956 0.0758,-1.66753 0,-1.97072 -0.0758,-0.30319 -0.1516,-0.60638 -0.37898,-1.44014 -0.22739,-0.83377 -0.83379,-1.44014 -0.83379,-1.44014 0,0 -0.15158,0.60637 -0.45476,-0.37899 -0.30319,-0.98536 -0.22739,-0.68217 -0.37899,-1.28854 -0.15158,-0.60638 -0.60637,0.30318 -0.37899,-1.74333 0.22741,-2.04652 0.15161,-2.72869 0.15161,-2.72869 0,0 -0.0758,-2.04652 -1.44016,-2.04652 -1.36435,0 -1.81911,0.37898 -1.97072,-0.75797 -0.15158,-1.13695 -0.75795,-1.36434 -1.66754,-1.51594 -0.90955,-0.15159 -1.06113,0 -1.51593,-0.22739 -0.45476,-0.22739 -0.22738,-0.37898 -0.98536,-0.37898 -0.75795,0 -0.30318,0.30318 -1.36435,0 -1.06114,-0.30319 -1.06114,0.45478 -1.21274,-0.30319 -0.15158,-0.75797 -0.0758,-1.28855 0.98536,-2.95608 1.06116,-1.66753 0.98536,-2.04652 1.13697,-2.88029 0.15158,-0.83376 -0.75798,-0.45478 0.60637,-1.66753 1.36432,-1.21275 0.98536,-1.59173 2.57709,-1.59173 1.59174,0 1.81912,0 2.95609,-0.53058 1.13694,-0.53058 0.22738,-1.13696 1.59173,-0.53058 1.36432,0.60637 1.21274,1.21275 1.97072,0.53058 0.75795,-0.68217 0.98536,-1.13696 1.36433,-1.13696 0.37899,0 1.81914,0.83377 1.81914,0.83377 0,0 0.60637,0.30319 1.13694,0.15159 0.53059,-0.15159 0.98536,0.98536 1.51596,-0.0758 0.53056,-1.06116 0.30318,-1.36435 -0.22741,-1.66754 -0.53057,-0.30318 -1.13695,1.06116 -0.83376,-0.75796 0.30319,-1.81913 0.60637,-2.5013 0.37899,-3.10768 -0.22741,-0.60637 -1.81914,-2.72869 0.0758,-1.44014 1.89494,1.28855 1.44015,1.51594 2.12233,1.89492 0.68217,0.37899 0.37898,0.37899 0.60637,1.81913 0.22738,1.44014 2.50129,1.13695 2.1981,2.95608 -0.30318,1.81913 -0.30318,2.3497 -0.45476,3.10767 -0.15161,0.75797 -0.98536,0.22739 -0.75798,3.33507 0.22738,3.10767 0.45479,8.64085 3.18347,11.06635 2.7287,2.4255 3.41087,2.72869 3.78983,1.66753 0.37899,-1.06115 0.75798,-1.51594 0.5306,-2.72869 -0.22738,-1.21275 -0.83378,-1.66753 -0.37899,-2.5013 0.45479,-0.83376 0.83376,-1.36434 0.90956,-2.04651 0.0758,-0.68217 0.22738,-1.21275 0.1516,-1.97072 -0.0758,-0.75797 0,-1.66754 -0.1516,-2.27391 -0.15158,-0.60638 -0.30319,-1.59174 -0.37899,-2.19811 -0.0758,-0.60638 -0.68218,-1.66753 -0.90956,-2.19811 -0.22738,-0.53058 -0.90956,-1.59174 -1.06116,-2.34971 -0.15158,-0.75797 -0.45477,-1.06115 0.30321,-2.12231 0.75795,-1.06116 -0.68218,-1.66753 1.06114,-1.44014 1.74334,0.22739 1.66753,0.45478 2.57709,0.30318 0.90956,-0.15159 1.81914,0.37899 2.12233,-0.68217 0.30319,-1.06116 0.0758,-0.90956 0.60637,-1.66753 0.53057,-0.75797 0.75798,-0.60638 1.36435,-1.51594 0.60637,-0.90956 -0.30318,-1.21275 1.21275,-2.4255 1.51593,-1.21275 2.42549,-1.66753 2.80447,-2.12232 0.37899,-0.45478 1.13697,-0.68217 0.5306,-1.28854 -0.6064,-0.60638 -0.68218,-1.13696 -1.51596,-1.66753 -0.83375,-0.53058 -1.28854,-0.90957 -1.66753,-0.98537 -0.37897,-0.0758 -0.90956,-0.22739 -0.53057,-0.53058 0.37899,-0.30318 0.98536,-0.83376 1.59173,-0.83376 0.60637,0 0.60637,0.60638 1.51593,0.15159 0.90959,-0.45478 1.28855,-0.75797 1.89495,-0.30318 0.60637,0.45478 0.22738,0.0758 0.68217,0.98535 0.45477,0.90957 -0.45479,0.60638 0.75795,1.28855 1.21275,0.68218 2.34972,0.83377 2.72871,0.83377 0.37898,0 0.15157,0.45478 1.06113,-0.0758 0.90959,-0.53057 0.75798,-0.30318 1.36435,-1.13695 0.60638,-0.83377 0.98536,-0.98536 0.75798,-2.04652 -0.22738,-1.06116 -0.60637,-1.74333 -0.60637,-2.04651 l -0.68218,-1.13696 c 0,0 0,-0.53058 -1.06116,-0.53058 -1.06116,0 -1.66754,0.0758 -1.66754,-0.30318 0,-0.37899 0.30319,-1.06116 -0.37899,-1.06116 -0.68214,0 -1.06113,-0.60638 -1.51593,-0.0758 -0.45476,0.53058 -0.75795,1.13696 -1.28854,0.83377 -0.53057,-0.30319 -1.13694,-1.06116 -1.13694,-1.06116 0,0 0.15158,-0.75797 -0.0758,-1.06116 -0.22738,-0.30318 -0.90956,-0.98536 -0.90956,-0.98536 l -0.98536,-0.45478 c 0,0 -2.04652,-2.04652 -2.8045,-2.12231 -0.75795,-0.0758 -1.44013,0.0758 -1.66751,-0.53058 -0.22741,-0.60638 1.06114,-0.60638 -0.83378,-0.90956 -1.89492,-0.30319 -1.97072,0 -2.5771,-0.83377 -0.60637,-0.83377 0.22739,-1.06116 -1.28854,-1.13695 -1.51593,-0.0758 -2.19811,0.15159 -3.48666,-0.37899 -1.28854,-0.53058 -1.28854,-1.06116 -1.89492,-0.45478 -0.60637,0.60637 -0.30318,0.68217 -1.13696,1.36434 -0.83376,0.68217 -0.37899,1.28855 -1.66754,1.28855 -1.28855,0 -1.06114,0.1516 -1.81912,-0.15159 -0.75797,-0.30319 -0.60637,-0.53058 -1.51593,-0.60638 -0.90958,-0.0758 -0.68217,0 -1.59173,0.0758 -0.90958,0.0758 -0.15161,0.60637 -1.59176,-0.0758 -1.44012,-0.68217 -1.44012,-0.83376 -2.50129,-1.36434 -1.06116,-0.53058 -1.36435,-0.68218 -1.89492,-0.68218 -0.53057,0 -2.7287,-0.22739 -3.33507,0.30319 0,0 -0.81555,0.8658 -0.81555,1.72335 0,0.85754 0.48239,1.66149 -0.26797,1.76868 -0.35285,0.0504 -0.69385,0.0178 -0.97841,0.0249 -0.32057,0.008 -0.56951,0.0663 -0.6831,0.35024 -0.21439,0.53596 -0.64315,0.42876 -0.69675,0.96473 -0.0536,0.53596 -0.48236,1.23272 -0.80394,1.23272 -0.32157,0 -1.23272,0.16079 -1.50071,0.48237 -0.26797,0.32157 -0.10719,-0.10719 -0.37518,1.71509 -0.26797,1.82227 -0.26797,4.6629 0.3216,4.71649 0.58954,0.0536 2.09026,0.16079 2.46544,0.26798 0.37515,0.10719 0.75033,0.69676 0.80393,1.17913 0.0536,0.48236 0.2144,1.5007 0.0536,1.87587 -0.16079,0.37518 -0.69675,0.53597 -0.75036,1.01834 -0.0536,0.48237 0.21439,1.5543 -0.16079,1.87588 -0.37518,0.32158 -0.96475,0.75035 -1.23272,0.80395 -0.26797,0.0536 -1.23272,0.16078 -1.50069,0.0536 -0.26799,-0.1072 0,-0.96474 -0.58957,-0.96474 -0.58957,0 -1.01833,0.21439 -1.6615,0.26798 -0.64315,0.0536 -0.42876,0.48237 -0.80394,-0.26798 -0.37518,-0.75035 -0.21439,-1.82228 -0.48236,-1.92947 -0.268,-0.1072 -2.62623,-0.21439 -3.05501,0.53596 -0.42879,0.75035 -1.66151,1.82228 -1.66151,1.82228 0,0 -0.58954,-1.33991 -1.07193,0.48237 -0.48236,1.82228 -1.50069,2.67983 -1.55429,2.94781 -0.0536,0.26798 0.58957,1.6079 -0.21437,2.35824 -0.80396,0.75036 -1.28632,1.17913 -1.55429,1.82229 -0.268,0.64316 -0.21439,1.5007 -0.0536,1.76868 0.16079,0.26799 0.85754,1.76869 0.64315,3.00141 -0.21439,1.23272 -0.53597,4.93088 -0.37518,5.62764 0.16079,0.69675 0.21439,2.41184 0.69676,2.89421 0.48236,0.48236 0.69675,0.85754 0.91114,1.28631 0.21439,0.42878 2.41184,1.12553 2.78702,2.03667 0.37518,0.91114 0.16078,1.12553 0.80393,1.5007 0.64318,0.37518 1.23272,1.17913 1.28633,1.92948 0.0536,0.75035 0.0536,1.87588 0.58957,1.71509 0.53597,-0.16079 1.12551,-0.91114 1.3399,-1.12553 0.21439,-0.21438 1.01833,-0.48237 1.71511,-0.21438 0.69675,0.26798 0.85754,0.26798 1.5543,0.16078 0.69675,-0.10719 1.3399,0.1072 1.3399,0.1072 0,0 0.53596,0.80395 0.58957,1.23272 0.0536,0.42877 -0.268,0.75035 0.69675,0.69675 0.96473,-0.0536 1.17912,-0.10719 1.2863,0.96474 0.10721,1.07193 0.69675,1.66149 0.69675,1.66149 0,0 0.16079,1.12553 0.10721,1.39351 -0.0536,0.26799 -0.42878,0.91114 -0.26799,1.6079 0.16078,0.69676 0.53596,1.3935 0.21439,1.87588 -0.32158,0.48236 -0.85754,1.55429 -0.85754,1.98307 0,0.42877 0.0443,1.541802 0,1.92947 C 379.518,90.802 379.518,90.802 379.518,90.802 c 0,0 0.32141,0.804015 0.32141,1.232785 0,0.42877 -2.35823,0.32158 -1.2863,1.6079 1.07191,1.28631 1.2863,2.84062 2.46544,2.78702 1.17912,-0.0536 1.71509,1.66149 1.87587,2.25105 0.16079,0.58956 0.64315,1.01834 1.39351,1.07193 0.75036,0.0536 0.85754,1.179125 1.44711,1.286315 0.58957,0.10719 0.58957,0.0536 0.47466,0.0209 z"
       sodipodi:nodetypes="csssssssssscssscssssssssssssssscssssssssssssssssssssssssssssssssssssssssssscssssscsccssssssssssssssscssssssssssssssssssssscsssssssssssssssscssscssssscsssssscc" />
    <path
       id="siberia"
       style="display:inline;overflow:visible;visibility:visible;fill:none;fill-opacity:1;fill-rule:evenodd;stroke:#ff0000;stroke-width:0.606375;marker:none;marker-start:none;marker-mid:none;marker-end:none;enable-background:accumulate"
       d="m 304.65217,42.923735 c 0.37899,1.06116 0.68217,0.45478 1.36435,0 0.68217,-0.45478 0.15159,-0.37898 0.22739,-1.28855 0.0758,-0.90956 -0.22739,-0.75797 -0.60638,-1.21275 -0.37898,-0.45478 -0.22739,-0.0758 -1.21275,-0.0758 -0.98536,0 -0.68217,0.1516 -1.36435,0.22739 -0.68217,0.0758 -0.45478,0 -1.59173,-0.22739 -1.13695,-0.22739 -0.68217,-0.83376 -0.68217,-1.28855 0,-0.45478 -0.30319,-1.28854 -0.30319,-1.28854 0,0 -0.60638,-0.22739 -0.90956,-0.83377 -0.30319,-0.60638 0,-0.68217 0.0758,-0.98536 0.0758,-0.30319 0.1516,-0.68217 0.0758,-1.59174 -0.0758,-0.90956 -0.30319,-0.30318 -0.60638,-0.75796 -0.30318,-0.45478 0,-0.75797 0,-0.75797 l 0.60638,-0.60638 1.06116,0.37899 0.68217,0.22739 1.36434,0.45478 c 0,0 0.0758,0.15159 1.28855,1.51594 1.21275,1.36434 0.60638,0.15159 1.51594,0.22739 0.90956,0.0758 0.68217,-0.37899 0.68217,-0.37899 0,0 -1.21275,-0.60637 -1.21275,-0.90956 0,-0.30319 0.30319,-0.75797 0.30319,-1.13695 0,-0.37899 -0.0758,-1.21275 -0.22739,-1.51594 -0.15159,-0.30319 -0.60638,-0.53058 -0.90956,-0.83377 -0.30319,-0.30319 -0.75797,-1.13695 -0.75797,-1.13695 0,0 -0.2274,-0.45478 0.30318,-1.97072 0.53058,-1.51594 0.68218,0.53057 0.68218,0.53057 l 0.45478,0.2274 0.90956,0.75797 c 0,0 0.75797,-0.1516 1.21275,-0.30319 0.45478,-0.1516 1.13696,1.06115 1.13696,1.06115 0,0 1.36434,0.1516 1.66753,0.1516 0.30319,0 0.90956,-0.83377 0.90956,-1.44014 0,-0.60638 -1.21275,-0.0758 -1.21275,-0.0758 l -1.81913,-0.37899 c 0,0 -2.3497,-0.68217 -2.80448,-1.28854 -0.45478,-0.60638 0.0758,-0.90957 0.0758,-0.90957 l 1.21275,-1.51593 c 0,0 0.83376,-0.83377 1.21275,-0.83377 0.37898,0 1.97072,0 1.97072,0 0,0 0.53057,-1.28855 0.60637,-2.27391 0.0758,-0.98536 1.36435,-0.30319 1.36435,-0.30319 0,0 0.98536,-0.30318 1.21275,-0.60637 0.22739,-0.30319 1.51594,-1.21275 3.56246,-2.4255 2.04651,-1.21275 2.04651,-0.68218 2.95607,-0.75797 0.90957,-0.0758 1.74333,-0.0758 2.04652,-0.22739 0.30319,-0.1516 1.28855,-0.83377 1.59174,-0.98536 0.30319,-0.1516 1.81912,-0.90957 1.81912,-0.53058 0,0.37898 0.1516,1.21275 0.30319,1.51594 0.1516,0.30318 0.98536,-0.37899 1.97072,-1.13696 0.98536,-0.75797 0.68217,-0.60637 1.13695,-1.28855 0.45479,-0.68217 0.90957,-0.22739 1.59174,-0.15159 0.68217,0.0758 0.45478,1.13696 0.53058,1.59174 0.0758,0.45478 1.21275,1.28854 1.89492,1.74333 0.68217,0.45478 2.5771,-2.27391 2.88029,-0.83377 0.30318,1.44014 1.97072,1.97072 1.97072,2.4255 0,0.45478 -0.75797,1.36435 -1.28855,1.81913 -0.53058,0.45478 -0.98536,0.98536 -1.28855,1.66753 -0.30319,0.68217 0,0.45478 0,1.06116 0,0.60637 -0.45478,0.15159 -1.13695,0.60637 -0.68218,0.45479 -0.68218,0.60638 -1.21275,1.21275 -0.53058,0.60638 -0.83377,0.30319 -1.36435,0.53058 -0.53058,0.22739 -0.37898,0.90957 -0.53058,1.44014 -0.15159,0.53058 0.30319,0.45478 0.30319,0.45478 0,0 0.75797,-0.53057 1.13696,-0.75796 0.37898,-0.22739 1.81912,-0.98536 2.19811,-1.21275 0.37898,-0.2274 1.36434,-1.06116 2.19811,-1.97072 0.83376,-0.90957 1.97072,-0.45479 2.57709,-0.60638 0.60638,-0.1516 0.98536,0.22739 0.98536,0.22739 0,0 0.75797,0.0758 1.44015,-0.30319 0.68218,-0.37898 2.42549,-0.75797 2.80448,-0.75797 0.37899,0 1.36435,0.1516 1.89492,0.60638 0.53059,0.45478 1.44015,1.06116 1.97072,1.44014 l 0.87167,-0.0379 0.18949,1.55384 c 0,0.30319 -0.0758,1.21275 0.60638,1.89492 0.68217,0.68218 0.90955,0.37899 1.21274,0.68218 0.30319,0.30318 -0.0758,2.2739 -0.15158,2.72869 -0.0758,0.45478 -0.37899,0.45478 -0.68217,0.98535 -0.30319,0.53058 -0.0758,0.83377 -0.30319,1.74333 -0.22741,0.90957 -0.5306,0.53058 -0.75798,1.44015 -0.22738,0.90956 0,0.83376 0.30319,1.44014 0.30318,0.60637 0.30318,1.13695 0.30318,2.04651 0,0.90957 -0.15158,0.37899 -0.53057,0.45479 -0.37899,0.0758 -0.75797,0.37898 -1.51593,0.45478 -0.75797,0.0758 -1.59176,0.37898 -1.97072,-0.0758 -0.37899,-0.45478 -0.75798,-0.53058 -2.12233,-0.37898 -1.36435,0.15159 -0.37899,0.60637 -0.53057,1.21275 -0.1516,0.60637 -0.60637,0.53057 -1.51594,0.68217 -0.90956,0.15159 -0.60637,0.22739 -0.68217,1.21275 -0.0758,0.98536 1.06115,1.59174 1.66752,1.81913 0.6064,0.22739 0.75798,0.37898 0.98536,0.75797 0.22741,0.37898 0.90958,0.22739 1.81914,1.06115 0.90956,0.83377 0.15158,0.98536 -0.45479,1.59174 -0.60637,0.60637 0.37899,2.72869 0.83378,3.03188 0.45477,0.30318 0.68218,0.75797 0.90956,2.57709 0.22738,1.81913 0.90956,1.97072 0.90956,1.97072 0,0 0.53057,0.30319 0.60637,2.19811 0.0758,1.89493 0.5306,3.48666 0.5306,3.48666 0,0 -2.4996,4.64258 -1.75393,6.69323 0.7457,2.05065 1.67783,5.77911 0.55928,7.08406 -1.11853,1.30497 -1.6778,1.30497 -2.05065,0.55928 -0.37286,-0.7457 0.18642,-0.93212 -1.11853,-1.11854 -1.30498,-0.18643 -1.11855,0.37284 -2.05065,0.55926 -0.93212,0.18643 -1.30496,1.11854 -2.05065,0.37285 -0.7457,-0.74569 0,-0.93211 -1.11854,-0.55927 -1.11854,0.37285 -0.55927,1.67781 -1.95744,1.95744 -1.39817,0.27964 -1.21175,-0.18642 -1.77101,0.74569 -0.55927,0.93212 -0.8389,1.21175 -1.02533,1.67781 -0.18642,0.46606 -0.55927,0.37284 -0.18642,1.21175 0.37285,0.8389 1.30496,-0.37285 1.21175,1.30495 -0.0932,1.67781 -0.27964,2.70313 -0.27964,2.70313 0,0 -0.65248,-0.46606 -0.65248,0.65248 0,1.11854 0.46606,1.02533 0.27963,1.95744 -0.18641,0.93211 -0.65248,0.37284 -0.37284,1.49138 0.27964,1.11853 1.02533,1.11853 1.02533,1.11853 0,0 0.18641,-1.11853 0.55926,-0.18641 0.37285,0.93211 -0.0932,1.49138 0.55927,1.77101 0.65248,0.27963 0,0.18642 1.02532,0.55927 0,0 0.41946,0 0.60588,0.55927 0.18642,0.55926 0.69909,1.44477 0.18642,2.14385 -0.51266,0.69909 -0.93211,2.00405 -0.37284,3.26241 0.55926,1.25835 1.53798,1.39817 1.44477,2.14386 -0.0932,0.745685 -0.23303,0.559255 -0.32624,1.584585 -0.0932,1.02533 0.0932,1.6778 -0.13982,2.09725 -0.23302,0.41946 -0.37284,1.11854 -0.69908,1.25836 -0.32624,0.13982 -0.8389,-0.18643 -1.16514,-0.37285 -0.32624,-0.18642 -0.0932,-1.21175 -0.65248,-0.7923 -0.55927,0.41946 -0.65248,0.97872 -1.11854,0.69909 -0.46605,-0.27963 -0.41945,-0.74569 -0.8389,-0.83891 -0.41945,-0.0932 -1.25835,0.18643 -0.8389,-0.60587 0.41945,-0.79229 0.93212,-0.93211 0.97872,-1.44477 0.0466,-0.51266 0.27963,-0.97872 0,-1.537985 -0.27964,-0.55926 -0.46606,-1.16514 -0.93211,-1.25835 -0.46606,-0.0932 -0.46606,-0.37285 -1.02533,-0.88551 -0.55927,-0.51266 -0.60587,-1.16514 -1.02533,-1.02532 -0.41944,0.13982 -1.11853,1.25835 -2.09725,1.07192 -0.97872,-0.18641 -1.35156,0.23303 -1.6778,-0.41945 -0.32625,-0.65247 -0.46606,-0.8855 -0.83891,-0.97872 -0.37284,-0.0932 -0.55926,-0.13981 -0.46605,-0.55926 0.0932,-0.41946 0.13981,-0.23303 0.13981,-0.97872 0,-0.74569 0.0466,-2.37689 -0.51266,-3.16919 -0.55926,-0.79229 -0.55926,-0.8389 -0.55926,-1.11853 0,-0.27964 0.27963,-0.41945 -0.18643,-0.60588 -0.46606,-0.18642 -1.16514,-1.44477 -1.30496,-1.91083 -0.13981,-0.46606 -0.8389,-0.46606 -1.07193,-0.46606 -0.23303,0 -0.79229,-1.53798 -0.79229,-1.53798 0,0 -2.37689,0.0466 -2.33029,-0.51267 0.0466,-0.55927 0.32624,-1.11853 0.37284,-1.35156 0.0466,-0.23303 0.41946,-1.6778 0.0466,-2.19046 -0.37285,-0.51267 -1.02533,-0.97872 -1.39817,-1.02533 -0.37285,-0.0466 -1.02533,-0.23303 -1.39818,0.32624 -0.37284,0.55927 -0.69908,0.93211 -0.8855,0.8389 -0.18642,-0.0932 -0.46606,-0.0466 -0.55927,-0.55927 -0.0932,-0.51266 -0.32624,-1.81762 0.37285,-2.79634 0.69908,-0.97872 0.46605,0.32624 0.88551,-0.13981 0.41944,-0.46606 0.65247,-1.35157 0.65247,-1.81763 0,-0.46606 -0.27963,-0.93211 0.32624,-1.53798 0.60588,-0.60588 1.07193,-0.41946 1.35157,-0.97872 0.27963,-0.55927 0.74569,-0.65248 0.41945,-1.16515 -0.32624,-0.51266 -0.83891,-0.97871 -0.88551,-1.6312 -0.0466,-0.65247 0.18642,-0.60587 -0.23303,-1.02532 -0.41945,-0.41945 -0.74569,-0.60587 -0.79229,-1.07193 -0.0466,-0.46605 0.8389,-0.27964 -0.0466,-0.7923 -0.88551,-0.51266 -1.16515,-0.13981 -1.02533,-0.97872 0.13982,-0.8389 0,-1.53798 0.27964,-2.00404 0.27963,-0.46606 -0.18643,-1.95744 -0.37285,-2.19047 -0.18642,-0.23303 -0.65248,-0.60587 -0.88551,-0.93211 -0.23303,-0.32624 -0.18642,-1.11853 -0.37284,-1.25835 -0.18643,-0.13982 -0.88551,-0.69909 -1.07193,-0.97872 -0.18643,-0.27964 -0.18643,-0.41945 -0.37285,-0.88551 -0.18642,-0.46605 -0.93211,-0.7923 -1.11853,-1.02533 -0.18643,-0.23302 -1.6312,-0.60587 -1.72441,-0.8389 -0.0932,-0.23302 -0.13982,-0.79229 -0.0466,-1.25835 0.0932,-0.46606 0.23303,-1.16514 0.0932,-1.72441 -0.13982,-0.55927 -0.18643,-1.11854 -0.23303,-1.91083 -0.0466,-0.7923 -0.37285,-1.16514 -0.97872,-1.16514 -0.60588,0 -0.88551,0.27963 -0.93212,0 -0.0466,-0.27964 -0.37284,-1.25836 -0.37284,-1.49138 0,-0.23303 -0.8389,-2.4235 -1.02533,-2.56332 -0.18642,-0.13981 -0.18642,-0.18642 -0.69908,-0.65248 -0.51266,-0.46605 -0.88551,-0.8389 -1.25836,-0.8855 -0.37284,-0.0466 -0.60587,-0.46606 -0.65248,-0.93212 -0.0466,-0.46606 -0.18642,-1.63119 -0.10547,-1.72711 z"
       sodipodi:nodetypes="cscssssssssssssssssssssscccssscsssscssssssssssssssssssssscscsccsccsscscccscsssscsscccccsssscssssssscsssssssssssscssscsss" />
    <path
       id="ural"
       style="display:inline;overflow:visible;visibility:visible;fill:none;fill-opacity:1;fill-rule:evenodd;stroke:#ff0000;stroke-width:0.606375;marker:none;marker-start:none;marker-mid:none;marker-end:none;enable-background:accumulate"
       d="m 293.68827,86.758655 c 0.64316,-0.32158 0.0989,-0.93178 0.0989,-2.0037 0,-1.07194 -0.32157,-1.17913 -0.42877,-1.92948 -0.10719,-0.75035 -0.32158,-0.96473 -0.42877,-1.50071 -0.10719,-0.53596 0.96474,-1.07192 1.39351,-1.92947 0.42877,-0.85754 0,-1.17912 -0.1072,-1.92947 -0.10719,-0.75035 -1.07192,-0.75035 -1.07192,-0.75035 l -1.92948,-1.28632 -0.85755,-0.42877 c 0,0 -0.10719,-0.85755 0,-1.82229 0.1072,-0.96473 0.64316,-1.28631 1.07194,-2.03666 0.42877,-0.75035 0.42877,-1.6079 0.42877,-2.14387 0,-0.53596 -1.07193,-0.75034 -1.07193,-0.75034 0,0 0,-1.92948 0,-2.46545 0,-0.53596 0,-2.14386 0,-2.89421 0,-0.75035 -0.42878,-2.14386 -0.75035,-2.67983 -0.32158,-0.53596 0.32157,-1.5007 0.32157,-1.5007 0,0 -0.53596,-1.17912 -0.64315,-1.71509 -0.1072,-0.53596 0.64315,-2.89421 0.64315,-2.89421 l 1.17913,-2.89421 0.75035,-1.28632 c 0,0 0,-1.92947 0.32158,-2.35825 0.32158,-0.42876 0.21439,-2.46543 0.21439,-2.46543 0,0 -0.42878,-4.07334 -0.85755,-4.34132 l 0.40822,-1.39093 -0.60638,-0.53058 -0.22739,-1.51593 -1.51594,-0.37899 0.1516,-2.04652 c 0,0 0.90956,-0.90956 1.28854,-0.90956 0.37899,0 -0.90956,-1.28855 -1.06115,-1.81913 -0.1516,-0.53057 0,-0.75796 0.30319,-0.90956 0.30318,-0.15159 0.15159,-0.60637 0.0758,-1.21275 -0.0758,-0.60638 -0.0758,-0.68217 -0.0758,-0.68217 l 0.53057,-1.51594 1.74333,0.60638 c 0,0 0.37899,0.60637 0.75797,0.68217 0.37899,0.0758 0.75797,0 1.06116,0 0.30319,0 0.15159,0.0758 0.60638,0.98536 0.45478,0.90956 0.45478,0 1.13695,0.15159 0.68217,0.1516 0.68217,0.83377 0.60637,1.28855 -0.0758,0.45478 -0.45478,0.83377 -0.83376,1.51594 -0.37899,0.68217 -0.30319,0.45478 -0.90956,1.13695 -0.60638,0.68217 0.90956,1.13696 0.90956,1.13696 0,0 0.15159,0.90956 0.53058,1.44014 0.37898,0.53058 0.0758,0.15159 0.68217,0.45478 0.60638,0.30319 0,0.53058 0,1.36434 0,0.83377 0.45478,0.1516 0.45478,0.1516 0,0 0.30319,0.37898 0.53058,1.13695 0.22739,0.75797 0.0758,0.30319 0.60637,1.44014 0.53058,1.13696 0.75797,-0.0758 0.75797,-0.0758 0,0 0.45479,0.37898 0.75797,0.98536 0.30319,0.60637 1.44015,0.37898 1.44015,0.37898 0,0 0.60637,-0.60637 1.06115,-0.98536 0.45478,-0.37898 0.30319,-0.22739 0.90957,-0.45478 0.60637,-0.22739 0.0297,0.089 0.40864,1.15014 0.37898,1.06115 0.2566,1.85425 0.30321,2.3203 0.0466,0.46606 0.27964,0.88551 0.65248,0.93212 0.37285,0.0466 0.74569,0.41945 1.25836,0.8855 0.51265,0.46606 0.51265,0.51267 0.69908,0.65248 0.18642,0.13982 1.02532,2.33029 1.02532,2.56332 0,0.23302 0.32624,1.21174 0.37285,1.49138 0.0466,0.27963 0.32624,0 0.93211,0 0.60588,0 0.93211,0.37284 0.97872,1.16514 0.0466,0.79229 0.0932,1.35156 0.23303,1.91083 0.13982,0.55927 0,1.25835 -0.0932,1.72441 -0.0932,0.46606 -0.0466,1.02533 0.0466,1.25835 0.0932,0.23303 1.53799,0.60588 1.72441,0.8389 0.18642,0.23303 0.93212,0.55928 1.11853,1.02533 0.18643,0.46606 0.18643,0.60587 0.37285,0.88551 0.18642,0.27963 0.88551,0.8389 1.07193,0.97872 0.18642,0.13982 0.13982,0.93211 0.37284,1.25835 0.23304,0.32624 0.69909,0.69908 0.88551,0.93211 0.18643,0.23303 0.65248,1.72441 0.37285,2.19047 -0.27964,0.46606 -0.13982,1.16514 -0.27964,2.00404 -0.13981,0.83891 0.13982,0.46606 1.02533,0.97872 0.88551,0.51266 0,0.32625 0.0466,0.7923 0.0466,0.46606 0.37284,0.65248 0.7923,1.07193 0.41945,0.41945 0.18642,0.37285 0.23302,1.02532 0.0466,0.65249 0.55927,1.11854 0.88551,1.6312 0.32624,0.51267 -0.13981,0.60588 -0.41945,1.16515 -0.27963,0.55926 -0.74569,0.37284 -1.35157,0.97872 -0.60587,0.60587 -0.32623,1.07192 -0.32623,1.53798 0,0.46606 -0.23303,1.35157 -0.65248,1.81763 -0.41945,0.46605 -0.18643,-0.83891 -0.88551,0.13981 -0.69908,0.97872 -0.46606,2.28368 -0.37285,2.79634 0.0932,0.51267 0.37285,0.46606 0.55928,0.55927 0.18641,0.0932 0.51265,-0.27963 0.8855,-0.8389 0.37285,-0.55927 1.02532,-0.37285 1.39817,-0.32624 0.37285,0.0466 1.02533,0.51266 1.39817,1.02533 0.37285,0.51266 0,1.95743 -0.0466,2.19046 -0.0466,0.23303 -0.32624,0.79229 -0.37284,1.35156 -0.0466,0.55927 2.33028,0.51267 2.33028,0.51267 0,0 0.55927,1.53798 0.7923,1.53798 0.23302,0 0.93211,0 1.07192,0.46606 0.13982,0.46606 0.83891,1.72441 1.30497,1.91083 0.46605,0.18643 0.18642,0.32624 0.18642,0.60588 0,0.27963 0,0.32624 0.55927,1.11853 0.55926,0.7923 0.51266,2.4235 0.51266,3.16919 0,0.74569 -0.0466,0.55926 -0.13981,0.97872 l -1.5342,0.12426 c 0,0 0.39547,2.57051 0,2.76824 -0.39546,0.19773 -2.30685,0.46137 -2.30685,0.46137 0,0 -0.0659,1.977315 -0.13182,2.306865 -0.0659,0.32955 -0.98866,0.92274 -1.1864,1.2523 -0.19772,0.32955 -0.39546,0.32955 -0.19772,0.72501 0.19772,0.39546 0.32955,0.92275 0.26364,1.18639 -0.0659,0.26364 0.32955,0.79092 -0.39546,0.92274 -0.72502,0.13182 -1.05457,0.39546 -1.45004,0.0659 -0.39545,-0.32955 -0.52728,-1.05456 -1.05456,-1.31821 -0.52728,-0.26364 -0.72501,-0.26364 -0.79093,-0.79092 -0.0659,-0.52728 -0.26364,-1.31821 -0.26364,-1.31821 0,0 -0.6591,-0.98865 -0.98865,-0.98865 -0.32955,0 -1.64776,0.32955 -1.9114,0.13182 -0.26364,-0.19773 -1.51594,-0.0659 -1.97732,-0.46137 -0.46137,-0.39547 -0.52728,-0.725015 -1.12047,-0.46138 -0.59319,0.26364 -1.64776,0.32955 -1.64776,0.32955 l -0.98866,-0.659095 c 0,0 -0.52728,-0.19773 -1.05456,-0.52728 -0.52729,-0.32955 -0.59319,-1.12048 -0.79093,-1.45003 -0.19773,-0.32955 -0.59319,-0.85683 -0.85683,-1.05457 -0.26364,-0.19773 -0.52729,-0.59319 -0.85684,-0.92274 -0.32955,-0.32956 -0.72501,-0.52728 -1.18638,-0.6591 -0.46138,-0.13183 -0.85684,-0.19774 -0.98866,-0.5932 -0.13182,-0.39546 0,-0.72502 -0.26364,-0.79092 -0.26364,-0.0659 -0.92274,-0.32956 -0.92274,-0.32956 0,0 -0.0659,-0.92274 -0.39547,-1.12047 -0.32955,-0.19773 -0.98865,-0.72502 -1.38412,-0.92275 -0.39546,-0.19773 -0.85683,-0.26364 -0.98865,-0.79092 -0.13182,-0.52729 -0.32955,-0.72502 -0.32955,-0.72502 0,0 -0.79093,-0.52728 -0.92275,-0.85683 -0.13182,-0.32955 -0.52728,-0.98866 -0.52728,-0.98866 l -0.85684,-0.92274 -0.98865,-0.32955 z"
       sodipodi:nodetypes="cssssscccssscssscscccscccccccsssscccssssssscssscsscscssccssssssssssssssssssssssssssssssssssscssssssccscsssssssscssssccssssssscssscscccc" />
    <path
       id="afghanistan"
       style="display:inline;overflow:visible;visibility:visible;fill:none;fill-opacity:1;fill-rule:evenodd;stroke:#ff0000;stroke-width:0.606375;marker:none;marker-start:none;marker-mid:none;marker-end:none;enable-background:accumulate"
       d="m 319.0437,105.48915 -0.0659,-0.13182 c -0.39546,-0.32955 -0.52728,-1.05456 -1.05456,-1.31821 -0.52728,-0.26364 -0.72502,-0.26364 -0.79093,-0.79092 -0.0659,-0.52728 -0.26364,-1.31821 -0.26364,-1.31821 0,0 -0.65911,-0.98865 -0.98865,-0.98865 -0.32956,0 -1.64777,0.32955 -1.91141,0.13182 -0.26364,-0.19773 -1.51594,-0.0659 -1.97731,-0.46137 -0.46137,-0.39547 -0.52728,-0.725015 -1.12047,-0.46138 -0.5932,0.26364 -1.64777,0.32955 -1.64777,0.32955 l -0.98865,-0.659095 c 0,0 -0.52728,-0.19773 -1.05456,-0.52728 -0.52729,-0.32955 -0.5932,-1.12048 -0.79093,-1.45003 -0.19773,-0.32955 -0.5932,-0.85683 -0.85683,-1.05457 -0.26365,-0.19773 -0.52729,-0.59319 -0.85684,-0.92274 -0.32955,-0.32956 -0.72501,-0.52728 -1.18639,-0.6591 -0.46137,-0.13183 -0.85683,-0.19774 -0.98865,-0.5932 -0.13182,-0.39546 0,-0.72502 -0.26364,-0.79092 -0.26365,-0.0659 -0.92275,-0.32956 -0.92275,-0.32956 0,0 -0.0659,-0.92274 -0.39546,-1.12047 -0.32956,-0.19773 -0.98866,-0.72502 -1.38412,-0.92275 -0.39546,-0.19773 -0.85683,-0.26364 -0.98865,-0.79092 -0.13182,-0.52729 -0.32956,-0.72502 -0.32956,-0.72502 0,0 -0.79092,-0.52728 -0.92274,-0.85683 -0.13182,-0.32955 -0.52728,-0.98866 -0.52728,-0.98866 l -0.85684,-0.92274 -0.98865,-0.32955 -1.23224,-0.0779 -0.3319,0.28917 c -0.64316,0.32158 -0.31959,0.27976 -0.85555,0.49414 -0.53597,0.21439 -2.46544,0.21439 -2.57264,0.96474 -0.10719,0.75035 -0.21438,0.96474 -0.64316,1.82229 -0.42877,0.85754 -0.53596,1.07192 -1.07193,1.17912 -0.53596,0.10719 -0.75035,0 -1.28631,-0.1072 -0.53597,-0.10719 -1.50071,-0.53596 -1.50071,-0.53596 l -0.85754,-0.1072 -0.75035,-0.75034 c 0,0 -0.42877,0.32158 -0.85755,0.53596 -0.42877,0.21438 -1.39351,1.07193 -1.39351,1.07193 0,0 -1.5007,0.42877 -1.92947,0.42877 -0.42878,0 -0.42878,-0.10719 -0.85754,0 -0.42878,0.10719 -1.17913,0 -1.50071,0.42877 -0.32158,0.42878 0.42877,0.85755 -1.17912,0.96474 -1.6079,0.1072 -1.6079,0.1072 -2.03667,0.1072 -0.42877,0 -1.17912,2.25105 -1.17912,2.25105 0,0 0.85754,0.75035 0.21438,0.96474 -0.64315,0.21438 -1.07193,0.85754 -1.3935,1.28632 -0.32158,0.42876 -0.53597,0.75034 -0.42878,1.28631 0.1072,0.53596 0,0.857535 0.21439,1.500695 0.21439,0.64316 0.75035,1.92947 0.75035,1.92947 0,0 0.42877,0.2144 0.32158,0.85755 -0.10719,0.64316 -0.42877,0.96474 -0.10719,1.5007 0.32157,0.53597 0.96473,0.75036 0.96473,0.75036 l 0.64316,0.85754 c 0,0 0.85755,-0.21438 0.85755,0.53596 0,0.75035 0.10719,1.07193 0.21438,1.92948 0,0 0.6194,0.84831 1.04817,0.52673 0.42877,-0.32158 1.17913,-0.85755 1.17913,-1.50071 0,-0.64316 -0.1072,-0.85754 0.42877,-0.96474 0.53597,-0.10719 0.85754,-0.10719 1.39351,-0.32158 0.53596,-0.21438 0.32158,-0.21438 0.96473,-0.21438 0.64316,0 0.53597,-0.32158 0.85755,0.32158 0.32157,0.64316 -0.10719,0.21438 0.10719,1.17912 0.21438,0.96474 0.32158,0.85755 0.42878,1.50071 0.10718,0.64315 0,0.42877 -0.2144,1.28631 -0.21438,0.85754 -0.21438,0.96474 -0.75034,1.17912 -0.53597,0.21439 -1.6079,0.75036 -1.71509,1.6079 -0.1072,0.85755 0,-0.21439 0.10719,1.17913 0.10719,1.3935 0.10719,1.82227 0.53597,2.03666 0.42877,0.21439 0.53596,0.10719 0.53596,0.75035 0,0.64316 -0.32158,0.85754 0.42877,0.96474 0.75036,0.10719 1.28632,-0.1072 1.28632,-0.1072 0,0 1.39351,0.21439 1.07193,1.07194 -0.32158,0.85754 -0.96474,0.32158 -0.53597,1.28631 0.42878,0.96474 0.53597,0.21439 0.64316,1.28632 0.1072,1.07193 -0.32158,1.39351 0.21439,1.39351 0.53596,0 1.5007,0.42877 1.5007,0.42877 l 0.1072,1.39351 0.21438,0.85755 c 0,0 -1.39351,-0.53597 -1.17912,0.42877 0.21438,0.96473 0.42877,0.96473 0.42877,0.96473 0,0 1.39351,-0.10718 1.39351,0.85755 0,0.96474 -0.21439,1.28632 -0.10719,1.82228 0.10719,0.53597 0.64316,0.1072 0.53596,0.85754 0,0 -0.0888,1.17902 0.47146,1.50857 0.56024,0.32955 1.12048,0.3625 1.38412,0.26364 0.26364,-0.0989 0.75797,-0.9557 1.28525,-0.92275 0.52728,0.0329 0.85684,-0.23068 1.21935,0.0989 0.3625,0.32955 0.72501,0.26364 1.05456,0.32955 0.32955,0.0659 0.56024,0.16478 1.02161,0.62615 0.46137,0.46137 0.65911,0.75797 0.75797,0.92275 0.0989,0.16477 0.0989,0.62615 0.32955,0.9557 0.23069,0.32955 0.75797,0.42842 0.92275,0.46137 0.16478,0.0329 1.15343,-0.0989 1.45003,0.13182 0.29659,0.23068 1.0216,1.21934 1.08752,1.48298 0.0659,0.26364 0.79092,0.52729 0.79092,0.52729 0,0 1.64776,-0.19773 1.9114,-0.92275 0.26364,-0.72502 1.64776,-1.64776 1.64776,-2.10913 0,-0.46137 0,-1.18639 0.32955,-1.2523 0.32955,-0.0659 1.71367,-0.52728 2.17505,-0.46137 0.46137,0.0659 1.38411,0.26364 1.64776,-0.32955 0.26363,-0.5932 0.19772,-2.30687 1.12047,-2.37278 0.92274,-0.0659 1.45003,-0.59319 2.04322,0 0.5932,0.5932 2.24096,1.51595 2.24096,1.51595 0,0 2.24095,0.32954 2.96596,-0.46138 0.72502,-0.79092 1.38412,-1.77958 1.38412,-2.30686 0,-0.52729 0.19773,-0.72502 0.19773,-1.31821 0,-0.59319 -0.52728,-2.24096 -0.52728,-2.24096 0,0 -0.46137,-0.72501 -0.85684,-0.85683 -0.39546,-0.13182 -0.98865,-0.79093 -0.98865,-0.79093 0,0 -0.46137,-1.25229 -0.46137,-1.77957 0,-0.52729 0.26364,-2.70233 0.59319,-2.76824 0.32955,-0.0659 1.2523,-0.6591 1.77958,-0.6591 0.52728,0 1.38412,0.0659 1.64776,-0.13183 0.26364,-0.19772 0.72502,-2.70232 0.98865,-3.36142 0.26365,-0.65911 0.39547,-1.18639 0.85684,-1.12048 0.46137,0.0659 1.3182,0 1.2523,-1.12048 -0.0659,-1.12047 -0.19774,-3.29551 -0.65911,-4.02053 -0.46137,-0.72501 -0.79093,-0.85683 -0.52728,-1.51594 0.26364,-0.6591 0.59319,-0.85683 0.59319,-0.85683 z"
       sodipodi:nodetypes="ccsscssssccssssssscssscscccccssssscccscssssscsssscssccscssssssssssssssscsssscccscsscssssssssssscssssssscssscscssssssssscc" />
    <path
       id="middle_east"
       style="display:inline;overflow:visible;visibility:visible;fill:none;fill-opacity:1;fill-rule:evenodd;stroke:#ff0000;stroke-width:0.606375;marker:none;marker-start:none;marker-mid:none;marker-end:none;enable-background:accumulate"
       d="m 285.72389,133.51854 c -0.10719,0.64316 0.32158,0.96473 -0.53596,1.17913 -0.85755,0.21438 -1.50071,0.85754 -1.50071,0.85754 0,0 0.96474,0.96473 -1.07193,0.53597 -2.03666,-0.42878 -1.71508,-0.75036 -2.57263,-0.96474 -0.85754,-0.21439 -0.75035,0.21438 -1.39351,-0.21439 -0.64315,-0.42878 -0.85754,-0.21438 -1.07193,-0.85754 -0.21438,-0.64316 -1.80368,-1.53881 -1.80368,-1.53881 0,0 -0.53058,0 -0.60637,0.53058 -0.0758,0.53058 1.06115,0.53058 -0.2274,0.75797 0,0 -0.75797,0.0758 -1.13695,0.15159 -0.37899,0.0758 -0.75797,-0.15159 -1.13695,0.1516 -0.37899,0.30319 -0.37899,0.53058 -0.90957,0.60637 -0.53058,0.0758 -0.45478,0 -1.06115,0.0758 -0.60638,0.0758 -1.06116,0.60638 -1.06116,0.60638 0,0 0.15159,0.30318 -0.83377,0.22739 -0.98536,-0.0758 -1.36434,0.15159 -1.36434,0.15159 0,0 0,0.90956 -0.83377,0.30319 -0.83377,-0.60638 -1.21275,-0.60638 -1.21275,-0.90956 0,-0.30319 0.37898,-0.60638 0.68217,-0.90957 0,0 -0.28555,-0.90128 -1.41107,-0.68689 -1.12553,0.21439 -1.82229,0.16079 -2.09027,0.53597 -0.26798,0.37516 -0.53596,1.12552 -0.96473,1.17912 -0.42877,0.0536 -1.6615,0.16078 -1.98308,-0.21439 -0.32158,-0.37517 -0.90315,-1.57178 -2.41909,-2.02656 -1.51594,-0.45478 -2.80448,-0.83377 -3.33506,-0.45478 -0.53058,0.37899 -0.0758,0.83377 -1.13696,0.53058 -1.06116,-0.30319 -2.12231,-0.75797 -2.4255,-0.60638 -0.30319,0.1516 -1.28855,0 -1.28855,0.37899 0,0.37898 0.45478,0.98536 -0.15159,1.06115 -0.60638,0.0758 -1.36435,0.37899 -1.74333,0.53058 -0.37899,0.1516 -0.1516,0.30319 -1.51594,0.30319 -1.36435,0 -2.72869,0.22739 -3.25927,-0.22739 -0.53058,-0.45478 -0.75797,-0.98536 -0.98536,-1.28855 -0.22739,-0.30318 -0.83376,-0.60637 -0.83376,-0.60637 H 239.77 c 0,0 -0.83377,0.22739 -1.13696,0.60637 -0.30318,0.37899 -0.30318,0.60638 -0.60637,0.83377 -0.30319,0.22739 -0.30319,0.15159 -0.68218,0.60637 -0.37898,0.45479 -0.0758,0.68218 -0.37898,1.06116 -0.30319,0.37898 -0.53058,0.0758 -0.68217,0.60638 -0.1516,0.53057 0,0.30318 0.0758,0.83376 0.0758,0.53058 0.45478,0.53058 0,1.13696 0,0 0.64427,1.32644 0.90956,1.97072 0.26529,0.64427 1.13695,0.98536 0.45478,1.21275 -0.68217,0.22739 -1.51594,0.26529 -1.36434,0.87166 0.15159,0.60638 1.59173,2.04652 2.00861,2.76659 0.41689,0.72007 0.1137,2.3497 0.79587,2.95608 0.68217,0.60638 1.74333,1.13695 2.12232,1.13695 0.37898,0 1.51593,-0.83376 1.66753,-0.0758 0.15159,0.75797 -0.1516,2.19811 0.30319,2.27391 0.45478,0.0758 1.51593,0.60637 1.74332,0.22739 0.2274,-0.37899 -0.7598,-1.45167 -0.009,-1.77325 0.75036,-0.32158 0,-1.82228 1.6079,-1.07193 1.6079,0.75035 1.6079,1.28631 2.57264,1.39351 0.96473,0.10719 1.60789,-0.21439 2.25105,-0.1072 0.64316,0.1072 1.3935,0.75036 1.6079,0 0.21438,-0.75034 0.75034,-1.17912 1.28631,-1.17912 0.53596,0 1.71509,-0.32158 1.92948,0.32158 0.21438,0.64316 -0.32158,1.39351 -0.21439,2.03667 0.10719,0.64316 0.75035,0.85754 0.53597,4.50211 -0.21439,3.64456 0.64315,5.46684 0.10719,5.78842 -0.53597,0.32158 -1.28632,1.28632 -1.07193,1.82228 0.21438,0.53597 1.07193,2.35825 1.17912,3.64457 0.10719,1.28631 0.53596,1.60789 0.64316,2.25105 0.10719,0.64316 -0.75035,0.75035 0.10719,1.82228 0.85755,1.07193 2.67983,1.71509 2.57264,2.46544 -0.1072,0.75036 1.17912,1.07193 1.71509,1.82228 0.53596,0.75035 1.3935,2.89421 1.60789,3.85895 0.21439,0.96474 0.96474,-0.42877 1.39351,1.17913 0.42877,1.6079 1.71509,1.3935 2.03667,2.57263 0.32158,1.17912 1.48753,2.30443 2.0939,2.60762 0.60638,0.30319 2.5771,0.75797 2.42551,1.81913 -0.1516,1.06115 1.66753,2.12231 1.66753,2.88028 0,0.75797 -0.1516,2.27391 -0.1516,2.27391 0,0 -0.30319,0.30319 0.30319,0.90956 0.60638,0.60638 1.06116,1.06116 1.21275,1.97072 0.15159,0.90957 0.75797,0.75797 0.75797,0.75797 0,0 5.91216,-0.60637 7.88288,-1.21275 1.97072,-0.60637 4.39623,-1.66753 4.39623,-2.27391 0,-0.60637 0,-0.45478 0.90956,-0.75796 0.90956,-0.30319 1.51594,-1.51595 1.51594,-1.51595 l 0.90956,-0.75796 c 0,0 0.15159,-1.21276 0.90956,-1.06116 0.75797,0.15159 1.66753,0.60638 1.66753,0 0,-0.60638 -0.45478,0.15159 1.36435,-2.88029 1.81913,-3.03187 2.12231,-4.09303 1.97072,-4.6994 -0.15159,-0.60638 -0.15159,-0.60638 0.45478,-1.06116 0.60638,-0.45478 0.90956,-1.97072 0.90956,-1.97072 l -0.30318,-1.36435 0.60637,-1.36434 c 0,0 0.86919,-2.37539 0.11885,-2.69697 -0.75036,-0.32157 -0.64316,-0.53596 -0.64316,-1.39351 0,-0.85754 -0.96474,-1.39351 -0.96474,-1.39351 0,0 0,0.32158 -0.85755,0 -0.85754,-0.32158 -1.92947,-1.28631 -1.92947,-1.28631 0,0 -0.96474,0.42877 -1.07194,-0.21439 -0.10718,-0.64316 0.2144,-1.60789 -0.32157,-1.28631 -0.53597,0.32157 -1.17912,0.21438 -1.5007,0.64315 -0.32158,0.42878 0.42877,1.07194 -1.50071,1.07194 -1.92947,0 -2.35824,0.64315 -2.78702,-0.1072 -0.42877,-0.75035 -0.42877,-0.75035 -0.64316,-1.60789 -0.21438,-0.85755 0.42878,-0.42878 -0.53596,-1.07194 -0.96474,-0.64316 -1.17912,-0.64316 -1.17912,-1.17912 0,-0.53596 -0.32158,-0.85754 -0.32158,-0.85754 0,0 -0.75035,0.42877 -1.07193,-0.42877 -0.32158,-0.85755 0.42877,-1.39352 -0.42878,-2.14386 -0.85754,-0.75036 -0.85754,-0.85755 -1.17912,-1.50071 -0.32158,-0.64316 -0.64316,-1.07193 -0.64316,-1.07193 0,0 -0.75035,-0.42877 -0.42877,-0.85754 0.32158,-0.42878 0.1072,-0.53597 1.07193,-0.64316 0.96474,-0.1072 1.17912,-0.32158 1.6079,-0.64316 0.42877,-0.32158 0.21438,-0.53596 0.96473,-0.64316 0.75036,-0.10719 0.85755,-0.75035 1.17913,0.1072 0.32158,0.85754 0.21439,1.17912 0.21439,2.35824 0,1.17913 -0.1072,2.03667 0.21438,2.67983 0.32158,0.64316 0.53596,0.96473 0.64316,1.39351 0.10719,0.42877 0.21438,0.75035 0.21438,0.75035 0,0 0.1072,0.10719 0.64316,0.10719 0.53597,0 0.64316,-0.42877 0.85755,0.1072 0.21438,0.53596 0,0.32158 0.32158,0.75035 0.32158,0.42877 0.21438,0.64316 0.75035,0.42877 0.53596,-0.21439 0.64315,-0.75035 1.17912,-0.53597 0.53597,0.21439 0.96474,0.32158 0.96474,0.32158 0,0 0.75035,0.1072 0.75035,-0.53596 0,-0.64316 -0.10719,-0.96474 0.21439,-1.39351 0.32158,-0.42878 0.53596,-1.5007 1.17912,-0.1072 0.64316,1.39352 0.32158,1.6079 0.64316,2.14387 0.32158,0.53596 0.53596,0.96474 1.17912,0.75034 0.64316,-0.21438 0.96474,-0.21438 1.39351,-0.64315 0.42877,-0.42877 0.85755,-0.64316 0.85755,-0.64316 0,0 -0.1072,-1.07193 0.53596,-1.28632 0.64316,-0.21438 1.39351,-0.85754 1.39351,-0.85754 l 0.75035,-0.85754 0.64316,-0.85755 c 0,0 1.17913,0 1.60789,0 0,0 -0.67111,-2.49341 -0.76433,-3.42552 -0.0932,-0.93211 -1.21175,-1.02532 -0.8389,-1.77101 0.37284,-0.7457 0.74569,-1.6778 0.18643,-2.23707 -0.55928,-0.55927 -1.49139,-1.11854 -1.49139,-1.86423 0,-0.74569 0.27964,-0.74569 -0.18642,-1.49138 -0.46606,-0.7457 -0.74569,-1.5846 -0.74569,-2.05065 0,-0.46606 0.0211,-0.9463 -0.27964,-1.6778 -0.39119,-0.95145 -1.43834,-0.016 -1.21175,-1.67781 0.54227,-3.97686 0.52366,-4.99779 0.51267,-4.98681 -0.011,0.011 0.19358,-1.37391 0.19358,-1.37391 0,0 -0.72502,-0.26365 -0.79093,-0.52729 -0.0659,-0.26364 -0.79092,-1.2523 -1.08752,-1.48298 -0.2966,-0.23069 -1.28525,-0.0989 -1.45003,-0.13182 -0.16477,-0.0329 -0.69206,-0.13182 -0.92274,-0.46137 -0.23069,-0.32955 -0.23069,-0.79093 -0.32955,-0.9557 -0.0989,-0.16478 -0.2966,-0.46138 -0.75797,-0.92275 -0.46137,-0.46137 -0.69206,-0.56024 -1.02161,-0.62615 -0.32955,-0.0659 -0.69206,0 -1.05457,-0.32955 -0.36251,-0.32955 -0.69206,-0.0659 -1.21934,-0.0989 -0.52729,-0.0329 -1.02161,0.82389 -1.28526,0.92275 -0.26363,0.0989 -0.82387,0.0659 -1.38411,-0.26364 -0.23069,-0.0659 -0.62615,-0.0989 -0.62615,-0.0989 z"
       sodipodi:nodetypes="cscsssscscsssscscsscssssssssssssssccsssssscssssssssssssssssssssssssssssssscsscsssccssssscccsscscsssssssscssscsssssssscssssscsssssscsccccssssssssccssssssssssc" />
    <path
       id="india"
       style="display:inline;overflow:visible;visibility:visible;fill:none;fill-opacity:1;fill-rule:evenodd;stroke:#ff0000;stroke-width:0.606375;marker:none;marker-start:none;marker-mid:none;marker-end:none;enable-background:accumulate"
       d="m 315.28681,128.95325 c 0,0.52728 -0.6591,1.51594 -1.38412,2.30686 -0.72501,0.79092 -2.96596,0.46138 -2.96596,0.46138 0,0 -1.64776,-0.92275 -2.24096,-1.51595 -0.59319,-0.59319 -1.12048,-0.0659 -2.04322,0 -0.92275,0.0659 -0.85684,1.77958 -1.12047,2.37278 -0.26365,0.59319 -1.18639,0.39546 -1.64776,0.32955 -0.46138,-0.0659 -1.8455,0.39546 -2.17505,0.46137 -0.32955,0.0659 -0.32955,0.79093 -0.32955,1.2523 0,0.46137 -1.38412,1.38411 -1.64776,2.10913 -0.26364,0.72502 -1.94435,1.02161 -1.87844,0.92275 0.0659,-0.0989 -0.23752,1.38489 -0.22654,1.37391 0.011,-0.011 0.0296,1.00995 -0.51266,4.98681 -0.2266,1.66177 0.82056,0.72636 1.21175,1.67781 0.30076,0.7315 0.27963,1.21174 0.27963,1.6778 0,0.46605 0.27963,1.30495 0.74569,2.05065 0.46606,0.74569 0.18642,0.74569 0.18642,1.49138 0,0.74569 0.93212,1.30496 1.49139,1.86423 0.55926,0.55927 0.18642,1.49137 -0.18643,2.23707 -0.37284,0.74569 0.74569,0.8389 0.83891,1.77101 0.0932,0.93211 0.69842,3.32665 0.74785,3.40904 0.47821,0.0824 0.87402,-0.51948 1.30279,-0.62668 0.42878,-0.10719 1.82229,-0.53596 2.03667,0.21439 0.21439,0.75035 0.1072,1.92948 0.32158,2.35824 0.21439,0.42878 1.6079,0.96474 1.6079,0.96474 0,0 0.42877,0 0.85754,0 0.42877,0 0.64316,-0.53596 0.75035,0.21439 0.1072,0.75035 -0.10719,1.07193 0.1072,1.5007 0.21438,0.42878 1.60789,0.42878 1.60789,0.42878 0,0 1.39352,0 0.75036,0.64316 -0.64316,0.64315 -1.07193,0.75034 -1.28632,1.17912 -0.21439,0.42877 -0.64316,0.53596 -0.10719,0.75035 0.53596,0.21438 0.42877,-0.32158 0.85754,0.42877 0.42877,0.75035 0.32158,0.53597 0.64316,0.96473 0.32157,0.42878 -0.21439,0.53597 0.75035,0.64316 0.96474,0.1072 1.28632,0 1.28632,0 l 0.42877,-1.07192 c 0,0 0.53596,-0.75036 0.96474,0.10718 0.42876,0.85755 0.005,0.83916 -0.10181,1.91109 -0.10719,1.07193 -0.21439,2.13086 -0.21439,2.88121 0,0.75035 -0.45478,1.17912 -0.34758,1.92947 0.10719,0.75036 0.25878,1.22353 0.25878,2.08107 0,0.85754 0.83376,0.52296 0.83376,1.27331 0,0.75036 -0.10718,0.96474 0.32158,1.39351 0.42878,0.42878 0.89434,1.36212 0.89434,1.79089 0,0.42877 0.41576,0.59876 0.41576,1.34911 0,0.75035 -0.0314,1.43791 0.39738,1.6523 0.42877,0.21438 1.12933,0.33458 1.12933,1.19213 0,0.85754 0.70056,1.77788 0.70056,1.77788 0,0 0.33998,0.77636 0.33998,1.20513 0,0.42877 0.73196,0.67994 0.73196,1.10871 0,0.42877 0.85754,0 1.39351,2.89421 0.53596,2.89422 0.85754,1.07193 1.71509,3.53737 0.85754,2.46545 1.28631,3.10861 1.82228,3.10861 0.53596,0 1.17912,-0.2144 1.28632,-0.75036 0.10719,-0.53596 0,-0.53596 0.53596,-0.75035 0.53597,-0.21438 0.42877,-0.10719 0.53597,-0.75035 0.10719,-0.64316 -0.42878,-0.75035 -0.21439,-1.17913 0.21439,-0.42877 -0.32158,-1.28631 0.53597,-1.28631 0.85754,0 1.5007,-0.75036 1.5007,-0.75036 0,0 -0.32158,-0.42877 -0.32158,-0.96473 0,-0.53597 -0.42878,1.07193 0,-1.28632 0.42877,-2.35824 0.64316,-2.78702 0.53596,-4.18053 -0.10719,-1.3935 -0.64316,-0.75034 0,-2.57263 0.64316,-1.82228 0.96474,-0.96474 0.96474,-2.35825 0,-1.3935 0.64316,-2.89421 0.75035,-3.75175 0.1072,-0.85755 0.42878,-0.21439 0.42878,-1.17913 0,-0.96473 -0.53597,-1.5007 0.10718,-2.14386 0.64316,-0.64316 1.50071,-0.85754 1.50071,-1.6079 0,-0.75034 0,-1.07192 0,-1.60789 0,-0.53596 0.21438,-1.6079 0.21438,-1.6079 0,0 1.39352,-0.10719 1.07194,-0.75035 -0.32158,-0.64316 -0.21439,-1.3935 0,-1.92947 0.21438,-0.53597 0.84781,-2.78011 1.75737,-2.17374 0.90956,0.60638 1.21275,0.60638 1.21275,0.60638 0,0 0.83377,-0.83377 0.75797,-1.21275 -0.0758,-0.37899 0.30319,-1.06116 0.30319,-1.06116 0,0 0.15159,-1.06116 0.45478,-1.13696 0.30319,-0.0758 1.74334,-0.15159 1.74334,-0.15159 0,0 -0.24524,-2.32243 0.31403,-2.36904 0.55928,-0.0466 0.83889,0.0466 0.97872,-0.55926 0.13981,-0.60587 0.60587,-1.21175 0.9321,-1.35157 0.32626,-0.13981 0.41947,-1.58459 0.41947,-1.58459 l 1.07194,-0.37284 c 0,0 0.27961,-2.37689 0.69908,-2.79635 0.41944,-0.41945 1.02531,-1.53798 1.02531,-1.53798 0,0 -1.53799,-4.24112 -1.77101,-4.47415 -0.23302,-0.23302 -5.91892,-0.32624 -5.96553,-0.13981 -0.0466,0.18642 -0.69908,1.07192 -0.97871,1.07192 -0.27964,0 -1.02533,-0.79229 -1.02533,-0.79229 0,0 0.23303,-2.19047 0.0466,-2.4235 -0.18642,-0.23302 -1.77101,-0.8389 -1.95744,-0.74569 -0.18642,0.0932 -0.55927,1.30497 -0.8389,1.30497 -0.27963,0 -2.23707,-1.07194 -2.4235,-1.81763 -0.18642,-0.74569 0.37285,-0.74569 -0.46605,-0.79229 -0.8389,-0.0466 -0.18642,0.8389 -1.44478,0.55926 -1.25835,-0.27963 -1.39817,-0.46605 -1.58459,-0.65248 -0.18642,-0.18642 -0.74569,-0.88551 -1.39817,-0.88551 -0.65248,0 -1.95743,-0.69908 -2.05065,-0.93211 -0.0932,-0.23303 -0.32624,-0.51266 -0.51266,-0.74569 -0.18643,-0.23303 -0.18643,-1.02532 -0.46606,-1.25835 -0.27964,-0.23303 -1.25836,0.55927 -1.49138,0.60587 -0.23303,0.0466 -1.02533,-0.27963 -0.88551,-0.74569 0.13982,-0.46606 0.37285,-1.07193 0.65248,-1.21175 0.27964,-0.13982 0.8389,-0.60587 0.88551,-0.93211 0.0466,-0.32624 0.23303,-0.46606 0.32624,-1.21175 0.0932,-0.74569 -0.32624,-2.4701 -0.41945,-3.02936 -0.0932,-0.55928 -0.0932,-2.28369 -0.0932,-2.28369 0,0 0.0466,-0.65247 0.0466,-0.8389 0,-0.18642 0.13981,-0.60587 0.13981,-0.60587 0,0 -0.8389,0.23303 -1.02532,0.27963 -0.18643,0.0466 -2.05065,0.0466 -2.23707,0.0466 -0.18643,0 -1.21175,-0.55927 -1.25836,-0.74568 -0.0466,-0.18643 -0.13981,-1.25836 -0.23302,-1.44478 -0.0932,-0.18642 -0.13982,-0.83891 -0.32625,-0.65248 l -0.8389,1.21175 0.0466,0.0932 c -1.16514,0.60587 -1.81762,0.37284 -1.86795,0.27237 z"
       sodipodi:nodetypes="cscscssscsssssssssscsssssssssscsssssssssssccsssssscssscssscssssssssscssssssscsssssccscssscssssssssssssssssscscsssss" />
    <path
       id="siam"
       style="display:inline;overflow:visible;visibility:visible;fill:none;fill-opacity:1;fill-rule:evenodd;stroke:#ff0000;stroke-width:0.606375;marker:none;marker-start:none;marker-mid:none;marker-end:none;enable-background:accumulate"
       d="m 368.01841,160.78796 c -1.13697,-0.22739 0.22738,-1.13696 -1.97073,-1.44014 -2.1981,-0.30319 -2.04652,5.53317 -1.89492,6.13955 0.15158,0.60637 0.75798,0.90956 2.12231,0.75797 1.36435,-0.1516 1.06116,0 1.36435,1.36434 0.30318,1.36435 -0.15158,2.4255 -0.15158,2.4255 0,0 0.45476,-0.15159 1.21274,-0.45478 0.75798,-0.30318 1.81912,0.45478 2.27391,2.5771 0.45477,2.12231 0.60637,2.12231 1.36435,3.33506 0.75795,1.21275 0.60637,1.81913 0.90956,3.48666 0.30318,1.66754 -0.30319,3.63826 -0.45479,4.69941 -0.15158,1.06116 -2.12231,3.18347 -2.12231,3.78985 0,0.60637 -1.97072,2.12231 -2.12232,2.72869 -0.15158,0.60637 -0.90956,-0.45478 -0.90956,-0.45478 0,0 -0.75798,-2.12232 -1.06117,-2.72869 -0.30318,-0.60638 -0.75795,-0.90957 -0.75795,-0.90957 l 0.15158,-1.36434 c 0,0 -0.75795,-0.45478 -1.36432,-0.45478 -0.6064,0 -0.6064,-0.60638 -0.6064,-0.60638 l -1.36433,-1.06115 c 0,0 -0.1516,-0.1516 -0.90958,-0.30319 -0.75795,-0.1516 -0.60637,0 -0.75795,0.60637 -0.15161,0.60638 -0.45479,0.60638 -1.21277,1.36435 -0.75795,0.75797 0.30321,0.45478 1.06116,1.21275 0.75798,0.75797 0.45479,0.45478 0.45479,1.66753 0,1.21275 0,1.66753 1.06117,4.54782 1.06114,2.88028 0.90956,1.06115 0.90956,1.06115 0,0 0.30318,0.45479 0.30318,1.21276 0,0.75796 -0.60637,0.75796 -0.60637,0.75796 0,0 -1.06116,0.1516 -1.97072,0 -0.90956,-0.15159 -0.30319,-0.30318 -1.81914,-2.27391 -1.51593,-1.97072 -1.51593,-2.12231 -2.12231,-2.57709 -0.60637,-0.45478 0.15158,-1.06116 0,-1.81913 -0.1516,-0.75796 0,-1.81912 -0.45479,-2.4255 -0.45477,-0.60637 -0.45477,-0.90956 -0.75795,-1.97072 -0.30319,-1.06115 0,-1.97072 0.15158,-2.88028 0.1516,-0.90956 -0.75795,-1.06116 -0.90956,-2.27391 -0.15161,-1.21275 -0.30319,-1.06116 -0.30319,-1.06116 0,0 -2.7287,-1.66753 -3.18346,-1.06115 -0.45479,0.60637 -1.21275,-1.21275 -1.21275,-1.21275 0,0 -1.97072,0.60637 -2.12233,-0.30319 -0.15157,-0.90957 -4.09302,-5.0026 -4.24463,-6.06376 -0.15158,-1.06116 -0.15158,-2.12231 -0.90955,-2.2739 -0.75798,-0.1516 -1.28855,-1.81913 -1.28855,-1.81913 l -0.53057,-1.28855 c -0.16563,-2.04512 0.12959,-2.1926 0.31403,-2.36904 0.55928,-0.0466 0.83889,0.0466 0.97872,-0.55926 0.13981,-0.60587 0.60587,-1.21175 0.9321,-1.35157 0.32626,-0.13981 0.41947,-1.58459 0.41947,-1.58459 l 1.07194,-0.37284 c 0,0 0.27961,-2.37689 0.69908,-2.79635 0.41944,-0.41945 1.02531,-1.53798 1.02531,-1.53798 0.41947,-0.55927 0.65249,-0.23303 0.65249,-0.23303 l 0.74568,-0.55927 c 0,0 0.41947,-0.69908 0.60589,-1.02533 0.1864,-0.32623 0.27961,-0.37284 0.60587,-0.27963 0.32623,0.0932 0.51266,0.65248 0.97872,0.88551 0.46604,0.23303 0.69908,0.32624 0.9321,0.51266 0.23302,0.18643 0.32623,1.07193 0.51266,1.6312 0.18643,0.55927 0.32626,0.41945 0.88551,0.74569 0.55927,0.32624 0.23304,0.41945 0.18642,0.60587 -0.0466,0.18643 0.83892,1.39818 1.30498,1.35157 0.46604,-0.0466 1.35155,1.21174 1.6778,1.58459 0.32623,0.37285 1.39817,0.51266 2.00404,0.41945 0.60587,-0.0932 0.41944,-0.88551 0.41944,-1.16514 0,-0.27963 0.41944,-1.16514 0.65249,-1.21175 0.23302,-0.0466 1.39816,0 1.91082,-0.0932 0.51268,-0.0932 0.27964,-0.41945 0.27964,-0.41945 0,0 0.65249,-0.55927 0.69908,-0.8389 0.0466,-0.27964 0.46606,-0.60587 0.65249,-0.74569 0.18642,-0.13982 0.65249,-0.0466 0.88551,0 0.23302,0.0466 0.60587,0.74569 0.60587,0.74569 0,0 0.8855,0.0932 1.11855,0.0932 0.23302,0 0.41944,0.46606 0.41944,0.93212 0,0.46605 0,0.55926 0,0.8855 0,0.32624 0.51266,0.37285 0.51266,0.37285 0,0 0.32623,0.0466 0.41944,0.32624 0.0932,0.27963 0.0932,0.37284 0.37285,0.37284 0.27964,0 0.27964,0.51267 0.27964,0.51267 0,0 0.9321,0.8389 0.55928,1.02532 -0.37285,0.18642 0.4363,1.48716 0.4363,1.48716 z"
       sodipodi:nodetypes="csssscssssssscsccsccsssssscscsssssssscscssscccssccsc" />
    <path
       id="china"
       style="display:inline;overflow:visible;visibility:visible;fill:none;fill-opacity:1;fill-rule:evenodd;stroke:#ff0000;stroke-width:0.606375;marker:none;marker-start:none;marker-mid:none;marker-end:none;enable-background:accumulate"
       d="m 376.35606,121.97993 c -0.60637,0.30319 -0.0758,0.30319 -0.0758,0.68217 0,0.37899 0.53059,0.15159 0.53059,0.68217 0,0.53058 0.15158,0.45479 0.45477,0.60638 0.30319,0.15159 0.0758,0.45478 0.0758,1.28855 0,0.83376 0.0758,0.37898 0.68218,0.53058 0.60637,0.15159 0.30318,0.22739 0.45479,1.13695 0.15158,0.90956 0.60637,0.30319 0.90956,0.30319 0.30319,0 0.30319,0.15159 0.53057,0.60637 0.22741,0.45479 0,0.30319 -0.75795,0.75797 -0.75798,0.45478 0.75795,0.53058 1.59173,0.75797 0.83375,0.22739 0.53057,1.21275 0.37896,2.04652 -0.15158,0.83376 0.37899,0.68217 0.90959,1.59174 0.53057,0.90956 0.0758,1.44014 -0.5306,2.88028 -0.60637,1.44014 0.30319,0.98536 0.98536,1.06115 0.68218,0.0758 0.5306,2.04652 0.0758,3.03188 -0.4548,0.98536 0.0758,0.90956 0.0758,2.19811 0,1.28855 -0.22738,1.51594 -0.37899,2.5013 -0.15161,0.98536 -0.22738,0.83377 -0.60637,1.44014 -0.37899,0.60638 -0.15161,1.21275 -0.15161,2.19811 0,0.98536 -0.98536,0.98536 -1.66754,1.13696 -0.68214,0.15159 -0.37896,0.0758 -0.30318,0.75797 0.0758,0.68217 -0.30319,0.83377 -0.90956,1.44014 -0.60637,0.60637 -0.30319,0.15159 -0.68217,1.13695 -0.37899,0.98536 -0.0758,0.53058 -0.90956,1.28855 -0.83376,0.75797 -0.83376,1.13696 -0.83376,1.13696 0,0 0,0.68217 -0.1516,1.44014 -0.15158,0.75797 -0.68218,0.15159 -0.98537,0.0758 -0.30318,-0.0758 -0.83375,0.37899 -1.06116,0.83377 -0.22738,0.45478 -1.13694,0.68217 -1.89492,1.44014 -0.75795,0.75797 0.0758,0.1516 0.30319,0.68217 0.22741,0.53058 -0.53057,0.90957 -0.90956,1.21275 -0.37899,0.30319 -0.68218,1.06116 -1.28855,1.44015 -0.60637,0.37898 -1.08794,-1.26176 -2.06412,-1.52934 0.16079,-0.0402 -0.94313,-1.28734 -0.57028,-1.47376 0.37282,-0.18642 -0.55928,-1.02532 -0.55928,-1.02532 0,0 0,-0.51267 -0.27964,-0.51267 -0.27963,0 -0.27963,-0.0932 -0.37285,-0.37284 -0.0932,-0.27964 -0.41944,-0.32624 -0.41944,-0.32624 0,0 -0.51266,-0.0466 -0.51266,-0.37285 0,-0.32624 0,-0.41945 0,-0.8855 0,-0.46606 -0.18642,-0.93212 -0.41944,-0.93212 -0.23305,0 -1.11855,-0.0932 -1.11855,-0.0932 0,0 -0.37285,-0.69908 -0.60587,-0.74569 -0.23302,-0.0466 -0.69909,-0.13982 -0.88551,0 -0.18643,0.13982 -0.60587,0.46605 -0.65249,0.74569 -0.0466,0.27963 -0.69908,0.8389 -0.69908,0.8389 0,0 0.23304,0.32624 -0.27964,0.41945 -0.51266,0.0932 -1.6778,0.0466 -1.91082,0.0932 -0.23305,0.0466 -0.65249,0.93212 -0.65249,1.21175 0,0.27963 0.18643,1.07193 -0.41944,1.16514 -0.60587,0.0932 -1.67781,-0.0466 -2.00404,-0.41945 -0.32625,-0.37285 -1.21176,-1.6312 -1.6778,-1.58459 -0.46606,0.0466 -1.35157,-1.16514 -1.30498,-1.35157 0.0466,-0.18642 0.37285,-0.27963 -0.18642,-0.60587 -0.55925,-0.32624 -0.69908,-0.18642 -0.88551,-0.74569 -0.18643,-0.55927 -0.27964,-1.44477 -0.51266,-1.6312 -0.23302,-0.18642 -0.46606,-0.27963 -0.9321,-0.51266 -0.46606,-0.23303 -0.65249,-0.79229 -0.97872,-0.88551 -0.32626,-0.0932 -0.41947,-0.0466 -0.60587,0.27963 -0.18642,0.32625 -0.60589,1.02533 -0.60589,1.02533 l -0.74568,0.55927 c 0,0 -0.23302,-0.32624 -0.65249,0.23303 0,0 -1.53799,-4.24112 -1.77101,-4.47415 -0.23302,-0.23302 -5.91892,-0.32624 -5.96553,-0.13981 -0.0466,0.18642 -0.69908,1.07192 -0.97871,1.07192 -0.27964,0 -1.02533,-0.79229 -1.02533,-0.79229 0,0 0.23303,-2.19047 0.0466,-2.4235 -0.18642,-0.23302 -1.77101,-0.8389 -1.95744,-0.74569 -0.18642,0.0932 -0.55927,1.30497 -0.8389,1.30497 -0.27963,0 -2.23707,-1.07194 -2.4235,-1.81763 -0.18642,-0.74569 0.37285,-0.74569 -0.46605,-0.79229 -0.8389,-0.0466 -0.18642,0.8389 -1.44478,0.55926 -1.25835,-0.27963 -1.39817,-0.46605 -1.58459,-0.65248 -0.18642,-0.18642 -0.74569,-0.88551 -1.39817,-0.88551 -0.65248,0 -1.95743,-0.69908 -2.05065,-0.93211 -0.0932,-0.23303 -0.32624,-0.51266 -0.51266,-0.74569 -0.18643,-0.23303 -0.18643,-1.02532 -0.46606,-1.25835 -0.27964,-0.23303 -1.25836,0.55927 -1.49138,0.60587 -0.23303,0.0466 -1.02533,-0.27963 -0.88551,-0.74569 0.13982,-0.46606 0.37285,-1.07193 0.65248,-1.21175 0.27964,-0.13982 0.8389,-0.60587 0.88551,-0.93211 0.0466,-0.32624 0.23303,-0.46606 0.32624,-1.21175 0.0932,-0.74569 -0.32624,-2.4701 -0.41945,-3.02936 -0.0932,-0.55928 -0.0932,-2.28369 -0.0932,-2.28369 0,0 0.0466,-0.65247 0.0466,-0.8389 0,-0.18642 0.13981,-0.60587 0.13981,-0.60587 0,0 -0.8389,0.23303 -1.02532,0.27963 -0.18643,0.0466 -2.05065,0.0466 -2.23707,0.0466 -0.18643,0 -1.21175,-0.55927 -1.25836,-0.74568 -0.0466,-0.18643 -0.13981,-1.25836 -0.23302,-1.44478 -0.0932,-0.18642 -0.13982,-0.83891 -0.32625,-0.65248 l -0.8389,1.21175 0.0466,0.0932 c -1.16514,0.60587 -1.81762,0.37284 -1.86795,0.27237 0,-0.52728 0.19773,-0.72501 0.19773,-1.31821 0,-0.59319 -0.52728,-2.24095 -0.52728,-2.24095 0,0 -0.46137,-0.72501 -0.85684,-0.85683 -0.39546,-0.13183 -0.98865,-0.79093 -0.98865,-0.79093 0,0 -0.46137,-1.25229 -0.46137,-1.77958 0,-0.52728 0.26364,-2.70232 0.59319,-2.76824 0.32956,-0.0659 1.2523,-0.6591 1.77958,-0.6591 0.52729,0 1.38412,0.0659 1.64776,-0.13182 0.26364,-0.19773 0.72502,-2.70233 0.98866,-3.36143 0.26364,-0.6591 0.39546,-1.18639 0.85683,-1.12047 0.46137,0.0659 1.31821,0 1.2523,-1.12048 -0.0659,-1.12048 -0.19773,-3.29552 -0.65911,-4.02053 -0.46137,-0.72502 -0.79092,-0.85684 -0.52728,-1.51594 0.26364,-0.65911 0.5932,-0.85683 0.5932,-0.85683 -0.0536,-0.1072 -0.13182,-0.92275 -0.16478,-0.98867 0.36251,0.26365 0.69206,0 1.41708,-0.13181 0.72501,-0.13182 0.32954,-0.65911 0.39545,-0.92275 0.0659,-0.26364 -0.0659,-0.79092 -0.26363,-1.18638 -0.19774,-0.39547 0,-0.39547 0.19772,-0.72502 0.19774,-0.32955 1.12048,-0.92274 1.18639,-1.2523 0.0659,-0.32955 0.13182,-2.306855 0.13182,-2.306855 0,0 1.9114,-0.26364 2.30686,-0.46138 0.39547,-0.19772 0,-2.76823 0,-2.76823 l 1.53419,-0.12427 c -0.0932,0.41945 0.0932,0.46606 0.46606,0.55927 0.37284,0.0932 0.51266,0.32624 0.8389,0.97872 0.32624,0.65248 0.69908,0.23303 1.6778,0.41945 0.97872,0.18642 1.67781,-0.93211 2.09726,-1.07193 0.41945,-0.13982 0.46606,0.51266 1.02532,1.02532 0.55927,0.51267 0.55927,0.7923 1.02533,0.88551 0.46605,0.0932 0.65248,0.69909 0.93211,1.25836 0.27963,0.559255 0.0466,1.025315 0,1.537975 -0.0466,0.51266 -0.55927,0.65248 -0.97872,1.44478 -0.41945,0.79229 0.41945,0.51266 0.8389,0.60587 0.41945,0.0932 0.37285,0.55927 0.83891,0.8389 0.46605,0.27964 0.55926,-0.27963 1.11853,-0.69908 0.55927,-0.41945 0.32624,0.60588 0.65248,0.7923 0.32624,0.18642 0.83891,0.51266 1.16514,0.37284 0,0 0.68744,1.15582 1.06261,1.26302 0.37518,0.10719 0.69676,3.91254 0.69676,3.91254 0,0 0.58956,-0.37517 0.75035,0.1072 0.16079,0.48236 0.37517,1.28631 0.37517,1.28631 0,0 0.80395,0.48237 0.80395,0.75035 0,0.26798 -0.0536,0.91114 0.16079,1.01833 0.21439,0.1072 1.07193,0.48238 1.07193,0.48238 l 0.21439,0.80394 c 0,0 0.10718,0.69676 0.42876,0.75035 0.3216,0.0536 0.48239,-0.0536 0.91114,0.16079 0.42879,0.21439 0.53597,0.26799 0.91115,0.26799 0.37518,0 0.53597,-0.0536 0.53597,0.26798 0,0.32158 -0.0536,0.85754 0.16078,0.91114 0.2144,0.0536 0.75036,0.1072 0.75036,0.1072 0,0 0.16079,0.32157 0.37518,0.53596 0.21439,0.21438 0.85754,0.26798 0.96473,0.48237 0.1072,0.21438 0.16078,0.58956 0.21439,0.80394 0.0536,0.21439 -0.16079,0.69676 0.64315,0.75036 0.80396,0.0536 5.46684,-0.64316 5.46684,-0.64316 l 0.32158,0.53596 c 0,0 0.3216,0.32158 0.69678,0.42878 0.37515,0.10719 1.07193,-0.16079 1.66148,0.10719 0.58957,0.26798 1.07193,0.42877 1.33993,0.42877 0.26797,0 0.80393,0 0.80393,0 0,0 0.16079,0.75035 0.42876,0.80395 0.268,0.0536 1.33993,-0.37518 1.33993,-0.37518 0,0 0.21439,-0.32158 0.53596,-0.26798 0.32158,0.0536 0.37518,-0.69675 0.96473,-0.75035 0.58957,-0.0536 0.91114,-0.0536 1.12554,-0.0536 0.21439,0 1.50069,-0.64316 1.55429,-0.1072 0.0536,0.53597 0.10721,0.85755 0.37518,1.17913 0.26797,0.32158 1.01833,0.53596 1.28632,0.53596 0.26797,0 0.85755,-0.37518 1.23272,-0.58956 0.37518,-0.21438 0.53597,-0.42877 1.01833,-0.32158 0.48237,0.1072 0.96473,0.42878 1.17912,0.53596 0.21439,0.1072 0.32157,0.1072 0.96475,0.32158 0.64315,0.2144 1.50069,0.1608 1.50069,0.1608 0,0 1.55429,0.16078 2.14387,0.32158 1.01832,0.75034 1.44711,0.69675 1.76913,0.5742 z"
       sodipodi:nodetypes="csssssssssssssccscsssssccssssssssscscsccccsssscscssssssssssssssssscssscccssssssssssssscssscssscsscscssssssscssssssssssssssssssssssssc" />
    <path
       id="mongolia"
       style="display:inline;overflow:visible;visibility:visible;fill:none;fill-opacity:1;fill-rule:evenodd;stroke:#ff0000;stroke-width:0.606375;marker:none;marker-start:none;marker-mid:none;marker-end:none;enable-background:accumulate"
       d="m 336.91556,91.442945 c 0,0 0.41946,0 0.60588,0.55927 0.18642,0.55926 0.69909,1.44477 0.18642,2.14385 -0.51266,0.69909 -0.93211,2.00405 -0.37284,3.26241 0.55926,1.25835 1.53798,1.39817 1.44477,2.14386 -0.0932,0.745685 -0.23303,0.559255 -0.32624,1.584585 -0.0932,1.02533 0.0932,1.6778 -0.14368,2.10921 -0.11756,0.58043 -0.69522,1.2464 -0.69522,1.2464 0,0 0.68743,1.15582 1.06261,1.26301 0.37518,0.1072 0.69676,3.91255 0.69676,3.91255 0,0 0.58956,-0.37518 0.75034,0.10719 0.1608,0.48237 0.37518,1.28632 0.37518,1.28632 0,0 0.80394,0.48236 0.80394,0.75035 0,0.26798 -0.0536,0.91114 0.16079,1.01833 0.21439,0.1072 1.07193,0.48237 1.07193,0.48237 l 0.21439,0.80395 c 0,0 0.10721,0.69675 0.42879,0.75035 0.32157,0.0536 0.48236,-0.0536 0.91114,0.16079 0.42876,0.21439 0.53594,0.26799 0.91112,0.26799 0.37518,0 0.53597,-0.0536 0.53597,0.26798 0,0.32158 -0.0536,0.85754 0.16078,0.91114 0.2144,0.0536 0.75036,0.10719 0.75036,0.10719 0,0 0.16079,0.32158 0.37518,0.53596 0.21439,0.21439 0.85754,0.26799 0.96475,0.48237 0.10719,0.21439 0.16079,0.58957 0.21437,0.80395 0.0536,0.21438 -0.16079,0.69676 0.64317,0.75035 0.80394,0.0536 5.46685,-0.64315 5.46685,-0.64315 l 0.32158,0.53596 c 0,0 0.32157,0.32158 0.69675,0.42877 0.37518,0.10719 1.07193,-0.16079 1.66148,0.10719 0.58957,0.26799 1.07193,0.42878 1.33993,0.42878 h 0.80393 c 0,0 0.16079,0.75035 0.42879,0.80395 0.26797,0.0536 1.3399,-0.37518 1.3399,-0.37518 0,0 0.21439,-0.32158 0.53597,-0.26798 0.32157,0.0536 0.37517,-0.69676 0.96475,-0.75036 0.58954,-0.0536 0.91111,-0.0536 1.12551,-0.0536 0.21439,0 1.50071,-0.64316 1.55429,-0.10719 0.0536,0.53597 0.10721,0.85755 0.37518,1.17913 0.268,0.32157 1.01836,0.53596 1.28633,0.53596 0.26797,0 0.85754,-0.37518 1.23272,-0.58956 0.37517,-0.21439 0.53596,-0.42878 1.01832,-0.32158 0.48237,0.10719 0.96475,0.42877 1.17912,0.53596 0.21439,0.1072 0.3216,0.1072 0.96475,0.32158 0.64315,0.21439 1.50069,0.16079 1.50069,0.16079 0,0 1.55432,0.16079 2.09992,0.36234 0.25926,0.15446 1.3962,0.57134 1.81308,0.53344 0.60637,-0.30318 0.5306,0.30319 1.36435,-0.60637 0.83376,-0.90957 0.30319,-0.1516 1.13697,-1.36435 0.83376,-1.21275 2.19811,-1.36434 0.68215,-1.51594 -1.51593,-0.15159 -1.28855,0.30319 -1.81912,-0.22739 -0.53057,-0.53057 -0.0758,-0.68217 -0.98536,-0.60637 -0.90956,0.0758 -0.90956,0.22739 -1.13694,-0.0758 -0.22741,-0.30319 0.45477,-0.53058 -0.68217,-0.53058 -1.13697,0 -0.75798,0.45478 -1.66754,-0.0758 -0.90956,-0.53058 -0.98536,-0.30319 -0.90956,-0.90957 0.0758,-0.60637 0.0758,-1.13695 0.68218,-1.28855 0.60637,-0.15159 0.45476,0 0.83375,-0.30318 0.37899,-0.30319 0.60637,-0.37899 0.60637,-0.83377 0,-0.45478 0.83378,-0.68217 1.06117,-1.28855 0.22738,-0.60637 0.22738,-1.51594 0.68217,-1.51594 0.45477,0 0.45477,-0.0758 0.83376,0.98536 0.37899,1.06116 -0.53057,1.51594 0.53057,1.59174 1.06116,0.0758 1.66753,0.15159 2.12233,0.0758 0.45479,-0.0758 0.15157,0.0758 0.68217,0.68217 0.53057,0.60637 0.45477,0.90956 0.98536,1.28855 0.53057,0.37898 0.60637,1.06115 0.60637,1.06115 0,0 0,0.37899 0.68218,0.22739 0.68217,-0.15159 1.74331,-0.15159 1.74331,-0.15159 0,0 -0.30318,-0.37898 0.0758,0.90956 0.37899,1.28855 0.60638,0.98536 0.60638,2.12232 0,1.13695 -0.53057,1.74333 0,2.12231 0.53059,0.37899 1.13696,0.53058 1.13696,0.53058 0,0 1.59174,-1.51594 1.74332,-2.19811 0.1516,-0.68217 0.6064,-0.90956 0.53059,-1.44014 -0.0758,-0.53058 -0.22741,-0.1516 0.0758,-0.83377 0.30318,-0.68217 0.30318,-1.89492 0.30318,-1.89492 0,0 -0.30318,-0.0758 -0.6064,-0.22739 -0.30318,-0.1516 -0.45476,-0.0758 -0.60637,-0.90957 -0.15158,-0.83376 0.15161,-0.83376 -0.37896,-1.06115 -0.5306,-0.22739 -0.75798,-0.60638 -0.90959,-1.06116 -0.15158,-0.45478 -0.0758,-0.75797 -0.45476,-0.83377 -0.37899,-0.0758 -0.30319,-0.15159 -1.13697,-0.75796 -0.83375,-0.60638 -0.68217,-0.30319 -1.28855,-0.68218 -0.60637,-0.37898 -0.75795,-0.60637 -0.75795,-1.13695 0,-0.53058 -0.1516,-0.68217 0.22738,-1.06116 0.37899,-0.37898 0.60638,0.45478 0.68218,-0.90956 0.0758,-1.36435 -0.37899,-1.44014 0.30319,-2.80449 0.68217,-1.36434 0.53056,-1.89492 1.06116,-2.3497 0.34107,-0.26529 0.26527,0 1.26958,-1.06116 0.058,0.0327 0.058,0.0863 -0.5315,-0.0209 -0.58957,-0.10719 -0.69675,-1.232715 -1.44711,-1.286305 -0.75036,-0.0536 -1.23272,-0.48238 -1.39351,-1.07194 -0.16078,-0.58956 -0.69675,-2.30465 -1.87587,-2.25105 -1.17914,0.0536 -1.39353,-1.50071 -2.46544,-2.78702 -1.07193,-1.28632 1.2863,-1.17913 1.2863,-1.6079 0,-0.42877 -0.32157,-1.23272 -0.32157,-1.23272 0,0 -0.54674,0.55586 -1.22891,0.36637 -0.68218,-0.18949 -1.13697,-0.41689 -1.21275,-0.94746 -0.0758,-0.53058 -0.75798,-0.79587 -0.75798,-0.79587 0,0 -0.94747,-0.0379 -0.98536,-0.34109 -0.0379,-0.30319 -0.18949,-0.53058 -0.30318,-1.47804 -0.11369,-0.94746 -0.0379,-1.17485 -0.41688,-1.17485 -0.37899,0 -0.83378,0.0758 -0.98536,-0.0758 -0.15161,-0.15159 -0.3411,-0.26529 -0.37899,-0.75797 -0.0379,-0.49268 -0.0758,-0.98536 -0.30319,-1.06115 -0.22741,-0.0758 -0.60637,-0.26529 -0.83378,-0.26529 -0.22738,0 -0.98536,0.15159 -1.06114,-0.1516 -0.0758,-0.30319 -0.1516,-0.72007 -0.0758,-1.02325 0.0758,-0.30319 0.18949,-0.49268 0.18949,-0.75797 0,-0.26529 -0.1516,-0.87167 -0.1516,-0.87167 0,0 -0.26527,0 -0.53057,-0.22739 -0.2653,-0.22739 -0.2653,-0.56848 -0.64429,-0.64427 -0.37896,-0.0758 -0.60637,-0.1895 -0.94744,0.18949 -0.3411,0.37898 -0.56849,0.72007 -0.75798,0.79587 -0.1895,0.0758 -1.32644,0.18949 -1.70543,0.18949 -0.37899,0 -0.94747,-0.22739 -0.94747,-0.22739 l -0.26527,-0.30319 c 0,0 -0.5306,-0.18949 -0.5306,0.0379 0,0.22739 0.1895,0.45478 0,0.75797 -0.18949,0.30319 -0.0758,0.30319 -0.49268,0.64427 -0.41687,0.34109 -0.68217,0.41689 -0.72006,0.68217 -0.0379,0.26529 -0.0379,0.37899 0.18949,0.64428 0.22739,0.26529 0.34108,0.18949 0.4548,0.53058 0.11369,0.34108 0.15158,0.41688 0.15158,0.79586 0,0.37899 0.0379,0.90957 -0.22739,1.13696 -0.26529,0.22739 -0.3411,0.18949 -0.53059,0.68217 -0.1895,0.49268 -0.34108,0.56848 -0.45477,0.79587 -0.11369,0.22739 -0.2653,0.34108 -0.0379,0.79587 0.22741,0.45478 0.45479,0.75797 0.6064,0.94746 0.15158,0.18949 0.34107,0.49268 0.18946,0.98536 -0.15158,0.49268 -0.18946,0.75797 -0.49268,1.06116 -0.30318,0.30318 -0.56845,0.94746 -0.79586,1.21275 -0.22739,0.26528 -0.15158,0.56847 -0.53057,0.37898 -0.37899,-0.18949 -0.64426,-0.53058 -0.68218,-0.68217 -0.0379,-0.1516 -0.0758,-0.30319 -0.18949,-0.75797 -0.11369,-0.45478 -0.26527,-1.02326 -0.34108,-1.17485 -0.0758,-0.1516 -1.03909,-0.66194 -1.28029,-0.17957 -0.24119,0.48237 -0.16079,0.93794 -0.53597,1.09873 -0.37517,0.16079 -0.45555,0.16079 -0.61637,0.40197 -0.16076,0.24119 -0.61635,0.91114 -0.96472,0.83075 -0.34838,-0.0804 -0.42879,-0.16079 -0.99153,-0.24119 -0.56277,-0.0804 -1.01835,-0.26798 -1.25952,0.0804 -0.2412,0.34838 -0.85754,0.85754 -1.28633,0.69676 -0.42878,-0.1608 -0.99152,-0.48238 -1.12551,-0.61637 -0.13401,-0.13399 -0.96475,-0.50916 -1.39353,-0.45557 -0.42876,0.0536 -0.42876,0.16079 -1.2595,0.10719 -0.83076,-0.0536 -1.6347,-0.37517 -2.17066,-0.37517 -0.53597,0 -1.92948,-0.69675 -2.35826,-0.61636 -0.42876,0.0804 -0.34838,0.0804 -0.80394,0.26798 -0.45558,0.18759 -0.77716,-0.10719 -0.96475,0.21439 -0.18759,0.32158 -0.18759,0.77715 -0.75033,0.69675 -0.56277,-0.0804 -0.85757,-0.0804 -1.07193,-0.29478 -0.2144,-0.21438 -0.37518,-0.53596 -0.37518,-0.53596 0,0 -0.34838,-0.13399 -0.56277,-0.0804 -0.21439,0.0536 -0.77715,0 -0.77715,0 0,0 -0.48237,-0.48236 -0.58956,-0.50917 -0.1072,-0.0268 -0.56277,-0.29477 -0.75036,-0.26798 -0.18758,0.0268 -0.99153,0.16079 -0.99153,0.16079 0,0 -1.17913,0.0804 -0.98455,0.34605 z"
       sodipodi:nodetypes="csssssssscscsssccsssscsssssccsscscsccsssssccssssssssssscscssscssscsssssssssssccsssssscccscsssssscsscsssssssssscsssssccssssssssssssssssssssssssssssssssssscscsscsc" />
    <path
       id="irkutsk"
       style="display:inline;overflow:visible;visibility:visible;fill:none;fill-opacity:1;fill-rule:evenodd;stroke:#ff0000;stroke-width:0.606375;marker:none;marker-start:none;marker-mid:none;marker-end:none;enable-background:accumulate"
       d="m 379.57141,90.212555 -0.0536,0.58956 c 0,0 -0.54676,0.55586 -1.22891,0.36637 -0.68218,-0.1895 -1.13697,-0.41689 -1.21277,-0.94746 -0.0758,-0.53058 -0.75796,-0.79587 -0.75796,-0.79587 0,0 -0.94747,-0.0379 -0.98536,-0.34109 -0.0379,-0.30319 -0.18949,-0.53058 -0.30318,-1.47804 -0.11372,-0.94746 -0.0379,-1.17485 -0.41691,-1.17485 -0.37896,0 -0.83375,0.0758 -0.98536,-0.0758 -0.15158,-0.15159 -0.34107,-0.26529 -0.37896,-0.75797 -0.0379,-0.49268 -0.0758,-0.98536 -0.30319,-1.06116 -0.22741,-0.0758 -0.6064,-0.26529 -0.83378,-0.26529 -0.22738,0 -0.98536,0.1516 -1.06116,-0.15159 -0.0758,-0.30319 -0.15158,-0.72007 -0.0758,-1.02326 0.0758,-0.30318 0.18949,-0.49268 0.18949,-0.75797 0,-0.26529 -0.1516,-0.87166 -0.1516,-0.87166 0,0 -0.2653,0 -0.53057,-0.22739 -0.2653,-0.22739 -0.2653,-0.56848 -0.64429,-0.64428 -0.37896,-0.0758 -0.60637,-0.18949 -0.94744,0.1895 -0.3411,0.37898 -0.56849,0.72007 -0.75798,0.79586 -0.1895,0.0758 -1.32644,0.1895 -1.70543,0.1895 -0.37899,0 -0.94747,-0.2274 -0.94747,-0.2274 l -0.26527,-0.30318 c 0,0 -0.5306,-0.18949 -0.5306,0.0379 0,0.22739 0.1895,0.45478 0,0.75796 -0.18949,0.30319 -0.0758,0.30319 -0.49268,0.64428 -0.41687,0.34109 -0.68217,0.41688 -0.72006,0.68217 -0.0379,0.26529 -0.0379,0.37899 0.18949,0.64427 0.22739,0.26529 0.34108,0.1895 0.4548,0.53058 0.11369,0.34109 0.15158,0.41689 0.15158,0.79587 0,0.37899 0.0379,0.90956 -0.22739,1.13696 -0.26529,0.22739 -0.3411,0.18949 -0.53059,0.68217 -0.1895,0.49268 -0.34108,0.56848 -0.45477,0.79587 -0.11369,0.22739 -0.2653,0.34108 -0.0379,0.79586 0.22741,0.45479 0.45479,0.75797 0.6064,0.94747 0.15158,0.18949 0.34107,0.49268 0.18946,0.98535 -0.15158,0.49269 -0.18946,0.75798 -0.49268,1.06116 -0.30318,0.30319 -0.56845,0.94746 -0.79586,1.21275 -0.22739,0.26529 -0.15158,0.56848 -0.53057,0.37899 -0.37899,-0.18949 -0.64426,-0.53058 -0.68218,-0.68217 -0.0379,-0.1516 -0.0758,-0.30319 -0.18949,-0.75797 -0.11369,-0.45478 -0.26527,-1.02326 -0.34108,-1.17486 -0.0758,-0.15159 -1.03909,-0.66193 -1.28029,-0.17956 -0.24119,0.48236 -0.16079,0.93793 -0.53597,1.09873 -0.37517,0.16078 -0.45555,0.16078 -0.61637,0.40197 -0.16076,0.24119 -0.61635,0.91114 -0.96472,0.83075 -0.34838,-0.0804 -0.42879,-0.16079 -0.99153,-0.24119 -0.56277,-0.0804 -1.01835,-0.26798 -1.25952,0.0804 -0.2412,0.34837 -0.85754,0.85754 -1.28633,0.69676 -0.42878,-0.1608 -0.99152,-0.48238 -1.12551,-0.61637 -0.13401,-0.13399 -0.96475,-0.50916 -1.39353,-0.45557 -0.42876,0.0536 -0.42876,0.16079 -1.2595,0.10719 -0.83076,-0.0536 -1.6347,-0.37517 -2.17066,-0.37517 -0.53597,0 -1.92948,-0.69675 -2.35826,-0.61636 -0.42876,0.0804 -0.34838,0.0804 -0.80394,0.26798 -0.45558,0.18759 -0.77716,-0.10719 -0.96475,0.21439 -0.18759,0.32158 -0.18759,0.77715 -0.75033,0.69675 -0.56277,-0.0804 -0.85757,-0.0804 -1.07193,-0.29478 -0.2144,-0.21439 -0.37518,-0.53597 -0.37518,-0.53597 0,0 -0.34838,-0.13399 -0.56277,-0.0804 -0.21439,0.0536 -0.77715,0 -0.77715,0 0,0 -0.48237,-0.48236 -0.58956,-0.50917 -0.1072,-0.0268 -0.56277,-0.29477 -0.75036,-0.26798 -0.18758,0.0268 -0.99153,0.16079 -0.99153,0.16079 0,0 -1.17913,0.0804 -0.98455,0.34605 -1.02532,-0.37285 -0.37284,-0.27964 -1.02532,-0.55927 -0.65248,-0.27963 -0.18642,-0.8389 -0.55927,-1.77101 -0.37285,-0.93212 -0.55926,0.18641 -0.55926,0.18641 0,0 -0.74569,0 -1.02533,-1.11853 -0.27964,-1.11854 0.18643,-0.55927 0.37284,-1.49138 0.18643,-0.93211 -0.27963,-0.8389 -0.27963,-1.95744 0,-1.11854 0.65248,-0.65248 0.65248,-0.65248 0,0 0.18642,-1.02532 0.27964,-2.70313 0.0932,-1.6778 -0.8389,-0.46605 -1.21175,-1.30495 -0.37285,-0.83891 0,-0.74569 0.18642,-1.21175 0.18643,-0.46606 0.46606,-0.74569 1.02533,-1.67781 0.55926,-0.93211 0.37284,-0.46605 1.77101,-0.74569 1.39817,-0.27963 0.8389,-1.58459 1.95744,-1.95744 1.11854,-0.37284 0.37284,-0.18642 1.11854,0.55927 0.74569,0.74569 1.11853,-0.18642 2.05065,-0.37285 0.9321,-0.18642 0.74567,-0.74569 2.05065,-0.55926 1.30495,0.18642 0.74567,0.37284 1.11853,1.11854 0.37285,0.74569 0.93212,0.74569 2.05065,-0.55928 1.11855,-1.30495 0.18642,-5.03341 -0.55928,-7.08406 -0.74567,-2.05065 1.75393,-6.69323 1.75393,-6.69323 0,0 2.95605,-0.90956 3.71403,-1.36434 0.75798,-0.45478 0.68218,-0.53058 0.90956,-1.59174 0.22741,-1.06116 0.30318,-2.80449 1.13697,-2.95608 0.83375,-0.15159 0.68217,1.06116 0.68217,1.06116 0.0758,0.45478 0.90956,0.30319 1.81912,0.45478 0.64153,0.10692 0.37809,-0.46491 0.24691,-1.02397 -0.0548,-0.23356 -0.0865,-0.46488 -0.0196,-0.64356 0.22738,-0.60638 7.45535,0.0686 7.45535,0.0686 -0.268,0.64316 -0.21439,1.5007 -0.0536,1.76868 0.16079,0.26799 0.85754,1.76869 0.64315,3.00141 -0.21439,1.23272 -0.53596,4.93088 -0.37518,5.62764 0.16079,0.69675 0.21439,2.41184 0.69676,2.89421 0.48238,0.48236 0.69675,0.85754 0.91114,1.28631 0.21439,0.42878 2.41186,1.12553 2.78702,2.03667 0.37518,0.91114 0.16078,1.12553 0.80396,1.5007 0.64315,0.37518 1.23272,1.17913 1.2863,1.92948 0.0536,0.75035 0.0536,1.87588 0.58957,1.71509 0.53597,-0.16079 1.12554,-0.91114 1.33993,-1.12553 0.21436,-0.21438 1.01833,-0.48237 1.71508,-0.21438 0.69675,0.26798 0.85754,0.26798 1.5543,0.16078 0.69675,-0.10719 1.3399,0.1072 1.3399,0.1072 0,0 0.53597,0.80395 0.58957,1.23272 0.0536,0.42877 -0.26797,0.75035 0.69675,0.69675 0.96475,-0.0536 1.17912,-0.10719 1.28633,0.96474 0.10718,1.07193 0.69675,1.66149 0.69675,1.66149 0,0 0.16079,1.12553 0.10718,1.39351 -0.0536,0.26798 -0.42875,0.91114 -0.26797,1.6079 0.16079,0.69675 0.53597,1.39351 0.2144,1.87588 -0.3216,0.48236 -0.85757,1.55429 -0.85757,1.98307 0,0.42877 0.0484,1.542299 0,1.92947 l -0.16079,1.28632 z"
       sodipodi:nodetypes="ccsscsssssssssscsssssccssssssssssssssssssssssssssssssssssscscssccsscssscsssssssssssscssscssscsssssssssssscssscssssscc" />

  </g>
</svg>
