<svg xmlns:inkscape="http://www.inkscape.org/namespaces/inkscape" xmlns:sodipodi="http://sodipodi.sourceforge.net/DTD/sodipodi-0.dtd" xmlns="http://www.w3.org/2000/svg" xmlns:svg="http://www.w3.org/2000/svg" width="440mm" height="300mm" viewBox="0 0 440 300" version="1.1" id="SVGRoot" sodipodi:docname="all.svg" inkscape:version="1.1.1 (3bf5ae0d25, 2021-09-20, custom)">
  <sodipodi:namedview id="namedview345" pagecolor="#ffffff" bordercolor="#666666" borderopacity="1.0" inkscape:pageshadow="2" inkscape:pageopacity="0.0" inkscape:pagecheckerboard="0" inkscape:document-units="mm" showgrid="false" inkscape:zoom="42.728027" inkscape:cx="440.9986" inkscape:cy="1082.9777" inkscape:window-width="1916" inkscape:window-height="1030" inkscape:window-x="0" inkscape:window-y="0" inkscape:window-maximized="1" inkscape:current-layer="layer1"/>
  <defs id="defs340"/>
  <g inkscape:label="Warstwa 1" inkscape:groupmode="layer" id="layer1">
    <path id="congo" style="display:inline;fill:none;fill-opacity:1;fill-rule:evenodd;stroke:#ff0000;stroke-width:0.606375;enable-background:new" d="m 250.76055,237.72184 c -0.37898,0.1516 -0.45478,-0.37898 -0.68217,-2.04651 -0.22739,-1.66754 -0.68217,-5.91216 -0.60638,-6.59434 0.0758,-0.68217 1.74333,0.60638 2.04652,0.1516 0.30319,-0.45478 0.37899,-3.86565 0.22739,-4.77521 -0.15159,-0.90956 1.28855,-0.53058 2.19811,-0.60637 0.90957,-0.0758 1.06116,-1.21276 1.44014,-1.97073 0.37899,-0.75796 0.75797,-0.68217 1.13696,-0.83376 0.37898,-0.15159 0.30319,-0.90956 0.75797,-1.51594 0.45478,-0.60637 1.06115,-1.66753 1.06115,-2.5013 0,-0.83376 -1.13695,-1.66753 -2.50129,-1.74333 -1.36435,-0.0758 -1.06116,0.60638 -2.95608,0.1516 -1.89493,-0.45479 -2.27391,-0.37899 -2.88029,-0.53058 -0.60637,-0.1516 -0.53058,-1.13696 -1.21275,-1.36435 -0.68217,-0.22739 -1.51594,1.28855 -1.51594,1.28855 0,0 -0.75797,-0.22739 -1.51593,-2.04652 -0.75798,-1.81912 -1.81913,-2.3497 -2.12232,-2.4255 -0.30319,-0.0758 -0.37898,-2.19811 -0.37898,-2.57709 0,-0.37899 -1.36435,-0.83377 -1.66754,-1.28855 -0.30318,-0.45478 -0.53057,-1.13695 -1.06115,-1.28855 -0.53058,-0.15159 -0.90957,-0.15159 -1.13696,-1.44014 0,0 -0.30318,-2.19811 -0.70352,-2.42499 -0.0214,-0.0753 -1.41486,1.42542 -1.41486,1.96138 0,0.53597 0.32158,1.17913 -1.07192,1.82229 -1.39351,0.64316 -2.25106,1.07193 -3.1086,1.3935 -0.85755,0.32158 -1.17913,0.96474 -1.71509,1.28632 -0.53597,0.32158 -1.28632,0.32158 -1.82229,0.75035 -0.53596,0.42878 -0.96473,0.42878 -1.28631,1.07194 -0.32158,0.64315 -0.75036,-0.42878 -0.85754,1.07192 -0.1072,1.50071 0.21438,2.25106 0.21438,2.25106 0,0 0.96474,-1.17912 0.75035,1.17912 -0.21439,2.35825 -0.75035,2.57264 -0.42877,3.43018 0.32158,0.85755 0.53596,1.07193 -0.32158,1.6079 -0.85754,0.53597 -1.6079,0 -1.6079,0 0,0 -0.21438,-0.96474 -1.17912,-0.75035 -0.96473,0.21438 -1.07193,0.64316 -2.03667,0.42877 -0.96473,-0.21439 -1.92947,-0.21439 -1.92947,-0.21439 0,0 -1.17912,0.96474 -1.60789,0.75036 -0.42878,-0.21439 -0.42878,-0.53597 -0.75036,-1.17913 l -0.38388,-0.11061 c -0.64427,-0.22739 -0.72007,1.28855 -0.72007,1.28855 0.22739,0.68217 0.83377,0.98536 0.53058,1.28854 -0.30319,0.30319 -0.68217,1.21275 -1.06116,1.74333 -0.37898,0.53058 -1.97072,1.28855 -1.36434,1.97072 0.60637,0.68218 4.62361,3.86565 5.45738,5.76057 0,0 0.37898,0.53058 0.75797,1.06116 0.37898,0.53058 1.74333,-0.60638 2.19811,-0.22739 0.45478,0.37898 1.66753,1.21275 2.12231,1.44014 0.45478,0.22739 2.95608,-0.15159 3.56246,0.30319 0.60637,0.45478 1.06115,0.22739 1.06115,0.22739 0,0 -0.37898,2.57709 0,2.95608 0.37899,0.37898 1.28855,0.83376 1.81913,0.0758 0.53058,-0.75796 4.47202,-1.21274 4.69941,-0.60637 0.22739,0.60637 -0.37898,1.81913 0.37898,2.4255 0.75798,0.60638 1.28855,1.06116 1.21276,1.66753 -0.0758,0.60638 -0.83377,1.21275 -0.53058,2.04652 0.30319,0.83377 1.13695,1.13695 2.04651,1.06116 0.90957,-0.0758 0.83377,0.60637 1.59174,0.75797 0.75797,0.15159 3.71405,0.15159 4.01724,0.37898 0.30319,0.22739 1.06115,0.75797 1.28855,1.13696 0.22739,0.37898 1.06115,1.74332 1.59173,1.21275 0.53058,-0.53058 1.13696,-3.33507 0.30319,-3.63826 -0.83377,-0.30318 -1.36434,-0.30318 -1.36434,-1.21275 0,-0.90956 0.45478,-2.5013 0.75796,-2.5013 0.30319,0 0.68218,-0.37898 0.68218,-0.37898 0,0 2.3497,0 1.59173,-0.60638 z" sodipodi:nodetypes="ccccscsscssscsssssssccsccssssscsssssssssssssc"/>
    </g>
</svg>