<svg xmlns:inkscape="http://www.inkscape.org/namespaces/inkscape" xmlns:sodipodi="http://sodipodi.sourceforge.net/DTD/sodipodi-0.dtd" xmlns="http://www.w3.org/2000/svg" xmlns:svg="http://www.w3.org/2000/svg" width="440mm" height="300mm" viewBox="0 0 440 300" version="1.1" id="SVGRoot" sodipodi:docname="all.svg" inkscape:version="1.1.1 (3bf5ae0d25, 2021-09-20, custom)">
  <sodipodi:namedview id="namedview345" pagecolor="#ffffff" bordercolor="#666666" borderopacity="1.0" inkscape:pageshadow="2" inkscape:pageopacity="0.0" inkscape:pagecheckerboard="0" inkscape:document-units="mm" showgrid="false" inkscape:zoom="42.728027" inkscape:cx="440.9986" inkscape:cy="1082.9777" inkscape:window-width="1916" inkscape:window-height="1030" inkscape:window-x="0" inkscape:window-y="0" inkscape:window-maximized="1" inkscape:current-layer="layer1"/>
  <defs id="defs340"/>
  <g inkscape:label="Warstwa 1" inkscape:groupmode="layer" id="layer1">
    <path id="eastern_united_states" style="display:inline;fill:none;fill-opacity:1;fill-rule:evenodd;stroke:#ff0000;stroke-width:0.606375;enable-background:new" d="m 87.791927,85.764045 3.80534,0.0536 c 0.42879,0.21439 0.21439,3.2158 0.21439,3.2158 0,0 2.03666,-1.07193 3.53738,-0.64316 1.50069,0.42877 2.89422,-1.92948 3.2158,-0.53597 0.32157,1.39352 1.07193,2.57264 1.3935,3.00141 0.321583,0.42878 0.428763,1.07193 1.071943,2.78702 0.64315,1.71509 0.96472,3.43018 0.53596,4.18052 -0.42878,0.75036 -1.607903,1.82229 -0.64317,2.358245 0.96475,0.53597 1.82229,1.39351 2.35825,1.92948 0.53597,0.53597 3.00141,-1.39351 2.8942,-2.143855 -0.10718,-0.75035 -0.42876,-1.28632 0.10721,-1.50071 0.53597,-0.21438 1.39351,0.1072 1.82229,-0.42877 0.42876,-0.53597 1.17912,-1.5007 1.82227,-1.39351 0.64317,0.1072 2.14386,-0.42877 2.14386,-0.42877 0,0 1.07194,-0.32158 1.07194,-0.85754 0,0 6.2172,-0.16079 7.18193,-0.75036 0.96475,-0.58956 1.07193,-0.48236 1.07193,-0.48236 0,0 -0.42879,-2.35825 -0.21439,-2.51904 0.21439,-0.16079 0.69675,-0.32157 1.12553,-0.75035 0.42876,-0.42877 1.08112,-0.45636 1.67069,-0.34917 0.58957,0.10719 2.72423,1.36751 2.45623,2.54663 -0.26797,1.17912 -1.17911,3.37658 -0.21436,3.43018 0.96472,0.0536 1.71508,-0.0536 1.87587,0.58956 0.16078,0.64316 0.32157,1.12552 0.64314,1.23272 0.32158,0.10719 1.44712,-0.32158 1.42796,-0.50492 -0.019,-0.18334 -0.45476,0.64427 -0.87164,1.40224 -0.41691,0.75796 -1.02328,1.326435 -1.02328,1.326435 -1.28855,0.53058 -1.51593,2.19811 -1.97072,1.51593 -0.45477,-0.68217 -1.06114,-0.68217 -0.53057,-1.66753 0.53057,-0.985355 0.90956,-0.833755 0.75798,-1.743325 -0.15161,-0.90956 0.45476,-0.98536 -0.30319,-1.06115 -0.75798,-0.0758 -0.37899,-0.0758 -1.28854,0.22739 -0.90959,0.30318 -0.83379,-0.68217 -1.59176,0.53058 -0.75796,1.21275 -0.98534,1.13695 -1.51593,1.44014 -0.53057,0.303175 -0.30319,0.682165 -0.68218,1.136945 -0.37899,0.45478 -0.53057,0.68217 -0.83375,1.06116 -0.30319,0.37898 -0.37899,0.37898 -0.37899,1.21275 0,0.83377 0.68217,2.19811 0.68217,2.19811 0,0 -0.37899,1.06116 -0.83378,1.28855 -0.45477,0.22739 -0.53057,-0.53058 -2.50129,1.74333 -1.97072,2.27391 -1.74331,2.5013 -2.95609,3.03187 -1.21274,0.53058 -1.06113,0.60638 -1.13694,0.90957 -0.0758,0.30319 -0.90955,0.68217 -0.45479,1.36434 0.45479,0.68218 0,0.83377 0.68218,1.13696 0.68217,0.30319 1.36435,-0.30319 1.28854,0.68217 -0.0758,0.98536 -0.83375,1.97072 -2.04652,2.72869 -1.21275,0.75797 -2.80448,3.10767 -4.39621,3.48666 -1.59174,0.37898 -2.27391,0.90956 -2.19811,1.66753 0.0758,0.75797 0,1.66753 -0.83378,1.66753 -0.83375,0 -0.30319,0.37899 -0.30319,2.19811 0,1.81913 0.15161,2.34971 0.5306,3.03188 0.37899,0.68217 0.53057,0.68217 0.53057,1.74333 0,1.06116 0,1.81913 -0.0758,2.12231 -0.0758,0.30319 0.60637,0.2274 -0.53057,0.90957 -1.13697,0.68217 -2.12233,1.06115 -2.5771,-0.0758 -0.45479,-1.13695 -1.36435,-0.83377 -1.44015,-1.74333 -0.0758,-0.90956 0.30318,-3.10767 0.30318,-3.10767 0,0 -1.13694,-0.30319 -1.28854,-0.90957 -0.15158,-0.60637 -0.606373,-2.04651 -0.909563,-2.2739 -0.30319,-0.22739 -0.90956,-0.75797 -1.51593,-0.45478 -0.60637,0.30318 -1.66754,0.90956 -2.04653,0.83376 -0.37899,-0.0758 0.5306,0.0758 -1.59173,-0.53058 -2.1223,-0.60637 -3.10766,-0.90956 -4.01722,-0.98536 -0.90959,-0.0758 -3.03189,-0.0758 -3.41088,0 -0.37899,0.0758 -4.01725,0.90957 -4.47201,0.90957 -0.45479,0 -3.63826,0.75796 -4.47202,1.44014 -0.83378,0.68217 -0.75797,1.81912 -1.66753,2.19811 -0.90956,0.37898 -1.21275,0.53058 -1.21275,0.53058 0,0 -0.90958,1.06115 -0.98536,1.66753 -0.0758,0.60638 -0.83378,1.66753 -1.21277,1.89492 -0.37896,0.22739 -0.45476,0.1516 -0.22738,0.83377 0,0 -1.21274,-0.75797 -1.21274,-1.28855 0,-0.53058 0.90955,-1.21275 1.13694,-2.19811 0.22741,-0.98536 0.68217,-1.89492 0.68217,-2.4255 0,-0.53058 -0.0758,-2.12232 -0.0758,-2.12232 0,0 -0.75795,-2.80448 -0.53057,-3.25926 0.22738,-0.45478 -0.83376,-0.60638 -0.83376,-0.60638 0,0 -0.37898,-1.13695 -0.0758,-1.51594 0.30319,-0.37898 1.44013,-0.37898 1.74331,-0.53058 0.30322,-0.15159 1.36435,-0.45478 1.36435,-0.45478 0,0 0.60638,-3.33506 0.60638,-3.71405 0,-0.37898 0.45479,-2.4255 0.45479,-2.80448 0,-0.37899 2.04652,-1.13696 2.34971,-1.28855 0.30319,-0.1516 1.36435,0.68217 1.44013,-0.1516 0.0758,-0.83376 0,-2.72868 0.0758,-3.25926 0.0758,-0.53058 0.30319,-0.90957 0.60637,-1.06116 0.30319,-0.15159 6.89753,-0.0758 7.20072,-0.37898 0.30318,-0.30319 -0.30319,-22.208505 0.22217,-22.496645 z" sodipodi:nodetypes="ccsssssssssssccccssssssscccsssssssssscsssssssssssssssssscsssssssssscsscc"/>
    </g>
</svg>