<svg xmlns:inkscape="http://www.inkscape.org/namespaces/inkscape" xmlns:sodipodi="http://sodipodi.sourceforge.net/DTD/sodipodi-0.dtd" xmlns="http://www.w3.org/2000/svg" xmlns:svg="http://www.w3.org/2000/svg" width="440mm" height="300mm" viewBox="0 0 440 300" version="1.1" id="SVGRoot" sodipodi:docname="all.svg" inkscape:version="1.1.1 (3bf5ae0d25, 2021-09-20, custom)">
  <sodipodi:namedview id="namedview345" pagecolor="#ffffff" bordercolor="#666666" borderopacity="1.0" inkscape:pageshadow="2" inkscape:pageopacity="0.0" inkscape:pagecheckerboard="0" inkscape:document-units="mm" showgrid="false" inkscape:zoom="42.728027" inkscape:cx="440.9986" inkscape:cy="1082.9777" inkscape:window-width="1916" inkscape:window-height="1030" inkscape:window-x="0" inkscape:window-y="0" inkscape:window-maximized="1" inkscape:current-layer="layer1"/>
  <defs id="defs340"/>
  <g inkscape:label="Warstwa 1" inkscape:groupmode="layer" id="layer1">
    <path id="egypt" style="display:inline;fill:none;fill-opacity:1;fill-rule:evenodd;stroke:#ff0000;stroke-width:0.606375;enable-background:new" d="m 238.98772,185.82875 c -0.10719,-0.53596 -2.35824,0.10719 -2.89421,-0.1072 -0.53596,-0.21438 -0.85754,-0.64316 -0.85754,-0.64316 0,0 -0.42877,-1.28631 -0.53597,-1.92947 -0.10719,-0.64316 -1.60789,0.1072 -2.14386,0 -0.53596,-0.10719 -0.10719,-0.85754 -0.32158,-1.60789 -0.21438,-0.75035 -1.07193,-0.42877 -1.60789,-0.42877 -0.53597,0 -1.39351,-0.42878 -2.14387,-0.96474 -0.75034,-0.53597 -0.96474,0.21438 -1.82228,0.32158 -0.85754,0.10719 -0.85754,-0.1072 -1.17912,-0.64316 -0.32158,-0.53597 -1.39351,0.32158 -2.35825,0.21439 -0.96473,-0.1072 -0.75035,-0.53597 -1.28631,-1.39352 -0.53596,-0.85754 -1.07194,-0.21438 -2.25106,-0.53596 -1.17912,-0.32158 -0.75035,-0.42877 -0.85754,-1.28632 -0.10719,-0.85754 -0.85755,-0.75035 -0.85755,-0.75035 0,0 -0.10719,-0.96474 -0.21438,-1.71509 -0.1072,-0.75035 0.10719,-1.92947 0.10719,-2.35824 0,-0.42878 -0.21439,-2.03667 -0.96474,-2.35825 -0.75035,-0.32158 -0.21438,-1.07193 -0.21438,-1.07193 0,0 -0.32158,-1.07193 -0.21439,-1.6079 0.10719,-0.53596 0.85755,-1.17912 1.39351,-1.17912 0.53597,0 0.85755,-0.64316 0.85755,-0.64316 0,0 -0.85755,-1.28631 -1.28632,-2.03667 -0.42877,-0.75035 0.75035,-0.64316 0.75035,-0.64316 l 0.53597,-0.64315 c 0,0 0.21438,-0.32158 1.17912,-0.85755 0.96473,-0.53597 0.41422,-1.76374 0.41422,-1.76374 0,0 0.98536,0.0758 1.97072,0.22739 0.98536,0.1516 0.83377,0.60638 1.44014,1.21275 0.60637,0.60638 0.83377,0.75797 2.12232,1.21276 1.28854,0.45478 1.36434,0.68217 2.19811,0.68217 0.83376,0 2.19811,-0.75797 2.72868,-0.98536 0.53058,-0.22739 1.44015,-0.30319 5.0784,-0.53058 3.63825,-0.22739 3.63825,2.12231 4.47202,1.81913 0.83377,-0.30319 1.74333,0 2.19811,0.15159 0.45478,0.15159 1.74333,0.60637 2.5013,0.60637 0.75797,0 1.59173,0.45479 1.89492,0.60638 0.30319,0.15159 3.78985,0.90956 4.16883,0.90956 l 0.98536,-0.90956 0.75797,0.22739 c 0,0 0.60638,0.30319 0.90956,0.30319 0.30319,0 0.45479,-0.53058 0.45479,-0.53058 l 1.21275,-0.75797 1.36434,2.65289 c 0,0 -0.60637,1.59174 -0.60637,2.04652 0,0.45478 -0.0758,1.59174 -0.37899,1.66753 -0.30319,0.0758 -0.68217,-0.0758 -1.13695,-0.37898 -0.45478,-0.30319 -0.90957,-1.13696 -1.59174,-1.59174 -0.68217,-0.45478 0,1.51594 0,1.51594 -0.0758,0.30319 1.44015,2.34971 4.09304,5.98796 2.65289,3.63825 0.30319,1.81913 0.83376,2.72869 0.53058,0.90956 1.06116,1.21275 1.21276,2.5771 0.15159,1.36434 0.0758,0.68217 0.30318,1.36434 l -0.15159,-0.15159 c 0.0758,0.98536 -16.52373,0 -17.50909,0.30318 -0.98536,0.30319 -0.75797,3.18347 -1.13696,3.03188 -0.37898,-0.15159 -1.61604,0.63418 -1.61604,0.63418 z" sodipodi:nodetypes="cscssssssssssscssscsscsccsccssssssssscccscccsssscsssc"/>
    </g>
</svg>