<svg xmlns:inkscape="http://www.inkscape.org/namespaces/inkscape" xmlns:sodipodi="http://sodipodi.sourceforge.net/DTD/sodipodi-0.dtd" xmlns="http://www.w3.org/2000/svg" xmlns:svg="http://www.w3.org/2000/svg" width="440mm" height="300mm" viewBox="0 0 440 300" version="1.1" id="SVGRoot" sodipodi:docname="all.svg" inkscape:version="1.1.1 (3bf5ae0d25, 2021-09-20, custom)">
  <sodipodi:namedview id="namedview345" pagecolor="#ffffff" bordercolor="#666666" borderopacity="1.0" inkscape:pageshadow="2" inkscape:pageopacity="0.0" inkscape:pagecheckerboard="0" inkscape:document-units="mm" showgrid="false" inkscape:zoom="42.728027" inkscape:cx="440.9986" inkscape:cy="1082.9777" inkscape:window-width="1916" inkscape:window-height="1030" inkscape:window-x="0" inkscape:window-y="0" inkscape:window-maximized="1" inkscape:current-layer="layer1"/>
  <defs id="defs340"/>
  <g inkscape:label="Warstwa 1" inkscape:groupmode="layer" id="layer1">
    <path id="great_britain" style="font-style:normal;font-variant:normal;font-weight:normal;font-stretch:normal;letter-spacing:normal;word-spacing:normal;text-anchor:start;display:inline;fill:none;fill-opacity:1;fill-rule:evenodd;stroke:#ff0000;stroke-width:0.606375;marker-start:none;marker-mid:none;enable-background:new" d="m 172.84961,103.93327 c 0,0 -0.21437,0.32157 -1.07192,0.32157 -0.85755,0 -0.96475,-0.10719 -1.50071,0.21439 -0.53596,0.32157 -1.17912,0.42877 -1.71508,0.53596 -0.53597,0.10719 -1.17913,0.75035 -1.17913,0.75035 0,0 0,0.42878 -0.75035,0.64316 -0.75036,0.21438 -0.64316,0.1072 -1.39352,0.1072 -0.75034,0 -0.53596,-0.64316 -0.64315,-1.07194 0,0 -2.51761,0.24963 -1.75964,-0.20515 0.75798,-0.45478 1.36435,-0.1516 0.83377,-0.53058 -0.53058,-0.37898 -1.36434,-0.45478 -0.45478,-0.60638 0.90956,-0.15159 1.13695,0 1.13695,-0.30318 0,-0.30319 -0.60638,0.37898 0,-0.60638 0.60638,-0.98536 0.75797,-0.98536 1.13696,-1.28855 0.37899,-0.30319 0.15159,-1.21274 0.68217,-1.06115 0.53058,0.15159 1.13696,0.30318 1.13696,0.30318 l 0.30318,-0.60637 c 0,0 -1.89493,-0.0758 -2.04651,-0.37899 0,0 -0.98536,-0.682165 -1.28855,-0.682165 -0.30319,0 -0.98536,0.0758 -0.75797,-0.22739 0.22738,-0.30319 0.68217,-1.21274 0.68217,-1.21274 0,0 -0.98536,-0.75798 -0.60637,-1.06117 0.37898,-0.30318 0.45477,-0.22739 0.45477,-0.75797 0,-0.53057 -0.68217,-0.60637 0.0758,-1.36434 0.75797,-0.75797 0.90956,-0.60638 1.44015,-1.06116 0.53057,-0.45478 0.53057,-0.53058 0.90955,-0.15159 0.37899,0.37899 0.37899,0.98536 1.06117,0.15159 0.68217,-0.83377 0.75797,-1.28855 0.75797,-1.28855 0,0 -0.30319,0.0758 0.83376,-0.53058 1.13696,-0.60636 0.22739,-1.13695 1.89492,-0.90955 1.66753,0.22738 1.36434,0.30319 1.74333,0.22738 0.37899,-0.0758 0.60638,-1.06115 0.83377,-0.22738 0.22739,0.83376 -0.30319,0.98536 0.75796,1.28854 1.06116,0.30319 1.51595,0.15159 1.21276,0.68218 -0.30319,0.53057 -0.37898,0.45477 -0.0758,0.90955 0.30319,0.45479 0.53058,0.68218 0.53058,1.06116 0,0.37899 -0.22739,0.68218 -0.75797,0.90956 -0.53058,0.2274 -0.45478,-0.0758 -1.13695,0.60638 -0.68217,0.68217 -1.06116,0.53058 -1.06116,0.53058 0,0 -0.15159,-0.37898 -0.60637,-0.0758 -0.45479,0.30319 -0.22739,0.75797 -0.90957,0.30319 -0.68217,-0.45478 -1.51594,-0.45478 -1.51594,-0.45478 0,0 -0.30319,0 -0.22739,0.45478 0.0758,0.45478 0.45479,1.97072 0.45479,1.97072 0,0 0.68217,1.212745 0.45477,1.743325 -0.22738,0.53058 -1.36434,0.83376 -0.37898,0.90956 0.98536,0.0758 0.90957,-0.15159 0.90957,0.53058 0,0.68217 0,1.06116 0.60637,0.98536 0.60638,-0.0758 1.06116,0.60638 0.99366,0.52359 z m 7.39632,-6.645975 c -0.32158,-0.37518 -0.16079,-0.32158 -0.26798,-0.69676 -0.10719,-0.37517 0.0536,-0.42876 0.0536,-0.80394 0,-0.37518 0.0536,-0.53597 0.21439,-1.01834 0.16079,-0.48237 -0.85754,-0.91113 -0.85754,-1.28631 0,-0.37518 -0.64316,-0.85755 -0.75036,-1.07193 -0.10719,-0.21439 -0.42877,-0.48237 -0.80394,-0.42878 -0.37518,0.0536 -0.37518,0.26799 -0.80395,0.48237 -0.42878,0.21439 -0.42878,-0.10719 -0.75036,-0.37517 -0.32157,-0.26798 -0.26798,-0.58956 -0.26798,-1.17912 0,-0.58957 0.0536,-0.32158 0.26798,-0.58957 0.2144,-0.26798 0.26799,-0.21439 0.58957,-0.58956 0.32158,-0.37517 0.16079,-0.26798 0.16079,-0.64316 0,-0.37518 0,-0.69676 -0.16079,-1.12552 -0.16079,-0.42878 -0.58957,-0.1072 -0.75035,-0.53597 -0.16079,-0.42877 -0.21439,-0.32158 -0.48237,-0.48237 -0.26799,-0.16079 -0.37517,-0.0536 -0.96474,-0.10719 -0.58956,-0.0536 -0.16079,-0.37518 -0.21438,-0.58956 -0.0536,-0.21439 -0.0536,-0.32158 -0.16079,-0.91115 -0.1072,-0.58956 -0.37518,-0.16079 -0.69676,-0.10719 -0.32158,0.0536 -0.42877,0.0536 -0.53597,-0.48237 -0.10719,-0.53596 0,-0.32158 -0.0536,-0.58956 -0.0536,-0.26798 -0.10719,-0.26798 -0.48237,-0.85755 -0.37517,-0.58956 0.0536,-0.26798 0.48237,-0.58956 0.42877,-0.32157 0.37518,-0.48237 0.75035,-0.75035 0.37518,-0.26798 0,-0.37518 -0.10719,-0.80394 -0.10719,-0.42878 -0.32158,-0.53597 -0.32158,-0.53597 0,0 -0.37517,0.10719 -1.01833,0.10719 -0.64316,0 -0.58957,-0.10719 -0.91115,-0.53596 -0.32158,-0.42877 0.0536,-0.42877 0.53597,-0.80395 0.48237,-0.37518 0.32158,-0.58956 0.80395,-1.12552 0.48237,-0.53597 0.75035,-0.48238 1.33991,-0.58957 0.58956,-0.10719 0.32158,-0.42877 0.58956,-1.07193 0.26799,-0.64316 0.37518,-0.75035 0.53597,-1.12553 0.16079,-0.37517 0.48237,-0.85754 0.58956,-1.5543 0.1072,-0.69675 0.98533,0.46026 2.80445,-0.14612 1.81913,-0.60638 1.81913,0 1.81913,0 0,0 0.90956,1.51594 -0.60638,2.12231 -1.51593,0.60638 -0.60637,3.03188 -0.60637,3.03188 l 0.44812,0.03 c 0,0 0.53597,-0.42878 0.96474,-0.48237 0.42877,-0.0536 0.37518,0.21438 0.91114,0.21438 0.53597,0 0.42877,-0.32158 1.07193,-0.75035 0.64316,-0.42877 0.48237,0.48237 0.48237,0.85755 0,0.37517 0.85755,1.4471 0.85755,1.4471 l -0.21439,0.37517 c 0,0 -0.37518,0.2144 -0.37518,0.80396 0,0.58956 -0.16079,0.42877 -0.26798,0.69675 -0.10719,0.26798 -0.32158,0.26798 -0.58956,0.42877 -0.26798,0.16079 0.0536,0.26799 0.16079,0.80395 0.10719,0.53596 -0.0536,0.26798 -0.32158,0.32158 -0.26798,0.0536 -0.53597,0.0536 -0.75035,0.42877 -0.21439,0.37518 -0.0536,0.42877 -0.37518,0.85754 -0.32158,0.42878 -0.26798,0.26799 -0.96474,0.48238 -0.69675,0.21438 -0.37517,0.21438 -0.21438,1.01832 0.16079,0.80396 0.69675,-0.26798 1.66149,-0.37516 0.96474,-0.1072 0.75035,0 1.39351,0 0.64316,0 0.37517,0.0536 0.80395,0.37516 0.42877,0.32158 0.10719,0.48238 0.32158,0.85755 0.21438,0.37518 0.42877,0.16079 0.69675,0.53597 0.26798,0.37517 0,0.75035 0,1.28631 0,0.53597 0,0.48237 0,0.48237 0,0 0.64316,1.92948 1.5007,2.41184 0.85755,0.48238 0.53597,0.48238 0.91114,0.80395 0.37518,0.32158 1.07193,2.09027 1.28632,2.35825 0.21439,0.26798 0.21439,0.48237 0.32158,1.44711 0.10719,0.96474 0,0.75035 -0.10719,1.12553 -0.1072,0.37517 -0.16079,0.32158 -0.32158,0.91114 -0.16079,0.58956 0,0.69675 0,0.91114 0,0.21438 0.32158,0.37517 1.3935,-0.1608 1.07194,-0.53596 0.64316,-0.37517 1.33992,-0.58956 0.69675,-0.21438 0.53597,-0.26798 1.17913,-0.10719 0.64315,0.16079 0.53596,0.26799 1.12552,0.85755 0.58956,0.589555 0.21439,0.696745 0.37518,1.125515 0.16079,0.42877 -0.0536,0.37518 -0.21439,0.80395 -0.16079,0.42878 -0.16079,0.37518 -0.42877,0.91114 -0.26798,0.53597 -0.1072,0.42878 -0.32158,0.75035 -0.21438,0.32158 -0.37518,0.16079 -1.01834,0.32158 -0.64315,0.16079 -0.53596,0.53597 -0.85754,0.85755 -0.32158,0.32157 -0.21439,0.42877 -0.26798,0.69675 -0.0536,0.26798 0.26798,0.75035 0.26798,0.75035 0,0 0.48237,0.21439 0.75035,0.48237 0.26799,0.26798 0.16079,0.48237 -0.16079,1.01833 -0.32158,0.53597 -0.42877,0.26799 -1.07193,0.53597 -0.64316,0.26799 -0.85754,0 -1.5007,-0.0536 -0.64316,-0.0536 -0.58956,0.21439 -1.5007,0.53596 -0.91115,0.32158 -0.85755,0.0536 -1.5543,0 -0.69676,-0.0536 -0.64316,-0.0536 -1.33992,0 -0.69675,0.0536 -0.64316,0.26799 -1.4471,0.75036 -0.80395,0.48236 -0.48237,0 -0.75035,-0.21439 -0.26798,-0.21439 -0.42877,-0.26798 -0.80395,-0.64316 -0.37517,-0.37517 -0.37517,-0.21438 -0.69675,-0.10719 -0.32158,0.10719 -1.01834,1.33992 -1.50071,1.5543 -0.48237,0.21438 -0.53596,0.10719 -1.23272,0.10719 -0.69675,0 -0.48237,0 -0.80395,0.0536 -0.32157,0.0536 -0.53596,0.58956 -0.96473,1.07193 -0.42878,0.48237 -0.32158,0.16079 -1.12553,0.26798 -0.80395,0.1072 -0.75035,-0.0536 -0.85754,-0.26798 -0.1072,-0.21438 0.10719,-0.21438 0.37517,-0.58956 0.26798,-0.37518 0.75035,-1.07193 1.07193,-1.6079 0.32158,-0.53596 0.48237,-0.26798 1.28632,-0.75035 0.80395,-0.48236 0.16079,-0.21438 0.53596,-1.01833 0.37518,-0.80395 0.42877,-0.80395 1.23272,-1.07193 0,0 0.34663,-0.70973 -0.33554,-1.08871 -0.68217,-0.379 -0.98536,-0.22741 -1.66753,-0.53059 -0.68218,-0.30319 -1.21275,-0.1516 -1.06116,-0.56848 0.68217,-0.79587 0.83377,-1.17485 1.06116,-1.55384 0.22739,-0.37898 0.0758,-0.75797 0.37898,-0.75797 0.30319,0 0.45478,0.1516 0.83377,-0.0758 0.37898,-0.22739 0.45478,-0.37899 0.45478,-0.83377 0,-0.454775 -0.0758,-0.606375 0.0758,-1.061155 0.15159,-0.45478 0.60637,-0.83376 0.22739,-1.13695 -0.37899,-0.30319 -0.0758,-0.22739 -0.53058,-0.37899 -0.45478,-0.15159 -0.75797,-0.45478 -0.75797,-0.45478 l 0.15159,-0.60637 0.1137,-1.06116 c 0,0 0.1137,0.0758 0.87166,0.37899 0.75797,0.30318 1.21276,1.28854 1.21276,1.28854 0.16114,0.2864 0.39505,0.27867 0.20391,-0.13443 z"/>
    </g>
</svg>