<svg xmlns:inkscape="http://www.inkscape.org/namespaces/inkscape" xmlns:sodipodi="http://sodipodi.sourceforge.net/DTD/sodipodi-0.dtd" xmlns="http://www.w3.org/2000/svg" xmlns:svg="http://www.w3.org/2000/svg" width="440mm" height="300mm" viewBox="0 0 440 300" version="1.1" id="SVGRoot" sodipodi:docname="all.svg" inkscape:version="1.1.1 (3bf5ae0d25, 2021-09-20, custom)">
  <sodipodi:namedview id="namedview345" pagecolor="#ffffff" bordercolor="#666666" borderopacity="1.0" inkscape:pageshadow="2" inkscape:pageopacity="0.0" inkscape:pagecheckerboard="0" inkscape:document-units="mm" showgrid="false" inkscape:zoom="42.728027" inkscape:cx="440.9986" inkscape:cy="1082.9777" inkscape:window-width="1916" inkscape:window-height="1030" inkscape:window-x="0" inkscape:window-y="0" inkscape:window-maximized="1" inkscape:current-layer="layer1"/>
  <defs id="defs340"/>
  <g inkscape:label="Warstwa 1" inkscape:groupmode="layer" id="layer1">
    <path style="font-style:normal;font-variant:normal;font-weight:normal;font-stretch:normal;letter-spacing:normal;word-spacing:normal;text-anchor:start;display:inline;fill:none;fill-opacity:1;fill-rule:evenodd;stroke:#ff0000;stroke-width:0.606375;marker-start:none;marker-mid:none;enable-background:new" d="m 177.38912,54.369075 c 0,0 1.21275,1.13695 1.51595,0.53057 0.30318,-0.60637 -0.37899,-1.36434 0.53058,-0.68217 0.90955,0.68217 0.83376,0.45478 1.13695,0.83377 0.30319,0.37898 2.12231,-0.90957 1.44014,0.30319 -0.68218,1.21275 -1.13695,1.66753 -0.68218,1.59174 0.45479,-0.0758 -0.0758,-0.45479 0.53059,0.30319 0.60637,0.75796 0.53057,1.36433 1.36434,0.68217 l 0.75796,-2.34971 c 0,0 2.12233,0.0758 1.97072,0.83376 -0.15158,0.75797 -0.68217,0.68217 0.45479,0.0758 1.13695,-0.60638 0.53058,-1.66753 1.28855,-0.98536 0.75797,0.68217 1.13696,1.36434 1.44014,0.68217 0.30319,-0.68217 -0.68217,-1.44014 0.22739,-1.28855 0.90956,0.1516 0.98536,0.98536 1.51594,0 0.53058,-0.98535 -0.0758,-1.51593 0.75797,-1.36434 0.83377,0.15159 0.45478,0.37899 1.06116,-0.15159 0.60637,-0.53058 0.45478,-1.06116 1.06115,-0.53058 0.60638,0.53058 0.60638,0.75797 0.60638,0.75797 0,0 1.21275,0.15159 1.51593,0.30319 0.30319,0.15159 -0.15158,-0.60638 0.1516,0.60637 0.30319,1.21275 0.37899,1.59174 0.75797,1.44014 0.37898,-0.15159 0.60638,-0.68217 0.60638,0.30319 0,0.98537 -0.68217,1.28855 0.22738,1.13695 0.90957,-0.15158 1.13696,-0.22739 1.21275,0.45478 0.0758,0.68218 0.45479,1.21276 0.45479,1.21276 0,0 0.0758,0.53058 0,0.83377 -0.0758,0.30318 -0.22739,0.45477 -0.0758,0.83376 0.1516,0.37898 0.30319,0.98536 0,1.13696 -0.30319,0.15159 -0.75797,0.45477 -1.28855,0.53057 -0.53057,0.0758 -0.83376,0.45478 -0.98536,0.83377 -0.15159,0.37898 0.45479,0.15159 -0.22738,0.98536 -0.68218,0.83376 -0.45479,0.98536 -0.90957,1.13695 -0.45478,0.1516 -0.98536,0.45478 -0.98536,0.45478 l -2.04651,0.30319 -0.45479,-0.83377 c 0,0 -0.30318,-0.68217 -0.60637,-0.37897 -0.30319,0.30318 0.0758,0.90955 -0.22739,0.98536 -0.30319,0.0758 -1.06116,-1.28856 -1.06116,-0.68218 0,0.60637 0.37899,1.66754 0.37899,1.66754 0,0 0.0758,0.90955 -0.30319,1.06115 -0.37899,0.15159 -0.37899,0.60638 -1.36435,0.68217 -0.98536,0.0758 -1.06115,0.53058 -1.59174,0.60637 -0.53058,0.0758 -0.68217,1.13696 -1.66753,0.37899 -0.98536,-0.75796 -3.71405,-1.97072 -4.24463,-1.81913 -0.53057,0.1516 -0.75796,0.37899 -1.81912,0.0758 -1.06116,-0.3032 -1.51594,0.37897 -1.74333,-0.0758 -0.22739,-0.45478 -0.30319,0.22739 -0.0758,-0.83376 0.22739,-1.06115 1.21275,-1.59174 1.21275,-1.59174 0,0 0.37899,-0.22739 0.30319,-0.60637 -0.0758,-0.37899 0,-0.53058 -0.45479,-0.60638 -0.45478,-0.0758 -0.30318,-0.30319 -0.53057,-0.90956 -0.22739,-0.60638 -0.45478,-0.53058 -1.06115,-0.37899 -0.60638,0.1516 -0.75798,0.83377 -1.44015,0.0758 -0.68217,-0.75797 -0.98536,-0.60638 -0.68217,-1.06115 0.30318,-0.45479 0.22739,-0.60638 0.98535,-0.75798 0.75798,-0.15159 0.83378,0.60638 1.13697,-0.30319 0.30318,-0.90955 0.60637,-1.28854 0.60637,-1.28854 0,0 -0.30319,-0.1516 -0.83376,-0.0758 -0.53059,0.0758 -0.37899,0.68217 -0.98537,-0.53057 -0.60638,-1.21276 -1.28855,-1.21276 -1.28855,-1.21276 0,0 -0.15159,0 0.2274,-0.60638 0.37898,-0.60637 0.75796,-0.60637 1.13694,-1.21275 0.37899,-0.60637 -0.30318,-1.13695 0.2274,-1.66753 0.53058,-0.53058 0.68218,-0.15159 0.68218,-0.15159 z" id="iceland" sodipodi:nodetypes="csssssss"/>
    </g>
</svg>