<svg xmlns:inkscape="http://www.inkscape.org/namespaces/inkscape" xmlns:sodipodi="http://sodipodi.sourceforge.net/DTD/sodipodi-0.dtd" xmlns="http://www.w3.org/2000/svg" xmlns:svg="http://www.w3.org/2000/svg" width="440mm" height="300mm" viewBox="0 0 440 300" version="1.1" id="SVGRoot" sodipodi:docname="all.svg" inkscape:version="1.1.1 (3bf5ae0d25, 2021-09-20, custom)">
  <sodipodi:namedview id="namedview345" pagecolor="#ffffff" bordercolor="#666666" borderopacity="1.0" inkscape:pageshadow="2" inkscape:pageopacity="0.0" inkscape:pagecheckerboard="0" inkscape:document-units="mm" showgrid="false" inkscape:zoom="42.728027" inkscape:cx="440.9986" inkscape:cy="1082.9777" inkscape:window-width="1916" inkscape:window-height="1030" inkscape:window-x="0" inkscape:window-y="0" inkscape:window-maximized="1" inkscape:current-layer="layer1"/>
  <defs id="defs340"/>
  <g inkscape:label="Warstwa 1" inkscape:groupmode="layer" id="layer1">
    <path id="india" style="display:inline;overflow:visible;visibility:visible;fill:none;fill-opacity:1;fill-rule:evenodd;stroke:#ff0000;stroke-width:0.606375;marker:none;marker-start:none;marker-mid:none;marker-end:none;enable-background:accumulate" d="m 315.28681,128.95325 c 0,0.52728 -0.6591,1.51594 -1.38412,2.30686 -0.72501,0.79092 -2.96596,0.46138 -2.96596,0.46138 0,0 -1.64776,-0.92275 -2.24096,-1.51595 -0.59319,-0.59319 -1.12048,-0.0659 -2.04322,0 -0.92275,0.0659 -0.85684,1.77958 -1.12047,2.37278 -0.26365,0.59319 -1.18639,0.39546 -1.64776,0.32955 -0.46138,-0.0659 -1.8455,0.39546 -2.17505,0.46137 -0.32955,0.0659 -0.32955,0.79093 -0.32955,1.2523 0,0.46137 -1.38412,1.38411 -1.64776,2.10913 -0.26364,0.72502 -1.94435,1.02161 -1.87844,0.92275 0.0659,-0.0989 -0.23752,1.38489 -0.22654,1.37391 0.011,-0.011 0.0296,1.00995 -0.51266,4.98681 -0.2266,1.66177 0.82056,0.72636 1.21175,1.67781 0.30076,0.7315 0.27963,1.21174 0.27963,1.6778 0,0.46605 0.27963,1.30495 0.74569,2.05065 0.46606,0.74569 0.18642,0.74569 0.18642,1.49138 0,0.74569 0.93212,1.30496 1.49139,1.86423 0.55926,0.55927 0.18642,1.49137 -0.18643,2.23707 -0.37284,0.74569 0.74569,0.8389 0.83891,1.77101 0.0932,0.93211 0.69842,3.32665 0.74785,3.40904 0.47821,0.0824 0.87402,-0.51948 1.30279,-0.62668 0.42878,-0.10719 1.82229,-0.53596 2.03667,0.21439 0.21439,0.75035 0.1072,1.92948 0.32158,2.35824 0.21439,0.42878 1.6079,0.96474 1.6079,0.96474 0,0 0.42877,0 0.85754,0 0.42877,0 0.64316,-0.53596 0.75035,0.21439 0.1072,0.75035 -0.10719,1.07193 0.1072,1.5007 0.21438,0.42878 1.60789,0.42878 1.60789,0.42878 0,0 1.39352,0 0.75036,0.64316 -0.64316,0.64315 -1.07193,0.75034 -1.28632,1.17912 -0.21439,0.42877 -0.64316,0.53596 -0.10719,0.75035 0.53596,0.21438 0.42877,-0.32158 0.85754,0.42877 0.42877,0.75035 0.32158,0.53597 0.64316,0.96473 0.32157,0.42878 -0.21439,0.53597 0.75035,0.64316 0.96474,0.1072 1.28632,0 1.28632,0 l 0.42877,-1.07192 c 0,0 0.53596,-0.75036 0.96474,0.10718 0.42876,0.85755 0.005,0.83916 -0.10181,1.91109 -0.10719,1.07193 -0.21439,2.13086 -0.21439,2.88121 0,0.75035 -0.45478,1.17912 -0.34758,1.92947 0.10719,0.75036 0.25878,1.22353 0.25878,2.08107 0,0.85754 0.83376,0.52296 0.83376,1.27331 0,0.75036 -0.10718,0.96474 0.32158,1.39351 0.42878,0.42878 0.89434,1.36212 0.89434,1.79089 0,0.42877 0.41576,0.59876 0.41576,1.34911 0,0.75035 -0.0314,1.43791 0.39738,1.6523 0.42877,0.21438 1.12933,0.33458 1.12933,1.19213 0,0.85754 0.70056,1.77788 0.70056,1.77788 0,0 0.33998,0.77636 0.33998,1.20513 0,0.42877 0.73196,0.67994 0.73196,1.10871 0,0.42877 0.85754,0 1.39351,2.89421 0.53596,2.89422 0.85754,1.07193 1.71509,3.53737 0.85754,2.46545 1.28631,3.10861 1.82228,3.10861 0.53596,0 1.17912,-0.2144 1.28632,-0.75036 0.10719,-0.53596 0,-0.53596 0.53596,-0.75035 0.53597,-0.21438 0.42877,-0.10719 0.53597,-0.75035 0.10719,-0.64316 -0.42878,-0.75035 -0.21439,-1.17913 0.21439,-0.42877 -0.32158,-1.28631 0.53597,-1.28631 0.85754,0 1.5007,-0.75036 1.5007,-0.75036 0,0 -0.32158,-0.42877 -0.32158,-0.96473 0,-0.53597 -0.42878,1.07193 0,-1.28632 0.42877,-2.35824 0.64316,-2.78702 0.53596,-4.18053 -0.10719,-1.3935 -0.64316,-0.75034 0,-2.57263 0.64316,-1.82228 0.96474,-0.96474 0.96474,-2.35825 0,-1.3935 0.64316,-2.89421 0.75035,-3.75175 0.1072,-0.85755 0.42878,-0.21439 0.42878,-1.17913 0,-0.96473 -0.53597,-1.5007 0.10718,-2.14386 0.64316,-0.64316 1.50071,-0.85754 1.50071,-1.6079 0,-0.75034 0,-1.07192 0,-1.60789 0,-0.53596 0.21438,-1.6079 0.21438,-1.6079 0,0 1.39352,-0.10719 1.07194,-0.75035 -0.32158,-0.64316 -0.21439,-1.3935 0,-1.92947 0.21438,-0.53597 0.84781,-2.78011 1.75737,-2.17374 0.90956,0.60638 1.21275,0.60638 1.21275,0.60638 0,0 0.83377,-0.83377 0.75797,-1.21275 -0.0758,-0.37899 0.30319,-1.06116 0.30319,-1.06116 0,0 0.15159,-1.06116 0.45478,-1.13696 0.30319,-0.0758 1.74334,-0.15159 1.74334,-0.15159 0,0 -0.24524,-2.32243 0.31403,-2.36904 0.55928,-0.0466 0.83889,0.0466 0.97872,-0.55926 0.13981,-0.60587 0.60587,-1.21175 0.9321,-1.35157 0.32626,-0.13981 0.41947,-1.58459 0.41947,-1.58459 l 1.07194,-0.37284 c 0,0 0.27961,-2.37689 0.69908,-2.79635 0.41944,-0.41945 1.02531,-1.53798 1.02531,-1.53798 0,0 -1.53799,-4.24112 -1.77101,-4.47415 -0.23302,-0.23302 -5.91892,-0.32624 -5.96553,-0.13981 -0.0466,0.18642 -0.69908,1.07192 -0.97871,1.07192 -0.27964,0 -1.02533,-0.79229 -1.02533,-0.79229 0,0 0.23303,-2.19047 0.0466,-2.4235 -0.18642,-0.23302 -1.77101,-0.8389 -1.95744,-0.74569 -0.18642,0.0932 -0.55927,1.30497 -0.8389,1.30497 -0.27963,0 -2.23707,-1.07194 -2.4235,-1.81763 -0.18642,-0.74569 0.37285,-0.74569 -0.46605,-0.79229 -0.8389,-0.0466 -0.18642,0.8389 -1.44478,0.55926 -1.25835,-0.27963 -1.39817,-0.46605 -1.58459,-0.65248 -0.18642,-0.18642 -0.74569,-0.88551 -1.39817,-0.88551 -0.65248,0 -1.95743,-0.69908 -2.05065,-0.93211 -0.0932,-0.23303 -0.32624,-0.51266 -0.51266,-0.74569 -0.18643,-0.23303 -0.18643,-1.02532 -0.46606,-1.25835 -0.27964,-0.23303 -1.25836,0.55927 -1.49138,0.60587 -0.23303,0.0466 -1.02533,-0.27963 -0.88551,-0.74569 0.13982,-0.46606 0.37285,-1.07193 0.65248,-1.21175 0.27964,-0.13982 0.8389,-0.60587 0.88551,-0.93211 0.0466,-0.32624 0.23303,-0.46606 0.32624,-1.21175 0.0932,-0.74569 -0.32624,-2.4701 -0.41945,-3.02936 -0.0932,-0.55928 -0.0932,-2.28369 -0.0932,-2.28369 0,0 0.0466,-0.65247 0.0466,-0.8389 0,-0.18642 0.13981,-0.60587 0.13981,-0.60587 0,0 -0.8389,0.23303 -1.02532,0.27963 -0.18643,0.0466 -2.05065,0.0466 -2.23707,0.0466 -0.18643,0 -1.21175,-0.55927 -1.25836,-0.74568 -0.0466,-0.18643 -0.13981,-1.25836 -0.23302,-1.44478 -0.0932,-0.18642 -0.13982,-0.83891 -0.32625,-0.65248 l -0.8389,1.21175 0.0466,0.0932 c -1.16514,0.60587 -1.81762,0.37284 -1.86795,0.27237 z" sodipodi:nodetypes="cscscssscsssssssssscsssssssssscsssssssssssccsssssscssscssscssssssssscssssssscsssssccscssscssssssssssssssssscscsssss"/>
    </g>
</svg>