<svg xmlns:inkscape="http://www.inkscape.org/namespaces/inkscape" xmlns:sodipodi="http://sodipodi.sourceforge.net/DTD/sodipodi-0.dtd" xmlns="http://www.w3.org/2000/svg" xmlns:svg="http://www.w3.org/2000/svg" width="440mm" height="300mm" viewBox="0 0 440 300" version="1.1" id="SVGRoot" sodipodi:docname="all.svg" inkscape:version="1.1.1 (3bf5ae0d25, 2021-09-20, custom)">
  <sodipodi:namedview id="namedview345" pagecolor="#ffffff" bordercolor="#666666" borderopacity="1.0" inkscape:pageshadow="2" inkscape:pageopacity="0.0" inkscape:pagecheckerboard="0" inkscape:document-units="mm" showgrid="false" inkscape:zoom="42.728027" inkscape:cx="440.9986" inkscape:cy="1082.9777" inkscape:window-width="1916" inkscape:window-height="1030" inkscape:window-x="0" inkscape:window-y="0" inkscape:window-maximized="1" inkscape:current-layer="layer1"/>
  <defs id="defs340"/>
  <g inkscape:label="Warstwa 1" inkscape:groupmode="layer" id="layer1">
    <path id="indonesia" style="display:inline;fill:none;fill-opacity:1;fill-rule:evenodd;stroke:#ff0000;stroke-width:0.606375;enable-background:new" d="m 361.80305,235.59953 c 0.5306,0.83377 0.22739,0.98536 1.44016,0.98536 1.21274,0 1.97072,-0.22739 2.65289,-0.0758 0.68215,0.1516 0.37897,0.37899 1.13695,0.30319 0.75797,-0.0758 1.44015,-0.53058 2.04652,-0.60637 0.60637,-0.0758 1.36432,-0.1516 1.81912,0 0.45479,0.15159 1.13696,0.68217 1.97072,0.75797 0.83375,0.0758 2.7287,0.0758 3.03189,0.15159 0.30318,0.0758 1.28854,0.83376 1.74331,0.30319 0.45479,-0.53058 0.60637,-0.37899 0.75798,-1.21275 0.15158,-0.83377 0.15158,-1.28855 -0.37899,-1.44014 -0.53057,-0.1516 -0.15158,-0.45479 -1.44013,-0.53058 -1.28855,-0.0758 -1.66753,-0.2274 -2.04652,-0.37899 -0.37899,-0.15159 -0.98537,-0.75797 -1.44016,-0.90956 -0.45476,-0.1516 -1.74331,-0.68217 -2.57709,-0.68217 -0.83376,0 -2.50129,-0.1516 -3.33505,-0.1516 -0.83378,0 -0.98536,-0.37898 -1.89494,0.30319 -0.90956,0.68217 -1.66751,0.98536 -2.19811,1.36434 -0.53057,0.37899 -0.37899,0.0758 -0.60637,0.83377 -0.22738,0.75797 -0.45479,1.13695 -0.68218,0.98536 z m 14.17402,-4.9268 c 0.30319,-1.06116 0.0758,-0.90956 0.15161,-1.81913 0.0758,-0.90956 0.30319,-0.68217 0.68217,-1.28854 0.37899,-0.60638 0.15158,-1.59174 0.83376,-0.45479 0.68217,1.13696 0.45479,1.59174 1.28855,2.27391 0.83378,0.68218 0.98536,1.44014 1.66753,0.75797 0.68218,-0.68217 1.97073,-1.36434 1.21275,-2.19811 -0.75795,-0.83377 -1.21275,0 -1.28855,-1.97072 -0.0758,-1.97072 -0.15158,-2.65289 -0.68218,-2.57709 -0.53056,0.0758 -0.98533,0.83376 -1.06113,-0.2274 -0.0758,-1.06115 -0.37899,-2.3497 0.45476,-2.4255 0.83378,-0.0758 1.66754,0.45478 2.19813,-0.53058 0.53057,-0.98536 1.13695,-1.28854 0.15158,-1.44014 -0.98536,-0.15159 -1.74334,-0.30319 -2.2739,-0.22739 -0.53057,0.0758 -0.90956,0.0758 -0.83376,-0.37898 0.0758,-0.45479 -0.53059,-0.90957 0.53057,-0.90957 1.06116,0 0.83375,0.22739 1.81912,0.1516 0.98536,-0.0758 1.97072,-0.60638 2.2739,-0.90957 0.30319,-0.30318 0.68218,-1.66753 1.13697,-1.97072 0.45477,-0.30318 0.75798,-0.53057 0.68218,-0.90956 -0.0758,-0.37899 -0.22741,-0.68217 -0.68218,-0.83377 -0.45479,-0.15159 -1.21274,-0.30318 -1.44015,0 -0.22738,0.30319 -0.75795,1.13696 -1.28855,1.36435 -0.53057,0.22739 -3.10766,0.0758 -3.71403,0.37898 -0.60638,0.30319 -1.13697,0.68217 -1.51596,0.90957 -0.37896,0.22739 -1.21275,0.60637 -1.06114,1.51594 0.15158,0.90956 0.15158,1.66753 0.15158,2.04651 0,0.37899 -0.75795,1.44014 -0.90956,1.81913 -0.15158,0.37898 0.0758,1.51594 -0.15158,2.04652 -0.22741,0.53058 -0.37899,0.22739 -0.37899,0.98536 0,0.75796 -0.1516,0.90956 0.0758,1.44014 0.22741,0.53058 0.6064,0.53058 0.37899,1.28854 -0.22738,0.75797 -0.60637,0.30319 -0.30319,1.13696 0.30319,0.83376 0.68218,0.53058 0.75798,1.28855 0.0758,0.75797 -0.1516,1.06116 0,1.66753 0.15158,0.60637 1.21275,0.0758 1.13694,0 z m -6.36693,-3.86564 c 0,0 -0.15158,-0.75797 1.13697,-2.04652 1.28854,-1.28855 1.66751,-1.36434 1.66751,-2.65289 0,-1.28855 -0.0758,-1.21275 -0.68215,-1.81913 -0.6064,-0.60638 -1.44016,-0.98536 -0.68218,-1.89492 0.75796,-0.90957 0.68218,-1.13696 1.66751,-1.36435 0.98536,-0.22739 1.97073,-1.66753 2.04653,-2.19811 0.0758,-0.53058 0.15161,-0.83376 -0.0758,-1.51594 -0.22739,-0.68217 -0.83376,-1.89492 -0.90956,-2.72869 -0.0758,-0.83376 -0.15158,-1.44014 -0.0758,-2.04652 0.0758,-0.60637 0.6064,-0.60637 1.28855,-1.44014 0.68218,-0.83376 0.83378,-0.45478 0.83378,-1.66753 0,-1.21275 -0.0758,-2.72869 -0.45479,-3.03188 -0.37899,-0.30318 -0.53057,-0.15159 -1.36435,-0.45478 -0.83375,-0.30319 -1.21274,-1.06115 -2.34968,-1.74333 -1.13697,-0.68217 -1.89492,-0.75797 -2.12233,-0.37898 -0.22739,0.37898 0.22741,-0.90956 -0.22739,0.98536 -0.45479,1.89492 -0.37899,2.3497 -0.90955,2.72869 -0.5306,0.37898 -1.36435,0.60637 -1.59174,1.36434 -0.22741,0.75797 0.60637,1.28855 -0.60637,2.5771 -1.21277,1.28855 -3.41088,3.71405 -5.00261,4.01724 -1.59173,0.30318 -2.7287,0.68217 -2.7287,1.21275 0,0.53057 0.68218,1.21275 0.5306,1.81912 -0.15161,0.60638 -1.21275,1.21275 -1.06117,1.51594 0.15161,0.30319 0.53057,0 0.83378,0.68218 0.30319,0.68217 0.30319,2.80448 0.30319,2.80448 l 1.44013,1.59174 c 0,0 -1.06117,1.59173 -0.53057,2.04651 0.53057,0.45479 0.75795,0.53058 1.36435,1.21275 0.60637,0.68218 1.36432,1.44015 2.27391,1.51594 0.90955,0.0758 1.44012,0.53058 2.1223,0.83377 0.68217,0.30319 0.90956,0 1.74334,-0.0758 0.83375,-0.0758 2.34968,0.22739 2.1223,0.1516 z m -14.31795,-10.32113 0.42875,-1.07193 c 0,0 0.10721,1.17912 0.2144,1.82228 0.1072,0.64316 -0.2144,1.50071 0.1072,1.92948 0.32158,0.42877 0.10719,0.64315 0,1.28631 -0.1072,0.64316 0.42876,1.71509 0.42876,1.71509 l 0.78394,0.92585 0.83378,0.15159 c 0,0 0.37896,0.53058 0.53057,0.90956 0.1516,0.37899 0.68217,0.60638 0.68217,0.60638 0,0 0,0.83377 0,1.36434 0,0.53058 -0.60637,0.83377 0.0758,0.98536 0.68218,0.1516 1.51593,0.1516 1.97073,0.1516 0.45476,0 0.30318,0.22739 0.60637,0.83377 0.30319,0.60637 0.60637,0.68217 0.68217,1.51593 0.0758,0.83377 0.0758,1.44014 -0.2274,1.81913 -0.30319,0.37898 -0.0758,0.68217 -0.45477,1.13695 -0.37899,0.45478 -0.98536,0.53058 -1.44015,0.60638 -0.45477,0.0758 -0.60638,0.0758 -0.75798,0.60637 -0.15158,0.53058 0.98536,1.06116 -0.45477,0.98537 -1.44015,-0.0758 -1.36435,0.30318 -1.66753,-0.45479 -0.30319,-0.75797 0.53056,-1.06116 -0.53057,-1.44014 -1.06117,-0.37898 -0.15161,1.13695 -1.74334,-0.98536 -1.59174,-2.12231 -2.12231,-0.68217 -2.34972,-2.5771 -0.22738,-1.89492 -0.90955,-2.3497 -1.81911,-3.78984 -0.90956,-1.44014 -1.28855,-2.4255 -2.04653,-2.65289 -0.75795,-0.2274 -1.06113,0.68217 -1.44012,-0.30319 -0.37899,-0.98536 -0.37899,-0.45478 -0.37899,-1.59174 0,-1.13695 -0.0758,-1.06116 -0.60638,-2.12231 -0.53059,-1.06116 -0.60637,-0.98536 -0.90955,-2.12231 -0.30322,-1.13696 -0.15161,-0.60638 -1.51596,-2.34971 -1.36435,-1.74333 -1.51593,-1.89492 -2.72867,-2.80449 -1.21276,-0.90956 -1.51595,-1.06116 -1.44016,-2.27391 0.0758,-1.21275 -0.75797,-2.4255 0,-2.65289 0.75798,-0.22739 0.90956,-0.45478 1.66754,0 0.75798,0.45478 0.83375,0.98536 1.44015,1.13696 0.60637,0.15159 0.98534,0.0758 1.44013,0.0758 0.45479,0 0.30319,-0.60637 1.06116,0.30319 0.75796,0.90956 0.90956,0.90956 1.28855,1.74333 0.37899,0.83377 0.37899,1.13695 0.75795,1.59174 0.37899,0.45478 0.68218,0.45478 1.06117,0.22739 0.37899,-0.22739 0.75798,-0.90957 0.98536,-0.45479 0.22738,0.45479 0.22738,0.68218 0.37899,0.98537 0.1516,0.30318 0.60637,-0.68218 0.60637,0.60637 0,1.28855 -0.45477,1.89492 0.22738,1.44014 0.68218,-0.45478 1.36435,-0.90956 1.36435,-0.90956 0,0 -0.0758,-0.22739 0.22739,0.53058 0.30321,0.75797 0.37898,1.44014 1.06116,1.74333 0.68218,0.30318 0.90956,0.30318 0.90956,0.30318 z"/>
    </g>
</svg>