<svg xmlns:inkscape="http://www.inkscape.org/namespaces/inkscape" xmlns:sodipodi="http://sodipodi.sourceforge.net/DTD/sodipodi-0.dtd" xmlns="http://www.w3.org/2000/svg" xmlns:svg="http://www.w3.org/2000/svg" width="440mm" height="300mm" viewBox="0 0 440 300" version="1.1" id="SVGRoot" sodipodi:docname="all.svg" inkscape:version="1.1.1 (3bf5ae0d25, 2021-09-20, custom)">
  <sodipodi:namedview id="namedview345" pagecolor="#ffffff" bordercolor="#666666" borderopacity="1.0" inkscape:pageshadow="2" inkscape:pageopacity="0.0" inkscape:pagecheckerboard="0" inkscape:document-units="mm" showgrid="false" inkscape:zoom="42.728027" inkscape:cx="440.9986" inkscape:cy="1082.9777" inkscape:window-width="1916" inkscape:window-height="1030" inkscape:window-x="0" inkscape:window-y="0" inkscape:window-maximized="1" inkscape:current-layer="layer1"/>
  <defs id="defs340"/>
  <g inkscape:label="Warstwa 1" inkscape:groupmode="layer" id="layer1">
    <path id="irkutsk" style="display:inline;overflow:visible;visibility:visible;fill:none;fill-opacity:1;fill-rule:evenodd;stroke:#ff0000;stroke-width:0.606375;marker:none;marker-start:none;marker-mid:none;marker-end:none;enable-background:accumulate" d="m 379.57141,90.212555 -0.0536,0.58956 c 0,0 -0.54676,0.55586 -1.22891,0.36637 -0.68218,-0.1895 -1.13697,-0.41689 -1.21277,-0.94746 -0.0758,-0.53058 -0.75796,-0.79587 -0.75796,-0.79587 0,0 -0.94747,-0.0379 -0.98536,-0.34109 -0.0379,-0.30319 -0.18949,-0.53058 -0.30318,-1.47804 -0.11372,-0.94746 -0.0379,-1.17485 -0.41691,-1.17485 -0.37896,0 -0.83375,0.0758 -0.98536,-0.0758 -0.15158,-0.15159 -0.34107,-0.26529 -0.37896,-0.75797 -0.0379,-0.49268 -0.0758,-0.98536 -0.30319,-1.06116 -0.22741,-0.0758 -0.6064,-0.26529 -0.83378,-0.26529 -0.22738,0 -0.98536,0.1516 -1.06116,-0.15159 -0.0758,-0.30319 -0.15158,-0.72007 -0.0758,-1.02326 0.0758,-0.30318 0.18949,-0.49268 0.18949,-0.75797 0,-0.26529 -0.1516,-0.87166 -0.1516,-0.87166 0,0 -0.2653,0 -0.53057,-0.22739 -0.2653,-0.22739 -0.2653,-0.56848 -0.64429,-0.64428 -0.37896,-0.0758 -0.60637,-0.18949 -0.94744,0.1895 -0.3411,0.37898 -0.56849,0.72007 -0.75798,0.79586 -0.1895,0.0758 -1.32644,0.1895 -1.70543,0.1895 -0.37899,0 -0.94747,-0.2274 -0.94747,-0.2274 l -0.26527,-0.30318 c 0,0 -0.5306,-0.18949 -0.5306,0.0379 0,0.22739 0.1895,0.45478 0,0.75796 -0.18949,0.30319 -0.0758,0.30319 -0.49268,0.64428 -0.41687,0.34109 -0.68217,0.41688 -0.72006,0.68217 -0.0379,0.26529 -0.0379,0.37899 0.18949,0.64427 0.22739,0.26529 0.34108,0.1895 0.4548,0.53058 0.11369,0.34109 0.15158,0.41689 0.15158,0.79587 0,0.37899 0.0379,0.90956 -0.22739,1.13696 -0.26529,0.22739 -0.3411,0.18949 -0.53059,0.68217 -0.1895,0.49268 -0.34108,0.56848 -0.45477,0.79587 -0.11369,0.22739 -0.2653,0.34108 -0.0379,0.79586 0.22741,0.45479 0.45479,0.75797 0.6064,0.94747 0.15158,0.18949 0.34107,0.49268 0.18946,0.98535 -0.15158,0.49269 -0.18946,0.75798 -0.49268,1.06116 -0.30318,0.30319 -0.56845,0.94746 -0.79586,1.21275 -0.22739,0.26529 -0.15158,0.56848 -0.53057,0.37899 -0.37899,-0.18949 -0.64426,-0.53058 -0.68218,-0.68217 -0.0379,-0.1516 -0.0758,-0.30319 -0.18949,-0.75797 -0.11369,-0.45478 -0.26527,-1.02326 -0.34108,-1.17486 -0.0758,-0.15159 -1.03909,-0.66193 -1.28029,-0.17956 -0.24119,0.48236 -0.16079,0.93793 -0.53597,1.09873 -0.37517,0.16078 -0.45555,0.16078 -0.61637,0.40197 -0.16076,0.24119 -0.61635,0.91114 -0.96472,0.83075 -0.34838,-0.0804 -0.42879,-0.16079 -0.99153,-0.24119 -0.56277,-0.0804 -1.01835,-0.26798 -1.25952,0.0804 -0.2412,0.34837 -0.85754,0.85754 -1.28633,0.69676 -0.42878,-0.1608 -0.99152,-0.48238 -1.12551,-0.61637 -0.13401,-0.13399 -0.96475,-0.50916 -1.39353,-0.45557 -0.42876,0.0536 -0.42876,0.16079 -1.2595,0.10719 -0.83076,-0.0536 -1.6347,-0.37517 -2.17066,-0.37517 -0.53597,0 -1.92948,-0.69675 -2.35826,-0.61636 -0.42876,0.0804 -0.34838,0.0804 -0.80394,0.26798 -0.45558,0.18759 -0.77716,-0.10719 -0.96475,0.21439 -0.18759,0.32158 -0.18759,0.77715 -0.75033,0.69675 -0.56277,-0.0804 -0.85757,-0.0804 -1.07193,-0.29478 -0.2144,-0.21439 -0.37518,-0.53597 -0.37518,-0.53597 0,0 -0.34838,-0.13399 -0.56277,-0.0804 -0.21439,0.0536 -0.77715,0 -0.77715,0 0,0 -0.48237,-0.48236 -0.58956,-0.50917 -0.1072,-0.0268 -0.56277,-0.29477 -0.75036,-0.26798 -0.18758,0.0268 -0.99153,0.16079 -0.99153,0.16079 0,0 -1.17913,0.0804 -0.98455,0.34605 -1.02532,-0.37285 -0.37284,-0.27964 -1.02532,-0.55927 -0.65248,-0.27963 -0.18642,-0.8389 -0.55927,-1.77101 -0.37285,-0.93212 -0.55926,0.18641 -0.55926,0.18641 0,0 -0.74569,0 -1.02533,-1.11853 -0.27964,-1.11854 0.18643,-0.55927 0.37284,-1.49138 0.18643,-0.93211 -0.27963,-0.8389 -0.27963,-1.95744 0,-1.11854 0.65248,-0.65248 0.65248,-0.65248 0,0 0.18642,-1.02532 0.27964,-2.70313 0.0932,-1.6778 -0.8389,-0.46605 -1.21175,-1.30495 -0.37285,-0.83891 0,-0.74569 0.18642,-1.21175 0.18643,-0.46606 0.46606,-0.74569 1.02533,-1.67781 0.55926,-0.93211 0.37284,-0.46605 1.77101,-0.74569 1.39817,-0.27963 0.8389,-1.58459 1.95744,-1.95744 1.11854,-0.37284 0.37284,-0.18642 1.11854,0.55927 0.74569,0.74569 1.11853,-0.18642 2.05065,-0.37285 0.9321,-0.18642 0.74567,-0.74569 2.05065,-0.55926 1.30495,0.18642 0.74567,0.37284 1.11853,1.11854 0.37285,0.74569 0.93212,0.74569 2.05065,-0.55928 1.11855,-1.30495 0.18642,-5.03341 -0.55928,-7.08406 -0.74567,-2.05065 1.75393,-6.69323 1.75393,-6.69323 0,0 2.95605,-0.90956 3.71403,-1.36434 0.75798,-0.45478 0.68218,-0.53058 0.90956,-1.59174 0.22741,-1.06116 0.30318,-2.80449 1.13697,-2.95608 0.83375,-0.15159 0.68217,1.06116 0.68217,1.06116 0.0758,0.45478 0.90956,0.30319 1.81912,0.45478 0.64153,0.10692 0.37809,-0.46491 0.24691,-1.02397 -0.0548,-0.23356 -0.0865,-0.46488 -0.0196,-0.64356 0.22738,-0.60638 7.45535,0.0686 7.45535,0.0686 -0.268,0.64316 -0.21439,1.5007 -0.0536,1.76868 0.16079,0.26799 0.85754,1.76869 0.64315,3.00141 -0.21439,1.23272 -0.53596,4.93088 -0.37518,5.62764 0.16079,0.69675 0.21439,2.41184 0.69676,2.89421 0.48238,0.48236 0.69675,0.85754 0.91114,1.28631 0.21439,0.42878 2.41186,1.12553 2.78702,2.03667 0.37518,0.91114 0.16078,1.12553 0.80396,1.5007 0.64315,0.37518 1.23272,1.17913 1.2863,1.92948 0.0536,0.75035 0.0536,1.87588 0.58957,1.71509 0.53597,-0.16079 1.12554,-0.91114 1.33993,-1.12553 0.21436,-0.21438 1.01833,-0.48237 1.71508,-0.21438 0.69675,0.26798 0.85754,0.26798 1.5543,0.16078 0.69675,-0.10719 1.3399,0.1072 1.3399,0.1072 0,0 0.53597,0.80395 0.58957,1.23272 0.0536,0.42877 -0.26797,0.75035 0.69675,0.69675 0.96475,-0.0536 1.17912,-0.10719 1.28633,0.96474 0.10718,1.07193 0.69675,1.66149 0.69675,1.66149 0,0 0.16079,1.12553 0.10718,1.39351 -0.0536,0.26798 -0.42875,0.91114 -0.26797,1.6079 0.16079,0.69675 0.53597,1.39351 0.2144,1.87588 -0.3216,0.48236 -0.85757,1.55429 -0.85757,1.98307 0,0.42877 0.0484,1.542299 0,1.92947 l -0.16079,1.28632 z" sodipodi:nodetypes="ccsscsssssssssscsssssccssssssssssssssssssssssssssssssssssscscssccsscssscsssssssssssscssscssscsssssssssssscssscssssscc"/>
    </g>
</svg>