<svg xmlns:inkscape="http://www.inkscape.org/namespaces/inkscape" xmlns:sodipodi="http://sodipodi.sourceforge.net/DTD/sodipodi-0.dtd" xmlns="http://www.w3.org/2000/svg" xmlns:svg="http://www.w3.org/2000/svg" width="440mm" height="300mm" viewBox="0 0 440 300" version="1.1" id="SVGRoot" sodipodi:docname="all.svg" inkscape:version="1.1.1 (3bf5ae0d25, 2021-09-20, custom)">
  <sodipodi:namedview id="namedview345" pagecolor="#ffffff" bordercolor="#666666" borderopacity="1.0" inkscape:pageshadow="2" inkscape:pageopacity="0.0" inkscape:pagecheckerboard="0" inkscape:document-units="mm" showgrid="false" inkscape:zoom="42.728027" inkscape:cx="440.9986" inkscape:cy="1082.9777" inkscape:window-width="1916" inkscape:window-height="1030" inkscape:window-x="0" inkscape:window-y="0" inkscape:window-maximized="1" inkscape:current-layer="layer1"/>
  <defs id="defs340"/>
  <g inkscape:label="Warstwa 1" inkscape:groupmode="layer" id="layer1">
    <path id="kamchatka" style="display:inline;overflow:visible;visibility:visible;fill:none;fill-opacity:1;fill-rule:evenodd;stroke:#ff0000;stroke-width:0.606375;marker:none;marker-start:none;marker-mid:none;marker-end:none;enable-background:accumulate" d="m 386.20967,101.05998 c 0.60638,-0.45479 0.45477,0.0758 0.98537,-1.061155 0.53056,-1.13695 0.37898,-1.51594 0.75795,-1.89493 0.37899,-0.37898 1.21277,-1.74332 1.13697,-2.72869 -0.0758,-0.98535 -0.37899,-0.90956 -0.15161,-1.81912 0.22741,-0.90956 0.30318,-0.90956 0.45479,-2.12231 0.15161,-1.21275 -0.15161,-1.06116 0.22738,-2.5013 0.37899,-1.44014 0.4548,-1.74333 0.22741,-2.27391 -0.22741,-0.53058 -0.37899,-1.13695 -0.37899,-2.04652 0,-0.90956 0.0758,-1.66753 0,-1.97072 -0.0758,-0.30319 -0.1516,-0.60638 -0.37898,-1.44014 -0.22739,-0.83377 -0.83379,-1.44014 -0.83379,-1.44014 0,0 -0.15158,0.60637 -0.45476,-0.37899 -0.30319,-0.98536 -0.22739,-0.68217 -0.37899,-1.28854 -0.15158,-0.60638 -0.60637,0.30318 -0.37899,-1.74333 0.22741,-2.04652 0.15161,-2.72869 0.15161,-2.72869 0,0 -0.0758,-2.04652 -1.44016,-2.04652 -1.36435,0 -1.81911,0.37898 -1.97072,-0.75797 -0.15158,-1.13695 -0.75795,-1.36434 -1.66754,-1.51594 -0.90955,-0.15159 -1.06113,0 -1.51593,-0.22739 -0.45476,-0.22739 -0.22738,-0.37898 -0.98536,-0.37898 -0.75795,0 -0.30318,0.30318 -1.36435,0 -1.06114,-0.30319 -1.06114,0.45478 -1.21274,-0.30319 -0.15158,-0.75797 -0.0758,-1.28855 0.98536,-2.95608 1.06116,-1.66753 0.98536,-2.04652 1.13697,-2.88029 0.15158,-0.83376 -0.75798,-0.45478 0.60637,-1.66753 1.36432,-1.21275 0.98536,-1.59173 2.57709,-1.59173 1.59174,0 1.81912,0 2.95609,-0.53058 1.13694,-0.53058 0.22738,-1.13696 1.59173,-0.53058 1.36432,0.60637 1.21274,1.21275 1.97072,0.53058 0.75795,-0.68217 0.98536,-1.13696 1.36433,-1.13696 0.37899,0 1.81914,0.83377 1.81914,0.83377 0,0 0.60637,0.30319 1.13694,0.15159 0.53059,-0.15159 0.98536,0.98536 1.51596,-0.0758 0.53056,-1.06116 0.30318,-1.36435 -0.22741,-1.66754 -0.53057,-0.30318 -1.13695,1.06116 -0.83376,-0.75796 0.30319,-1.81913 0.60637,-2.5013 0.37899,-3.10768 -0.22741,-0.60637 -1.81914,-2.72869 0.0758,-1.44014 1.89494,1.28855 1.44015,1.51594 2.12233,1.89492 0.68217,0.37899 0.37898,0.37899 0.60637,1.81913 0.22738,1.44014 2.50129,1.13695 2.1981,2.95608 -0.30318,1.81913 -0.30318,2.3497 -0.45476,3.10767 -0.15161,0.75797 -0.98536,0.22739 -0.75798,3.33507 0.22738,3.10767 0.45479,8.64085 3.18347,11.06635 2.7287,2.4255 3.41087,2.72869 3.78983,1.66753 0.37899,-1.06115 0.75798,-1.51594 0.5306,-2.72869 -0.22738,-1.21275 -0.83378,-1.66753 -0.37899,-2.5013 0.45479,-0.83376 0.83376,-1.36434 0.90956,-2.04651 0.0758,-0.68217 0.22738,-1.21275 0.1516,-1.97072 -0.0758,-0.75797 0,-1.66754 -0.1516,-2.27391 -0.15158,-0.60638 -0.30319,-1.59174 -0.37899,-2.19811 -0.0758,-0.60638 -0.68218,-1.66753 -0.90956,-2.19811 -0.22738,-0.53058 -0.90956,-1.59174 -1.06116,-2.34971 -0.15158,-0.75797 -0.45477,-1.06115 0.30321,-2.12231 0.75795,-1.06116 -0.68218,-1.66753 1.06114,-1.44014 1.74334,0.22739 1.66753,0.45478 2.57709,0.30318 0.90956,-0.15159 1.81914,0.37899 2.12233,-0.68217 0.30319,-1.06116 0.0758,-0.90956 0.60637,-1.66753 0.53057,-0.75797 0.75798,-0.60638 1.36435,-1.51594 0.60637,-0.90956 -0.30318,-1.21275 1.21275,-2.4255 1.51593,-1.21275 2.42549,-1.66753 2.80447,-2.12232 0.37899,-0.45478 1.13697,-0.68217 0.5306,-1.28854 -0.6064,-0.60638 -0.68218,-1.13696 -1.51596,-1.66753 -0.83375,-0.53058 -1.28854,-0.90957 -1.66753,-0.98537 -0.37897,-0.0758 -0.90956,-0.22739 -0.53057,-0.53058 0.37899,-0.30318 0.98536,-0.83376 1.59173,-0.83376 0.60637,0 0.60637,0.60638 1.51593,0.15159 0.90959,-0.45478 1.28855,-0.75797 1.89495,-0.30318 0.60637,0.45478 0.22738,0.0758 0.68217,0.98535 0.45477,0.90957 -0.45479,0.60638 0.75795,1.28855 1.21275,0.68218 2.34972,0.83377 2.72871,0.83377 0.37898,0 0.15157,0.45478 1.06113,-0.0758 0.90959,-0.53057 0.75798,-0.30318 1.36435,-1.13695 0.60638,-0.83377 0.98536,-0.98536 0.75798,-2.04652 -0.22738,-1.06116 -0.60637,-1.74333 -0.60637,-2.04651 l -0.68218,-1.13696 c 0,0 0,-0.53058 -1.06116,-0.53058 -1.06116,0 -1.66754,0.0758 -1.66754,-0.30318 0,-0.37899 0.30319,-1.06116 -0.37899,-1.06116 -0.68214,0 -1.06113,-0.60638 -1.51593,-0.0758 -0.45476,0.53058 -0.75795,1.13696 -1.28854,0.83377 -0.53057,-0.30319 -1.13694,-1.06116 -1.13694,-1.06116 0,0 0.15158,-0.75797 -0.0758,-1.06116 -0.22738,-0.30318 -0.90956,-0.98536 -0.90956,-0.98536 l -0.98536,-0.45478 c 0,0 -2.04652,-2.04652 -2.8045,-2.12231 -0.75795,-0.0758 -1.44013,0.0758 -1.66751,-0.53058 -0.22741,-0.60638 1.06114,-0.60638 -0.83378,-0.90956 -1.89492,-0.30319 -1.97072,0 -2.5771,-0.83377 -0.60637,-0.83377 0.22739,-1.06116 -1.28854,-1.13695 -1.51593,-0.0758 -2.19811,0.15159 -3.48666,-0.37899 -1.28854,-0.53058 -1.28854,-1.06116 -1.89492,-0.45478 -0.60637,0.60637 -0.30318,0.68217 -1.13696,1.36434 -0.83376,0.68217 -0.37899,1.28855 -1.66754,1.28855 -1.28855,0 -1.06114,0.1516 -1.81912,-0.15159 -0.75797,-0.30319 -0.60637,-0.53058 -1.51593,-0.60638 -0.90958,-0.0758 -0.68217,0 -1.59173,0.0758 -0.90958,0.0758 -0.15161,0.60637 -1.59176,-0.0758 -1.44012,-0.68217 -1.44012,-0.83376 -2.50129,-1.36434 -1.06116,-0.53058 -1.36435,-0.68218 -1.89492,-0.68218 -0.53057,0 -2.7287,-0.22739 -3.33507,0.30319 0,0 -0.81555,0.8658 -0.81555,1.72335 0,0.85754 0.48239,1.66149 -0.26797,1.76868 -0.35285,0.0504 -0.69385,0.0178 -0.97841,0.0249 -0.32057,0.008 -0.56951,0.0663 -0.6831,0.35024 -0.21439,0.53596 -0.64315,0.42876 -0.69675,0.96473 -0.0536,0.53596 -0.48236,1.23272 -0.80394,1.23272 -0.32157,0 -1.23272,0.16079 -1.50071,0.48237 -0.26797,0.32157 -0.10719,-0.10719 -0.37518,1.71509 -0.26797,1.82227 -0.26797,4.6629 0.3216,4.71649 0.58954,0.0536 2.09026,0.16079 2.46544,0.26798 0.37515,0.10719 0.75033,0.69676 0.80393,1.17913 0.0536,0.48236 0.2144,1.5007 0.0536,1.87587 -0.16079,0.37518 -0.69675,0.53597 -0.75036,1.01834 -0.0536,0.48237 0.21439,1.5543 -0.16079,1.87588 -0.37518,0.32158 -0.96475,0.75035 -1.23272,0.80395 -0.26797,0.0536 -1.23272,0.16078 -1.50069,0.0536 -0.26799,-0.1072 0,-0.96474 -0.58957,-0.96474 -0.58957,0 -1.01833,0.21439 -1.6615,0.26798 -0.64315,0.0536 -0.42876,0.48237 -0.80394,-0.26798 -0.37518,-0.75035 -0.21439,-1.82228 -0.48236,-1.92947 -0.268,-0.1072 -2.62623,-0.21439 -3.05501,0.53596 -0.42879,0.75035 -1.66151,1.82228 -1.66151,1.82228 0,0 -0.58954,-1.33991 -1.07193,0.48237 -0.48236,1.82228 -1.50069,2.67983 -1.55429,2.94781 -0.0536,0.26798 0.58957,1.6079 -0.21437,2.35824 -0.80396,0.75036 -1.28632,1.17913 -1.55429,1.82229 -0.268,0.64316 -0.21439,1.5007 -0.0536,1.76868 0.16079,0.26799 0.85754,1.76869 0.64315,3.00141 -0.21439,1.23272 -0.53597,4.93088 -0.37518,5.62764 0.16079,0.69675 0.21439,2.41184 0.69676,2.89421 0.48236,0.48236 0.69675,0.85754 0.91114,1.28631 0.21439,0.42878 2.41184,1.12553 2.78702,2.03667 0.37518,0.91114 0.16078,1.12553 0.80393,1.5007 0.64318,0.37518 1.23272,1.17913 1.28633,1.92948 0.0536,0.75035 0.0536,1.87588 0.58957,1.71509 0.53597,-0.16079 1.12551,-0.91114 1.3399,-1.12553 0.21439,-0.21438 1.01833,-0.48237 1.71511,-0.21438 0.69675,0.26798 0.85754,0.26798 1.5543,0.16078 0.69675,-0.10719 1.3399,0.1072 1.3399,0.1072 0,0 0.53596,0.80395 0.58957,1.23272 0.0536,0.42877 -0.268,0.75035 0.69675,0.69675 0.96473,-0.0536 1.17912,-0.10719 1.2863,0.96474 0.10721,1.07193 0.69675,1.66149 0.69675,1.66149 0,0 0.16079,1.12553 0.10721,1.39351 -0.0536,0.26799 -0.42878,0.91114 -0.26799,1.6079 0.16078,0.69676 0.53596,1.3935 0.21439,1.87588 -0.32158,0.48236 -0.85754,1.55429 -0.85754,1.98307 0,0.42877 0.0443,1.541802 0,1.92947 C 379.518,90.802 379.518,90.802 379.518,90.802 c 0,0 0.32141,0.804015 0.32141,1.232785 0,0.42877 -2.35823,0.32158 -1.2863,1.6079 1.07191,1.28631 1.2863,2.84062 2.46544,2.78702 1.17912,-0.0536 1.71509,1.66149 1.87587,2.25105 0.16079,0.58956 0.64315,1.01834 1.39351,1.07193 0.75036,0.0536 0.85754,1.179125 1.44711,1.286315 0.58957,0.10719 0.58957,0.0536 0.47466,0.0209 z" sodipodi:nodetypes="csssssssssscssscssssssssssssssscssssssssssssssssssssssssssssssssssssssssssscssssscsccssssssssssssssscssssssssssssssssssssscsssssssssssssssscssscssssscsssssscc"/>
    </g>
</svg>