<svg xmlns:inkscape="http://www.inkscape.org/namespaces/inkscape" xmlns:sodipodi="http://sodipodi.sourceforge.net/DTD/sodipodi-0.dtd" xmlns="http://www.w3.org/2000/svg" xmlns:svg="http://www.w3.org/2000/svg" width="440mm" height="300mm" viewBox="0 0 440 300" version="1.1" id="SVGRoot" sodipodi:docname="all.svg" inkscape:version="1.1.1 (3bf5ae0d25, 2021-09-20, custom)">
  <sodipodi:namedview id="namedview345" pagecolor="#ffffff" bordercolor="#666666" borderopacity="1.0" inkscape:pageshadow="2" inkscape:pageopacity="0.0" inkscape:pagecheckerboard="0" inkscape:document-units="mm" showgrid="false" inkscape:zoom="42.728027" inkscape:cx="440.9986" inkscape:cy="1082.9777" inkscape:window-width="1916" inkscape:window-height="1030" inkscape:window-x="0" inkscape:window-y="0" inkscape:window-maximized="1" inkscape:current-layer="layer1"/>
  <defs id="defs340"/>
  <g inkscape:label="Warstwa 1" inkscape:groupmode="layer" id="layer1">
    <path style="display:inline;fill:none;fill-opacity:1;fill-rule:evenodd;stroke:#ff0000;stroke-width:0.606375;enable-background:new" d="m 394.92632,201.7183 c 0,0 0.30318,-1.66753 0.90956,-2.12231 0.60637,-0.45478 0.1516,-0.60638 0.1516,-1.36435 0,-0.75797 -0.6064,-1.51594 0.15158,-1.66753 0.75798,-0.15159 0.90956,0 1.97072,-0.15159 1.06117,-0.1516 2.12233,-0.75797 2.12233,-0.75797 l 0.90956,0.90956 c 0,0 0.45477,0.45478 1.81912,0.45478 1.36435,0 1.81911,0.60638 2.42551,1.66754 0.60637,1.06115 0.30319,1.51593 1.97073,2.57709 1.6675,1.06116 3.33504,1.51594 4.2446,1.81913 0.90958,0.30318 1.66754,0.75796 1.51596,1.66753 -0.15161,0.90956 0.90955,1.36434 -0.30319,1.66753 0,0 3.47062,1.49281 3.8994,2.45754 0.42876,0.96474 1.17912,1.39351 0.32158,1.92948 -0.85754,0.53596 -1.82229,0.10719 -1.71508,0.75035 0.10718,0.64316 0.75033,1.07193 0.96472,1.82228 0.21439,0.75035 0.96475,1.17913 0.96475,2.03667 0,0.85754 -0.21439,1.39351 0.64315,1.92948 0.85754,0.53596 0.96475,0.53596 0.96475,1.17912 0,0.64316 0,1.5007 0,1.5007 0,0 -0.64318,0.64316 -1.71511,0.64316 -1.07193,0 -1.60787,-0.85755 -2.03666,-0.85755 -0.42878,0 -1.50069,-0.21438 -1.50069,-0.21438 0,0 -0.75036,-3.00141 -2.89422,-3.53737 -2.14387,-0.53596 -2.14387,-0.85754 -2.14387,-0.42877 0,0.42877 0.75036,1.39351 -0.10718,1.71509 -0.85754,0.32158 -1.28632,0.32158 -1.82229,0.32158 -0.53597,0 1.82229,0.96473 -0.85754,0.85754 -2.67983,-0.10719 -2.89423,-1.07193 -4.07334,-0.32158 -1.17912,0.75035 -4.71649,-2.25106 -4.71649,-2.25106 0,0 -1.6079,0.1072 -1.6079,-0.75034 0,-0.85755 -0.42878,-0.96474 0.10721,-1.71509 0.53594,-0.75036 0.53594,-0.85755 0.53594,-1.71509 0,-0.85755 0.21439,-1.07194 0.21439,-1.92948 0,-0.85754 0.53597,-1.17912 -0.21439,-1.5007 -0.75033,-0.32158 -1.39351,-0.53597 -1.50069,-1.28632 -0.10718,-0.75035 -0.10718,-0.85754 -0.64315,-0.85754 -0.53597,0 0,0.10719 -0.85757,0.10719 -0.85754,0 -1.50069,0.64316 -2.25104,-0.32158 -0.75036,-0.96474 -0.85755,-0.96474 -2.25105,-0.96474 -1.39351,0 -4.39492,2.03667 -2.03666,0 2.35823,-2.03666 2.78702,-2.14385 2.78702,-2.14385 0,0 -2.46545,0 -2.57265,-0.85755 -0.10719,-0.85754 -0.32158,-2.25106 -0.85755,-2.46544 -0.53596,-0.21438 -1.17911,-0.53597 -0.96472,-1.28631 0.21439,-0.75036 0.64315,-3.43019 2.78702,-3.32299 2.14386,0.10719 2.57262,0.96474 3.21579,1.28632 0.64315,0.32157 1.82227,-0.85755 2.03666,0.21438 0.21439,1.07193 0,2.89422 0,2.89422 0,0 0.75036,0.53596 0.96475,1.60789 z" id="new_guinea" sodipodi:nodetypes="cssssccssssssssssssscsscsssssscssssssssssscssssssccc"/>
    </g>
</svg>