<svg xmlns:inkscape="http://www.inkscape.org/namespaces/inkscape" xmlns:sodipodi="http://sodipodi.sourceforge.net/DTD/sodipodi-0.dtd" xmlns="http://www.w3.org/2000/svg" xmlns:svg="http://www.w3.org/2000/svg" width="440mm" height="300mm" viewBox="0 0 440 300" version="1.1" id="SVGRoot" sodipodi:docname="all.svg" inkscape:version="1.1.1 (3bf5ae0d25, 2021-09-20, custom)">
  <sodipodi:namedview id="namedview345" pagecolor="#ffffff" bordercolor="#666666" borderopacity="1.0" inkscape:pageshadow="2" inkscape:pageopacity="0.0" inkscape:pagecheckerboard="0" inkscape:document-units="mm" showgrid="false" inkscape:zoom="42.728027" inkscape:cx="440.9986" inkscape:cy="1082.9777" inkscape:window-width="1916" inkscape:window-height="1030" inkscape:window-x="0" inkscape:window-y="0" inkscape:window-maximized="1" inkscape:current-layer="layer1"/>
  <defs id="defs340"/>
  <g inkscape:label="Warstwa 1" inkscape:groupmode="layer" id="layer1">
    <path style="display:inline;fill:none;fill-opacity:1;fill-rule:evenodd;stroke:#ff0000;stroke-width:0.606375;enable-background:new" d="m 93.003557,57.139805 c 0.42878,-1.5007 5.34688,-6.15991 5.34688,-6.15991 0,0 1.929483,-0.21438 2.787023,-0.85754 0.85754,-0.64316 -1.07193,-2.57264 -1.07193,-2.57264 l 0.42878,-1.28631 1.2863,1.07193 c 0,0 0.42878,0.85754 1.71511,0.85754 1.28629,0 0.85754,-1.28631 1.71508,-1.5007 0.85754,-0.21438 1.71508,-2.35825 1.71508,-2.35825 0,0 1.71511,0.64316 3.43019,-1.07192 1.71508,-1.7151 0.42876,-0.85755 0,-1.7151 -0.42878,-0.85754 0.42876,-1.50069 0.42876,-1.50069 l -1.2863,-0.42878 c 0,0 0.85754,-0.64316 0,-1.92947 -0.85754,-1.28632 -1.07193,0.64315 -1.92947,1.28631 -0.85757,0.64316 -0.64318,1.28632 -3.00141,0.85754 -2.35826,-0.42876 0,-1.28631 -0.21439,-2.14385 -0.21439,-0.85755 -2.57265,0.42877 -3.00141,-0.85755 -0.42878,-1.28632 -1.07193,0.64316 -0.85754,-0.64316 0.21436,-1.28632 -0.21439,-3.21579 -1.071933,-3.64456 -0.85754,-0.42877 1.715083,-4.50211 1.715083,-4.50211 0,0 1.71508,0.85754 1.92947,-0.64316 0.21439,-1.5007 1.07194,-1.28631 1.07194,-2.14386 0,-0.85754 -2.14387,-0.21438 -2.14387,-0.21438 l -0.42876,1.71509 c 0,0 -2.572653,-1.92949 -2.572653,0 0,1.92947 -0.85754,1.92947 -2.14386,4.5021 -1.2863,2.57264 -0.21437,4.07334 -0.21437,4.07334 0,0 1.2863,0.42877 0.85754,1.71509 -0.42878,1.28631 -3.0014,1.07193 -3.0014,1.07193 l -0.2144,-2.35825 h -1.71508 c 0,0 -0.21439,2.35825 0,3.21579 0.21439,0.85754 -4.71649,0.21439 -6.00281,-0.85754 -1.28633,-1.07193 -2.78702,0.85754 -4.07334,1.5007 -1.28633,0.64316 -2.35823,0.21438 -3.64456,-0.21438 -1.28632,-0.42878 -0.64315,1.71508 -3.43019,1.5007 -2.78701,-0.21439 -1.2863,-3.85895 -1.92947,-2.57264 -0.64315,1.28632 -3.43017,-1.07193 -4.93088,-2.35824 -1.50069,-1.28632 -4.28771,-0.85755 -4.28771,-0.85755 l -0.21439,-1.5007 h -1.50072 l -1.92947,0.42877 c 0,0 -1.50069,0.64316 -2.78702,0.42878 -1.28632,-0.21439 -1.07193,1.07192 -1.07193,1.07192 0,0 -1.50069,0.64316 -3.43016,0.42878 -1.92948,-0.21439 -1.71508,0.64315 -2.57265,1.28631 -0.85754,0.64316 -3.85895,-0.85754 -5.78842,-1.71509 -1.92948,-0.85754 -3.18979,0.93335 -5.11927,0.29019 0,0 -1.016692,18.989564 -0.86511,19.44435 0.03789,0.113695 0.07856,0.330657 4.621083,0.453365 l 38.277877,1.061285 9.70413,0.22868 c 2.501743,0.05895 1.41655,0.11784 1.41655,0.11784 z" id="northwest_territory" sodipodi:nodetypes="cssscsccccssssssscccscssccsscsssssssccsscsscccscccscsc"/>
    </g>
</svg>