<svg xmlns:inkscape="http://www.inkscape.org/namespaces/inkscape" xmlns:sodipodi="http://sodipodi.sourceforge.net/DTD/sodipodi-0.dtd" xmlns="http://www.w3.org/2000/svg" xmlns:svg="http://www.w3.org/2000/svg" width="440mm" height="300mm" viewBox="0 0 440 300" version="1.1" id="SVGRoot" sodipodi:docname="all.svg" inkscape:version="1.1.1 (3bf5ae0d25, 2021-09-20, custom)">
  <sodipodi:namedview id="namedview345" pagecolor="#ffffff" bordercolor="#666666" borderopacity="1.0" inkscape:pageshadow="2" inkscape:pageopacity="0.0" inkscape:pagecheckerboard="0" inkscape:document-units="mm" showgrid="false" inkscape:zoom="42.728027" inkscape:cx="440.9986" inkscape:cy="1082.9777" inkscape:window-width="1916" inkscape:window-height="1030" inkscape:window-x="0" inkscape:window-y="0" inkscape:window-maximized="1" inkscape:current-layer="layer1"/>
  <defs id="defs340"/>
  <g inkscape:label="Warstwa 1" inkscape:groupmode="layer" id="layer1">
    <path style="display:inline;overflow:visible;visibility:visible;fill:none;fill-opacity:1;fill-rule:evenodd;stroke:#ff0000;stroke-width:0.606375;marker:none;marker-start:none;marker-mid:none;marker-end:none;enable-background:accumulate" d="m 241.13434,69.225265 c -0.37898,-0.0758 -0.90956,-0.30318 -1.13695,-0.75797 -0.22739,-0.45478 -0.75797,-0.98536 -1.13696,-0.83376 -0.37898,0.15159 -0.22739,0.22739 -0.98536,0.22739 -0.75797,0 -1.13695,-1.06116 -1.74333,-0.68217 -0.60637,0.37898 -0.15159,0.60637 -0.90956,0.75797 -0.75797,0.15159 -1.59173,0.22739 -2.3497,0.22739 -0.75797,0 -0.60638,-0.1516 -1.44015,0 -0.83376,0.15159 -1.44014,0.60637 -1.74332,-0.1516 -0.30319,-0.75797 -0.37899,-0.53058 -0.37899,-1.28854 0,-0.75797 0.45478,-1.28855 0.60638,-1.97072 0.15159,-0.68218 -0.30319,-1.36435 0.22739,-2.04652 0.53057,-0.68217 0.90956,-0.83377 1.13695,-1.21275 0.22739,-0.37899 0.45478,-0.83377 0.53058,-1.36435 0.0758,-0.53058 0.0758,-0.37898 0.0758,-0.90956 0,-0.53058 -0.22739,-0.98536 -0.53058,-1.21275 -0.30319,-0.22739 -0.22739,-0.22739 -0.90957,-0.30319 -0.68217,-0.0758 -0.45478,-0.53058 -1.13695,0.22739 -0.68217,0.75797 -1.28855,0.83377 -1.36434,1.44014 -0.0758,0.60638 0.30318,0.83377 -0.0758,1.59174 -0.37899,0.75797 -0.45478,0.68217 -0.60638,0.98536 -0.15159,0.30319 0.1516,0.75797 -0.15159,1.06116 -0.30319,0.30318 -0.53058,0.30318 -1.06116,0.60637 -0.53058,0.30319 -0.90956,0.0758 -0.98536,0.98536 -0.0758,0.90956 -0.22739,0.68217 0,1.28855 0.22739,0.60637 0.37899,0.68217 0.53058,1.13695 0.1516,0.45478 0.45478,0.68218 0.45478,1.59174 0,0.90956 0.22739,1.21275 0.22739,1.21275 0,0 0.30319,1.06116 0.22739,1.59174 -0.0758,0.53057 -0.30319,1.44014 -0.53057,1.97072 -0.22739,0.53057 -0.45479,0.83376 -0.83377,1.21275 -0.37899,0.37898 -0.22739,0.45478 -0.68217,0.90956 -0.45479,0.45478 -0.98536,0.60637 -1.36435,0.83377 -0.37898,0.22739 -0.45478,0.98536 -0.45478,0.98536 v 1.44014 c 0,0 0.37899,0.98536 -0.30319,1.28855 -0.68217,0.30318 -0.83376,0.37898 -1.28854,1.06115 -0.45479,0.68217 0,1.21275 -0.53058,1.66754 -0.53058,0.45478 -0.37899,0.53057 -1.28855,0.45478 -0.90956,-0.0758 -1.06116,-0.0758 -1.36435,-0.45478 -0.30318,-0.37899 -0.68217,-1.06116 -1.13695,-1.13696 -0.45478,-0.0758 -0.37898,0.0758 -0.68217,-0.0758 -0.30319,-0.15159 -0.0758,-0.45478 -0.53058,-0.45478 -0.45478,0 -0.68217,0.30319 -0.68217,0 0,-0.30318 0,-0.15159 0,-0.83376 0,-0.68218 0,-2.80449 0,-2.80449 l -1.13696,-1.74333 0.37899,-0.98536 -0.45478,-0.75797 -0.53058,-0.30319 c 0,0 -0.83377,0.30319 -0.90957,0.60638 -0.0758,0.30319 -0.0758,0.53058 -0.22739,0.83377 -0.15159,0.30318 -0.83376,1.21275 -1.36434,1.28854 -0.53058,0.0758 -1.21275,0.1516 -1.21275,0.1516 0,0 -0.22739,0.60637 -0.68218,0.37898 -0.45478,-0.22739 -0.30318,-0.15159 -0.83376,-0.75797 -0.53058,-0.60637 -0.68217,-1.28855 -0.68217,-1.59173 0,-0.30319 0.15159,-0.37899 -0.22739,-0.68218 -0.37899,-0.30318 -0.37899,-0.30318 -0.75797,-0.68217 -0.37899,-0.37898 -0.90957,-0.68217 -0.83377,-1.36434 0.0758,-0.68218 0.22739,-1.36435 0.37898,-2.04652 0.1516,-0.68217 -0.22739,-1.36435 -0.22739,-1.36435 l -0.28787,-0.55089 c -0.32158,-0.64316 0,-0.53597 -0.53596,-1.07194 -0.53597,-0.53596 -0.96474,-0.75035 -0.64316,-1.60789 0.32158,-0.85754 -0.21439,-1.39351 0.64316,-1.6079 0.85754,-0.21438 0.75035,0.96474 0.96474,-0.53597 0.21438,-1.5007 -0.42878,-1.07192 0.42877,-2.03666 0.85754,-0.96474 0.96474,-1.17913 0.96474,-1.17913 0,0 0.53596,0 0.75035,0.75036 0.21439,0.75035 0.21439,1.39351 0.64315,0.85754 0.42878,-0.53596 0.53597,-1.17912 0.85755,-1.6079 0.32158,-0.42876 0.85754,-0.96473 0.85754,-0.96473 0,0 -0.96473,-1.6079 0.21439,-1.5007 1.17913,0.10719 1.17913,0.32157 1.5007,-0.1072 0.32158,-0.42877 0.21439,-0.42877 0.96474,-0.64316 0.75035,-0.21438 0.85754,-0.10719 0.96474,-0.75034 0.10719,-0.64316 0.42877,-0.64316 0.85754,-1.07194 0.42877,-0.42877 0.42877,-0.64316 0.53597,-1.5007 0.10719,-0.85755 -0.1072,-0.75035 0.85754,-2.03667 0.96474,-1.28631 0.96474,-1.17912 1.28632,-2.03667 0.32158,-0.85754 0.32158,-0.75035 0.64316,-1.28631 0.32158,-0.53597 0.75035,-0.32158 1.07193,-0.75036 0.32158,-0.42877 0.42877,-0.96473 0.42877,-0.96473 l 0.53597,-0.96474 c 0,0 -1.07193,-0.42877 -0.1072,-0.85754 0.96474,-0.42878 1.07194,-0.53597 1.82228,-0.75036 0.75036,-0.21438 1.28632,-0.21438 1.28632,-0.21438 0,0 0.69675,1.01833 0.80395,0.26798 0.10719,-0.75035 -0.32158,-0.85754 0.32158,-1.33991 0.64316,-0.48237 1.01833,-0.42877 1.23272,-0.26799 0.21438,0.1608 0.10719,0.32158 0.58956,0.21439 0.48237,-0.10719 1.01833,0.53597 1.17913,-0.21439 0.16078,-0.75035 -0.69676,-1.33991 0.32157,-1.76868 1.01833,-0.42877 1.5543,-0.0536 1.87588,-0.37517 0.32158,-0.32158 -0.16079,-0.48238 0.48237,-0.80395 0.64315,-0.32158 0.85754,-0.16079 1.5007,-0.37518 0.64316,-0.21438 0.69676,-0.91114 1.01834,-0.96474 0.32158,-0.0536 0.75035,0 1.07193,0.32158 0.32157,0.32158 -0.58957,0.58956 0.69675,0.37518 1.28632,-0.21439 3.00141,-1.01834 3.48377,-0.64316 0.48238,0.37518 0.0536,1.01833 0.69676,1.01833 0.64316,0 1.28631,-0.26798 1.60789,-0.0536 0.32158,0.21439 0.26799,0.37518 0.75036,0.58956 0,0 0.56092,2.40594 0.18193,2.70912 -0.37898,0.30319 0.45479,2.19811 0,2.5013 -0.45478,0.30319 -0.68217,3.78985 -0.68217,5.38158 0,1.59174 0.83377,4.09304 0.60638,5.38159 -0.22739,1.28854 0.37898,3.10767 0.37898,3.10767 0,0 0.37899,0.37899 0.37899,1.36435 0,0.98536 0.53057,1.51593 0.53057,1.51593 0,0 0.26529,0.0758 0.30319,0.41689 0.0379,0.34108 0.0379,0.87166 -0.11369,1.02326 -0.1516,0.15159 -0.49268,0.41688 -0.49268,0.98536 0,0.56847 0.15159,0.79586 -0.0379,1.06115 -0.18949,0.26529 -0.34109,0.34109 -0.41688,0.98536 -0.0758,0.64428 -0.1895,1.51594 -0.0379,1.85703 0.15159,0.34108 0.41688,1.62963 -0.1137,1.47804 z" id="scandinavia" sodipodi:nodetypes="csssssssssssssssssssssssssscsssssccsssssssssscccccssscsssssssccssssscssscssssssssssccsscsssssssssssssssc"/>
    </g>
</svg>