<svg xmlns:inkscape="http://www.inkscape.org/namespaces/inkscape" xmlns:sodipodi="http://sodipodi.sourceforge.net/DTD/sodipodi-0.dtd" xmlns="http://www.w3.org/2000/svg" xmlns:svg="http://www.w3.org/2000/svg" width="440mm" height="300mm" viewBox="0 0 440 300" version="1.1" id="SVGRoot" sodipodi:docname="all.svg" inkscape:version="1.1.1 (3bf5ae0d25, 2021-09-20, custom)">
  <sodipodi:namedview id="namedview345" pagecolor="#ffffff" bordercolor="#666666" borderopacity="1.0" inkscape:pageshadow="2" inkscape:pageopacity="0.0" inkscape:pagecheckerboard="0" inkscape:document-units="mm" showgrid="false" inkscape:zoom="42.728027" inkscape:cx="440.9986" inkscape:cy="1082.9777" inkscape:window-width="1916" inkscape:window-height="1030" inkscape:window-x="0" inkscape:window-y="0" inkscape:window-maximized="1" inkscape:current-layer="layer1"/>
  <defs id="defs340"/>
  <g inkscape:label="Warstwa 1" inkscape:groupmode="layer" id="layer1">
    <path id="siberia" style="display:inline;overflow:visible;visibility:visible;fill:none;fill-opacity:1;fill-rule:evenodd;stroke:#ff0000;stroke-width:0.606375;marker:none;marker-start:none;marker-mid:none;marker-end:none;enable-background:accumulate" d="m 304.65217,42.923735 c 0.37899,1.06116 0.68217,0.45478 1.36435,0 0.68217,-0.45478 0.15159,-0.37898 0.22739,-1.28855 0.0758,-0.90956 -0.22739,-0.75797 -0.60638,-1.21275 -0.37898,-0.45478 -0.22739,-0.0758 -1.21275,-0.0758 -0.98536,0 -0.68217,0.1516 -1.36435,0.22739 -0.68217,0.0758 -0.45478,0 -1.59173,-0.22739 -1.13695,-0.22739 -0.68217,-0.83376 -0.68217,-1.28855 0,-0.45478 -0.30319,-1.28854 -0.30319,-1.28854 0,0 -0.60638,-0.22739 -0.90956,-0.83377 -0.30319,-0.60638 0,-0.68217 0.0758,-0.98536 0.0758,-0.30319 0.1516,-0.68217 0.0758,-1.59174 -0.0758,-0.90956 -0.30319,-0.30318 -0.60638,-0.75796 -0.30318,-0.45478 0,-0.75797 0,-0.75797 l 0.60638,-0.60638 1.06116,0.37899 0.68217,0.22739 1.36434,0.45478 c 0,0 0.0758,0.15159 1.28855,1.51594 1.21275,1.36434 0.60638,0.15159 1.51594,0.22739 0.90956,0.0758 0.68217,-0.37899 0.68217,-0.37899 0,0 -1.21275,-0.60637 -1.21275,-0.90956 0,-0.30319 0.30319,-0.75797 0.30319,-1.13695 0,-0.37899 -0.0758,-1.21275 -0.22739,-1.51594 -0.15159,-0.30319 -0.60638,-0.53058 -0.90956,-0.83377 -0.30319,-0.30319 -0.75797,-1.13695 -0.75797,-1.13695 0,0 -0.2274,-0.45478 0.30318,-1.97072 0.53058,-1.51594 0.68218,0.53057 0.68218,0.53057 l 0.45478,0.2274 0.90956,0.75797 c 0,0 0.75797,-0.1516 1.21275,-0.30319 0.45478,-0.1516 1.13696,1.06115 1.13696,1.06115 0,0 1.36434,0.1516 1.66753,0.1516 0.30319,0 0.90956,-0.83377 0.90956,-1.44014 0,-0.60638 -1.21275,-0.0758 -1.21275,-0.0758 l -1.81913,-0.37899 c 0,0 -2.3497,-0.68217 -2.80448,-1.28854 -0.45478,-0.60638 0.0758,-0.90957 0.0758,-0.90957 l 1.21275,-1.51593 c 0,0 0.83376,-0.83377 1.21275,-0.83377 0.37898,0 1.97072,0 1.97072,0 0,0 0.53057,-1.28855 0.60637,-2.27391 0.0758,-0.98536 1.36435,-0.30319 1.36435,-0.30319 0,0 0.98536,-0.30318 1.21275,-0.60637 0.22739,-0.30319 1.51594,-1.21275 3.56246,-2.4255 2.04651,-1.21275 2.04651,-0.68218 2.95607,-0.75797 0.90957,-0.0758 1.74333,-0.0758 2.04652,-0.22739 0.30319,-0.1516 1.28855,-0.83377 1.59174,-0.98536 0.30319,-0.1516 1.81912,-0.90957 1.81912,-0.53058 0,0.37898 0.1516,1.21275 0.30319,1.51594 0.1516,0.30318 0.98536,-0.37899 1.97072,-1.13696 0.98536,-0.75797 0.68217,-0.60637 1.13695,-1.28855 0.45479,-0.68217 0.90957,-0.22739 1.59174,-0.15159 0.68217,0.0758 0.45478,1.13696 0.53058,1.59174 0.0758,0.45478 1.21275,1.28854 1.89492,1.74333 0.68217,0.45478 2.5771,-2.27391 2.88029,-0.83377 0.30318,1.44014 1.97072,1.97072 1.97072,2.4255 0,0.45478 -0.75797,1.36435 -1.28855,1.81913 -0.53058,0.45478 -0.98536,0.98536 -1.28855,1.66753 -0.30319,0.68217 0,0.45478 0,1.06116 0,0.60637 -0.45478,0.15159 -1.13695,0.60637 -0.68218,0.45479 -0.68218,0.60638 -1.21275,1.21275 -0.53058,0.60638 -0.83377,0.30319 -1.36435,0.53058 -0.53058,0.22739 -0.37898,0.90957 -0.53058,1.44014 -0.15159,0.53058 0.30319,0.45478 0.30319,0.45478 0,0 0.75797,-0.53057 1.13696,-0.75796 0.37898,-0.22739 1.81912,-0.98536 2.19811,-1.21275 0.37898,-0.2274 1.36434,-1.06116 2.19811,-1.97072 0.83376,-0.90957 1.97072,-0.45479 2.57709,-0.60638 0.60638,-0.1516 0.98536,0.22739 0.98536,0.22739 0,0 0.75797,0.0758 1.44015,-0.30319 0.68218,-0.37898 2.42549,-0.75797 2.80448,-0.75797 0.37899,0 1.36435,0.1516 1.89492,0.60638 0.53059,0.45478 1.44015,1.06116 1.97072,1.44014 l 0.87167,-0.0379 0.18949,1.55384 c 0,0.30319 -0.0758,1.21275 0.60638,1.89492 0.68217,0.68218 0.90955,0.37899 1.21274,0.68218 0.30319,0.30318 -0.0758,2.2739 -0.15158,2.72869 -0.0758,0.45478 -0.37899,0.45478 -0.68217,0.98535 -0.30319,0.53058 -0.0758,0.83377 -0.30319,1.74333 -0.22741,0.90957 -0.5306,0.53058 -0.75798,1.44015 -0.22738,0.90956 0,0.83376 0.30319,1.44014 0.30318,0.60637 0.30318,1.13695 0.30318,2.04651 0,0.90957 -0.15158,0.37899 -0.53057,0.45479 -0.37899,0.0758 -0.75797,0.37898 -1.51593,0.45478 -0.75797,0.0758 -1.59176,0.37898 -1.97072,-0.0758 -0.37899,-0.45478 -0.75798,-0.53058 -2.12233,-0.37898 -1.36435,0.15159 -0.37899,0.60637 -0.53057,1.21275 -0.1516,0.60637 -0.60637,0.53057 -1.51594,0.68217 -0.90956,0.15159 -0.60637,0.22739 -0.68217,1.21275 -0.0758,0.98536 1.06115,1.59174 1.66752,1.81913 0.6064,0.22739 0.75798,0.37898 0.98536,0.75797 0.22741,0.37898 0.90958,0.22739 1.81914,1.06115 0.90956,0.83377 0.15158,0.98536 -0.45479,1.59174 -0.60637,0.60637 0.37899,2.72869 0.83378,3.03188 0.45477,0.30318 0.68218,0.75797 0.90956,2.57709 0.22738,1.81913 0.90956,1.97072 0.90956,1.97072 0,0 0.53057,0.30319 0.60637,2.19811 0.0758,1.89493 0.5306,3.48666 0.5306,3.48666 0,0 -2.4996,4.64258 -1.75393,6.69323 0.7457,2.05065 1.67783,5.77911 0.55928,7.08406 -1.11853,1.30497 -1.6778,1.30497 -2.05065,0.55928 -0.37286,-0.7457 0.18642,-0.93212 -1.11853,-1.11854 -1.30498,-0.18643 -1.11855,0.37284 -2.05065,0.55926 -0.93212,0.18643 -1.30496,1.11854 -2.05065,0.37285 -0.7457,-0.74569 0,-0.93211 -1.11854,-0.55927 -1.11854,0.37285 -0.55927,1.67781 -1.95744,1.95744 -1.39817,0.27964 -1.21175,-0.18642 -1.77101,0.74569 -0.55927,0.93212 -0.8389,1.21175 -1.02533,1.67781 -0.18642,0.46606 -0.55927,0.37284 -0.18642,1.21175 0.37285,0.8389 1.30496,-0.37285 1.21175,1.30495 -0.0932,1.67781 -0.27964,2.70313 -0.27964,2.70313 0,0 -0.65248,-0.46606 -0.65248,0.65248 0,1.11854 0.46606,1.02533 0.27963,1.95744 -0.18641,0.93211 -0.65248,0.37284 -0.37284,1.49138 0.27964,1.11853 1.02533,1.11853 1.02533,1.11853 0,0 0.18641,-1.11853 0.55926,-0.18641 0.37285,0.93211 -0.0932,1.49138 0.55927,1.77101 0.65248,0.27963 0,0.18642 1.02532,0.55927 0,0 0.41946,0 0.60588,0.55927 0.18642,0.55926 0.69909,1.44477 0.18642,2.14385 -0.51266,0.69909 -0.93211,2.00405 -0.37284,3.26241 0.55926,1.25835 1.53798,1.39817 1.44477,2.14386 -0.0932,0.745685 -0.23303,0.559255 -0.32624,1.584585 -0.0932,1.02533 0.0932,1.6778 -0.13982,2.09725 -0.23302,0.41946 -0.37284,1.11854 -0.69908,1.25836 -0.32624,0.13982 -0.8389,-0.18643 -1.16514,-0.37285 -0.32624,-0.18642 -0.0932,-1.21175 -0.65248,-0.7923 -0.55927,0.41946 -0.65248,0.97872 -1.11854,0.69909 -0.46605,-0.27963 -0.41945,-0.74569 -0.8389,-0.83891 -0.41945,-0.0932 -1.25835,0.18643 -0.8389,-0.60587 0.41945,-0.79229 0.93212,-0.93211 0.97872,-1.44477 0.0466,-0.51266 0.27963,-0.97872 0,-1.537985 -0.27964,-0.55926 -0.46606,-1.16514 -0.93211,-1.25835 -0.46606,-0.0932 -0.46606,-0.37285 -1.02533,-0.88551 -0.55927,-0.51266 -0.60587,-1.16514 -1.02533,-1.02532 -0.41944,0.13982 -1.11853,1.25835 -2.09725,1.07192 -0.97872,-0.18641 -1.35156,0.23303 -1.6778,-0.41945 -0.32625,-0.65247 -0.46606,-0.8855 -0.83891,-0.97872 -0.37284,-0.0932 -0.55926,-0.13981 -0.46605,-0.55926 0.0932,-0.41946 0.13981,-0.23303 0.13981,-0.97872 0,-0.74569 0.0466,-2.37689 -0.51266,-3.16919 -0.55926,-0.79229 -0.55926,-0.8389 -0.55926,-1.11853 0,-0.27964 0.27963,-0.41945 -0.18643,-0.60588 -0.46606,-0.18642 -1.16514,-1.44477 -1.30496,-1.91083 -0.13981,-0.46606 -0.8389,-0.46606 -1.07193,-0.46606 -0.23303,0 -0.79229,-1.53798 -0.79229,-1.53798 0,0 -2.37689,0.0466 -2.33029,-0.51267 0.0466,-0.55927 0.32624,-1.11853 0.37284,-1.35156 0.0466,-0.23303 0.41946,-1.6778 0.0466,-2.19046 -0.37285,-0.51267 -1.02533,-0.97872 -1.39817,-1.02533 -0.37285,-0.0466 -1.02533,-0.23303 -1.39818,0.32624 -0.37284,0.55927 -0.69908,0.93211 -0.8855,0.8389 -0.18642,-0.0932 -0.46606,-0.0466 -0.55927,-0.55927 -0.0932,-0.51266 -0.32624,-1.81762 0.37285,-2.79634 0.69908,-0.97872 0.46605,0.32624 0.88551,-0.13981 0.41944,-0.46606 0.65247,-1.35157 0.65247,-1.81763 0,-0.46606 -0.27963,-0.93211 0.32624,-1.53798 0.60588,-0.60588 1.07193,-0.41946 1.35157,-0.97872 0.27963,-0.55927 0.74569,-0.65248 0.41945,-1.16515 -0.32624,-0.51266 -0.83891,-0.97871 -0.88551,-1.6312 -0.0466,-0.65247 0.18642,-0.60587 -0.23303,-1.02532 -0.41945,-0.41945 -0.74569,-0.60587 -0.79229,-1.07193 -0.0466,-0.46605 0.8389,-0.27964 -0.0466,-0.7923 -0.88551,-0.51266 -1.16515,-0.13981 -1.02533,-0.97872 0.13982,-0.8389 0,-1.53798 0.27964,-2.00404 0.27963,-0.46606 -0.18643,-1.95744 -0.37285,-2.19047 -0.18642,-0.23303 -0.65248,-0.60587 -0.88551,-0.93211 -0.23303,-0.32624 -0.18642,-1.11853 -0.37284,-1.25835 -0.18643,-0.13982 -0.88551,-0.69909 -1.07193,-0.97872 -0.18643,-0.27964 -0.18643,-0.41945 -0.37285,-0.88551 -0.18642,-0.46605 -0.93211,-0.7923 -1.11853,-1.02533 -0.18643,-0.23302 -1.6312,-0.60587 -1.72441,-0.8389 -0.0932,-0.23302 -0.13982,-0.79229 -0.0466,-1.25835 0.0932,-0.46606 0.23303,-1.16514 0.0932,-1.72441 -0.13982,-0.55927 -0.18643,-1.11854 -0.23303,-1.91083 -0.0466,-0.7923 -0.37285,-1.16514 -0.97872,-1.16514 -0.60588,0 -0.88551,0.27963 -0.93212,0 -0.0466,-0.27964 -0.37284,-1.25836 -0.37284,-1.49138 0,-0.23303 -0.8389,-2.4235 -1.02533,-2.56332 -0.18642,-0.13981 -0.18642,-0.18642 -0.69908,-0.65248 -0.51266,-0.46605 -0.88551,-0.8389 -1.25836,-0.8855 -0.37284,-0.0466 -0.60587,-0.46606 -0.65248,-0.93212 -0.0466,-0.46606 -0.18642,-1.63119 -0.10547,-1.72711 z" sodipodi:nodetypes="cscssssssssssssssssssssscccssscsssscssssssssssssssssssssscscsccsccsscscccscsssscsscccccsssscssssssscsssssssssssscssscsss"/>
    </g>
</svg>