<?xml version="1.0" encoding="UTF-8" standalone="no"?>
<!-- Created with Inkscape (http://www.inkscape.org/) -->

<svg
   width="440mm"
   height="300mm"
   viewBox="0 0 440 300"
   version="1.1"
   id="SVGRoot"
   sodipodi:docname="all.svg"
   inkscape:version="1.1.1 (3bf5ae0d25, 2021-09-20, custom)"
   xmlns:inkscape="http://www.inkscape.org/namespaces/inkscape"
   xmlns:sodipodi="http://sodipodi.sourceforge.net/DTD/sodipodi-0.dtd"
   xmlns="http://www.w3.org/2000/svg"
   xmlns:svg="http://www.w3.org/2000/svg">
  <sodipodi:namedview
     id="namedview345"
     pagecolor="#ffffff"
     bordercolor="#666666"
     borderopacity="1.0"
     inkscape:pageshadow="2"
     inkscape:pageopacity="0.0"
     inkscape:pagecheckerboard="0"
     inkscape:document-units="mm"
     showgrid="false"
     inkscape:zoom="42.728027"
     inkscape:cx="440.9986"
     inkscape:cy="1082.9777"
     inkscape:window-width="1916"
     inkscape:window-height="1030"
     inkscape:window-x="0"
     inkscape:window-y="0"
     inkscape:window-maximized="1"
     inkscape:current-layer="layer1" />
  <defs
     id="defs340" />
  <g
     inkscape:label="all"
     inkscape:groupmode="layer"
     id="layer1">
    

    <path
       id="alberta"
       style="display:inline;overflow:visible;visibility:visible;fill:none;fill-opacity:1;fill-rule:evenodd;stroke:#ff0000;stroke-width:0.606375;marker:none;marker-start:none;marker-mid:none;marker-end:none;enable-background:accumulate"
       d="m 43.605427,55.732 c 0,0 0.0758,0.07592 0.37899,0.985485 0.30318,0.90957 0.53057,1.51594 1.21274,2.72869 0.68218,1.21276 0.0758,4.85101 0.0758,4.85101 l 1.21275,1.66753 c 0,0 0.98536,0.45478 1.36435,0.53058 0.37896,0.0758 0.22738,1.97072 0.15158,2.72869 -0.0758,0.75797 -0.98536,0.37898 -1.51593,0.53058 -0.5306,0.15159 -0.68218,1.44014 -0.75798,2.19811 -0.0758,0.75797 -1.43801,0.45607 -1.43801,0.45607 0.37896,0.75796 1.13694,0.83376 1.44013,2.19811 0.30318,1.36434 0.1516,0.90956 0.53057,1.44014 0.37898,0.53058 1.06116,0.60637 1.21277,1.81912 0.15158,1.21276 0.15158,0.53058 0.98536,2.12232 0.83375,1.59173 0.0758,2.27391 0.22738,3.71405 0.15161,1.44014 0.90956,0.90956 1.44015,1.66753 l 0.185407,0.651066 29.280153,0.01094 2.29124,-29.238737 C 68.607855,56.376842 57.664556,55.992087 43.605427,55.732 Z"
       sodipodi:nodetypes="cssccsssscsssssccccc" />
    <path
       style="display:inline;fill:none;fill-opacity:1;fill-rule:evenodd;stroke:#ff0000;stroke-width:0.606375;enable-background:new"
       d="m 44.289717,72.408745 c -0.37899,-0.75797 -0.30319,0.0758 -0.5306,-1.21276 -0.22738,-1.28854 -0.68217,-1.13695 -1.06116,-1.51593 -0.37896,-0.37899 -0.90956,-0.45479 -0.68215,-1.13696 0.22738,-0.68217 0.37896,-0.68217 0.15158,-1.36434 -0.22738,-0.68218 -1.21274,-1.06116 -1.51593,-1.74333 -0.30319,-0.68217 -0.30319,-0.1516 -0.30319,-1.21275 0,-1.06116 0.30319,-1.21275 -0.60637,-1.51594 -0.90958,-0.30319 -1.51595,0.45478 -1.97072,-0.53058 -0.45479,-0.98536 -0.37899,-0.45478 -1.28855,-0.60638 -0.90958,-0.15159 -1.28854,-0.0758 -1.59173,-0.68217 -0.30319,-0.60637 -0.45479,-1.13695 -1.06117,-1.13695 -0.60637,0 -1.36435,-0.22739 -1.51593,-0.60638 -0.1516,-0.37898 -0.98536,-1.44014 -1.51595,-1.44014 -0.53057,0 -0.37899,0.37899 -1.21275,0.75797 -0.83375,0.37898 1.51593,0.75797 -0.30318,1.21275 -1.81912,0.45478 -2.6529,0.60638 -3.03189,0.30319 -0.37899,-0.30319 -1.74331,0.68217 -1.51593,-0.45478 0.22738,-1.13696 0.30319,-0.98536 0.68218,-1.28855 0.37899,-0.30319 1.44012,-0.37899 0.98536,-0.68217 -0.4548,-0.30319 -0.22739,-0.83377 -1.81915,-0.45479 -1.59173,0.37899 -2.04649,0.53058 -2.57709,0.90957 -0.53057,0.37898 -0.53057,1.13695 -0.75795,1.59173 -0.22741,0.45479 0.68217,0.30319 -1.06117,1.06116 -1.74334,0.75797 -0.83375,-0.37898 -2.65289,1.21275 -1.81912,1.59174 -1.21275,1.74333 -2.5771,1.97072 -1.36435,0.22739 -0.53057,0 -1.59173,1.13696 -1.06117,1.13695 -0.90956,1.66753 -1.97072,1.66753 -1.06117,0 -0.68218,1.89492 -1.6675395,0.60637 -0.98536,-1.28854 -1.66754,-0.75797 -0.90956,-1.36434 0.75798,-0.60638 0.90956,-0.45478 1.5159295,-0.60638 0.6064,-0.15159 0.30319,0.22739 0.98536,-0.75797 0.68218,-0.98536 0.5306,-1.36434 1.59174,-1.44014 1.06116,-0.0758 0.90958,0.90957 1.36435,-0.53058 0.45479,-1.44014 0,-1.36434 0.83378,-2.12231 0.83375,-0.75797 1.74331,-1.51594 0.68217,-1.59174 -1.06116,-0.0758 -1.13696,-0.30318 -2.12233,0.1516 -0.98536,0.45478 -1.06116,0.68217 -1.97072,0.53058 -0.90956,-0.1516 -1.13694,-0.22739 -1.13694,-0.60638 0,-0.37898 -0.37899,-1.59173 -0.37899,-1.59173 0,0 0.75798,-0.37899 -0.5305695,-0.68218 -1.28854,-0.30318 -1.36435,0.68218 -1.28854,-0.30318 0.0758,-0.98536 0.68214,-0.83377 0.15158,-1.28855 -0.53057,-0.45478 -0.68218,-0.75797 -1.36436,-0.45478 -0.68217,0.30318 -1.44012,1.06115 -0.98536,-0.0758 0.4548,-1.13695 1.36435,-1.59174 1.66754,-2.04652 0.30319,-0.45478 0.75798,-1.74333 0.90956,-2.4255 0.1516,-0.68217 -0.60637,-0.30319 0.30318,-0.98536 0.90959,-0.68217 0.5306,-0.83377 1.6675395,-0.75797 1.13697,0.0758 0.83378,0 1.59173,0.37899 0.75798,0.37898 0.98537,0.60637 1.44016,0.37898 0.45476,-0.22739 0.90956,-0.75797 1.21274,-1.13695 0.30319,-0.37899 0.68218,-0.60638 0.75798,-1.06116 0.0758,-0.45478 0.45477,-0.90956 -0.37899,-0.60638 -0.83375,0.30319 -0.53057,0.30319 -1.66754,0.53058 -1.13694,0.22739 -0.98536,1.06116 -1.44012,0.0758 -0.4548,-0.98536 -0.5306,-1.44014 -0.5306,-1.44014 0,0 -0.45476,0 -0.37899,-1.06116 0.0758,-1.06116 -0.68217,-2.80449 1.36435,-3.33507 2.04653,-0.53057 3.33508,-0.0758 3.41088,0.2274 0.0758,0.30318 -0.60637,0.60637 0.30319,0.68217 0.90955,0.0758 0.98536,0.30319 1.51593,-0.45478 0.53056,-0.75797 1.13696,-0.68218 0.53056,-0.98536 -0.60637,-0.30319 -1.13694,-0.22739 -1.44012,-0.83377 -0.30319,-0.60638 0,-0.75797 -0.30319,-1.59173 -0.30318,-0.83377 -0.30318,-0.98536 -0.75798,-1.59174 -0.45476,-0.60638 -1.66753,-1.51594 -0.15158,-1.89492 1.51593,-0.37899 3.10767,-0.75797 2.80874,-0.54268 0,0 1.71508,-1.92947 2.78702,-1.71509 1.07193,0.21439 2.35825,0 3.43019,-0.85754 1.07193,-0.85755 2.78701,-0.42878 2.78701,-0.42878 l 1.28633,1.07194 c 0,0 1.71508,1.71509 2.78701,1.07193 1.07193,-0.64316 1.07193,1.07193 3.00141,1.28632 1.92947,0.21438 2.094234,0.48942 4.023714,1.13258 L 39.849,35.834 39.823048,36.294441 C 39.715837,37.044805 38.66243,55.06461 38.984,55.279 c 1.293571,0.524346 3.148987,0.281347 4.621397,0.453125 0,0 0.0758,0.0758 0.37899,0.98536 0.30318,0.90957 0.53057,1.51594 1.21274,2.72869 0.68218,1.21276 0.0758,4.85101 0.0758,4.85101 l 1.21275,1.66753 c 0,0 0.98536,0.45478 1.36435,0.53058 0.37896,0.0758 0.22738,1.97072 0.15158,2.72869 -0.0758,0.75797 -0.98536,0.37898 -1.51593,0.53058 -0.5306,0.15159 -0.68218,1.44014 -0.75798,2.19811 -0.0758,0.75797 -1.43801,0.45607 -1.43801,0.45607 z"
       id="alaska"
       sodipodi:nodetypes="csssssssssssssssssssssssssssssssssssssscsssssssssssssssscsssssssssscssccsscccccssccsssscc" />
    <path
       style="display:inline;fill:none;fill-opacity:1;fill-rule:evenodd;stroke:#ff0000;stroke-width:0.606375;enable-background:new"
       d="m 93.003557,57.13989 c 0.42878,-1.5007 5.34688,-6.15991 5.34688,-6.15991 0,0 1.929483,-0.21438 2.787023,-0.85754 0.85754,-0.64316 -1.07193,-2.57264 -1.07193,-2.57264 l 0.42878,-1.28631 1.2863,1.07193 c 0,0 0.42878,0.85754 1.71511,0.85754 1.28629,0 0.85754,-1.28631 1.71508,-1.5007 0.85754,-0.21438 1.71508,-2.35825 1.71508,-2.35825 0,0 1.71511,0.64316 3.43019,-1.07192 1.71508,-1.7151 0.42876,-0.85755 0,-1.7151 -0.42878,-0.85754 0.42876,-1.50069 0.42876,-1.50069 l -1.2863,-0.42878 c 0,0 0.85754,-0.64316 0,-1.92947 -0.85754,-1.28632 -1.07193,0.64315 -1.92947,1.28631 -0.85757,0.64316 -0.64318,1.28632 -3.00141,0.85754 -2.35826,-0.42876 0,-1.28631 -0.21439,-2.14385 -0.21439,-0.85755 -2.57265,0.42877 -3.00141,-0.85755 -0.42878,-1.28632 -1.07193,0.64316 -0.85754,-0.64316 0.21436,-1.28632 -0.21439,-3.21579 -1.071933,-3.64456 -0.85754,-0.42877 1.715083,-4.50211 1.715083,-4.50211 0,0 1.71508,0.85754 1.92947,-0.64316 0.21439,-1.5007 1.07194,-1.28631 1.07194,-2.14386 0,-0.85754 -2.14387,-0.21438 -2.14387,-0.21438 l -0.42876,1.71509 c 0,0 -2.572653,-1.92949 -2.572653,0 0,1.92947 -0.85754,1.92947 -2.14386,4.5021 -1.2863,2.57264 -0.21437,4.07334 -0.21437,4.07334 0,0 1.2863,0.42877 0.85754,1.71509 -0.42878,1.28631 -3.0014,1.07193 -3.0014,1.07193 l -0.2144,-2.35825 h -1.71508 c 0,0 -0.21439,2.35825 0,3.21579 0.21439,0.85754 -4.71649,0.21439 -6.00281,-0.85754 -1.28633,-1.07193 -2.78702,0.85754 -4.07334,1.5007 -1.28633,0.64316 -2.35823,0.21438 -3.64456,-0.21438 -1.28632,-0.42878 -0.64315,1.71508 -3.43019,1.5007 -2.78701,-0.21439 -1.2863,-3.85895 -1.92947,-2.57264 -0.64315,1.28632 -3.43017,-1.07193 -4.93088,-2.35824 -1.50069,-1.28632 -4.28771,-0.85755 -4.28771,-0.85755 l -0.21439,-1.5007 h -1.50072 l -1.92947,0.42877 c 0,0 -1.50069,0.64316 -2.78702,0.42878 -1.28632,-0.21439 -1.07193,1.07192 -1.07193,1.07192 0,0 -1.50069,0.64316 -3.43016,0.42878 -1.92948,-0.21439 -1.71508,0.64315 -2.57265,1.28631 -0.85754,0.64316 -3.85895,-0.85754 -5.78842,-1.71509 -1.92948,-0.85754 -3.18979,0.93335 -5.11927,0.29019 0,0 -1.016692,18.989564 -0.86511,19.44435 0.03789,0.113695 0.07856,0.330657 4.621083,0.453365 l 38.277877,1.061285 9.70413,0.22868 c 2.501743,0.05895 1.41655,0.11784 1.41655,0.11784 z"
       id="northwest_territory"
       sodipodi:nodetypes="cssscsccccssssssscccscssccsscsssssssccsscsscccscccscsc" />
  </g>
</svg>
