<svg xmlns:inkscape="http://www.inkscape.org/namespaces/inkscape" xmlns:sodipodi="http://sodipodi.sourceforge.net/DTD/sodipodi-0.dtd" xmlns="http://www.w3.org/2000/svg" xmlns:svg="http://www.w3.org/2000/svg" width="440mm" height="300mm" viewBox="0 0 440 300" version="1.1" id="SVGRoot" sodipodi:docname="all.svg" inkscape:version="1.1.1 (3bf5ae0d25, 2021-09-20, custom)">
  <sodipodi:namedview id="namedview345" pagecolor="#ffffff" bordercolor="#666666" borderopacity="1.0" inkscape:pageshadow="2" inkscape:pageopacity="0.0" inkscape:pagecheckerboard="0" inkscape:document-units="mm" showgrid="false" inkscape:zoom="42.728027" inkscape:cx="440.9986" inkscape:cy="1082.9777" inkscape:window-width="1916" inkscape:window-height="1030" inkscape:window-x="0" inkscape:window-y="0" inkscape:window-maximized="1" inkscape:current-layer="layer1"/>
  <defs id="defs340"/>
  <g inkscape:label="Warstwa 1" inkscape:groupmode="layer" id="layer1">
    <path id="ukraine" style="display:inline;overflow:visible;visibility:visible;fill:none;fill-opacity:1;fill-rule:evenodd;stroke:#ff0000;stroke-width:0.606375;marker:none;marker-start:none;marker-mid:none;marker-end:none;enable-background:accumulate" d="m 241.93553,39.671035 c -0.75035,-0.0536 -1.28631,-0.21439 -1.28631,-0.21439 0,0 0.56092,2.40593 0.18193,2.70912 -0.37898,0.30319 0.45479,2.19811 0,2.5013 -0.45478,0.30319 -0.68217,3.78984 -0.68217,5.38158 0,1.59174 0.83377,4.09303 0.60638,5.38158 -0.22739,1.28855 0.37898,3.10768 0.37898,3.10768 0,0 0.37899,0.37898 0.37899,1.36434 0,0.98536 0.53057,1.51594 0.53057,1.51594 0,0 0.26529,0.0758 0.30319,0.41688 0.0379,0.34109 0.0379,0.87167 -0.11369,1.02326 -0.1516,0.1516 -0.49268,0.41689 -0.49268,0.98536 0,0.56848 0.15159,0.79587 -0.0379,1.06116 -0.18949,0.26529 -0.34109,0.34109 -0.41688,0.98536 -0.0758,0.64427 -0.1895,1.51594 -0.0379,1.85702 0.15159,0.34109 0.41688,1.62964 -0.1137,1.47804 -0.53058,-0.15159 0.60638,0.2274 0.90956,0.45479 0.30319,0.22739 -0.68217,0.68217 -1.21275,0.83376 -0.53058,0.1516 -0.98536,0.1516 -1.74332,0.0758 -0.75797,-0.0758 -0.53058,-0.22739 -1.13696,-0.1516 -0.60638,0.0758 -1.89492,0.45479 -2.5771,0.30319 -0.68217,-0.15159 -1.06115,-0.0758 -1.51593,0.22739 -0.45479,0.30319 -0.1516,0.90957 -0.1516,1.59174 0,0.68217 0.45478,0.22739 0.53058,0.98536 0.0758,0.75797 0.22739,0.60637 0.45478,1.06116 0.22739,0.45478 0.60638,0.0758 0.60638,0.0758 0,0 1.28855,1.06116 1.13695,1.74333 -0.15159,0.68218 0.30319,1.13696 0.30319,1.74333 0,0.60638 -0.68217,0.1516 -1.66753,0.0758 -0.98536,-0.0758 -0.37899,-0.53058 -0.75797,-1.59174 -0.37899,-1.06115 -0.30319,-0.37898 -0.90957,-0.60637 -0.60637,-0.22739 -0.60637,0.15159 -0.75796,0.83376 -0.1516,0.68218 -0.22739,0.75797 -0.75797,1.21276 -0.53058,0.45478 -0.0758,0.83376 -0.22739,1.51593 -0.1516,0.68218 -0.37899,0.60638 -0.83377,1.13696 -0.45478,0.53058 0.15159,0.83376 0.37898,1.59173 0.22739,0.75797 0.53058,1.06116 0.53058,1.06116 0.30319,0.30319 0.22739,0.60637 0.22739,1.06116 0,0.45478 -0.30318,0.68217 -0.60637,0.90956 l 0.75797,0.0758 c 0,0 0.64427,0.56847 0.68217,0.75797 0.0379,0.18949 0.72007,0.75797 0.72007,0.75797 0,0 1.51594,0.83376 2.04652,0.83376 0.53058,0 1.13695,-0.34108 1.44014,-0.37898 0.30319,-0.0379 -0.0379,0.53058 -0.0379,0.72007 0,0.18949 0.41688,1.97072 0.60637,2.3497 0.1895,0.37899 0.2274,4.8889 0.26529,5.72267 0.0379,0.83377 0.83377,1.66753 1.06116,1.85703 0.22739,0.18949 0.37899,0.64427 0.37899,0.83376 0,0.1895 -0.49268,0.83377 -0.53058,1.09906 -0.0379,0.265285 0.0758,0.720065 0.0379,1.061155 -0.0379,0.34108 -0.30319,0.49268 -0.60638,0.75796 -0.30319,0.26529 -0.22739,0.87167 -0.41688,1.25065 -0.1895,0.37899 -0.49268,0.37899 -0.87167,0.53058 -0.37898,0.1516 -1.40224,2.19812 -1.51594,2.42551 -0.11369,0.22739 -1.17485,0.60637 -1.51593,0.60637 -0.34109,0 -1.25065,0.26529 -1.36435,0.56848 -0.11369,0.30319 -0.11369,0.90956 -0.11369,0.90956 l 1.40224,1.32645 c 0.15159,-0.0379 0.30319,-0.49268 0.45478,-0.72008 0.1516,-0.22738 0.72007,-0.26528 0.72007,-0.26528 0,0 0.98536,-0.0379 1.40225,0.22739 0.41688,0.26529 0.15159,0.45478 0.18949,1.25065 0.0379,0.79586 0.0379,0.64427 0.15159,1.02325 0.1137,0.37899 0.30319,0.2274 0.98536,0.41689 0.68217,0.18949 0.45478,0.11369 0.98536,0.18949 0.53058,0.0758 0.41689,0.45478 0.68217,1.02326 0.26529,0.56848 0.30319,0.98536 0.56848,1.47804 0.26529,0.49268 0.26529,0.79587 0.26529,0.94746 0,0.1516 -0.18949,0.90956 -0.22739,1.32645 -0.0379,0.41688 -0.22739,0.49268 -0.30319,0.68217 -0.0758,0.18949 -0.0379,0.72007 -0.0379,0.90956 0,0.18949 0.26529,0.45478 0.49268,0.72007 0.22739,0.26529 0.22739,0.49268 0.22739,0.90957 0,0.41688 -0.34108,1.06115 -0.34108,1.44014 0,0.37898 0.56847,0.64427 0.49268,0.98536 -0.0758,0.34108 1.32644,1.36434 1.32644,1.36434 l 0.60638,-0.45478 c 0,0 0.60638,-0.0758 1.06116,-0.53058 0.45478,-0.45478 0.30319,-0.68217 0.30319,-0.68217 0,0 0.15159,-1.44014 0.37898,-1.74333 0.22739,-0.30319 0.53058,-0.15159 1.51594,-0.37898 0.98536,-0.22739 0.60637,0 1.06115,0 0.45479,0 0.75797,0.30318 1.21276,0.45478 0.45478,0.15159 0.37898,0.45478 0.53057,1.06116 0.1516,0.60637 0.30319,0.98536 0.37899,1.51593 0.0758,0.53058 0.0758,0.60638 0.30319,1.13696 0.22739,0.53058 0.45478,0.45478 1.06115,0.83376 0.60638,0.37899 0.2274,0.30319 1.13696,0.75797 0.90956,0.45479 0.45478,-0.68217 0.75797,-1.21275 0.30319,-0.53057 0.45478,-0.53057 0.75797,-0.68217 0.30318,-0.15159 0.53057,-0.30319 0.90956,-0.60638 0.37898,-0.30318 0.22739,-0.30318 0.45478,-0.83376 0.22739,-0.53058 -0.0758,-0.75797 -0.22739,-1.06116 -0.15159,-0.30319 -0.45478,0.0758 -0.83377,0.0758 -0.37898,0 -0.83376,-0.45478 -1.21275,-0.90957 -0.37898,-0.45478 -0.0758,-0.60637 -0.0758,-0.60637 0,0 0.53058,-0.60637 1.06115,-0.98536 0.53058,-0.37899 0.45478,-0.30319 0.90957,-0.45478 0.45478,-0.1516 0.75797,-0.1516 1.13695,-0.30319 0.37898,-0.15159 0.68217,-0.22739 1.44014,-0.37898 0.75797,-0.1516 0.45478,0 1.28855,0 0.83377,0 0.98536,-0.1516 0.98536,-0.1516 0,0 0.22739,-0.30318 0.60638,-0.53058 0.37898,-0.22739 0.53057,-0.0758 0.75796,0.2274 0.22739,0.30318 -0.15159,0.75796 -0.15159,0.75796 0,0 -0.37898,0.37899 -0.90956,0.90957 -0.53058,0.53058 -0.60638,0.22739 -1.59174,0.37898 -0.98536,0.1516 -0.30318,0.1516 -0.37898,0.68217 -0.0758,0.53058 -0.45478,0.98536 -0.45478,0.98536 l -0.30319,0.75797 0.53058,0.30319 c 0,0 0.22739,0.45478 0.37898,1.06116 0.1516,0.60637 0.45478,0.22739 0.83377,0.37898 0.37898,0.1516 -0.0758,0.60638 -0.0758,1.06116 0,0.45478 0.68217,0.83377 1.06116,1.21275 0.37898,0.37899 0.22739,0.53058 0.60637,1.21275 0.37899,0.68217 0.30319,-0.22739 0.60638,-0.37898 0.30319,-0.1516 0.45478,-0.1516 1.13695,-0.22739 0.68218,-0.0758 0.75797,0.0758 0.75797,0.0758 l -0.37898,0.90957 c 0,0 0.45478,0.30318 0.98536,0.83376 0.53058,0.53058 0.15159,0.98536 0.83376,0.98536 0.68218,0 0.45479,0.30319 0.75797,0.53058 0.30319,0.22739 0.60638,0.60638 1.13696,1.06116 0.53058,0.45478 0.45478,0.30319 0.90956,0.37898 0.45478,0.0758 0.22739,0.0758 0.45478,1.81913 0.22739,1.74333 0.45478,0.15159 0.45478,0.15159 0,0 -0.15159,0.45479 -0.37898,0.75797 -0.22739,0.30319 -0.53058,0.45478 -0.83377,0.75797 -0.30319,0.30319 -0.68217,0.60638 -0.68217,0.90957 0,0.30318 0.37898,0.30318 1.21275,0.90956 0.83377,0.60637 0.83377,-0.30319 0.83377,-0.30319 0,0 0.37898,-0.22739 1.36434,-0.15159 0.98536,0.0758 0.83377,-0.22739 0.83377,-0.22739 0,0 0.45478,-0.53058 1.06116,-0.60638 0.60637,-0.0758 0.53057,0 1.06115,-0.0758 0.53058,-0.0758 0.53058,-0.30318 0.90957,-0.60637 0.37898,-0.30319 0.75796,-0.0758 1.13695,-0.1516 0.37898,-0.0758 1.13695,-0.15159 1.13695,-0.15159 1.28855,-0.22739 0.1516,-0.22739 0.2274,-0.75797 0.0758,-0.53058 0.60637,-0.53058 0.60637,-0.53058 0,0 0.45478,0.0758 0.75797,-0.22739 0.30319,-0.30319 0.45478,-0.45478 0.45478,-0.83377 0,-0.37898 -0.37898,-0.98535 -0.37898,-0.98535 0,0 -0.53058,-0.37899 -0.53058,-0.83377 0,-0.45478 0.0758,-0.60638 0.22739,-0.90956 0.15159,-0.30319 0,-0.83377 0,-1.74333 0,-0.90957 0,-0.98536 0.0758,-1.59174 0.0758,-0.60638 0.45479,-0.30319 0.90957,-0.60638 0.45478,-0.30318 -0.1516,-1.06115 -0.1516,-1.06115 0,0 -0.30318,0 -0.98536,-0.22739 -0.68217,-0.22739 -0.98535,-0.22739 -1.44014,-1.13696 -0.45478,-0.90956 -0.22739,-0.68217 -0.30319,-1.06115 -0.0758,-0.37899 -0.45478,-0.53058 -0.30318,-1.44015 0.15159,-0.90956 -0.60212,-1.77487 -0.60212,-1.77487 l -0.64316,-0.21438 c 0,0 -0.42877,-0.21439 -0.53597,-0.64316 -0.10719,-0.42878 0.1072,-0.53597 0.21439,-1.17913 0.10719,-0.64316 -0.32158,-1.28631 -0.32158,-1.28631 l -0.75035,0.64315 c 0,0 1.07193,-1.71508 1.17912,-2.25105 0.1072,-0.53596 0,-0.64316 0.21439,-1.07193 0.21439,-0.42877 0.42877,-0.32158 1.07193,-0.53597 0.64315,-0.21438 0.85755,-0.64315 0.85755,-0.64315 0,0 0.32158,-0.85754 0.21438,-1.71509 -0.1072,-0.85755 -0.21438,-1.17912 -0.21438,-1.92948 0,-0.75035 -0.85755,-0.53596 -0.85755,-0.53596 l -0.64316,-0.85754 c 0,0 -0.64316,-0.21439 -0.96474,-0.75036 -0.32158,-0.53596 0,-0.85754 0.1072,-1.5007 0.10719,-0.64316 -0.32158,-0.85754 -0.32158,-0.85754 0,0 -0.53597,-1.28632 -0.75036,-1.92948 -0.21438,-0.64316 -0.10719,-0.964735 -0.21438,-1.500695 -0.10719,-0.53597 0.10719,-0.85755 0.42877,-1.28632 0.32158,-0.42877 0.75035,-1.07193 1.39351,-1.28631 0.64316,-0.21439 -0.21438,-0.96474 -0.21438,-0.96474 0,0 0.75035,-2.25105 1.17912,-2.25105 0.42877,0 0.42877,0 2.03667,-0.1072 1.60789,-0.10719 0.85754,-0.53596 1.17912,-0.96474 0.32158,-0.42877 1.07193,-0.32158 1.5007,-0.42877 0.42877,-0.10719 0.42877,0 0.85755,0 0.42877,0 1.92947,-0.42877 1.92947,-0.42877 0,0 0.96474,-0.85755 1.39351,-1.07193 0.42878,-0.21439 0.85754,-0.53597 0.85754,-0.53597 l 0.75036,0.75035 0.85754,0.1072 c 0,0 0.96474,0.42877 1.50071,0.53596 0.53596,0.1072 0.75034,0.21439 1.28631,0.1072 0.53597,-0.1072 0.64316,-0.32158 1.07193,-1.17913 0.42877,-0.85754 0.53597,-1.07193 0.64316,-1.82228 0.10719,-0.75035 2.03667,-0.75035 2.57264,-0.96474 0.53596,-0.21438 0.64315,-0.42877 1.28631,-0.75035 0.64316,-0.32158 0,-0.96474 0,-2.03667 0,-1.07193 -0.32158,-1.17912 -0.42877,-1.92947 -0.1072,-0.75035 -0.32158,-0.96474 -0.42878,-1.50071 -0.10718,-0.53596 0.96474,-1.07192 1.39352,-1.92947 0.42877,-0.85754 0,-1.17912 -0.1072,-1.92948 -0.10719,-0.75034 -1.07193,-0.75034 -1.07193,-0.75034 l -1.92948,-1.28633 -0.85754,-0.42876 c 0,0 -0.10719,-0.85755 0,-1.82229 0.1072,-0.96474 0.64316,-1.28632 1.07193,-2.03666 0.42877,-0.75036 0.42877,-1.6079 0.42877,-2.14387 0,-0.53596 -1.07192,-0.75034 -1.07192,-0.75034 0,0 0,-1.92948 0,-2.46545 0,-0.53596 0,-2.14386 0,-2.89421 0,-0.75035 -0.42878,-2.14386 -0.75036,-2.67983 -0.32158,-0.53596 0.32158,-1.5007 0.32158,-1.5007 0,0 -0.53596,-1.17912 -0.64316,-1.71509 -0.10719,-0.53596 0.64316,-2.89421 0.64316,-2.89421 l 1.17912,-2.89421 0.75036,-1.28632 c 0,0 0,-1.92947 0.32158,-2.35825 0.32157,-0.42877 0.21439,-2.46544 0.21439,-2.46544 0,0 -0.42878,-4.07333 -0.85755,-4.34132 -0.42877,-0.26798 -0.58956,-0.58956 -1.01834,-1.12552 -0.42877,-0.53597 -1.23272,-0.0536 -1.82228,-0.0536 -0.58956,0 -1.17912,-0.0536 -1.82228,-0.16079 -0.64316,-0.1072 -0.80395,-0.26799 -1.60789,-0.42878 -0.80395,-0.16079 -1.33992,0.53597 -1.55431,0.96474 -0.21438,0.42878 -0.42876,0.58956 -1.07192,1.5543 -0.64316,0.96474 -0.69676,0.21439 -1.50071,0.58956 -0.80394,0.37518 -0.75035,-0.53596 -1.33991,-0.75035 -0.58956,-0.21438 -1.33991,0.21439 -1.98308,0.21439 -0.64315,0 -0.58956,-0.16079 -1.3935,-0.69676 -0.80395,-0.53596 -0.80395,-0.32158 -1.92947,0.75036 -1.12553,1.07192 -1.01834,0.69675 -1.82229,0.53596 -0.80395,-0.16079 -1.17912,0.75035 -1.17912,0.75035 0,0 -1.44711,1.39351 -1.82228,1.6079 -0.37518,0.21438 -1.87588,0.64316 -2.41185,1.39351 -0.53596,0.75035 -0.10719,0.48237 -1.12552,1.01833 -1.01834,0.53597 -0.80395,0.0536 -0.80395,-0.58956 0,-0.64316 0,-0.26798 0.37517,-1.12552 0.37518,-0.85755 0,-0.37518 -0.37517,-0.53597 -0.37518,-0.16079 -0.64316,-0.48237 -1.01834,-1.01834 -0.37517,-0.53596 -0.37517,-0.75035 -0.80394,-1.17912 -0.42878,-0.42877 -1.28632,0.48237 -2.03667,0.37518 -0.75036,-0.1072 -0.69676,0 -1.23272,0.0536 -0.53597,0.0536 -0.0536,0.48236 0.10719,0.96474 0.16079,0.48236 0.26799,0.42876 0.64316,0.85754 0.37517,0.42877 -0.0536,1.17913 -0.0536,1.60789 0,0.42878 -0.10719,0.48237 0.0536,0.96474 0.16079,0.48237 0.42877,0.32158 0.96473,0.69676 0.53597,0.37517 0.32158,0.58956 0.21439,1.07193 -0.10719,0.48236 -0.58956,-0.0536 -1.17912,-0.1072 -0.58956,-0.0536 -0.96474,0.80395 -1.5543,1.12553 -0.58956,0.32158 -0.85754,0.21439 -1.4471,0.26799 -0.58957,0.0536 -0.48238,0.37517 -1.44711,1.28631 -0.96474,0.91114 -1.01834,0.37518 -1.71509,0.37518 -0.69675,0 -0.42877,-0.37518 -1.23272,-0.91115 -0.80395,-0.53596 -0.37518,0.0536 -0.96474,0.26799 -0.58956,0.21438 0.0536,0.64316 0.42877,1.23272 0.37518,0.58956 0.48237,1.01833 0.58957,1.23272 0.10719,0.21438 0,0.26798 -0.85755,1.17912 -0.85754,0.91115 -0.64316,0.0536 -1.28631,0.0536 -0.64316,0 -0.48238,0.0536 -1.12553,0.1072 -0.64316,0.0536 -0.42878,-0.26798 -0.42878,-0.69676 0,-0.42877 0,-0.37517 0,-1.28631 0,-0.91114 -0.32158,-0.69676 -0.48236,-0.91114 -0.1608,-0.21439 0,-0.48238 -0.1072,-0.75036 -0.10719,-0.26798 -0.53596,-0.64316 -0.80394,-0.64316 -0.26798,0 -1.01834,0.0536 -1.17913,-0.16078 -0.16079,-0.21439 -0.48237,-0.53597 -0.96474,-0.75036 -0.48236,-0.21438 -1.01833,-0.75035 -1.23272,-0.96473 -0.21438,-0.21439 0,-0.48237 0.0536,-0.75036 0.0536,-0.26798 1.01833,-0.64315 1.82228,-0.53596 0.80395,0.1072 2.51904,0.32158 3.85895,0.32158 1.33991,0 1.98307,0 2.51904,0 0.53596,0 1.82228,-0.26798 2.51903,-0.42877 0.69676,-0.16079 1.6079,-0.64316 1.92948,-1.01834 0.32157,-0.37517 0.10719,-0.48236 0.0536,-1.17912 -0.0536,-0.69676 -0.26798,-0.96474 -0.75035,-1.39351 -0.48237,-0.42877 -0.42878,-0.69676 -2.46544,-2.03667 -2.03667,-1.33991 -1.92948,-0.42877 -2.73342,-0.37517 -0.80395,0.0536 -0.69676,-0.32158 -1.28632,-0.48237 -0.58956,-0.16079 -1.82228,-0.10719 -2.84062,-0.10719 -1.01833,0 -1.07193,0.16079 -1.87587,-0.0536 -0.80396,-0.21439 -0.42878,-0.48237 -1.12553,-0.53597 -0.69676,-0.0536 -0.85755,0.1072 -1.44711,-0.10718 -0.58956,-0.21439 -0.75035,-0.53597 -1.17912,-0.69676 -0.42877,-0.16079 0.16079,0.1072 -0.58956,0.0536 z" sodipodi:nodetypes="ccsssscscssssssccsssssssscsssssssssscsccscsssssssssssssssccscsssssssssssssssccscsssssssssssssssscssssscsscssscccsssssssccsssssscsssscscsssscscsscssssscssssccssccssscssccsscsssscssssscscccssssssssssscccssscssscscccscssssssssssssscssssssssssssssssssssssssssssssssssssssssssssssssssssc"/>
    </g>
</svg>