<svg xmlns:inkscape="http://www.inkscape.org/namespaces/inkscape" xmlns:sodipodi="http://sodipodi.sourceforge.net/DTD/sodipodi-0.dtd" xmlns="http://www.w3.org/2000/svg" xmlns:svg="http://www.w3.org/2000/svg" width="440mm" height="300mm" viewBox="0 0 440 300" version="1.1" id="SVGRoot" sodipodi:docname="all.svg" inkscape:version="1.1.1 (3bf5ae0d25, 2021-09-20, custom)">
  <sodipodi:namedview id="namedview345" pagecolor="#ffffff" bordercolor="#666666" borderopacity="1.0" inkscape:pageshadow="2" inkscape:pageopacity="0.0" inkscape:pagecheckerboard="0" inkscape:document-units="mm" showgrid="false" inkscape:zoom="42.728027" inkscape:cx="440.9986" inkscape:cy="1082.9777" inkscape:window-width="1916" inkscape:window-height="1030" inkscape:window-x="0" inkscape:window-y="0" inkscape:window-maximized="1" inkscape:current-layer="layer1"/>
  <defs id="defs340"/>
  <g inkscape:label="Warstwa 1" inkscape:groupmode="layer" id="layer1">
    <path id="ural" style="display:inline;overflow:visible;visibility:visible;fill:none;fill-opacity:1;fill-rule:evenodd;stroke:#ff0000;stroke-width:0.606375;marker:none;marker-start:none;marker-mid:none;marker-end:none;enable-background:accumulate" d="m 293.68827,86.758655 c 0.64316,-0.32158 0.0989,-0.93178 0.0989,-2.0037 0,-1.07194 -0.32157,-1.17913 -0.42877,-1.92948 -0.10719,-0.75035 -0.32158,-0.96473 -0.42877,-1.50071 -0.10719,-0.53596 0.96474,-1.07192 1.39351,-1.92947 0.42877,-0.85754 0,-1.17912 -0.1072,-1.92947 -0.10719,-0.75035 -1.07192,-0.75035 -1.07192,-0.75035 l -1.92948,-1.28632 -0.85755,-0.42877 c 0,0 -0.10719,-0.85755 0,-1.82229 0.1072,-0.96473 0.64316,-1.28631 1.07194,-2.03666 0.42877,-0.75035 0.42877,-1.6079 0.42877,-2.14387 0,-0.53596 -1.07193,-0.75034 -1.07193,-0.75034 0,0 0,-1.92948 0,-2.46545 0,-0.53596 0,-2.14386 0,-2.89421 0,-0.75035 -0.42878,-2.14386 -0.75035,-2.67983 -0.32158,-0.53596 0.32157,-1.5007 0.32157,-1.5007 0,0 -0.53596,-1.17912 -0.64315,-1.71509 -0.1072,-0.53596 0.64315,-2.89421 0.64315,-2.89421 l 1.17913,-2.89421 0.75035,-1.28632 c 0,0 0,-1.92947 0.32158,-2.35825 0.32158,-0.42876 0.21439,-2.46543 0.21439,-2.46543 0,0 -0.42878,-4.07334 -0.85755,-4.34132 l 0.40822,-1.39093 -0.60638,-0.53058 -0.22739,-1.51593 -1.51594,-0.37899 0.1516,-2.04652 c 0,0 0.90956,-0.90956 1.28854,-0.90956 0.37899,0 -0.90956,-1.28855 -1.06115,-1.81913 -0.1516,-0.53057 0,-0.75796 0.30319,-0.90956 0.30318,-0.15159 0.15159,-0.60637 0.0758,-1.21275 -0.0758,-0.60638 -0.0758,-0.68217 -0.0758,-0.68217 l 0.53057,-1.51594 1.74333,0.60638 c 0,0 0.37899,0.60637 0.75797,0.68217 0.37899,0.0758 0.75797,0 1.06116,0 0.30319,0 0.15159,0.0758 0.60638,0.98536 0.45478,0.90956 0.45478,0 1.13695,0.15159 0.68217,0.1516 0.68217,0.83377 0.60637,1.28855 -0.0758,0.45478 -0.45478,0.83377 -0.83376,1.51594 -0.37899,0.68217 -0.30319,0.45478 -0.90956,1.13695 -0.60638,0.68217 0.90956,1.13696 0.90956,1.13696 0,0 0.15159,0.90956 0.53058,1.44014 0.37898,0.53058 0.0758,0.15159 0.68217,0.45478 0.60638,0.30319 0,0.53058 0,1.36434 0,0.83377 0.45478,0.1516 0.45478,0.1516 0,0 0.30319,0.37898 0.53058,1.13695 0.22739,0.75797 0.0758,0.30319 0.60637,1.44014 0.53058,1.13696 0.75797,-0.0758 0.75797,-0.0758 0,0 0.45479,0.37898 0.75797,0.98536 0.30319,0.60637 1.44015,0.37898 1.44015,0.37898 0,0 0.60637,-0.60637 1.06115,-0.98536 0.45478,-0.37898 0.30319,-0.22739 0.90957,-0.45478 0.60637,-0.22739 0.0297,0.089 0.40864,1.15014 0.37898,1.06115 0.2566,1.85425 0.30321,2.3203 0.0466,0.46606 0.27964,0.88551 0.65248,0.93212 0.37285,0.0466 0.74569,0.41945 1.25836,0.8855 0.51265,0.46606 0.51265,0.51267 0.69908,0.65248 0.18642,0.13982 1.02532,2.33029 1.02532,2.56332 0,0.23302 0.32624,1.21174 0.37285,1.49138 0.0466,0.27963 0.32624,0 0.93211,0 0.60588,0 0.93211,0.37284 0.97872,1.16514 0.0466,0.79229 0.0932,1.35156 0.23303,1.91083 0.13982,0.55927 0,1.25835 -0.0932,1.72441 -0.0932,0.46606 -0.0466,1.02533 0.0466,1.25835 0.0932,0.23303 1.53799,0.60588 1.72441,0.8389 0.18642,0.23303 0.93212,0.55928 1.11853,1.02533 0.18643,0.46606 0.18643,0.60587 0.37285,0.88551 0.18642,0.27963 0.88551,0.8389 1.07193,0.97872 0.18642,0.13982 0.13982,0.93211 0.37284,1.25835 0.23304,0.32624 0.69909,0.69908 0.88551,0.93211 0.18643,0.23303 0.65248,1.72441 0.37285,2.19047 -0.27964,0.46606 -0.13982,1.16514 -0.27964,2.00404 -0.13981,0.83891 0.13982,0.46606 1.02533,0.97872 0.88551,0.51266 0,0.32625 0.0466,0.7923 0.0466,0.46606 0.37284,0.65248 0.7923,1.07193 0.41945,0.41945 0.18642,0.37285 0.23302,1.02532 0.0466,0.65249 0.55927,1.11854 0.88551,1.6312 0.32624,0.51267 -0.13981,0.60588 -0.41945,1.16515 -0.27963,0.55926 -0.74569,0.37284 -1.35157,0.97872 -0.60587,0.60587 -0.32623,1.07192 -0.32623,1.53798 0,0.46606 -0.23303,1.35157 -0.65248,1.81763 -0.41945,0.46605 -0.18643,-0.83891 -0.88551,0.13981 -0.69908,0.97872 -0.46606,2.28368 -0.37285,2.79634 0.0932,0.51267 0.37285,0.46606 0.55928,0.55927 0.18641,0.0932 0.51265,-0.27963 0.8855,-0.8389 0.37285,-0.55927 1.02532,-0.37285 1.39817,-0.32624 0.37285,0.0466 1.02533,0.51266 1.39817,1.02533 0.37285,0.51266 0,1.95743 -0.0466,2.19046 -0.0466,0.23303 -0.32624,0.79229 -0.37284,1.35156 -0.0466,0.55927 2.33028,0.51267 2.33028,0.51267 0,0 0.55927,1.53798 0.7923,1.53798 0.23302,0 0.93211,0 1.07192,0.46606 0.13982,0.46606 0.83891,1.72441 1.30497,1.91083 0.46605,0.18643 0.18642,0.32624 0.18642,0.60588 0,0.27963 0,0.32624 0.55927,1.11853 0.55926,0.7923 0.51266,2.4235 0.51266,3.16919 0,0.74569 -0.0466,0.55926 -0.13981,0.97872 l -1.5342,0.12426 c 0,0 0.39547,2.57051 0,2.76824 -0.39546,0.19773 -2.30685,0.46137 -2.30685,0.46137 0,0 -0.0659,1.977315 -0.13182,2.306865 -0.0659,0.32955 -0.98866,0.92274 -1.1864,1.2523 -0.19772,0.32955 -0.39546,0.32955 -0.19772,0.72501 0.19772,0.39546 0.32955,0.92275 0.26364,1.18639 -0.0659,0.26364 0.32955,0.79092 -0.39546,0.92274 -0.72502,0.13182 -1.05457,0.39546 -1.45004,0.0659 -0.39545,-0.32955 -0.52728,-1.05456 -1.05456,-1.31821 -0.52728,-0.26364 -0.72501,-0.26364 -0.79093,-0.79092 -0.0659,-0.52728 -0.26364,-1.31821 -0.26364,-1.31821 0,0 -0.6591,-0.98865 -0.98865,-0.98865 -0.32955,0 -1.64776,0.32955 -1.9114,0.13182 -0.26364,-0.19773 -1.51594,-0.0659 -1.97732,-0.46137 -0.46137,-0.39547 -0.52728,-0.725015 -1.12047,-0.46138 -0.59319,0.26364 -1.64776,0.32955 -1.64776,0.32955 l -0.98866,-0.659095 c 0,0 -0.52728,-0.19773 -1.05456,-0.52728 -0.52729,-0.32955 -0.59319,-1.12048 -0.79093,-1.45003 -0.19773,-0.32955 -0.59319,-0.85683 -0.85683,-1.05457 -0.26364,-0.19773 -0.52729,-0.59319 -0.85684,-0.92274 -0.32955,-0.32956 -0.72501,-0.52728 -1.18638,-0.6591 -0.46138,-0.13183 -0.85684,-0.19774 -0.98866,-0.5932 -0.13182,-0.39546 0,-0.72502 -0.26364,-0.79092 -0.26364,-0.0659 -0.92274,-0.32956 -0.92274,-0.32956 0,0 -0.0659,-0.92274 -0.39547,-1.12047 -0.32955,-0.19773 -0.98865,-0.72502 -1.38412,-0.92275 -0.39546,-0.19773 -0.85683,-0.26364 -0.98865,-0.79092 -0.13182,-0.52729 -0.32955,-0.72502 -0.32955,-0.72502 0,0 -0.79093,-0.52728 -0.92275,-0.85683 -0.13182,-0.32955 -0.52728,-0.98866 -0.52728,-0.98866 l -0.85684,-0.92274 -0.98865,-0.32955 z" sodipodi:nodetypes="cssssscccssscssscscccscccccccsssscccssssssscssscsscscssccssssssssssssssssssssssssssssssssssscssssssccscsssssssscssssccssssssscssscscccc"/>
    </g>
</svg>