<svg xmlns:inkscape="http://www.inkscape.org/namespaces/inkscape" xmlns:sodipodi="http://sodipodi.sourceforge.net/DTD/sodipodi-0.dtd" xmlns="http://www.w3.org/2000/svg" xmlns:svg="http://www.w3.org/2000/svg" width="440mm" height="300mm" viewBox="0 0 440 300" version="1.1" id="SVGRoot" sodipodi:docname="all.svg" inkscape:version="1.1.1 (3bf5ae0d25, 2021-09-20, custom)">
  <sodipodi:namedview id="namedview345" pagecolor="#ffffff" bordercolor="#666666" borderopacity="1.0" inkscape:pageshadow="2" inkscape:pageopacity="0.0" inkscape:pagecheckerboard="0" inkscape:document-units="mm" showgrid="false" inkscape:zoom="42.728027" inkscape:cx="440.9986" inkscape:cy="1082.9777" inkscape:window-width="1916" inkscape:window-height="1030" inkscape:window-x="0" inkscape:window-y="0" inkscape:window-maximized="1" inkscape:current-layer="layer1"/>
  <defs id="defs340"/>
  <g inkscape:label="Warstwa 1" inkscape:groupmode="layer" id="layer1">
    <path style="display:inline;fill:none;fill-opacity:1;fill-rule:evenodd;stroke:#ff0000;stroke-width:0.606375;enable-background:new" d="m 82.415567,177.0843 c 1.13694,-0.75797 0.90956,-2.27391 0.90956,-2.72869 v -1.89492 c 0,-0.60638 -0.0758,-1.06116 0.60637,-1.81913 0.68217,-0.75797 1.06116,-1.44014 1.06116,-1.44014 L 85.372,168.519 l 0.303,-0.834 0.682,-1.667 c 0,0 0.15119,-1.59181 0.227,-1.895 0.0758,-0.30319 -0.151,-1.213 -0.151,-1.213 l 0.151401,-0.45451 1.89492,-0.53058 c 0,0 0.22738,0.22739 0.83378,0 0.60637,-0.22739 1.21274,-0.75797 1.21274,-0.75797 l 1.36435,-0.75797 c 0,0 0.90956,-0.60637 1.21275,-0.90956 0.30318,-0.30319 1.36435,-0.68217 1.36435,-0.68217 0,0 0.53057,-0.1516 0.90955,-0.1516 0.37899,0 1.66754,-0.37898 1.66754,-0.37898 0,0 0.0758,-0.37898 0.53057,-0.68217 0.45479,-0.30319 0.75798,-0.68218 1.13697,-0.75797 0.37896,-0.0758 2.425489,-0.37899 2.425489,-0.37899 0,0 0.75797,0.53058 0.83375,1.28855 0.0758,0.75797 -0.22738,1.21275 0.37899,1.13695 0.60637,-0.0758 1.21277,-0.22739 1.51596,-0.37898 0.30318,-0.15159 0.15158,-0.83377 0.90955,-0.30319 0.75796,0.53058 0.83376,0.68217 1.13695,0.68217 0.30318,0 1.13696,-0.22739 1.13696,-0.22739 l 3.33505,1.13696 c 0,0 0.75798,-0.1516 1.13697,-0.22739 0.37899,-0.0758 2.27391,-0.22739 2.27391,-0.22739 0,0 0.83375,0.22739 1.13694,0.53058 0.30321,0.30318 2.19813,1.44014 2.8045,2.3497 0.60637,0.90956 1.51593,1.21275 1.66754,1.59174 0.15158,0.37898 0.75795,0.75797 1.06113,0.75797 0.30319,0 0.30319,0.60637 0.68218,0.68217 0.37899,0.0758 1.21277,0.0758 1.21277,0.0758 0,0 0.0758,0.30319 0.37896,0.68218 0.30319,0.37898 0.98536,-0.37899 1.13697,0.45478 0.15158,0.83376 -0.0758,1.28854 0.37899,1.28854 0.45477,0 0.90956,-0.30318 0.90956,-0.30318 l 0.75798,-0.30319 c 0,0 0,-0.60637 0.60637,0 0.60637,0.60637 1.06114,0.45478 1.59173,0.60637 0.53057,0.1516 -0.22741,0.53058 1.06114,0.83377 1.28855,0.30319 2.50132,0.45478 2.8045,0.45478 0.30319,0 0.30319,-1.21275 1.36435,-0.22739 1.06114,0.98536 1.81912,1.44014 1.81912,1.44014 0,0 -2.6252,2.16705 -2.9468,2.8102 -0.32157,0.64316 -0.53594,2.03667 -1.28629,2.14387 -0.75036,0.10719 -5.25246,0.32158 -5.25246,0.32158 0,0 0.21437,1.28631 -0.42878,1.28631 -0.64315,0 -6.96754,-0.21438 -6.96754,-0.21438 l -0.85754,-2.57264 c 0,0 -0.75036,0.53597 -0.85757,-0.53596 -0.10718,-1.07193 -0.10718,-2.78702 -0.10718,-2.78702 0,0 -1.6079,0.85754 -2.57263,1.17912 -0.96475,0.32158 -1.82229,1.92948 -2.67983,1.6079 -0.85754,-0.32158 -1.28632,-1.39351 -1.50071,-0.53597 -0.21437,0.85755 0.1072,3.43018 -0.53597,3.64457 -0.64315,0.21438 -0.85754,-0.16079 -1.39351,0.48237 -0.53597,0.64315 -1.98305,0.80394 -2.41183,0.42877 -0.42879,-0.37518 -0.75036,-0.80395 -1.23272,-0.96474 -0.48237,-0.16079 -0.75036,-0.42877 -1.28633,-0.48237 -0.53597,-0.0536 -0.64315,-0.32158 -1.07193,0.16079 -0.42876,0.48237 -1.33991,1.28632 -1.50069,1.71509 -0.16079,0.42877 -1.018329,1.98307 -0.803939,2.57263 0.21437,0.58957 1.071929,0.42877 1.071929,1.50071 0,1.07193 -0.3216,1.60789 -0.911139,1.76868 -0.58957,0.16079 -3.53737,1.12553 -3.53737,1.12553 0,0 -0.48239,-1.28632 -0.80397,-1.6079 -0.32157,-0.32158 -0.91112,-0.48237 -1.3399,-0.58956 -0.42878,-0.10719 -1.12554,-0.85755 -1.6615,-0.80395 -0.53597,0.0536 -1.92948,0.0536 -2.30466,-0.37517 -0.37515,-0.42877 -1.01833,-0.91114 -1.98305,-0.96474 -0.96475,-0.0536 -1.39351,0.64316 -2.03668,-0.37518 -0.64315,-1.01833 -1.82227,-2.41184 -2.14387,-2.46544 -0.32157,-0.0536 -1.82226,-0.21438 -1.4102,-0.65137 z" id="venezuela" sodipodi:nodetypes="csssccccscccsccscscsscsssssccscssssscsssccssssscsscsccscssssssssssssscssssssssc"/>
    </g>
</svg>