<svg xmlns:inkscape="http://www.inkscape.org/namespaces/inkscape" xmlns:sodipodi="http://sodipodi.sourceforge.net/DTD/sodipodi-0.dtd" xmlns="http://www.w3.org/2000/svg" xmlns:svg="http://www.w3.org/2000/svg" width="440mm" height="300mm" viewBox="0 0 440 300" version="1.1" id="SVGRoot" sodipodi:docname="all.svg" inkscape:version="1.1.1 (3bf5ae0d25, 2021-09-20, custom)">
  <sodipodi:namedview id="namedview345" pagecolor="#ffffff" bordercolor="#666666" borderopacity="1.0" inkscape:pageshadow="2" inkscape:pageopacity="0.0" inkscape:pagecheckerboard="0" inkscape:document-units="mm" showgrid="false" inkscape:zoom="42.728027" inkscape:cx="440.9986" inkscape:cy="1082.9777" inkscape:window-width="1916" inkscape:window-height="1030" inkscape:window-x="0" inkscape:window-y="0" inkscape:window-maximized="1" inkscape:current-layer="layer1"/>
  <defs id="defs340"/>
  <g inkscape:label="Warstwa 1" inkscape:groupmode="layer" id="layer1">
    <path id="western_united_states" style="display:inline;fill:none;fill-opacity:1;fill-rule:evenodd;stroke:#ff0000;stroke-width:0.606375;enable-background:new" d="m 87.791927,85.764045 c -0.52536,0.28814 0.081,22.193455 -0.22217,22.496645 -0.30319,0.30318 -6.89753,0.22739 -7.20072,0.37898 -0.30318,0.15159 -0.53057,0.53058 -0.60637,1.06116 -0.0758,0.53058 0,2.4255 -0.0758,3.25926 -0.0758,0.83377 -1.13694,0 -1.44013,0.1516 -0.30319,0.15159 -2.34971,0.90956 -2.34971,1.28855 0,0.37898 -0.45479,2.4255 -0.45479,2.80448 0,0.37899 -0.60638,3.71405 -0.60638,3.71405 0,0 -1.06113,0.30319 -1.36435,0.45478 -0.30318,0.1516 -1.44012,0.1516 -1.74331,0.53058 -0.30318,0.37899 0.0758,1.51594 0.0758,1.51594 0,0 1.06114,0.1516 0.83376,0.60638 -0.22738,0.45478 0.53057,3.25926 0.45479,3.10767 -0.0758,-0.15159 -2.04652,0 -2.6529,0.0758 -0.60637,0.0758 -1.36435,-0.53058 -1.59173,-0.83377 -0.22741,-0.30319 -0.45479,-0.68217 -1.13697,-0.68217 -0.68217,0 -2.0465,-1.66753 -2.42549,-1.97072 -0.37898,-0.30319 -5.07841,0 -5.68478,0 -0.60637,0 -1.44013,-1.44014 -1.44013,-1.44014 l -2.34971,-1.28855 c 0,0 -4.01725,0 -4.6994,0.0758 -0.68217,0.0758 -1.06116,-2.04652 -1.06116,-2.04652 -0.30319,-1.28855 -0.45479,-0.98536 -0.45479,-2.12231 0,-1.13696 -1.74331,-3.33507 -2.5771,-4.54782 -0.83375,-1.21275 -0.83375,-4.47202 -0.68217,-5.30579 0.1516,-0.83376 -0.15158,-3.86564 0.37899,-5.15419 0.53057,-1.28855 0.53057,-3.107665 0.90956,-4.850995 0.37898,-1.74333 -0.0758,-1.36435 0.83378,-3.56246 0.90956,-2.19811 0.83375,-0.75797 0.98536,-2.65289 0.15158,-1.89492 0.75795,-0.75797 0.83375,-2.34971 l 0.03383,-2.456604 29.28015,0.01094 8.200293,-0.267977 z" sodipodi:nodetypes="cssssssscsscscsssssccscsssssssccccc"/>
    </g>
</svg>