<svg xmlns:inkscape="http://www.inkscape.org/namespaces/inkscape" xmlns:sodipodi="http://sodipodi.sourceforge.net/DTD/sodipodi-0.dtd" xmlns="http://www.w3.org/2000/svg" xmlns:svg="http://www.w3.org/2000/svg" width="440mm" height="300mm" viewBox="0 0 440 300" version="1.1" id="SVGRoot" sodipodi:docname="all.svg" inkscape:version="1.1.1 (3bf5ae0d25, 2021-09-20, custom)">
  <sodipodi:namedview id="namedview345" pagecolor="#ffffff" bordercolor="#666666" borderopacity="1.0" inkscape:pageshadow="2" inkscape:pageopacity="0.0" inkscape:pagecheckerboard="0" inkscape:document-units="mm" showgrid="false" inkscape:zoom="42.728027" inkscape:cx="440.9986" inkscape:cy="1082.9777" inkscape:window-width="1916" inkscape:window-height="1030" inkscape:window-x="0" inkscape:window-y="0" inkscape:window-maximized="1" inkscape:current-layer="layer1"/>
  <defs id="defs340"/>
  <g inkscape:label="Warstwa 1" inkscape:groupmode="layer" id="layer1">
    <path id="western_europe" style="display:inline;overflow:visible;visibility:visible;fill:none;fill-opacity:1;fill-rule:evenodd;stroke:#ff0000;stroke-width:0.606375;marker:none;marker-start:none;marker-mid:none;marker-end:none;enable-background:accumulate" d="m 206.13305,117.97555 c -0.69675,-0.10719 -0.69675,0.26798 -0.80394,0.48237 -0.1072,0.21438 -0.53596,0.80394 -0.91114,1.17912 -0.37518,0.37518 -0.32158,0.80395 -0.1072,1.33991 0.21439,0.53597 0.21439,1.01834 0.21439,1.92948 0,0.91114 -0.64316,0.80395 -0.64316,0.80395 0,0 -0.53596,0.58956 -0.64316,0.80394 -0.10719,0.21439 0.53597,0.75036 0.53597,0.75036 0,0 1.12552,0.75035 1.33991,1.01833 0.21439,0.26798 0.0536,1.12553 -0.0536,1.5543 -0.1072,0.42878 -0.64316,0.85754 -1.07193,0.96474 -0.42878,0.10719 0,1.17912 0.96473,2.03667 0.96474,0.85754 0.35224,1.05222 0.35224,1.05222 0,0 -0.55435,0.0942 -0.85754,0.32157 -0.30319,0.2274 -0.0758,0.2274 -0.37898,0.60638 -0.30319,0.37899 -0.22739,0.45478 -0.75797,0.60638 -0.53058,0.15159 -0.0758,0.45478 -0.60638,0.37898 -0.53058,-0.0758 -0.45478,0.15159 -0.75797,-0.15159 -0.30319,-0.30319 -0.0758,-0.68217 -0.60637,-0.68217 -0.53058,0 -0.75797,0.0758 -0.53058,-0.37899 0.22739,-0.45478 0.53058,-0.45478 -0.0758,-0.45478 -0.60638,0 -0.53058,0.15159 -1.28855,0 -0.75797,-0.1516 -1.06115,-0.0758 -1.36434,-0.0758 l -0.83377,1.51594 c 0,0 0.0758,0.30319 0,0.68217 -0.0758,0.37899 -0.37898,0.68218 -0.37898,0.68218 0,0 -0.22739,0.22739 -0.22739,0.68217 0,0.45478 0.15159,0.53057 -0.30319,0.98536 -0.45478,0.45478 -0.45478,0.60637 -0.75797,0.75797 -0.30319,0.15159 -0.30319,0.0758 -0.53058,0.37898 -0.22739,0.30319 -0.37898,0.30319 -0.53058,0.68217 -0.15159,0.37899 -0.15159,0.37899 0.0758,0.75797 0.22739,0.37899 0.37898,0.83377 0.37898,0.83377 0,0 0.22739,0.0758 0.0758,0.75797 -0.15159,0.68217 -0.22739,1.13695 -0.22739,1.13695 0,0 0,0.30319 0.0758,0.90956 0.0758,0.60638 0.60637,1.28855 0.60637,1.28855 l 0.37899,0.53058 c 0,0 0.22739,0.90956 0.30319,1.36435 0.0758,0.45478 0.75797,0.30319 0.0758,0.90956 -0.68217,0.60637 -1.66753,0.98536 -2.3497,2.12231 -0.68218,1.13696 -0.45479,2.04652 -0.98536,2.6529 -0.53058,0.60637 -0.0758,0.68217 -0.75797,0.68217 -0.68217,0 -1.28855,-0.75797 -1.66754,0 -0.37898,0.75797 -0.60637,1.44014 -1.13695,1.51594 -0.53058,0.0758 -0.60638,-0.83377 -0.60638,0.22739 0,1.06116 -0.22739,1.74333 -0.22739,1.74333 0,0 -0.15159,0.53058 -0.68217,0.45478 -0.53058,-0.0758 -0.60637,-0.1516 -1.06116,-0.22739 -0.45478,-0.0758 -0.45478,0.22739 -0.83376,-0.22739 -0.37898,-0.45478 -0.45478,-0.68217 -0.60638,-1.06116 -0.15159,-0.37898 -0.15159,-0.53058 -0.75797,-0.60638 -0.60637,-0.0758 -0.60637,0.1516 -0.90956,-0.37898 -0.30319,-0.53058 -0.45478,-0.68217 -0.90956,-0.60637 -0.45478,0.0758 -0.45478,0.37898 -1.06116,-0.2274 -0.60637,-0.60637 -0.60637,-1.06115 -0.90956,-0.98536 -0.30319,0.0758 -0.68217,0.60638 -0.68217,0.60638 0,0 0.0758,0.30319 -0.83377,0.22739 -0.90956,-0.0758 -1.06116,-0.22739 -1.74333,-0.22739 -0.68217,0 -0.75797,0.45478 -1.36434,0.15159 -0.60638,-0.30318 -0.68218,-0.37898 -0.68218,-0.75797 0,-0.37898 0.0758,-0.90956 -0.22739,-1.21275 -0.30319,-0.30318 0.0758,-0.68217 -0.37898,-0.90956 -0.45478,-0.22739 -0.22739,-0.15159 -0.75797,-0.15159 -0.53058,0 -0.53058,0.0758 -1.06116,-0.2274 -0.53058,-0.30318 -0.75797,0.1516 -0.53058,-0.68217 0.22739,-0.83376 0.0758,-0.75797 0.45478,-1.36434 0.37899,-0.60638 0.37899,-0.60638 0.60638,-1.28855 0.22739,-0.68217 0.30319,-0.83377 0.68217,-1.81912 0.37899,-0.98537 0.53058,-0.68218 0.53058,-1.44015 0,-0.75797 -0.30319,-0.75797 0.15159,-1.28854 0.45479,-0.53058 0.53058,-0.53058 0.45479,-1.13696 -0.0758,-0.60637 0.15159,-0.45478 -0.1516,-0.90956 -0.30319,-0.45478 -1.06115,-1.13696 -1.36434,-1.44015 -0.30319,-0.30318 -0.22739,0.0758 -0.37899,-0.83376 -0.15159,-0.90956 -0.45478,-0.75797 -0.60637,-1.28855 -0.1516,-0.53058 -0.1516,-0.53058 -0.1516,-1.21275 0,-0.68217 -0.53058,-0.45478 -0.53058,-0.83377 0,-0.37898 -0.22739,-0.68217 0.30319,-0.98535 0.53058,-0.30319 0.60638,-0.0758 1.28855,-0.68218 0.68217,-0.60637 0.68217,-0.45478 0.83377,-0.98536 0.15159,-0.53058 0.68217,-0.83376 0.68217,-0.83376 0,0 -0.0758,0.0758 0.37898,0.53057 0.45479,0.45478 0.53058,0.45478 0.60638,0.75797 0.0758,0.30319 -0.22739,0.37899 0.68217,0.60638 0.90956,0.22739 0.68217,0.30319 1.59174,0.30319 0.90956,0 1.13695,0.0758 1.51594,-0.0758 0.37898,-0.15159 0.75797,-0.37899 0.75797,-0.37899 0,0 0.30318,-0.22739 0.83376,-0.22739 0.53058,0 0.60638,-0.0758 1.06116,0.0758 0.45478,0.15159 0.0758,0.22739 0.53058,0.15159 0.45478,-0.0758 0.53057,0.0758 0.90956,-0.15159 0.37898,-0.22739 0.60638,0.15159 0.83377,-0.53058 0.22739,-0.68217 0,-0.90956 0.60637,-1.36434 0.60638,-0.45478 0.83377,-0.60638 1.44014,-0.60638 0.60638,0 -0.37898,-0.98536 -0.75797,-1.06115 -0.37898,-0.0758 -0.60637,0.30318 -0.60637,-0.0758 0,-0.37899 -0.0758,-0.45478 0.15159,-1.06116 0.22739,-0.60637 0.68217,-0.98536 0.68217,-0.98536 0,0 -0.0758,-0.30319 -0.15159,-0.83376 -0.0758,-0.53058 0.98536,-0.83377 0.30319,-1.28855 -0.68217,-0.45478 -0.98536,-0.68217 -1.44014,-0.68217 -0.45478,0 -0.37899,0.75796 -0.75797,-0.1516 -0.37899,-0.90956 -0.0758,-1.06116 -0.45479,-1.51594 -0.37898,-0.45478 -0.53057,-0.30318 -0.90956,-0.83376 -0.37898,-0.53058 0.1516,-0.45479 -0.68217,-1.06116 -0.83377,-0.60638 -1.36434,-0.75797 -1.74333,-0.75797 -0.37898,0 -0.53058,0.53058 -0.45478,-0.22739 0.0758,-0.75797 0.0758,-0.98536 0.60638,-1.44014 0.53057,-0.45478 1.89492,-0.83377 2.4255,-0.90957 0.53057,-0.0758 -0.30319,-0.30318 0.83376,-0.0758 1.13696,0.22739 0.75797,0.22739 1.28855,0.30319 0.53058,0.0758 1.51594,0.37898 1.51594,0.37898 0,0 0.15159,-1.13696 0.45478,-1.51594 0.30319,-0.37898 0.37899,-0.37898 0.60638,-0.98536 0.22739,-0.60637 0.30318,-0.68217 1.06115,-0.90956 0.75797,-0.22739 1.28855,0.37898 1.28855,0.37898 0,0 -0.98536,0.98536 -0.22739,0.60638 0.75797,-0.37899 -0.22739,-1.59174 1.44014,-1.36435 1.66753,0.22739 2.27391,1.21275 2.5013,0.0758 0.22739,-1.13695 0,-1.13695 0.37899,-1.74333 0.37898,-0.60638 0.37898,-0.60638 1.06115,-0.98536 0.68218,-0.37898 0.53058,-1.51594 1.36435,-1.66753 0.83376,-0.1516 0.53058,0 1.28854,-0.1516 0.75798,-0.15159 0.68218,0 1.13696,-0.53057 0,0 0.72007,0.18949 0.68217,0.45478 -0.0379,0.26529 0.60638,1.93282 0.60638,1.93282 0,0 0.79587,0.49268 1.32644,1.25065 0.53058,0.75797 0.79587,1.44014 1.06116,1.51594 0.26529,0.0758 0.41688,0.0758 0.49268,0.56847 0.0758,0.49268 0.1137,0.56848 0.34109,0.87167 0.22739,0.30319 0.56847,0.26529 0.64427,0.72007 0.0758,0.45478 0.18949,0.94746 0.37898,1.17485 0.1895,0.22739 0.75798,0.64428 0.75798,0.64428 0,0 0.49268,0.45478 0.54747,0.35394 z" sodipodi:nodetypes="csssscscssssccssssssssccscsssssscscsccsssssssscssssssssscsssssssssssssssssssssssscssssscsssssssssscssssssssssssscssscsssssssc"/>
    </g>
</svg>